<?xml version="1.0" standalone="no"?>
<!DOCTYPE svg PUBLIC "-//W3C//DTD SVG 20010904//EN"
 "http://www.w3.org/TR/2001/REC-SVG-20010904/DTD/svg10.dtd">
<svg version="1.0" xmlns="http://www.w3.org/2000/svg"
 width="1024.000000pt" height="1024.000000pt" viewBox="0 0 1024.000000 1024.000000"
 preserveAspectRatio="xMidYMid meet">
<metadata>
Created by potrace 1.14, written by Peter Selinger 2001-2017
</metadata>
<g transform="translate(0.000000,1024.000000) scale(0.100000,-0.100000)"
fill="#000000" stroke="none">
<path d="M2052 6988 l3 -3253 610 0 c336 -1 615 1 621 3 9 2 12 494 11 1903 0
1045 2 1902 5 1905 3 2 11 -10 18 -28 8 -18 44 -98 82 -177 37 -79 68 -144 68
-146 0 -2 29 -63 63 -136 35 -74 72 -152 82 -174 10 -22 45 -96 77 -164 32
-68 58 -125 58 -126 0 -2 25 -56 56 -121 31 -66 101 -216 156 -334 55 -118
118 -253 140 -300 22 -47 53 -113 68 -146 16 -34 46 -99 68 -145 22 -46 86
-183 142 -304 57 -121 121 -258 142 -305 66 -139 102 -217 173 -370 37 -80 83
-179 102 -220 20 -41 48 -102 63 -135 15 -33 50 -107 77 -165 28 -58 72 -151
98 -208 l48 -102 17 28 c10 16 21 38 24 50 4 12 39 87 77 167 38 80 69 147 69
149 0 3 32 71 70 151 39 80 70 148 70 150 0 2 22 50 49 107 146 307 171 361
171 363 0 2 27 61 61 132 34 70 72 153 86 183 50 108 152 327 198 425 26 55
90 192 142 305 53 113 116 248 140 300 25 52 56 120 70 150 14 30 45 98 70
150 25 52 71 151 103 220 32 69 76 163 97 210 80 170 108 228 189 405 l84 180
0 -1911 c0 -1521 3 -1913 13 -1916 6 -2 287 -4 622 -3 l610 1 2 3252 3 3252
-625 0 -624 0 -27 -57 c-15 -32 -39 -85 -54 -118 -15 -33 -49 -105 -75 -160
-50 -106 -72 -154 -348 -745 -96 -206 -193 -413 -215 -460 -22 -47 -52 -112
-67 -145 -61 -132 -94 -204 -138 -295 -25 -52 -106 -225 -180 -385 -74 -159
-153 -328 -175 -375 -22 -47 -83 -178 -136 -293 -53 -114 -111 -240 -130 -280
-19 -39 -79 -168 -134 -285 -55 -117 -103 -213 -108 -214 -5 0 -35 56 -66 123
-61 133 -114 245 -188 404 -26 55 -75 161 -110 235 -75 163 -126 271 -191 407
-27 57 -49 105 -49 107 0 3 -25 58 -56 123 -31 65 -85 181 -121 258 -36 77
-89 191 -119 254 -30 62 -54 114 -54 116 0 2 -31 69 -70 150 -38 81 -70 148
-70 150 0 1 -28 61 -61 131 -34 71 -71 152 -84 179 -38 83 -94 204 -151 323
-30 62 -54 114 -54 116 0 2 -25 57 -56 122 -31 66 -87 186 -125 268 -38 82
-91 193 -116 248 l-47 98 -623 0 -623 0 2 -3252z"/>
<path d="M6147 3273 c-8 -16 -19 -50 -26 -76 -6 -26 -48 -161 -93 -300 -44
-139 -83 -262 -85 -274 -13 -56 -79 -85 -243 -105 -101 -12 -120 -20 -120 -49
0 -43 95 -59 206 -34 41 9 78 14 82 11 5 -6 -2 -47 -23 -146 -10 -45 -37 -157
-41 -171 -2 -9 -48 -51 -102 -94 -53 -42 -106 -85 -117 -94 -54 -45 -361 -268
-461 -334 -40 -26 -81 -47 -93 -47 -27 0 -99 34 -131 63 -103 91 -146 255
-104 396 38 129 180 346 277 422 61 49 87 50 125 4 64 -78 63 -153 -2 -319
-25 -63 -46 -126 -46 -139 0 -38 34 -61 89 -60 135 2 247 181 236 379 -6 122
-64 203 -173 244 -70 27 -252 21 -334 -10 -156 -58 -315 -270 -358 -474 -15
-74 -16 -169 -1 -223 l11 -41 -57 -59 c-84 -85 -215 -224 -318 -338 -215 -238
-334 -319 -513 -351 -38 -7 -59 4 -77 42 -37 78 -10 379 40 447 9 13 31 20 72
23 143 11 297 85 419 201 129 121 195 301 150 407 -68 164 -313 201 -471 71
-105 -86 -256 -313 -395 -595 -4 -8 -16 -48 -26 -89 -19 -73 -20 -75 -77 -112
-118 -76 -364 -160 -449 -153 -48 4 -86 26 -97 57 -10 28 1 59 82 234 96 205
100 214 170 393 136 348 195 558 236 842 32 220 25 251 -61 288 -82 35 -105
40 -140 28 -71 -25 -117 -107 -228 -403 -109 -290 -119 -326 -261 -899 -34
-137 -48 -161 -224 -366 -59 -69 -170 -209 -247 -313 -148 -198 -182 -234
-203 -217 -10 8 -10 21 -3 53 5 23 12 53 14 67 3 14 11 59 19 100 8 41 17 91
20 110 4 19 11 55 16 80 10 43 14 63 23 112 15 88 83 329 111 394 21 49 28 90
21 120 -16 61 -144 106 -186 64 -11 -11 -20 -28 -21 -37 -1 -37 -11 -73 -64
-234 -47 -142 -63 -198 -91 -324 -3 -11 -7 -31 -10 -45 -2 -14 -7 -36 -10 -50
-9 -37 -13 -60 -19 -101 -3 -20 -12 -72 -20 -115 -7 -44 -13 -127 -12 -185 2
-122 10 -138 86 -172 62 -28 130 -24 193 10 90 49 174 156 308 388 92 160 240
374 225 325 -2 -8 -11 -73 -20 -145 -9 -71 -18 -141 -20 -155 -6 -42 -14 -111
-20 -175 -3 -33 -8 -71 -10 -84 -2 -14 -7 -54 -11 -90 -4 -36 -8 -79 -10 -96
-28 -260 -25 -410 10 -526 47 -153 131 -217 296 -225 92 -4 140 15 192 75 109
127 148 597 77 916 -30 132 -32 150 -17 162 7 5 51 22 98 38 87 28 158 63 244
121 28 19 51 32 52 31 1 -1 4 -44 7 -94 9 -143 45 -191 182 -243 43 -16 84
-23 145 -24 103 -1 179 20 300 82 146 75 216 137 390 343 25 29 52 60 61 68
28 28 123 156 144 194 19 35 35 48 35 27 0 -16 133 -144 187 -180 29 -19 53
-42 53 -51 0 -15 -43 -87 -59 -99 -22 -16 -156 -188 -204 -260 -71 -109 -98
-172 -99 -232 0 -60 21 -94 74 -118 118 -53 309 42 541 270 126 124 127 125
127 171 0 58 -16 89 -86 169 -103 119 -104 123 -17 185 105 74 383 285 483
365 54 44 100 80 103 80 2 0 1 -19 -3 -42 -9 -45 -16 -92 -25 -168 -3 -25 -8
-61 -10 -80 -49 -359 2 -615 139 -695 84 -49 188 -19 270 77 51 59 194 301
251 423 26 55 69 145 95 201 48 99 55 136 26 147 -24 9 -44 -16 -171 -223
-134 -216 -191 -293 -304 -413 -50 -52 -56 -56 -70 -42 -13 13 -16 45 -18 168
-2 143 9 255 37 377 6 25 12 61 15 80 3 31 11 74 30 170 3 14 8 39 10 55 37
210 80 418 94 450 23 53 31 58 158 113 111 49 146 80 121 109 -16 19 -39 16
-130 -17 -45 -16 -83 -30 -84 -30 -1 0 17 55 41 123 46 132 44 128 85 237 35
94 42 135 27 169 -27 59 -100 111 -159 111 -31 0 -40 -5 -51 -27z m-2920 -400
c-19 -149 -140 -558 -226 -769 -105 -254 -136 -313 -155 -293 -6 5 40 192 85
349 85 294 262 750 290 750 7 0 9 -14 6 -37z m913 -643 c25 -14 52 -106 51
-175 -1 -93 -27 -132 -161 -245 -36 -30 -67 -57 -70 -60 -3 -3 -17 -11 -32
-19 -16 -8 -28 -18 -28 -23 0 -4 -4 -8 -10 -8 -5 0 -32 -13 -60 -30 -55 -33
-90 -38 -90 -15 0 35 175 361 258 479 27 39 63 77 82 88 41 21 36 21 60 8z
m863 -859 c31 -12 87 -91 87 -123 0 -40 -140 -199 -241 -274 l-34 -25 -17 21
c-33 41 -6 136 71 249 23 33 44 69 48 78 6 19 51 83 58 83 2 0 15 -4 28 -9z
m-2204 -206 c54 -80 71 -171 76 -405 4 -173 -1 -234 -30 -375 -16 -80 -88
-215 -124 -234 -26 -14 -37 1 -57 80 -23 91 -23 450 0 589 3 14 7 48 11 75 3
28 8 59 10 70 3 11 7 36 9 55 12 79 54 190 70 184 6 -2 22 -20 35 -39z"/>
<path d="M1471 2984 c-17 -7 -31 -14 -31 -16 0 -2 -11 -34 -25 -73 -52 -143
-374 -1114 -404 -1215 -31 -106 -87 -330 -97 -385 -3 -16 -9 -48 -14 -70 -5
-22 -12 -56 -15 -75 -3 -19 -10 -60 -15 -90 -6 -30 -13 -75 -16 -100 -3 -25
-7 -56 -10 -70 -2 -14 -7 -83 -10 -155 -10 -207 27 -321 123 -384 77 -51 140
-65 293 -66 206 0 295 14 470 78 103 38 281 116 345 152 201 113 254 163 163
153 -41 -5 -82 -21 -158 -64 -45 -26 -175 -74 -320 -118 -352 -107 -496 -126
-575 -75 -82 54 -116 164 -94 311 4 29 10 73 13 98 7 60 25 188 31 214 2 12 7
37 9 56 3 19 10 60 16 90 7 30 14 69 17 85 3 23 68 276 107 425 2 8 38 114 79
235 42 121 102 299 135 395 33 96 78 236 102 310 23 74 46 148 51 164 15 48
11 60 -40 128 -54 71 -79 83 -130 62z"/>
<path d="M8805 2795 c-131 -33 -205 -101 -356 -331 -195 -296 -239 -410 -245
-634 -4 -198 25 -269 135 -321 113 -54 256 -58 389 -13 111 37 197 96 312 214
100 102 105 109 190 220 36 47 67 87 70 90 28 28 84 106 95 134 13 31 13 37
-2 51 -16 16 -34 15 -87 -5 -32 -12 -136 -116 -196 -195 -25 -33 -47 -62 -50
-65 -3 -3 -31 -37 -63 -76 -94 -117 -167 -178 -272 -229 -210 -102 -309 -38
-291 189 6 83 36 183 58 198 7 4 29 10 48 13 94 15 141 29 228 70 162 77 283
166 333 245 70 110 55 302 -29 383 -62 59 -173 85 -267 62z m119 -85 c19 -7
29 -22 42 -67 45 -156 11 -234 -159 -367 -149 -116 -275 -181 -278 -145 -3 36
8 63 73 182 132 244 200 343 268 390 29 20 23 19 54 7z"/>
<path d="M7732 2710 c-26 -28 -98 -268 -127 -425 -27 -147 -45 -273 -59 -415
-8 -76 -14 -151 -21 -245 -7 -99 -20 -147 -50 -194 -42 -64 -38 -82 24 -113
95 -48 158 -32 201 52 11 21 34 87 50 147 80 280 185 543 285 712 70 118 113
163 190 199 95 46 111 96 42 130 -21 10 -33 10 -73 -4 -140 -47 -279 -195
-356 -377 -17 -40 -39 -91 -49 -114 -10 -23 -19 -46 -19 -51 0 -4 -6 -17 -14
-28 -13 -17 -14 -14 -11 30 2 26 11 76 19 110 8 33 17 72 20 86 21 122 31 168
52 253 32 125 37 182 18 218 -26 51 -88 66 -122 29z"/>
<path d="M6666 2472 c-45 -6 -106 -49 -122 -87 -31 -76 28 -237 130 -351 l32
-36 -47 -91 c-90 -176 -145 -391 -128 -500 16 -102 112 -170 238 -170 206 1
376 129 484 364 43 95 61 172 60 265 -1 90 -18 130 -89 205 -35 38 -64 77 -64
87 0 10 17 32 37 48 54 43 64 55 80 91 10 24 11 39 3 53 -14 26 -35 30 -105
23 -129 -13 -158 -9 -210 25 -88 58 -203 87 -299 74z m127 -96 c34 -14 80 -60
90 -88 4 -11 -8 -39 -32 -75 -20 -32 -49 -77 -64 -101 -27 -42 -28 -42 -56
-27 -72 37 -100 200 -47 270 30 39 56 44 109 21z m238 -323 c51 -119 78 -232
74 -311 -8 -160 -145 -335 -308 -396 -45 -17 -50 -17 -65 -2 -36 36 -18 189
40 320 31 73 227 436 235 436 2 0 13 -21 24 -47z"/>
<path d="M2123 2369 c-28 -10 -41 -35 -41 -81 0 -46 19 -64 78 -71 25 -4 56
-9 70 -12 51 -12 91 50 67 103 -22 48 -119 82 -174 61z"/>
</g>
</svg>
