<svg xmlns="http://www.w3.org/2000/svg">
<defs>
<font id="DBAiry-StdBd" horiz-adv-x="0" >
  <font-face 
    font-family="DB Airy Std Bd"
    font-weight="700"
    font-stretch="normal"
    units-per-em="4096"
    panose-1="2 0 8 6 0 0 0 2 0 3"
    ascent="3276"
    descent="-820"
    x-height="1563"
    cap-height="2122"
    bbox="-2032 -1392 3237 3259"
    underline-thickness="143"
    underline-position="-531"
    unicode-range="U+0020-F880"
  />
<missing-glyph horiz-adv-x="1696" 
d="M131 569q0 95 37.5 168t98.5 122t139 74t159 25t157.5 -22t135 -67.5t94 -115.5t35.5 -167v-475h434v827h115v-934h-774v107h119v487q0 61 -24 107.5t-66 77t-99 46t-123 15.5q-61 0 -118.5 -17.5t-102 -50.5t-71.5 -81t-27 -109v-439l237 238q-11 4 -25.5 14.5t-28 27
t-23 39.5t-9.5 54q0 74 45 117t119 43q35 0 64 -13t49.5 -35t31.5 -51t11 -61q0 -29 -6.5 -51t-16.5 -38t-20.5 -27t-18.5 -19l-204 -197q-44 -40 -92 -85.5t-101 -98.5h-131v565zM1536 1618v-582q-98 31 -211.5 58t-238.5 47t-259 31.5t-274 11.5q-99 0 -194 -6t-191 -19
q24 92 78 175.5t135.5 146.5t189.5 100t240 37q127 0 229.5 -28.5t179 -70.5t128 -89.5t77.5 -86.5l-0.5 15.5t-0.5 39.5t-1 54.5t-1 61t-0.5 58t-0.5 46.5h115zM823 1294q43 -3 98 -9t114 -15t118.5 -20.5t112 -25.5t94 -30t65.5 -35q-41 81 -107 144.5t-146.5 107t-171 66
t-181.5 22.5q-69 0 -136 -13t-128.5 -40t-115 -68t-95.5 -96q74 9 147.5 12.5t147.5 3.5q46 0 92 -0.5t92 -3.5zM1753 1692q53 0 77.5 -32.5t24.5 -78.5q0 -17 -6 -33.5t-18.5 -30t-32 -22t-45.5 -8.5q-24 0 -44 8.5t-33.5 22t-21 30t-7.5 33.5q0 46 28.5 78.5t77.5 32.5z
M1753 1499q26 0 43.5 8t28 20.5t14.5 27t4 26.5q0 46 -21.5 72t-68.5 26q-46 0 -70 -26t-24 -72q0 -34 22.5 -58t71.5 -24zM627 520q0 34 -22.5 50t-47.5 16q-28 0 -49 -16t-21 -50t21 -47.5t49 -13.5q12 0 24.5 3t22.5 10.5t16.5 19t6.5 28.5zM1741 1577h-12v-57h-21v139
h45q49 0 49 -41q0 -28 -12.5 -34.5t-28.5 -6.5l41 -57h-20zM1729 1638v-57h24q29 0 29 37q0 3 -6.5 11.5t-22.5 8.5h-24z" />
    <glyph glyph-name="plusminus" unicode="&#x2b;&#x2d;" horiz-adv-x="1783" 
d="M206 0v346h1372v-346h-1372zM717 1007h-524v342h524v527h348v-527h525v-342h-525v-528h-348v528z" />
    <glyph glyph-name="ellipsis" unicode="&#x2e;&#x2e;&#x2e;" horiz-adv-x="2341" 
d="M139 470h505v-470h-505v470zM917 470h505v-470h-505v470zM1696 470h505v-470h-505v470z" />
    <glyph glyph-name="lessequal" unicode="&#x3c;&#x3d;" horiz-adv-x="1775" 
d="M1560 551l-1337 492v254l1337 512v-368l-837 -277l837 -266v-347zM1560 65l-1337 500v349l1337 -501v-348z" />
    <glyph glyph-name="greaterequal" unicode="&#x3e;&#x3d;" horiz-adv-x="1775" 
d="M223 898l837 266l-837 277v368l1337 -512v-254l-1337 -492v347zM223 413l1337 501v-349l-1337 -500v348z" />
    <glyph glyph-name="fongmanfunnuthai" unicode="&#xe4f;&#x22;" horiz-adv-x="2209" 
d="M720 1842l-85 398v176h375v-574h-290zM1205 1842v574h375l-1 -176l-84 -398h-290zM226 849q0 121 31.5 233.5t88.5 210t137 177.5t177.5 137t210 88.5t233.5 31.5t233.5 -31.5t210 -88.5t177.5 -137t137 -177.5t88.5 -210t31.5 -233.5t-31.5 -233.5t-88.5 -210
t-137 -177.5t-177.5 -137t-210 -88.5t-233.5 -31.5t-233.5 31.5t-210 88.5t-177.5 137t-137 177.5t-88.5 210t-31.5 233.5zM651 849q0 94 35.5 176.5t97 144t144 97t176.5 35.5t176.5 -35.5t144 -97t97 -144t35.5 -176.5t-35.5 -176.5t-97 -144t-144 -97t-176.5 -35.5
t-176.5 35.5t-144 97t-97 144t-35.5 176.5zM910 849q0 -40 15.5 -75t42 -61.5t61.5 -42t75 -15.5t75 15.5t61.5 42t42 61.5t15.5 75t-15.5 75t-42 61.5t-61.5 42t-75 15.5t-75 -15.5t-61.5 -42t-42 -61.5t-15.5 -75zM518 848q0 -81 21 -156t59.5 -140.5t92 -119t119 -92
t140.5 -59.5t156 -21t156 21t140.5 59.5t119 92t92 119t59.5 140.5t21 156t-21 156t-59.5 140.5t-92 119t-119 92t-140.5 59.5t-156 21t-156 -21t-140.5 -59.5t-119 -92t-92 -119t-59.5 -140.5t-21 -156z" />
    <glyph glyph-name="dochadaphinthuthai" unicode="&#xe0e;&#xe3a;" horiz-adv-x="1958" 
d="M1722 -297h-592l-307 150l-414 -200l-152 266l568 281l370 -167h79v970q0 78 -28 137.5t-75.5 99.5t-109.5 60t-129 20q-77 0 -155 -25.5t-140 -79.5q41 -27 76 -73.5t60.5 -102.5t39.5 -117t14 -119q0 -93 -19 -170t-51 -140t-74 -112.5t-88.5 -87.5t-94.5 -65t-91 -44
l-273 274q39 18 83.5 55t82 86.5t62 107t24.5 116.5q0 74 -23.5 144t-61 126.5t-85.5 96t-97 52.5q63 108 149.5 196t193 150.5t232.5 96t268 33.5q156 0 294 -47t241 -137.5t163 -223t60 -304.5v-1303zM1213 -619q0 52 22 98.5t59.5 81t88 54.5t106.5 20q58 0 109 -20
t89 -54.5t60 -81t22 -98.5q0 -51 -22 -97t-60 -80.5t-89 -54.5t-109 -20q-56 0 -106.5 20t-88 54.5t-59.5 80.5t-22 97z" />
    <glyph glyph-name="topatakphintuthai" unicode="&#xe0f;&#xe3a;" horiz-adv-x="1958" 
d="M1213 -619q0 52 22 98.5t59.5 81t88 54.5t106.5 20q58 0 109 -20t89 -54.5t60 -81t22 -98.5q0 -51 -22 -97t-60 -80.5t-89 -54.5t-109 -20q-56 0 -106.5 20t-88 54.5t-59.5 80.5t-22 97zM1722 -297h-551l-239 121l-240 -154l-438 173l131 285l276 -113l274 162l278 -144
h61v970q0 78 -28 137.5t-74.5 99.5t-108.5 60t-129 20q-77 0 -156 -25.5t-141 -79.5q41 -27 76 -73.5t60.5 -102.5t39.5 -117t14 -119q0 -93 -19 -170t-51 -140t-74 -112.5t-88.5 -87.5t-94.5 -65t-91 -44l-273 274q39 18 83.5 55t82 86.5t62 107t24.5 116.5q0 149 -68 254
t-199 165q61 105 147.5 192.5t194 150.5t234.5 98t269 35q156 0 293.5 -47t240.5 -137.5t162.5 -223t59.5 -304.5v-1303z" />
    <glyph glyph-name="dochadasarauthai" unicode="&#xe0e;&#xe38;" horiz-adv-x="1958" 
d="M1301 -1144v283q0 21 -7.5 36t-19.5 24.5t-27 13.5t-31 4q-27 0 -57 -16.5t-63 -46.5l-132 250q66 57 126 90t114 49.5t101 21t87 4.5q98 0 161.5 -34t101 -85t52.5 -109.5t15 -107.5v-377h-421zM1722 -297h-592l-307 150l-414 -200l-152 266l568 281l370 -167h79v970
q0 78 -28 137.5t-75.5 99.5t-109.5 60t-129 20q-77 0 -155 -25.5t-140 -79.5q41 -27 76 -73.5t60.5 -102.5t39.5 -117t14 -119q0 -93 -19 -170t-51 -140t-74 -112.5t-88.5 -87.5t-94.5 -65t-91 -44l-273 274q39 18 83.5 55t82 86.5t62 107t24.5 116.5q0 74 -23.5 144
t-61 126.5t-85.5 96t-97 52.5q63 108 149.5 196t193 150.5t232.5 96t268 33.5q156 0 294 -47t241 -137.5t163 -223t60 -304.5v-1303z" />
    <glyph glyph-name="topataksarauthai" unicode="&#xe0f;&#xe38;" horiz-adv-x="1958" 
d="M1301 -1144v283q0 21 -7.5 36t-19.5 24.5t-27 13.5t-31 4q-27 0 -57 -16.5t-63 -46.5l-132 250q66 57 126 90t114 49.5t101 21t87 4.5q98 0 161.5 -34t101 -85t52.5 -109.5t15 -107.5v-377h-421zM1722 -297h-551l-239 121l-240 -154l-438 173l131 285l276 -113l274 162
l278 -144h61v970q0 78 -28 137.5t-74.5 99.5t-108.5 60t-129 20q-77 0 -156 -25.5t-141 -79.5q41 -27 76 -73.5t60.5 -102.5t39.5 -117t14 -119q0 -93 -19 -170t-51 -140t-74 -112.5t-88.5 -87.5t-94.5 -65t-91 -44l-273 274q39 18 83.5 55t82 86.5t62 107t24.5 116.5
q0 149 -68 254t-199 165q61 105 147.5 192.5t194 150.5t234.5 98t269 35q156 0 293.5 -47t240.5 -137.5t162.5 -223t59.5 -304.5v-1303z" />
    <glyph glyph-name="dochadasarauuthai" unicode="&#xe0e;&#xe39;" horiz-adv-x="1958" 
d="M508 -572q99 68 188.5 96.5t173.5 28.5q81 0 132 -21.5t80.5 -56.5t40.5 -79t11 -88v-141q0 -24 11 -38.5t25.5 -22.5t29.5 -11t23 -3q7 0 22 2.5t30 10.5t26.5 22.5t11.5 39.5v372h409v-351q0 -93 -40 -163t-109 -117t-161.5 -71t-197.5 -24q-106 0 -193.5 23.5
t-150.5 68t-97.5 109t-34.5 146.5v29q0 25 -13 32.5t-25 7.5q-22 0 -44.5 -12.5t-33.5 -23.5zM1722 -297h-592l-307 150l-414 -200l-152 266l568 281l370 -167h79v970q0 78 -28 137.5t-75.5 99.5t-109.5 60t-129 20q-77 0 -155 -25.5t-140 -79.5q41 -27 76 -73.5
t60.5 -102.5t39.5 -117t14 -119q0 -93 -19 -170t-51 -140t-74 -112.5t-88.5 -87.5t-94.5 -65t-91 -44l-273 274q39 18 83.5 55t82 86.5t62 107t24.5 116.5q0 74 -23.5 144t-61 126.5t-85.5 96t-97 52.5q63 108 149.5 196t193 150.5t232.5 96t268 33.5q156 0 294 -47
t241 -137.5t163 -223t60 -304.5v-1303z" />
    <glyph glyph-name="topataksarauuthai" unicode="&#xe0f;&#xe39;" horiz-adv-x="1958" 
d="M508 -572q99 68 188.5 96.5t173.5 28.5q81 0 132 -21.5t80.5 -56.5t40.5 -79t11 -88v-141q0 -24 11 -38.5t25.5 -22.5t29.5 -11t23 -3q7 0 22 2.5t30 10.5t26.5 22.5t11.5 39.5v372h409v-351q0 -93 -40 -163t-109 -117t-161.5 -71t-197.5 -24q-106 0 -193.5 23.5
t-150.5 68t-97.5 109t-34.5 146.5v29q0 25 -13 32.5t-25 7.5q-22 0 -44.5 -12.5t-33.5 -23.5zM1722 -297h-551l-239 121l-240 -154l-438 173l131 285l276 -113l274 162l278 -144h61v970q0 78 -28 137.5t-74.5 99.5t-108.5 60t-129 20q-77 0 -156 -25.5t-141 -79.5
q41 -27 76 -73.5t60.5 -102.5t39.5 -117t14 -119q0 -93 -19 -170t-51 -140t-74 -112.5t-88.5 -87.5t-94.5 -65t-91 -44l-273 274q39 18 83.5 55t82 86.5t62 107t24.5 116.5q0 149 -68 254t-199 165q61 105 147.5 192.5t194 150.5t234.5 98t269 35q156 0 293.5 -47
t240.5 -137.5t162.5 -223t59.5 -304.5v-1303z" />
    <glyph glyph-name=".notdef" horiz-adv-x="1696" 
d="M131 569q0 95 37.5 168t98.5 122t139 74t159 25t157.5 -22t135 -67.5t94 -115.5t35.5 -167v-475h434v827h115v-934h-774v107h119v487q0 61 -24 107.5t-66 77t-99 46t-123 15.5q-61 0 -118.5 -17.5t-102 -50.5t-71.5 -81t-27 -109v-439l237 238q-11 4 -25.5 14.5t-28 27
t-23 39.5t-9.5 54q0 74 45 117t119 43q35 0 64 -13t49.5 -35t31.5 -51t11 -61q0 -29 -6.5 -51t-16.5 -38t-20.5 -27t-18.5 -19l-204 -197q-44 -40 -92 -85.5t-101 -98.5h-131v565zM1536 1618v-582q-98 31 -211.5 58t-238.5 47t-259 31.5t-274 11.5q-99 0 -194 -6t-191 -19
q24 92 78 175.5t135.5 146.5t189.5 100t240 37q127 0 229.5 -28.5t179 -70.5t128 -89.5t77.5 -86.5l-0.5 15.5t-0.5 39.5t-1 54.5t-1 61t-0.5 58t-0.5 46.5h115zM823 1294q43 -3 98 -9t114 -15t118.5 -20.5t112 -25.5t94 -30t65.5 -35q-41 81 -107 144.5t-146.5 107t-171 66
t-181.5 22.5q-69 0 -136 -13t-128.5 -40t-115 -68t-95.5 -96q74 9 147.5 12.5t147.5 3.5q46 0 92 -0.5t92 -3.5zM1753 1692q53 0 77.5 -32.5t24.5 -78.5q0 -17 -6 -33.5t-18.5 -30t-32 -22t-45.5 -8.5q-24 0 -44 8.5t-33.5 22t-21 30t-7.5 33.5q0 46 28.5 78.5t77.5 32.5z
M1753 1499q26 0 43.5 8t28 20.5t14.5 27t4 26.5q0 46 -21.5 72t-68.5 26q-46 0 -70 -26t-24 -72q0 -34 22.5 -58t71.5 -24zM627 520q0 34 -22.5 50t-47.5 16q-28 0 -49 -16t-21 -50t21 -47.5t49 -13.5q12 0 24.5 3t22.5 10.5t16.5 19t6.5 28.5zM1741 1577h-12v-57h-21v139
h45q49 0 49 -41q0 -28 -12.5 -34.5t-28.5 -6.5l41 -57h-20zM1729 1638v-57h24q29 0 29 37q0 3 -6.5 11.5t-22.5 8.5h-24z" />
    <glyph glyph-name=".null" 
 />
    <glyph glyph-name="nonmarkingreturn" horiz-adv-x="1159" 
 />
    <glyph glyph-name="space" unicode=" " horiz-adv-x="1022" 
 />
    <glyph glyph-name="exclam" unicode="!" horiz-adv-x="834" 
d="M175 1873v272h484v-272l-69 -1186h-346zM164 470h505v-470h-505v470z" />
    <glyph glyph-name="quotedbl" unicode="&#x22;" horiz-adv-x="1436" 
d="M857 2136h431v-81l-199 -885h-295zM231 2136h434v-61l-200 -905h-297z" />
    <glyph glyph-name="numbersign" unicode="#" horiz-adv-x="2154" 
d="M179 1597h335l76 525h409l-76 -525h459l76 525h409l-76 -525h256v-314h-301l-64 -442h277v-314h-322l-76 -527h-409l76 527h-459l-76 -527h-409l76 527h-269v314h314l64 442h-290v314zM814 841h459l64 442h-459z" />
    <glyph glyph-name="dollar" unicode="$" horiz-adv-x="1934" 
d="M899 2353h263v-240q75 -10 152 -32t157.5 -61t166.5 -97.5t179 -140.5l-261 -301q-120 99 -217 150.5t-177 73.5v-470q202 -50 335 -114t211 -143t107 -173.5t23 -205.5q-8 -132 -65.5 -236.5t-149.5 -179.5t-211.5 -120.5t-249.5 -61.5v-292h-263v291q-94 10 -194.5 37
t-201.5 74.5t-201 117t-193 164.5l287 302q58 -61 121 -109t127.5 -83t129 -58.5t125.5 -35.5v479q-200 46 -329 113t-204 150.5t-104 180t-29 202.5q0 129 54.5 231t146 175.5t212 118t253.5 57.5v237zM1386 590q0 32 -8 62.5t-32 59t-68 55.5t-116 53v-414q45 7 85.5 20.5
t71.5 35.5t49 53.5t18 74.5zM685 1548q0 -43 10 -78.5t35 -64.5t66 -54t103 -47v413q-46 -9 -85.5 -25.5t-68 -38.5t-44.5 -48.5t-16 -56.5z" />
    <glyph glyph-name="percent" unicode="%" horiz-adv-x="2628" 
d="M1829 2122h452l-1471 -2122h-452zM441 1621q0 -55 16 -96t41.5 -68.5t57.5 -41t63 -13.5q30 0 60.5 13.5t54.5 41t39 68.5t15 96t-15 96t-39 68.5t-54.5 41t-60.5 13.5q-31 0 -63 -13.5t-57.5 -41t-41.5 -68.5t-16 -96zM1139 1621q0 -137 -43.5 -238.5t-115.5 -169
t-166 -100.5t-195 -33t-196 36t-169 105t-119 170t-45 230t45 230t119 170t169 105t196 36t195 -33t166 -100.5t115.5 -169t43.5 -238.5zM1839 513q0 -55 16 -96t41.5 -68.5t57.5 -41t63 -13.5q30 0 60.5 13.5t54.5 41t39 68.5t15 96t-15 96t-39 68.5t-54.5 41t-60.5 13.5
q-31 0 -63 -13.5t-57.5 -41t-41.5 -68.5t-16 -96zM2537 513q0 -137 -43.5 -238.5t-115.5 -169t-166 -100.5t-195 -33t-196 36t-169 105t-119 170t-45 230t45 230t119 170t169 105t196 36t195 -33t166 -100.5t115.5 -169t43.5 -238.5z" />
    <glyph glyph-name="ampersand" unicode="&#x26;" horiz-adv-x="2089" 
d="M1991 972q-20 -72 -42 -136.5t-47.5 -123t-54.5 -111.5t-64 -103l247 -245l-292 -297l-240 237q-148 -112 -305.5 -160t-322.5 -48q-90 0 -180.5 20t-173 58.5t-154 94.5t-124 128t-82.5 158t-30 186q0 75 22.5 148t71.5 143.5t124.5 137t182.5 127.5q-48 62 -81.5 119.5
t-54.5 111t-30 104t-9 98.5q0 97 40 190t120.5 166.5t201.5 118.5t283 45t279 -42t192 -113t110.5 -166t35.5 -200q0 -88 -30.5 -161t-86.5 -136.5t-134.5 -121t-174.5 -115.5l300 -292q43 69 73 152.5t50 175.5zM871 370q39 0 83 4.5t89 16.5t89.5 32.5t84.5 52.5l-426 424
q-63 -34 -104 -68t-65 -67.5t-33.5 -68t-9.5 -70.5q0 -60 25 -107.5t65.5 -80.5t93 -50.5t108.5 -17.5zM781 1618q0 -17 2 -39.5t12.5 -51t33.5 -63.5t65 -77l28 -24q71 30 121 62t81.5 65t46 65.5t14.5 63.5q0 41 -14 71.5t-39.5 50.5t-61 30t-78.5 10q-54 0 -93.5 -15.5
t-65.5 -39.5t-39 -52.5t-13 -55.5z" />
    <glyph glyph-name="quotesingle" unicode="'" horiz-adv-x="813" 
d="M231 2136h434v-61l-200 -905h-297z" />
    <glyph glyph-name="parenleft" unicode="(" horiz-adv-x="1392" 
d="M1001 -609q-212 137 -368.5 306t-259.5 364t-154 413t-51 452q0 235 53.5 451t157 409.5t255 361.5t348.5 308l200 -307q-286 -234 -436.5 -535.5t-150.5 -687.5q0 -193 39.5 -366t115.5 -325.5t187 -285t254 -244.5l-190 -314v0z" />
    <glyph glyph-name="parenright" unicode=")" horiz-adv-x="1393" 
d="M202 -295q143 112 254 244.5t187 285t115.5 325.5t39.5 366q0 386 -150.5 687.5t-436.5 535.5l200 307q197 -140 348.5 -308t255 -361.5t157 -409.5t53.5 -451q0 -234 -51 -452t-154 -413t-260 -364t-368 -306z" />
    <glyph glyph-name="asterisk" unicode="*" horiz-adv-x="1250" 
d="M527 1484l-238 -208l-156 267l303 111l-303 113l157 267l236 -208l-55 319h309l-58 -320l237 209l158 -267l-306 -113l306 -111l-158 -267l-237 207l58 -321h-309z" />
    <glyph glyph-name="plus" unicode="+" horiz-adv-x="1782" 
d="M716 857h-524v342h524v527h348v-527h525v-342h-525v-528h-348v528z" />
    <glyph glyph-name="comma" unicode="," horiz-adv-x="897" 
d="M210 470h505v-355q0 -100 -34 -195t-94 -174t-142.5 -137t-180.5 -83l-86 183q66 25 111 60.5t73.5 75.5t43.5 80t21 75h-217v470z" />
    <glyph glyph-name="hyphen" unicode="-" horiz-adv-x="1372" 
d="M188 1212h995v-366h-995v366z" />
    <glyph glyph-name="period" unicode="." horiz-adv-x="883" 
d="M189 470h505v-470h-505v470z" />
    <glyph glyph-name="slash" unicode="/" horiz-adv-x="1804" 
d="M1400 2382h421l-1368 -2729h-420z" />
    <glyph glyph-name="zero" unicode="0" horiz-adv-x="1849" 
d="M925 368q85 0 147.5 52t104 143.5t61.5 216t20 268.5q0 150 -20 275.5t-61.5 216t-104.5 141t-148 50.5t-147.5 -50.5t-104 -141t-62 -216t-20.5 -275.5q0 -144 20.5 -268.5t62 -216t104.5 -143.5t148 -52zM925 -29q-123 0 -230 36t-195.5 102.5t-158 162t-117 214.5
t-72.5 259t-25 297q0 236 54 435t157 344t251 226t336 81q125 0 232.5 -37t196 -105t157 -165t115.5 -218t71 -262.5t24 -298.5q0 -152 -24.5 -290t-72 -257t-116.5 -216t-157.5 -165.5t-195.5 -105.5t-230 -37z" />
    <glyph glyph-name="one" unicode="1" horiz-adv-x="1849" 
d="M236 0v401h491v1220l-378 -165l-129 376l637 279h333v-1710h464v-401h-1418z" />
    <glyph glyph-name="two" unicode="2" horiz-adv-x="1849" 
d="M151 327l738 642q74 64 135 125t105 123t68.5 125.5t24.5 132.5q0 51 -21.5 97t-59.5 81t-89 55.5t-111 20.5q-63 0 -123.5 -19.5t-119 -61.5t-114.5 -107.5t-110 -157.5l-340 236q66 124 153.5 218t191 157t220.5 95t242 32q165 0 303 -48t237 -133.5t154 -204.5
t55 -260q0 -103 -37 -208t-105.5 -208.5t-165.5 -204t-216 -194.5l-323 -259h843v-401h-1535v327z" />
    <glyph glyph-name="three" unicode="3" horiz-adv-x="1849" 
d="M920 -29q-131 0 -250 31t-223 88.5t-192 140t-157 184.5l303 310q57 -97 117.5 -164t125 -109t133.5 -61t143 -19q65 0 122 18.5t99 54t66 87.5t24 119q0 59 -29 109t-83.5 87t-133 57.5t-178.5 20.5h-168l-74 271l464 513h-752v383h1405v-289l-512 -536
q125 -25 222.5 -83.5t164 -140.5t101.5 -182.5t35 -209.5q0 -134 -52 -257t-151.5 -217t-243.5 -150t-326 -56z" />
    <glyph glyph-name="four" unicode="4" horiz-adv-x="1851" 
d="M1100 398h-1004l-72 280l1149 1432h362v-1326h267v-386h-267v-398h-435v398zM1100 784v605l-484 -605h484z" />
    <glyph glyph-name="five" unicode="5" horiz-adv-x="1849" 
d="M869 -20q-229 0 -429 91t-360 288l240 323q79 -93 154.5 -151.5t146 -92t134 -46t117.5 -12.5q66 0 125.5 22.5t104.5 63.5t71.5 99t26.5 129q0 74 -23 132.5t-64.5 99.5t-98 63t-123.5 22q-58 0 -112.5 -5.5t-109.5 -19t-113 -37t-122 -58.5l-232 159l56 1042h1320v-385
h-911l-21 -359q22 9 56 18.5t72.5 17t79 12.5t75.5 5q99 0 192 -21t174.5 -61.5t149 -100.5t116 -137.5t75.5 -172.5t27 -206q0 -107 -29.5 -202t-83 -175.5t-127.5 -144t-162 -108t-187.5 -68.5t-204.5 -24z" />
    <glyph glyph-name="six" unicode="6" horiz-adv-x="1849" 
d="M916 -27q-104 0 -199.5 23.5t-176.5 63.5t-146 94t-107 114q-63 90 -99.5 175t-55 170.5t-23.5 174t-5 185.5q0 266 62 478t175.5 359.5t274 226.5t357.5 79q79 0 160 -8t166 -35.5t174.5 -80t185.5 -140.5l-221 -303q-81 65 -145 102t-117 55t-97.5 22.5t-86.5 4.5
q-83 0 -154 -34t-126 -99t-92 -161t-50 -220q29 25 79.5 50t110 44t121.5 31t114 12q144 0 275 -44t230 -127.5t157.5 -203.5t58.5 -271q0 -128 -32 -232t-88 -186t-132.5 -142t-165 -99.5t-186.5 -58.5t-196 -19zM919 359q65 0 127 20t110.5 60t78 98t29.5 135
q0 75 -28 134.5t-76 100t-111 62t-133 21.5q-66 0 -126.5 -21.5t-107.5 -63t-75 -101.5t-28 -137q0 -66 25 -122.5t70 -98t107.5 -64.5t137.5 -23z" />
    <glyph glyph-name="seven" unicode="7" horiz-adv-x="1849" 
d="M1135 1707h-980v385h1523v-278l-976 -1814h-501z" />
    <glyph glyph-name="eight" unicode="8" horiz-adv-x="1849" 
d="M924 -29q-177 0 -327 43t-259.5 122.5t-171 192.5t-61.5 252q0 188 89 310.5t265 194.5q-62 36 -113 80.5t-88.5 100t-58 124.5t-20.5 155q0 120 53.5 224.5t151.5 182t235.5 122t304.5 44.5q169 0 307 -44t235.5 -121.5t150.5 -182t53 -225.5q0 -86 -21 -155t-58 -124.5
t-88.5 -100t-112.5 -80.5q85 -39 151 -86t111 -107t68.5 -134t23.5 -166q0 -148 -62 -264t-171.5 -195.5t-259.5 -121t-327 -41.5zM924 1235q66 0 118 19.5t89 54.5t56.5 83t19.5 106q0 48 -18.5 92t-54.5 77t-88.5 52.5t-121.5 19.5q-68 0 -120.5 -19.5t-88 -52.5
t-53.5 -77t-18 -92q0 -56 19.5 -104.5t55.5 -83.5t88 -55t117 -20zM924 351q86 0 153 21.5t112.5 57.5t69 83.5t23.5 100.5q0 56 -26 103.5t-73 82t-113 53.5t-146 19t-145.5 -19t-112.5 -53.5t-73 -82t-26 -103.5t23.5 -104t69 -83.5t112 -55.5t152.5 -20z" />
    <glyph glyph-name="nine" unicode="9" horiz-adv-x="1849" 
d="M904 2116q104 0 199.5 -23.5t176.5 -63.5t146 -94t107 -114q63 -90 99.5 -181.5t55 -181.5t23.5 -176.5t5 -165.5q0 -266 -62 -478t-175.5 -360t-274 -226.5t-357.5 -78.5q-79 0 -160 8t-166 35.5t-174.5 79.5t-185.5 141l221 303q81 -65 145 -102t117 -55t97.5 -22.5
t86.5 -4.5q82 0 157 33t132 98t92.5 161t40.5 222q-29 -26 -79.5 -50.5t-110 -43.5t-121.5 -31t-114 -12q-144 0 -275 44t-230 127.5t-157.5 203t-58.5 271.5q0 128 32 232t88 186t132.5 142t165 99.5t186 58.5t196.5 19zM901 1730q-65 0 -127 -20t-110.5 -60t-78 -98.5
t-29.5 -134.5q0 -75 28 -134.5t76 -100t111 -62t133 -21.5q66 0 126.5 21.5t107.5 62.5t75 101.5t28 137.5q0 66 -25 122.5t-70 98t-107.5 64.5t-137.5 23z" />
    <glyph glyph-name="colon" unicode=":" horiz-adv-x="883" 
d="M189 450h505v-470h-505v470zM189 1563h505v-470h-505v470z" />
    <glyph glyph-name="semicolon" unicode=";" horiz-adv-x="943" 
d="M249 1563h505v-470h-505v470zM249 470h505v-355q0 -100 -34 -195t-94 -174t-142.5 -137t-180.5 -83l-86 183q66 25 111 60.5t73.5 75.5t43.5 80t21 75h-217v470z" />
    <glyph glyph-name="less" unicode="&#x3c;" horiz-adv-x="1575" 
d="M148 906v244l1250 680v-356l-845 -443l845 -449v-356z" />
    <glyph glyph-name="equal" unicode="=" horiz-adv-x="1669" 
d="M204 1118v323h1262v-323h-1262zM204 615v323h1262v-323h-1262z" />
    <glyph glyph-name="greater" unicode="&#x3e;" horiz-adv-x="1575" 
d="M148 226v356l846 449l-846 443v356l1250 -680v-244z" />
    <glyph glyph-name="question" unicode="?" horiz-adv-x="1676" 
d="M529 1206q35 -5 81 -8t87 -3q98 0 174.5 24t129 65.5t79.5 98.5t27 123q0 62 -24 109.5t-66 79.5t-99 48t-122 16q-63 0 -124.5 -20.5t-118.5 -58.5t-107 -91.5t-91 -118.5l-298 291q60 92 142 164t178 121.5t204 75t221 25.5q190 0 331.5 -47.5t235 -131.5t139.5 -199
t46 -250q0 -128 -42 -240.5t-119.5 -198.5t-187.5 -140t-246 -64l-21 -199h-365zM497 470h505v-470h-505v470z" />
    <glyph glyph-name="at" unicode="@" horiz-adv-x="2560" 
d="M1295 -84q-166 0 -316 40.5t-278 114.5t-231.5 177t-176.5 228t-112.5 268.5t-39.5 297.5t40 298.5t113 270.5t176 230t229 179t271.5 116t304.5 41q190 0 345 -41t277.5 -113.5t212.5 -170t148.5 -210t87.5 -235.5t29 -245q0 -107 -26.5 -195.5t-71.5 -159
t-104.5 -123.5t-124.5 -88.5t-132 -53t-127 -17.5q-41 0 -85 10.5t-82.5 33t-67.5 58.5t-40 88q-88 -100 -193 -146t-224 -46q-87 0 -167.5 34t-142 96.5t-98 150.5t-36.5 196q0 89 24.5 169.5t67 149.5t99.5 124.5t122.5 95t136 61t140.5 21.5q49 0 89 -9.5t71.5 -25.5
t55.5 -37t42 -45l17 111l309 -33l-103 -597q-6 -43 -9.5 -76.5t-3.5 -47.5q0 -35 8.5 -57.5t21.5 -35.5t28.5 -18t29.5 -5q52 0 106 22t98 72t72 130.5t28 198.5q0 92 -20.5 183t-63.5 174.5t-109.5 155t-158.5 124.5t-210.5 83t-265.5 30q-123 0 -233 -31t-202.5 -88
t-167 -137t-126 -177t-79.5 -209.5t-28 -233.5t27.5 -231t80 -204.5t127.5 -170.5t170 -130t208 -83t241 -29q97 0 183 15t165 43.5t153.5 71t149.5 96.5l144 -215q-190 -152 -390 -220.5t-403 -68.5zM1154 804q57 0 108 26.5t90 71.5t61.5 104t22.5 125q0 46 -15 84.5
t-41 66.5t-60.5 43.5t-73.5 15.5q-56 0 -108.5 -25.5t-93.5 -70t-66 -105t-25 -130.5q0 -49 15 -87.5t41.5 -64.5t63.5 -40t81 -14z" />
    <glyph glyph-name="A" unicode="A" horiz-adv-x="2354" 
d="M1382 2138l941 -2138h-510l-198 463h-876l-198 -463h-510l941 2138h410zM913 868h530l-266 620z" />
    <glyph glyph-name="B" unicode="B" horiz-adv-x="2124" 
d="M226 2122h969q148 0 283 -42t238 -122q92 -72 146.5 -174t54.5 -232q0 -81 -20 -148.5t-56 -122t-86 -97.5t-109 -76q56 -18 122.5 -58t124.5 -101.5t96.5 -145t38.5 -188.5q0 -152 -51.5 -263t-148.5 -183q-117 -88 -273.5 -128.5t-345.5 -40.5h-983v2122zM1448 1502
q0 45 -18 81.5t-52.5 63t-85.5 40.5t-118 14h-478v-429h475q132 0 204.5 57t72.5 173zM1553 634q0 58 -20 101.5t-62.5 72.5t-110 44t-163.5 15h-501v-446h542q153 0 234 51t81 162z" />
    <glyph glyph-name="C" unicode="C" horiz-adv-x="2191" 
d="M1188 -28q-157 0 -297.5 37.5t-260.5 106.5t-216.5 167t-164.5 218.5t-104.5 261.5t-36.5 296q0 151 37 291t105.5 262t166.5 222t220 171.5t265 111t303 39.5q130 0 243 -20t215 -63.5t196.5 -112.5t186.5 -168l-285 -335q-67 69 -131.5 120.5t-132 85.5t-139.5 51
t-153 17q-134 0 -249 -50.5t-199 -140.5t-132 -213t-48 -268q0 -144 47.5 -267t131 -213t196 -141t241.5 -51q75 0 147 12.5t144.5 45.5t147.5 90.5t157 146.5l300 -304q-99 -114 -202 -192t-214 -125.5t-231.5 -68t-253.5 -20.5z" />
    <glyph glyph-name="D" unicode="D" horiz-adv-x="2274" 
d="M226 2122h862q260 0 470.5 -91t356.5 -256q119 -135 185 -311.5t66 -391.5q0 -234 -80.5 -432t-229.5 -344q-71 -69 -155 -124t-181 -93t-205.5 -58.5t-226.5 -20.5h-862v2122zM696 1701v-1280h386q141 0 255 48t193.5 134.5t122.5 205.5t43 261q0 148 -47.5 265
t-130.5 198.5t-195 124.5t-241 43h-386z" />
    <glyph glyph-name="E" unicode="E" horiz-adv-x="1950" 
d="M226 2122h1625v-421h-1155v-429h1051v-405h-1051v-446h1175v-421h-1645v2122z" />
    <glyph glyph-name="F" unicode="F" horiz-adv-x="1824" 
d="M226 2122h1557v-421h-1087v-429h972v-405h-972v-867h-470v2122z" />
    <glyph glyph-name="G" unicode="G" horiz-adv-x="2267" 
d="M1205 -28q-151 0 -291 34.5t-262 100t-222 160.5t-171.5 217t-111 269.5t-39.5 316.5q0 158 39 299t110 261t171.5 216.5t224 164t266.5 103.5t299 36q144 0 266.5 -18.5t230 -59.5t202.5 -108t185 -163l-291 -328q-72 78 -145.5 128t-147.5 79t-149 40.5t-151 11.5
q-126 0 -242 -47t-205.5 -133.5t-142.5 -209t-53 -272.5q0 -164 53 -291.5t142 -215t204 -133t240 -45.5q51 0 109 6.5t115.5 21t112.5 36.5t102 53v329h-537v394h1004v-925q-98 -89 -209.5 -151.5t-229.5 -101.5t-239 -57t-237 -18z" />
    <glyph glyph-name="H" unicode="H" horiz-adv-x="2263" 
d="M226 2122h469v-850h872v850h470v-2122h-470v867h-872v-867h-469v2122z" />
    <glyph glyph-name="I" unicode="I" horiz-adv-x="968" 
d="M249 2122h470v-2122h-470v2122z" />
    <glyph glyph-name="J" unicode="J" horiz-adv-x="1710" 
d="M749 -26q-67 0 -130.5 5.5t-125.5 22t-122.5 46.5t-121 78t-122 117t-125.5 164l331 275q52 -92 102 -149.5t98 -89.5t94.5 -43.5t92.5 -11.5q63 0 116.5 21.5t93 64t62 104.5t22.5 143v1401h470v-1401q0 -178 -56.5 -317t-155.5 -234.5t-233 -145.5t-290 -50z" />
    <glyph glyph-name="K" unicode="K" horiz-adv-x="2206" 
d="M981 862l-285 -296v-566h-470v2121h470v-941l879 941h598l-878 -925l891 -1196h-567z" />
    <glyph glyph-name="L" unicode="L" horiz-adv-x="1818" 
d="M226 2122h472v-1701h1083v-421h-1555v2122z" />
    <glyph glyph-name="M" unicode="M" horiz-adv-x="2586" 
d="M694 1362v-1362h-468v2122h434l632 -957l635 957h433v-2122h-468v1358l-599 -901z" />
    <glyph glyph-name="N" unicode="N" horiz-adv-x="2355" 
d="M226 2122h421l1014 -1362v1362h468v-2122h-400l-1035 1391v-1391h-468v2122z" />
    <glyph glyph-name="O" unicode="O" horiz-adv-x="2410" 
d="M108 1062q0 151 39 291.5t110.5 262.5t171.5 222t222 171.5t262 110.5t292 39q151 0 291.5 -39t262.5 -110.5t222 -171.5t171.5 -222t110.5 -262.5t39 -291.5t-39 -291.5t-110.5 -262.5t-171.5 -222t-222 -171.5t-262.5 -110.5t-291.5 -39t-291.5 39t-262.5 110.5
t-222 171.5t-171.5 222t-110.5 262t-39 292zM578 1062q0 -135 47.5 -251t131.5 -202t198.5 -135t249.5 -49t249.5 49t198.5 135t131.5 202t47.5 251t-47.5 251t-131.5 202t-198.5 135t-249.5 49t-249.5 -49t-198.5 -135t-131.5 -202t-47.5 -251z" />
    <glyph glyph-name="P" unicode="P" horiz-adv-x="1999" 
d="M226 2122h881q185 0 335.5 -49.5t257 -144t164.5 -230.5t58 -309q0 -183 -63 -316t-174 -219.5t-262 -129t-327 -43.5l-400 -1v-680h-470v2122zM1088 1103q85 0 152.5 17t114.5 52t72 87.5t25 123.5q0 78 -25 137t-71 99.5t-112 61t-148 20.5h-400v-598h392z" />
    <glyph glyph-name="Q" unicode="Q" horiz-adv-x="2430" 
d="M108 1062q0 151 39 291.5t110.5 262.5t171.5 222t222 171.5t262 110.5t292 39q151 0 291.5 -39t262.5 -110.5t222 -171.5t171.5 -222t110.5 -262.5t39 -291.5q0 -170 -48 -323t-135 -284l261 -228l-297 -325l-277 242q-130 -85 -281.5 -132t-319.5 -47q-151 0 -291.5 39
t-262.5 110.5t-222 171.5t-171.5 222t-110.5 262t-39 292zM578 1062q0 -135 47.5 -251t131.5 -202t198.5 -135t249.5 -49q63 0 121 11t112 31l-316 278l291 329l351 -308q33 66 50.5 140.5t17.5 155.5q0 135 -47.5 251t-131.5 202t-198.5 135t-249.5 49t-249.5 -49
t-198.5 -135t-131.5 -202t-47.5 -251z" />
    <glyph glyph-name="R" unicode="R" horiz-adv-x="2208" 
d="M226 2122h933q182 0 337.5 -43.5t269 -130t178 -215.5t64.5 -299q0 -115 -36 -216t-100 -182t-152 -140.5t-192 -91.5l617 -804h-554l-542 729h-353v-729h-470v2122zM1114 1142q91 0 168.5 17.5t134.5 52.5t89 88t32 125q0 64 -26 115t-76 87t-123.5 55t-168.5 19h-448
v-559h418z" />
    <glyph glyph-name="S" unicode="S" horiz-adv-x="1859" 
d="M955 -28q-106 0 -217 15t-226 59t-233.5 124t-239.5 210l281 335q89 -95 173.5 -158t164 -100.5t154 -52.5t144.5 -15q75 0 139.5 12t112.5 37.5t75.5 64.5t27.5 92q0 15 -3.5 33.5t-17.5 39.5t-41.5 43.5t-74.5 45.5t-117 46t-170 45q-154 34 -269 76.5t-197 92.5
t-135 107.5t-83.5 122t-42.5 135.5t-12 148q0 138 60.5 252t167 195.5t251.5 126.5t314 45q108 0 211.5 -18.5t204.5 -58.5t200.5 -104t198.5 -154l-271 -332q-51 54 -116.5 100t-138 79.5t-149 53t-148.5 19.5q-60 0 -116.5 -13t-101 -37.5t-71.5 -59.5t-27 -79
q0 -43 15 -80.5t60.5 -71t129.5 -63.5t223 -57q149 -29 261 -69t194 -89.5t136 -107.5t86.5 -122.5t45.5 -135t13 -144.5q0 -136 -60.5 -252t-169.5 -200.5t-261 -132.5t-335 -48z" />
    <glyph glyph-name="T" unicode="T" horiz-adv-x="1790" 
d="M658 1701h-630v422h1734v-422h-634v-1701h-470v1701z" />
    <glyph glyph-name="U" unicode="U" horiz-adv-x="2312" 
d="M1156 -31q-118 0 -232.5 24.5t-218 73t-191 120.5t-152 167t-100.5 212t-36 256v1300h470v-1294q0 -108 39 -190.5t103 -138.5t147 -85t170 -29q85 0 168 27t148 81.5t105 136t40 189.5v1303h470v-1288q0 -142 -35.5 -261t-99 -215t-151 -169t-191 -122t-219 -73.5
t-234.5 -24.5z" />
    <glyph glyph-name="V" unicode="V" horiz-adv-x="2203" 
d="M1287 -13h-372l-890 2135h514l562 -1472l562 1472h514z" />
    <glyph glyph-name="W" unicode="W" horiz-adv-x="3262" 
d="M2276 737l458 1385h503l-767 -2135h-372l-467 1427l-467 -1427h-372l-767 2135h502l459 -1385l451 1385h388z" />
    <glyph glyph-name="X" unicode="X" horiz-adv-x="2194" 
d="M607 0h-589l799 1092l-754 1030h592l442 -658l443 658h591l-753 -1030l798 -1092h-589l-490 716z" />
    <glyph glyph-name="Y" unicode="Y" horiz-adv-x="2234" 
d="M1658 2122h558l-864 -1304v-818h-470v818l-863 1304h557l541 -889z" />
    <glyph glyph-name="Z" unicode="Z" horiz-adv-x="1964" 
d="M85 288l1145 1430h-1105v403h1750v-288l-1142 -1430h1142v-403h-1790v288z" />
    <glyph glyph-name="bracketleft" unicode="[" horiz-adv-x="1348" 
d="M212 2373h970v-353h-546v-2231h546v-354h-970v2938z" />
    <glyph glyph-name="backslash" unicode="\" horiz-adv-x="1804" 
d="M1821 -347h-420l-1368 2729h421z" />
    <glyph glyph-name="bracketright" unicode="]" horiz-adv-x="1348" 
d="M1136 -565h-970v354h546v2231h-546v353h970v-2938z" />
    <glyph glyph-name="asciicircum" unicode="^" horiz-adv-x="1522" 
d="M615 2142h293l494 -717h-411l-231 392l-235 -392h-405z" />
    <glyph glyph-name="underscore" unicode="_" horiz-adv-x="1943" 
d="M23 -171h1887v-310h-1887v310z" />
    <glyph glyph-name="grave" unicode="`" horiz-adv-x="1596" 
d="M392 1995l299 277l476 -553l-214 -201z" />
    <glyph glyph-name="a" unicode="a" horiz-adv-x="1754" 
d="M643 -20q-65 0 -131.5 13.5t-127.5 41t-114 69.5t-92 99.5t-61.5 130t-22.5 161.5q0 93 25 166t69.5 128t105.5 93t132 61.5t150 34t159 10.5q34 0 79 -3.5t96 -10.5t106 -17.5t109 -25.5q0 91 -30.5 150t-78 93.5t-104.5 48.5t-110 14q-122 0 -245.5 -26.5t-241.5 -86.5
l-119 343q86 38 177.5 63t177.5 39.5t160.5 20.5t125.5 6q88 0 170 -11t152.5 -32t128 -52.5t98.5 -72.5q80 -81 124 -188.5t44 -248.5v-991h-429l-2 193q-54 -63 -114.5 -104t-123 -65.5t-124.5 -34t-118 -9.5zM760 301q113 0 184 29t110.5 70t54 87t14.5 80v93
q-83 29 -160 39.5t-147 10.5q-54 0 -106 -11.5t-93 -35t-66.5 -60.5t-25.5 -88q0 -66 25.5 -107.5t62 -65t77 -32.5t70.5 -9z" />
    <glyph glyph-name="b" unicode="b" horiz-adv-x="1912" 
d="M1100 -17q-40 0 -96 6.5t-119 29t-129 67t-125 119.5v-205h-431v2286h431v-943q47 69 106 116.5t123.5 77t131.5 42.5t130 13q87 0 172.5 -23t162 -69t142 -114t113.5 -157t75 -199.5t27 -240.5q0 -135 -29 -247.5t-80 -202t-120 -156.5t-148.5 -111.5t-165.5 -66.5
t-171 -22zM1010 351q75 0 143 27.5t119 81.5t81.5 133.5t30.5 184.5q0 100 -30 181.5t-81.5 139.5t-120.5 89.5t-146 31.5t-146 -32.5t-122 -91.5t-84 -141.5t-31 -182.5q0 -102 34 -181t89 -132t124.5 -80.5t139.5 -27.5z" />
    <glyph glyph-name="c" unicode="c" horiz-adv-x="1610" 
d="M917 -20q-100 0 -200 23.5t-191 69.5t-169.5 114t-135.5 157.5t-90 199.5t-33 240q0 119 30 225.5t85 196.5t130.5 162t167.5 122t196 77t215 27q102 0 188.5 -15t161.5 -47.5t142 -83t131 -121.5l-264 -289q-49 57 -93 92t-87 54t-88 25.5t-96 6.5q-70 0 -139 -29
t-124.5 -83.5t-90 -134t-34.5 -180.5q0 -111 35.5 -193t92 -135.5t125 -79.5t134.5 -26q42 0 86.5 6t92.5 25.5t99.5 57.5t107.5 101l262 -262q-79 -93 -156.5 -152t-157 -92.5t-162 -46t-171.5 -12.5z" />
    <glyph glyph-name="d" unicode="d" horiz-adv-x="1912" 
d="M812 -17q-85 0 -171 22t-165.5 66.5t-148.5 111.5t-120 156.5t-80 201.5t-29 248q0 130 27 240.5t75.5 199.5t114 156.5t143 113t163 68.5t172.5 23q68 0 133.5 -12t127 -41t119 -76.5t108.5 -117.5v943h431v-2286h-431v205q-59 -75 -125 -119.5t-129 -67t-119 -29
t-96 -6.5zM902 351q70 0 139.5 27.5t124.5 80.5t89 132t34 181q0 100 -30.5 181t-83 138t-121.5 87.5t-145 30.5q-77 0 -146.5 -30t-121.5 -85.5t-82.5 -135.5t-30.5 -180q0 -105 30.5 -184.5t81.5 -133.5t119 -81.5t143 -27.5z" />
    <glyph glyph-name="e" unicode="e" horiz-adv-x="1719" 
d="M892 -20q-105 0 -204.5 26t-187.5 75t-162 119.5t-127.5 160.5t-83 197.5t-29.5 230.5q0 126 30 234.5t83 197.5t126.5 158t161 116.5t185 72t199.5 24.5q165 0 301.5 -57t234 -160.5t151.5 -247t54 -316.5q0 -19 -0.5 -42.5t-1.5 -48.5t-2 -48.5t-2 -42.5h-1083
q9 -71 47.5 -124.5t94.5 -89.5t123.5 -54.5t135.5 -18.5q45 0 94.5 8.5t99.5 27.5t98.5 50t91.5 76l230 -227q-63 -77 -134 -133t-152 -92.5t-173.5 -54t-198.5 -17.5zM1197 902q-2 73 -26 133.5t-66 104t-99 67.5t-123 24q-80 0 -144.5 -28.5t-109.5 -75t-69.5 -105.5
t-24.5 -120h662z" />
    <glyph glyph-name="f" unicode="f" horiz-adv-x="1184" 
d="M270 1206h-256v357h256v205q0 125 37.5 225.5t106.5 163.5v-1q36 34 79 59t89 41t93.5 24t94.5 8q56 0 113 -7t109.5 -19.5t97.5 -30.5t78 -39l-100 -331q-74 34 -133 45t-103 11q-24 0 -48 -10t-43 -30t-31 -50t-12 -70v-194h411v-357h-408v-1206h-431v1206z" />
    <glyph glyph-name="g" unicode="g" horiz-adv-x="1912" 
d="M1281 297q-59 -72 -124.5 -116t-129 -68t-119.5 -32t-96 -8q-89 0 -176.5 21.5t-167 64t-147.5 106t-117.5 148t-77.5 190t-28 231.5q0 113 27 213t75.5 184.5t114 151t143 113t163 71t172.5 24.5q71 0 137 -11.5t127 -39t117 -75t107 -119.5v217h431v-1362
q0 -118 -31 -218.5t-85.5 -182.5t-130.5 -144t-165.5 -104t-189.5 -63.5t-204 -21.5q-91 0 -183.5 6t-189.5 26t-198 57.5t-209 100.5l168 350q99 -66 188.5 -102.5t164 -54t132.5 -21.5t95 -4q82 0 156.5 25.5t130.5 72.5t88.5 113.5t31.5 148.5v112zM902 441
q70 0 139.5 24.5t124.5 72.5t89 118t34 161q0 89 -30.5 163t-83 127t-121.5 82.5t-145 29.5q-77 0 -146.5 -28.5t-121.5 -80.5t-82.5 -125t-30.5 -162q0 -93 30.5 -164.5t81.5 -120t119 -73t143 -24.5z" />
    <glyph glyph-name="h" unicode="h" horiz-adv-x="1836" 
d="M200 2287h431v-942q30 53 76.5 98.5t104 79t122 52.5t130.5 19q121 0 225.5 -42t181.5 -126t121 -210t44 -295v-921h-431v921q0 67 -16.5 120t-48 89.5t-76 56t-99.5 19.5q-62 0 -122 -25t-107 -74.5t-76 -124t-29 -174.5v-808h-431v2287z" />
    <glyph glyph-name="i" unicode="i" horiz-adv-x="854" 
d="M212 1563h430v-1563h-430v1563zM200 2161h454v-435h-454v435z" />
    <glyph glyph-name="j" unicode="j" horiz-adv-x="897" 
d="M256 2161h454v-435h-454v435zM268 1563h430v-1646q0 -107 -31 -191t-89.5 -142t-142.5 -88t-190 -30q-22 0 -56.5 2t-78 10t-94 24t-104.5 43l89 331q34 -20 80.5 -32t86.5 -12q45 0 72.5 28t27.5 70v1633z" />
    <glyph glyph-name="k" unicode="k" horiz-adv-x="1809" 
d="M200 2287h431v-1280l556 556h570l-645 -642l667 -921h-522l-437 628l-189 -188v-440h-431v2287z" />
    <glyph glyph-name="l" unicode="l" horiz-adv-x="831" 
d="M631 0h-431v2287h431v-2287z" />
    <glyph glyph-name="m" unicode="m" horiz-adv-x="2819" 
d="M200 1564h431v-219q30 53 78 98.5t107.5 79t125.5 52.5t132 19q171 0 295.5 -83t193.5 -251q56 88 123.5 151.5t138.5 104t142 59.5t134 19q136 0 234 -42t161 -126t93 -210t30 -295v-921h-431v921q0 67 -16.5 120t-45 89.5t-68.5 56t-86 19.5q-62 0 -119 -18.5
t-103.5 -55.5t-79.5 -93t-47 -130v-909h-431v921q0 135 -57.5 210t-169.5 75q-62 0 -122 -25t-107 -74.5t-76 -124t-29 -174.5v-808h-431v1564z" />
    <glyph glyph-name="n" unicode="n" horiz-adv-x="1835" 
d="M200 1563h431v-218q30 53 78 98.5t107.5 79t125.5 52.5t132 19q121 0 224 -42t178 -126t117.5 -210t42.5 -295v-921h-431v921q0 67 -16.5 120t-48 89.5t-76 56t-99.5 19.5q-62 0 -122 -25t-107 -74.5t-76 -124t-29 -174.5v-808h-431v1563z" />
    <glyph glyph-name="o" unicode="o" horiz-adv-x="1841" 
d="M99 784q0 112 29.5 215.5t83 194t128.5 164.5t166 127t196 82t219 29q113 0 218 -29t196 -82t166 -127t128.5 -164.5t83 -194t29.5 -215.5t-29.5 -216t-83 -194t-128.5 -164.5t-166 -127.5t-196 -82t-218 -29t-218.5 29t-196.5 82t-166 127.5t-128.5 164.5t-83 194
t-29.5 216zM529 785q0 -88 31 -165.5t84.5 -135.5t125.5 -91.5t154 -33.5t154 33.5t125.5 91.5t84.5 135.5t31 165.5t-31 165t-84.5 134.5t-125.5 91t-154 33.5t-154 -33.5t-125.5 -91t-84.5 -134.5t-31 -165z" />
    <glyph glyph-name="p" unicode="p" horiz-adv-x="1912" 
d="M1100 1580q85 0 171 -22t165.5 -66.5t148.5 -111.5t120 -156.5t80 -202t29 -247.5q0 -130 -27 -240.5t-75 -199.5t-113.5 -157t-142 -114t-162 -69t-172.5 -23q-63 0 -130 13t-131.5 42.5t-123.5 77t-106 116.5v-775h-431v2118h431v-205q59 75 125 119.5t129 67t119 29
t96 6.5zM1010 1212q-70 0 -139.5 -27.5t-124.5 -80.5t-89 -132t-34 -181q0 -100 31 -182.5t84 -141.5t122 -91.5t146 -32.5t146 31.5t120.5 89.5t81.5 139.5t30 181.5q0 105 -30.5 184.5t-81.5 133.5t-119 81.5t-143 27.5z" />
    <glyph glyph-name="q" unicode="q" horiz-adv-x="1912" 
d="M812 1580q40 0 96 -6.5t119 -29t129 -67t125 -119.5v205h431v-2118h-431v775q-47 -69 -106 -116.5t-123.5 -77t-131.5 -42.5t-130 -13q-87 0 -172.5 23t-162 69t-142 114t-113.5 157t-75 199t-27 241q0 135 29 247.5t80 202t120 156.5t148.5 111.5t165.5 66.5t171 22z
M902 1212q-75 0 -143 -27.5t-119 -81.5t-81.5 -133.5t-30.5 -184.5q0 -100 30 -181.5t81.5 -139.5t120.5 -89.5t146 -31.5q76 0 145.5 32.5t122.5 91.5t84 141.5t31 182.5q0 102 -34 181t-89 132t-124.5 80.5t-139.5 27.5z" />
    <glyph glyph-name="r" unicode="r" horiz-adv-x="1236" 
d="M1003 1171q-87 0 -156 -39.5t-117 -103.5t-73.5 -146.5t-25.5 -167.5v-716h-431v1566h431v-257q42 62 91 112t105.5 85.5t120.5 54.5t136 19q24 0 50 -4q23 -3 52 -10t61 -20l-82 -407q-22 10 -46 17t-45.5 10.5t-40 5t-30.5 1.5z" />
    <glyph glyph-name="s" unicode="s" horiz-adv-x="1386" 
d="M708 -15q-74 0 -151 9t-160 37.5t-174.5 81.5t-194.5 142l219 314q80 -71 147 -114.5t124.5 -66.5t108.5 -30.5t98 -7.5q34 0 65.5 7.5t56 21t39.5 33t15 44.5q0 28 -19.5 51t-56.5 43t-89 36.5t-118 31.5q-132 29 -226 75t-154.5 108t-89 141.5t-28.5 175.5
q0 111 50 198t132.5 147t190 91.5t221.5 31.5q75 0 145.5 -11t141.5 -36t146.5 -66t160.5 -101l-181 -313q-59 46 -117 77.5t-112.5 50.5t-104 27t-92.5 8q-47 0 -79 -7.5t-51.5 -20.5t-28 -29t-8.5 -32q0 -27 11.5 -48t40 -39t76.5 -34.5t121 -33.5q149 -35 251 -79.5
t165 -104t91 -137.5t29 -179q1 -123 -51.5 -215.5t-138.5 -154t-196 -92.5t-225 -31z" />
    <glyph glyph-name="t" unicode="t" horiz-adv-x="1162" 
d="M700 -14q-96 0 -177.5 24.5t-140.5 78t-92 138.5t-33 205v774h-186v357h186v526h431v-526h414v-357h-414v-761q0 -48 27.5 -70.5t79.5 -22.5q35 0 97 16t139 64l92 -319q-44 -32 -95.5 -56t-106.5 -40t-111.5 -23.5t-109.5 -7.5z" />
    <glyph glyph-name="u" unicode="u" horiz-adv-x="1836" 
d="M1636 0h-431v218q-30 -53 -78 -98.5t-107.5 -79t-125.5 -52.5t-132 -19q-121 0 -224 42t-178 126t-117.5 210t-42.5 295v921h431v-921q0 -67 16.5 -120t48 -89.5t75.5 -56t100 -19.5q62 0 122 25t107 74.5t76 124t29 174.5v808h431v-1563z" />
    <glyph glyph-name="v" unicode="v" horiz-adv-x="1720" 
d="M694 -2l-672 1565h472l366 -986l365 986h474l-671 -1565h-334z" />
    <glyph glyph-name="w" unicode="w" horiz-adv-x="2395" 
d="M1197 958l-303 -960h-350l-523 1565h458l270 -954l287 954h323l286 -956l272 956h457l-523 -1565h-351z" />
    <glyph glyph-name="x" unicode="x" horiz-adv-x="1758" 
d="M879 479l-325 -479h-533l609 806l-574 757h523l300 -439l300 439h523l-575 -756l609 -807h-533z" />
    <glyph glyph-name="y" unicode="y" horiz-adv-x="1705" 
d="M1216 1563h468l-669 -1671q-43 -105 -106.5 -178.5t-136 -119.5t-148.5 -66.5t-143 -20.5q-51 0 -105 8.5t-106.5 25t-103 41t-94.5 56.5l155 325q21 -17 49 -31.5t59 -25.5t63.5 -17.5t62.5 -6.5q75 0 130 70q24 31 39 67t21 68l-630 1476h470l372 -1006z" />
    <glyph glyph-name="z" unicode="z" horiz-adv-x="1519" 
d="M35 270l802 938h-756v357h1357v-270l-803 -938h800v-357h-1400v270z" />
    <glyph glyph-name="braceleft" unicode="{" horiz-adv-x="1456" 
d="M1241 -606q-211 32 -357.5 101t-238.5 160.5t-133.5 198t-41.5 214.5q0 114 7.5 227.5t7.5 233.5q0 58 -13 104.5t-42.5 78t-78 48.5t-119.5 17h-105v298h105q71 0 119.5 17t78 49.5t42.5 78.5t13 104q0 112 -7.5 224.5t-7.5 233.5q0 108 44.5 215t138.5 199t238.5 161.5
t344.5 101.5l76 -295q-128 -27 -211.5 -66t-132.5 -89.5t-68.5 -112.5t-19.5 -135q0 -112 8 -222.5t8 -228.5q0 -140 -55.5 -233.5t-156.5 -150.5q102 -57 157 -150.5t55 -233.5q0 -111 -8 -221.5t-8 -229.5q0 -73 19.5 -135t68.5 -112.5t132.5 -90t211.5 -67.5l-71 -292v0z
" />
    <glyph glyph-name="bar" unicode="|" horiz-adv-x="929" 
d="M274 2392h381v-2752h-381v2752z" />
    <glyph glyph-name="braceright" unicode="}" horiz-adv-x="1456" 
d="M144 -314q128 28 211.5 67.5t132.5 90t68.5 112.5t19.5 135q0 119 -8 229.5t-8 221.5q0 140 55 233.5t157 150.5q-101 57 -156.5 150.5t-55.5 233.5q0 118 8 228.5t8 222.5q0 73 -19.5 135t-68.5 112.5t-132.5 89.5t-211.5 66l76 295q200 -32 344.5 -101.5t238.5 -161.5
t138.5 -199t44.5 -215q0 -121 -7.5 -233.5t-7.5 -224.5q0 -58 13 -104t42.5 -78.5t78 -49.5t119.5 -17h105v-298h-105q-71 0 -119.5 -17t-78 -48.5t-42.5 -78t-13 -104.5q0 -120 7.5 -233.5t7.5 -227.5q0 -108 -41.5 -214.5t-133.5 -198t-238.5 -160.5t-357.5 -101z" />
    <glyph glyph-name="asciitilde" unicode="~" horiz-adv-x="1567" 
d="M1019 699q-26 0 -65.5 8.5t-85.5 21t-94.5 27t-93 27t-81 21t-58.5 8.5q-17 0 -34.5 -8.5t-33.5 -27t-28 -47t-18 -68.5l-292 79q28 112 72.5 190.5t98.5 127t114 70.5t119 22t120 -17t122.5 -38t121.5 -38t116 -17q12 0 28.5 7t33.5 24t32 45.5t23 70.5l292 -80
q-29 -112 -74 -189.5t-100 -126t-115.5 -70.5t-119.5 -22z" />
    <glyph glyph-name="saraileftthai" 
d="M-2032 2256h1170v-298h-1170v298z" />
    <glyph glyph-name="saraileftthai" unicode="&#xf701;" 
d="M-2032 2256h1170v-298h-1170v298z" />
    <glyph glyph-name="saraiileftthai" 
d="M-2032 2256h762v230h408v-528h-1170v298z" />
    <glyph glyph-name="saraiileftthai" unicode="&#xf702;" 
d="M-2032 2256h762v230h408v-528h-1170v298z" />
    <glyph glyph-name="saraueleftthai" 
d="M-2031 1958v298h665q2 63 22.5 113t57 85t88 54t115.5 19q65 0 117.5 -20t89 -56.5t56 -89t19.5 -117.5t-22 -118t-60 -90.5t-91 -57.5t-114 -20h-943zM-1184 2244q0 -55 23.5 -83t77.5 -28t78 28t24 83q0 54 -24 82.5t-78 28.5t-77.5 -28.5t-23.5 -82.5z" />
    <glyph glyph-name="saraueleftthai" unicode="&#xf703;" 
d="M-2031 1958v298h665q2 63 22.5 113t57 85t88 54t115.5 19q65 0 117.5 -20t89 -56.5t56 -89t19.5 -117.5t-22 -118t-60 -90.5t-91 -57.5t-114 -20h-943zM-1184 2244q0 -55 23.5 -83t77.5 -28t78 28t24 83q0 54 -24 82.5t-78 28.5t-77.5 -28.5t-23.5 -82.5z" />
    <glyph glyph-name="saraueeleftthai" 
d="M-2032 2256h425v230h295v-230h165v230h285v-528h-1170v298z" />
    <glyph glyph-name="saraueeleftthai" unicode="&#xf704;" 
d="M-2032 2256h425v230h295v-230h165v230h285v-528h-1170v298z" />
    <glyph glyph-name="maieklowleftthai" 
d="M-1394 1958v515h438v-515h-438z" />
    <glyph glyph-name="maieklowleftthai" unicode="&#xf705;" 
d="M-1394 1958v515h438v-515h-438z" />
    <glyph glyph-name="maitholowleftthai" 
d="M-781 2504q-17 -77 -55.5 -151.5t-97 -137.5t-136 -112t-172.5 -75q-55 -16 -108.5 -27.5t-102 -19t-90.5 -12.5t-73 -7l-39 -2l-71 176q34 12 60 30q23 16 42 40t19 57q0 29 -23.5 44.5t-51.5 15.5q-29 0 -58 -7.5t-55 -22.5l-82 192q41 26 82 42t77 25t64.5 12t44.5 3
q54 0 100 -13t79 -38t51.5 -62t18.5 -84q0 -45 -8.5 -77t-24.5 -65q120 28 183 97t90 179h337z" />
    <glyph glyph-name="maitholowleftthai" unicode="&#xf706;" 
d="M-781 2504q-17 -77 -55.5 -151.5t-97 -137.5t-136 -112t-172.5 -75q-55 -16 -108.5 -27.5t-102 -19t-90.5 -12.5t-73 -7l-39 -2l-71 176q34 12 60 30q23 16 42 40t19 57q0 29 -23.5 44.5t-51.5 15.5q-29 0 -58 -7.5t-55 -22.5l-82 192q41 26 82 42t77 25t64.5 12t44.5 3
q54 0 100 -13t79 -38t51.5 -62t18.5 -84q0 -45 -8.5 -77t-24.5 -65q120 28 183 97t90 179h337z" />
    <glyph glyph-name="maitrilowleftthai" 
d="M-1734 2551q62 0 114.5 -23.5t95.5 -63.5q58 46 109.5 66.5t100.5 20.5q54 0 91 -17t60 -45.5t33.5 -65.5t10.5 -76q0 -8 -2.5 -30t-13.5 -42q31 24 49.5 56.5t29 67t14 67.5t5.5 59h260q-9 -76 -38 -147t-71.5 -133.5t-96 -114t-110 -89t-114.5 -58t-109 -20.5
q-12 0 -22 -1t-29 1l-49 167q17 7 35 17t33 25t24.5 35.5t9.5 49.5q0 21 -6.5 35.5t-15.5 23.5t-18 13t-13 4q-37 0 -62 -18.5t-47 -36.5q-11 -7 -23 -15t-24 -8q-16 0 -29.5 9.5t-24.5 16.5q-21 17 -45 34.5t-55 17.5q-22 0 -39 -23t-15 -55q1 -28 14.5 -46.5t34.5 -29.5
q14 -7 32 -9t38 -2l-53 -200q-9 -3 -26 -4t-36 -1q-60 0 -106 26t-77.5 69t-48 98t-15.5 113q0 64 22 116t56 89t77 57t85 20z" />
    <glyph glyph-name="maitrilowleftthai" unicode="&#xf707;" 
d="M-1734 2551q62 0 114.5 -23.5t95.5 -63.5q58 46 109.5 66.5t100.5 20.5q54 0 91 -17t60 -45.5t33.5 -65.5t10.5 -76q0 -8 -2.5 -30t-13.5 -42q31 24 49.5 56.5t29 67t14 67.5t5.5 59h260q-9 -76 -38 -147t-71.5 -133.5t-96 -114t-110 -89t-114.5 -58t-109 -20.5
q-12 0 -22 -1t-29 1l-49 167q17 7 35 17t33 25t24.5 35.5t9.5 49.5q0 21 -6.5 35.5t-15.5 23.5t-18 13t-13 4q-37 0 -62 -18.5t-47 -36.5q-11 -7 -23 -15t-24 -8q-16 0 -29.5 9.5t-24.5 16.5q-21 17 -45 34.5t-55 17.5q-22 0 -39 -23t-15 -55q1 -28 14.5 -46.5t34.5 -29.5
q14 -7 32 -9t38 -2l-53 -200q-9 -3 -26 -4t-36 -1q-60 0 -106 26t-77.5 69t-48 98t-15.5 113q0 64 22 116t56 89t77 57t85 20z" />
    <glyph glyph-name="maichattawalowleftthai" 
d="M-1771 2388h287v196h288v-196h287v-234h-287v-194h-288v194h-287v234z" />
    <glyph glyph-name="maichattawalowleftthai" unicode="&#xf708;" 
d="M-1771 2388h287v196h288v-196h287v-234h-287v-194h-288v194h-287v234z" />
    <glyph glyph-name="thanthakhatlowleftthai" 
d="M-853 2256h-352q-37 0 -59 -19.5t-22 -45.5q0 -21 7 -44.5t39 -55.5l-249 -142q-40 35 -65 74.5t-38.5 76t-18 67.5t-4.5 50q0 78 32.5 132t85 88.5t120 50t137.5 15.5h387v-247z" />
    <glyph glyph-name="thanthakhatlowleftthai" unicode="&#xf709;" 
d="M-853 2256h-352q-37 0 -59 -19.5t-22 -45.5q0 -21 7 -44.5t39 -55.5l-249 -142q-40 35 -65 74.5t-38.5 76t-18 67.5t-4.5 50q0 78 32.5 132t85 88.5t120 50t137.5 15.5h387v-247z" />
    <glyph glyph-name="maieklowrightthai" 
d="M-674 1958v545h438v-545h-438z" />
    <glyph glyph-name="maieklowrightthai" unicode="&#xf70a;" 
d="M-674 1958v545h438v-545h-438z" />
    <glyph glyph-name="maitholowrightthai" 
d="M-141 2504q-17 -77 -60 -151.5t-107 -137.5t-146.5 -112t-177.5 -75q-55 -16 -108.5 -27.5t-102 -19t-90.5 -12.5t-73 -7l-39 -2l-71 176q34 12 60 30q23 16 42 40t19 57q0 29 -23.5 44.5t-51.5 15.5q-29 0 -58 -7.5t-55 -22.5l-82 192q41 26 82 42t77 25t64.5 12t44.5 3
q54 0 100 -13t79 -38t51.5 -62t18.5 -84q0 -45 -8.5 -77t-24.5 -65q121 29 198.5 97.5t104.5 178.5h337z" />
    <glyph glyph-name="maitholowrightthai" unicode="&#xf70b;" 
d="M-141 2504q-17 -77 -60 -151.5t-107 -137.5t-146.5 -112t-177.5 -75q-55 -16 -108.5 -27.5t-102 -19t-90.5 -12.5t-73 -7l-39 -2l-71 176q34 12 60 30q23 16 42 40t19 57q0 29 -23.5 44.5t-51.5 15.5q-29 0 -58 -7.5t-55 -22.5l-82 192q41 26 82 42t77 25t64.5 12t44.5 3
q54 0 100 -13t79 -38t51.5 -62t18.5 -84q0 -45 -8.5 -77t-24.5 -65q121 29 198.5 97.5t104.5 178.5h337z" />
    <glyph glyph-name="maitrilowrightthai" 
d="M-1069 2551q65 0 120 -23.5t99 -64.5q62 47 116 67.5t105 20.5q56 0 96 -17.5t66 -46t38 -65.5t12 -76q-1 -23 -5 -39.5t-17 -39.5q32 24 54.5 57.5t36.5 69.5t21 70.5t9 60.5h261q-9 -76 -40.5 -147.5t-77 -134.5t-102.5 -115.5t-118 -90t-121.5 -58t-114.5 -20.5
q-13 0 -23.5 -1t-30.5 1l-51 168q18 7 37 17t34.5 25t25.5 36t10 50q0 21 -7 35.5t-16.5 23.5t-19 13.5t-13.5 4.5q-38 0 -64.5 -19t-49.5 -37q-11 -7 -23.5 -15t-25.5 -8q-17 0 -31 9.5t-25 16.5q-23 17 -48 35t-57 18q-12 0 -22.5 -6.5t-18.5 -17.5t-12.5 -25t-3.5 -30
q1 -28 15 -47t37 -30q14 -7 33 -9t40 -2l-56 -201q-9 -3 -27 -4t-38 -1q-62 0 -110.5 26t-81.5 69.5t-50 98.5t-16 114q0 64 23 116.5t59 89.5t80.5 57.5t88.5 20.5z" />
    <glyph glyph-name="maitrilowrightthai" unicode="&#xf70c;" 
d="M-1069 2551q65 0 120 -23.5t99 -64.5q62 47 116 67.5t105 20.5q56 0 96 -17.5t66 -46t38 -65.5t12 -76q-1 -23 -5 -39.5t-17 -39.5q32 24 54.5 57.5t36.5 69.5t21 70.5t9 60.5h261q-9 -76 -40.5 -147.5t-77 -134.5t-102.5 -115.5t-118 -90t-121.5 -58t-114.5 -20.5
q-13 0 -23.5 -1t-30.5 1l-51 168q18 7 37 17t34.5 25t25.5 36t10 50q0 21 -7 35.5t-16.5 23.5t-19 13.5t-13.5 4.5q-38 0 -64.5 -19t-49.5 -37q-11 -7 -23.5 -15t-25.5 -8q-17 0 -31 9.5t-25 16.5q-23 17 -48 35t-57 18q-12 0 -22.5 -6.5t-18.5 -17.5t-12.5 -25t-3.5 -30
q1 -28 15 -47t37 -30q14 -7 33 -9t40 -2l-56 -201q-9 -3 -27 -4t-38 -1q-62 0 -110.5 26t-81.5 69.5t-50 98.5t-16 114q0 64 23 116.5t59 89.5t80.5 57.5t88.5 20.5z" />
    <glyph glyph-name="maichattawalowrightthai" 
d="M-1041 2388h287v196h288v-196h287v-234h-287v-194h-288v194h-287v234z" />
    <glyph glyph-name="maichattawalowrightthai" unicode="&#xf70d;" 
d="M-1041 2388h287v196h288v-196h287v-234h-287v-194h-288v194h-287v234z" />
    <glyph glyph-name="thanthakhatlowrightthai" 
d="M-163 2207h-364q-38 0 -61 -20t-23 -48q0 -11 1 -22t6 -23.5t14.5 -27t26.5 -30.5l-258 -147q-42 36 -67.5 76.5t-39.5 78.5t-18.5 70t-4.5 52q0 80 33.5 136.5t88 92t124 51.5t142.5 16h400v-255z" />
    <glyph glyph-name="thanthakhatlowrightthai" unicode="&#xf70e;" 
d="M-163 2207h-364q-38 0 -61 -20t-23 -48q0 -11 1 -22t6 -23.5t14.5 -27t26.5 -30.5l-258 -147q-42 36 -67.5 76.5t-39.5 78.5t-18.5 70t-4.5 52q0 80 33.5 136.5t88 92t124 51.5t142.5 16h400v-255z" />
    <glyph glyph-name="maihanakatleftthai" 
d="M-71 2256v-298h-1053q-112 0 -188 29t-122.5 74.5t-66.5 100.5t-20 107v218h375v-122q0 -109 146 -109h929z" />
    <glyph glyph-name="maihanakatleftthai" unicode="&#xf710;" 
d="M-71 2256v-298h-1053q-112 0 -188 29t-122.5 74.5t-66.5 100.5t-20 107v218h375v-122q0 -109 146 -109h929z" />
    <glyph glyph-name="nikhahitleftthai" 
d="M-1538 2247q0 63 29 118.5t79.5 96.5t118 64.5t144.5 23.5q76 0 143 -23.5t116.5 -64.5t78.5 -96.5t29 -118.5t-29 -117.5t-78.5 -95.5t-116.5 -64.5t-143 -23.5q-77 0 -144.5 23.5t-118 64.5t-79.5 95.5t-29 117.5zM-1293 2243q0 -22 8.5 -41.5t24 -34.5t37 -23.5
t48.5 -8.5t49 8.5t37.5 23.5t24 34.5t8.5 41.5t-8.5 41.5t-24 34t-37.5 23t-49 8.5q-54 0 -86 -31t-32 -76z" />
    <glyph glyph-name="nikhahitleftthai" unicode="&#xf711;" 
d="M-1538 2247q0 63 29 118.5t79.5 96.5t118 64.5t144.5 23.5q76 0 143 -23.5t116.5 -64.5t78.5 -96.5t29 -118.5t-29 -117.5t-78.5 -95.5t-116.5 -64.5t-143 -23.5q-77 0 -144.5 23.5t-118 64.5t-79.5 95.5t-29 117.5zM-1293 2243q0 -22 8.5 -41.5t24 -34.5t37 -23.5
t48.5 -8.5t49 8.5t37.5 23.5t24 34.5t8.5 41.5t-8.5 41.5t-24 34t-37.5 23t-49 8.5q-54 0 -86 -31t-32 -76z" />
    <glyph glyph-name="maitaikhuleftthai" 
d="M-1471 1951q-74 1 -141 22.5t-118 61t-81 96t-30 127.5q0 75 30.5 138t92.5 108.5t157.5 71t225.5 25.5q25 0 58.5 -3t65 -7t57 -8.5t36.5 -8.5l93 149h336l-236 -363q-41 14 -89 25.5t-100.5 19.5t-107 12.5t-106.5 4.5q-47 0 -85.5 -10t-66.5 -30.5t-43 -50t-15 -68.5
q0 -18 4.5 -35.5t13 -32.5t21 -26t28.5 -14l185 96q35 -50 75 -73.5t72 -23.5q26 0 36 19t12 41q1 17 -4.5 33t-10.5 26h276q8 -21 12.5 -43.5t4.5 -48.5q0 -47 -21 -89.5t-57 -74t-84 -50t-102 -17.5q-43 0 -74.5 6.5t-58 17.5t-50.5 28t-51 38z" />
    <glyph glyph-name="maitaikhuleftthai" unicode="&#xf712;" 
d="M-1471 1951q-74 1 -141 22.5t-118 61t-81 96t-30 127.5q0 75 30.5 138t92.5 108.5t157.5 71t225.5 25.5q25 0 58.5 -3t65 -7t57 -8.5t36.5 -8.5l93 149h336l-236 -363q-41 14 -89 25.5t-100.5 19.5t-107 12.5t-106.5 4.5q-47 0 -85.5 -10t-66.5 -30.5t-43 -50t-15 -68.5
q0 -18 4.5 -35.5t13 -32.5t21 -26t28.5 -14l185 96q35 -50 75 -73.5t72 -23.5q26 0 36 19t12 41q1 17 -4.5 33t-10.5 26h276q8 -21 12.5 -43.5t4.5 -48.5q0 -47 -21 -89.5t-57 -74t-84 -50t-102 -17.5q-43 0 -74.5 6.5t-58 17.5t-50.5 28t-51 38z" />
    <glyph glyph-name="maiekupperleftthai" 
d="M-1295 2643v431h433v-431h-433z" />
    <glyph glyph-name="maiekupperleftthai" unicode="&#xf713;" 
d="M-1295 2643v431h433v-431h-433z" />
    <glyph glyph-name="maithoupperleftthai" 
d="M-584 3138q-15 -72 -54.5 -141t-97.5 -129t-133.5 -106t-162.5 -71q-49 -14 -97 -23.5t-92 -16.5t-82 -11.5t-66 -7.5l-38 -2l-62 164q29 12 53 29q20 14 37 36t17 53q0 14 -6.5 25.5t-16.5 20t-23 13t-25 4.5q-27 0 -52 -6.5t-51 -20.5l-71 172q37 25 75 39.5t71 22.5
t59 10.5t39 2.5q49 0 90.5 -12t72 -35t47.5 -57t17 -79q0 -42 -10.5 -79.5t-32.5 -68.5q63 11 117 34.5t95.5 58t69 80t38.5 101.5h275z" />
    <glyph glyph-name="maithoupperleftthai" unicode="&#xf714;" 
d="M-584 3138q-15 -72 -54.5 -141t-97.5 -129t-133.5 -106t-162.5 -71q-49 -14 -97 -23.5t-92 -16.5t-82 -11.5t-66 -7.5l-38 -2l-62 164q29 12 53 29q20 14 37 36t17 53q0 14 -6.5 25.5t-16.5 20t-23 13t-25 4.5q-27 0 -52 -6.5t-51 -20.5l-71 172q37 25 75 39.5t71 22.5
t59 10.5t39 2.5q49 0 90.5 -12t72 -35t47.5 -57t17 -79q0 -42 -10.5 -79.5t-32.5 -68.5q63 11 117 34.5t95.5 58t69 80t38.5 101.5h275z" />
    <glyph glyph-name="maitriupperleftthai" 
d="M-1322 3139q57 0 104 -21.5t86 -53.5q53 39 99 57t91 18q48 0 83 -14.5t58.5 -39t34.5 -56t11 -64.5q-1 -9 -1.5 -16t-2 -14t-5 -14.5t-9.5 -17.5q28 22 50.5 49.5t38 56.5t24.5 57t11 50h199q-8 -64 -34.5 -124t-66.5 -113t-89 -97.5t-101.5 -76t-105 -49t-98.5 -17.5
q-11 0 -19.5 -1t-25.5 1l-44 141q15 5 31.5 13.5t30 22t22 31.5t8.5 43q0 17 -6.5 29t-14.5 19.5t-16 11t-11 3.5q-33 0 -56 -15.5t-45 -29.5q-8 -6 -18.5 -13.5t-21.5 -7.5q-15 0 -27.5 8.5t-20.5 14.5q-20 14 -41.5 28.5t-50.5 14.5q-10 0 -19 -5.5t-15.5 -14.5t-10.5 -21
t-3 -25q1 -23 13 -39t31 -25q14 -7 30 -9t33 -2l-47 -169q-9 -2 -24 -3t-31 -1q-54 0 -96 22.5t-71 59t-43.5 83.5t-14.5 96q0 54 20 98t51 75.5t69.5 48.5t76.5 17z" />
    <glyph glyph-name="maitriupperleftthai" unicode="&#xf715;" 
d="M-1322 3139q57 0 104 -21.5t86 -53.5q53 39 99 57t91 18q48 0 83 -14.5t58.5 -39t34.5 -56t11 -64.5q-1 -9 -1.5 -16t-2 -14t-5 -14.5t-9.5 -17.5q28 22 50.5 49.5t38 56.5t24.5 57t11 50h199q-8 -64 -34.5 -124t-66.5 -113t-89 -97.5t-101.5 -76t-105 -49t-98.5 -17.5
q-11 0 -19.5 -1t-25.5 1l-44 141q15 5 31.5 13.5t30 22t22 31.5t8.5 43q0 17 -6.5 29t-14.5 19.5t-16 11t-11 3.5q-33 0 -56 -15.5t-45 -29.5q-8 -6 -18.5 -13.5t-21.5 -7.5q-15 0 -27.5 8.5t-20.5 14.5q-20 14 -41.5 28.5t-50.5 14.5q-10 0 -19 -5.5t-15.5 -14.5t-10.5 -21
t-3 -25q1 -23 13 -39t31 -25q14 -7 30 -9t33 -2l-47 -169q-9 -2 -24 -3t-31 -1q-54 0 -96 22.5t-71 59t-43.5 83.5t-14.5 96q0 54 20 98t51 75.5t69.5 48.5t76.5 17z" />
    <glyph glyph-name="maichattawaupperleftthai" 
d="M-1492 3027h231v178h271v-178h231v-204h-231v-177h-271v177h-231v204z" />
    <glyph glyph-name="maichattawaupperleftthai" unicode="&#xf716;" 
d="M-1492 3027h231v178h271v-178h231v-204h-231v-177h-271v177h-231v204z" />
    <glyph glyph-name="thanthakhatupperleftthai" 
d="M-553 2695h-393q-38 0 -59.5 -20t-21.5 -47q0 -11 1 -21.5t5.5 -22.5t13.5 -25.5t25 -29.5l-227 -140q-39 35 -63.5 74t-38 75t-18 66.5t-4.5 48.5q0 78 32.5 127.5t81.5 77.5t106 38.5t106 10.5h454v-212z" />
    <glyph glyph-name="thanthakhatupperleftthai" unicode="&#xf717;" 
d="M-553 2695h-393q-38 0 -59.5 -20t-21.5 -47q0 -11 1 -21.5t5.5 -22.5t13.5 -25.5t25 -29.5l-227 -140q-39 35 -63.5 74t-38 75t-18 66.5t-4.5 48.5q0 78 32.5 127.5t81.5 77.5t106 38.5t106 10.5h454v-212z" />
    <glyph glyph-name="uni00A0" unicode="&#xa0;" horiz-adv-x="1024" 
 />
    <glyph glyph-name="cent" unicode="&#xa2;" horiz-adv-x="1753" 
d="M839 227q-88 14 -173 46.5t-161 82t-139.5 116.5t-109.5 150.5t-72 183t-26 214.5q0 159 53 295t145 240t216 171.5t267 91.5v365h273v-360q76 -9 142.5 -28.5t126.5 -51.5t115.5 -76.5t108.5 -103.5l-264 -289q-63 74 -117.5 111t-111.5 52v-830q57 17 119 56.5
t131 117.5l262 -262q-64 -75 -126.5 -127.5t-125.5 -87.5t-128 -54t-132 -27v-284h-273v288zM589 1025q0 -83 20.5 -149.5t55 -117t79.5 -85.5t95 -55v806q-51 -21 -96.5 -57.5t-79.5 -87t-54 -114.5t-20 -140z" />
    <glyph glyph-name="sterling" unicode="&#xa3;" horiz-adv-x="1825" 
d="M312 1444q0 151 50 277t143 217t224.5 142t294.5 51q97 0 193 -25.5t184.5 -71.5t166 -108.5t139.5 -137.5l-265 -261q-30 37 -72 77t-94.5 72.5t-117 53.5t-139.5 21q-63 -5 -111 -30.5t-80 -66.5t-48.5 -94t-16.5 -113v-235h731v-374h-731v-285q0 -47 -19 -90.5
t-67 -81.5h1005v-381h-1575v307q24 6 59 25t67.5 50t55.5 73.5t23 93.5v289h-198v374h198v232z" />
    <glyph glyph-name="yen" unicode="&#xa5;" horiz-adv-x="2233" 
d="M1344 382v-382h-454v382h-590v330h590v120l-29 43h-561v329h344l-608 919h532l549 -870l550 870h531l-608 -919h343v-329h-561l-28 -43v-120h589v-330h-589z" />
    <glyph glyph-name="copyright" unicode="&#xa9;" horiz-adv-x="2506" 
d="M162 1066q0 150 39 289.5t110 261t171 221t221 170.5t260.5 110t290.5 39q150 0 289.5 -39t261 -110t221 -170.5t170.5 -221t110 -261t39 -289.5q0 -151 -39 -290.5t-110 -260.5t-170.5 -221t-221 -171t-261 -110t-289.5 -39q-151 0 -290.5 39t-260.5 110t-221 171
t-171 221t-110 260.5t-39 290.5zM1273 474q-118 0 -217.5 43t-172 120.5t-113 186t-40.5 240.5v14q0 131 42.5 240t116.5 187.5t174 122t216 43.5q66 0 123.5 -14t109.5 -41.5t99 -67.5t92 -92l-166 -202q-25 34 -54.5 64t-62.5 51.5t-68.5 34t-72.5 12.5
q-62 0 -113.5 -24.5t-89 -68.5t-58.5 -106t-21 -137v-15q0 -75 21.5 -137t59 -106.5t89.5 -68.5t113 -24q31 0 66 5.5t70.5 21.5t70 44t64.5 72l145 -188q-89 -102 -196.5 -156t-226.5 -54zM423 1059q0 -114 30 -220.5t84 -198.5t130 -168t168 -130t198 -83.5t221 -29.5
q114 0 220.5 29.5t198.5 83.5t168 130t130 168t83.5 198t29.5 221q0 114 -29.5 220.5t-83.5 198.5t-130 168t-168 130t-198.5 83.5t-220.5 29.5q-115 0 -221 -29.5t-198 -83.5t-168 -130t-130 -168t-84 -198.5t-30 -220.5z" />
    <glyph glyph-name="guillemotleft" unicode="&#xab;" horiz-adv-x="1842" 
d="M727 1551l274 -225l-432 -526l432 -526l-274 -226l-614 753zM1470 1551l274 -225l-432 -526l432 -526l-274 -226l-614 753z" />
    <glyph glyph-name="registered" unicode="&#xae;" horiz-adv-x="2507" 
d="M162 1066q0 150 39 289.5t110 261t171 221t221 170.5t260.5 110t290.5 39q150 0 289.5 -39t261 -110t221 -170.5t170.5 -221t110 -261t39 -289.5q0 -151 -39 -290.5t-110 -260.5t-170.5 -221t-221 -171t-261 -110t-289.5 -39q-151 0 -290.5 39t-260.5 110t-221 171
t-171 221t-110 260.5t-39 290.5zM423 1059q0 -114 30 -220.5t84 -198.5t130 -168t168 -130t198 -83.5t221 -29.5q114 0 220.5 29.5t198.5 83.5t168 130t130 168t83.5 198t29.5 221q0 114 -29.5 220.5t-83.5 198.5t-130 168t-168 130t-198.5 83.5t-220.5 29.5
q-115 0 -221 -29.5t-198 -83.5t-168 -130t-130 -168t-84 -198.5t-30 -220.5zM844 1655h482q81 0 149.5 -24t118 -71t77 -117t27.5 -161q0 -60 -13.5 -109.5t-37 -90.5t-56.5 -73.5t-72 -56.5l238 -441h-283l-197 382h-189v-382h-244v1144zM1312 1124q68 0 104 40t36 106
q0 72 -37.5 108t-102.5 36h-224v-290h224z" />
    <glyph glyph-name="guillemotright" unicode="&#xbb;" horiz-adv-x="1842" 
d="M1729 801l-614 -753l-274 226l432 526l-432 526l274 225zM986 801l-614 -753l-274 226l432 526l-432 526l274 225z" />
    <glyph glyph-name="onequarter" unicode="&#xbc;" horiz-adv-x="2368" 
d="M2150 2h-315v192h-506l-36 215l554 715h303v-690h125v-240h-125v-192zM1837 729l-242 -298h242v298zM120 817v256h286v534l-208 -97l-93 247l396 180h214v-864h252v-256h-847zM1813 1939h286l-1272 -1961h-285z" />
    <glyph glyph-name="onehalf" unicode="&#xbd;" horiz-adv-x="2431" 
d="M60 817v256h286v534l-208 -97l-93 247l396 180h214v-864h252v-256h-847zM1753 1939h286l-1272 -1961h-285zM1451 176l424 366q32 28 59 53t46.5 50t30.5 51t11 55q0 13 -2.5 31.5t-14.5 35.5t-36.5 29.5t-67.5 12.5q-48 0 -85 -17t-63 -41.5t-43 -51.5t-26 -47l-242 156
q45 66 93 116t104.5 84t123.5 51.5t149 17.5q88 0 164 -23.5t132.5 -68t89 -109t32.5 -145.5q0 -71 -24 -130t-65 -110t-96.5 -97.5t-118.5 -93.5l-127 -94h431v-256h-879v175z" />
    <glyph glyph-name="threequarters" unicode="&#xbe;" horiz-adv-x="2276" 
d="M542 809q-59 0 -120.5 12t-119.5 38t-111 66.5t-95 96.5l183 208q31 -43 63.5 -71.5t64 -46t62 -24.5t58.5 -7t54 7.5t45.5 22t31 36t11.5 49.5q0 51 -45 81.5t-130 30.5h-102l-68 143l255 232l-404 1v253h791v-176l-260 -244q137 -45 208.5 -125t71.5 -208
q0 -80 -34 -148.5t-93.5 -118.5t-140.5 -79t-176 -29zM2040 2h-315v192h-506l-36 215l554 715h303v-690h125v-240h-125v-192zM1727 729l-242 -298h242v298zM1703 1939h286l-1272 -1961h-285z" />
    <glyph glyph-name="multiply" unicode="&#xd7;" horiz-adv-x="1652" 
d="M826 794l-360 -368l-246 235l369 375l-369 378l242 235l364 -371l364 371l242 -235l-369 -378l369 -375l-246 -235z" />
    <glyph glyph-name="divide" unicode="&#xf7;" horiz-adv-x="1581" 
d="M574 1576q0 45 17 84t46.5 68t69 46t83.5 17q45 0 84 -17t68 -46t46 -68t17 -84q0 -44 -17 -83.5t-46 -69t-68 -46.5t-84 -17q-44 0 -83.5 17t-69 46.5t-46.5 69t-17 83.5zM186 1202h1208v-346h-1208v346zM574 483q0 45 17 84t46.5 68t69 46t83.5 17q45 0 84 -17t68 -46
t46 -68t17 -84q0 -44 -17 -83.5t-46 -69t-68 -46.5t-84 -17q-44 0 -83.5 17t-69 46.5t-46.5 69t-17 83.5z" />
    <glyph glyph-name="kokaithai" unicode="&#xe01;" horiz-adv-x="1975" 
d="M989 1717q99 0 193.5 -21t177.5 -62t153 -101.5t120 -139.5t78 -176t28 -211v-1006h-448v1002q0 69 -17.5 127t-54.5 100.5t-94 66.5t-136 24q-75 0 -132 -24t-95.5 -66.5t-58 -100.5t-19.5 -127v-1002h-448v1006q0 114 28.5 211t79 176t121 139.5t154 101.5t177.5 62
t193 21z" />
    <glyph glyph-name="khokhaithai" unicode="&#xe02;" horiz-adv-x="1482" 
d="M1018 1700h472l-562 -1700h-370l-566 1700h473l250 -870q5 -18 9.5 -53t8 -72.5t5.5 -70.5t3 -48h2q1 15 2.5 48t4.5 70.5t7.5 72.5t9.5 53z" />
    <glyph glyph-name="khokhuatthai" unicode="&#xe03;" horiz-adv-x="1817" 
d="M485 1172q-30 40 -59 69t-64 47.5t-79.5 27t-105.5 8.5q-16 0 -41.5 -6t-63.5 -17v386q16 6 34.5 9t35 4.5t29.5 1.5h18q90 0 163.5 -28t128 -70t91 -90.5t53.5 -88.5q31 64 21 275h377q0 -93 -2 -178.5t-14.5 -162t-39 -143t-75.5 -119.5q-45 -60 -85 -114t-70.5 -107.5
t-48.5 -110t-19 -122.5q0 -59 15.5 -108t45.5 -84.5t73 -55.5t99 -20q111 0 171 68.5t60 201.5v1055h448v-1054q0 -92 -23.5 -176.5t-67 -158.5t-104.5 -134.5t-136.5 -104t-163 -67t-183.5 -23.5q-94 0 -180.5 23t-162 65.5t-137 102.5t-106 134t-68.5 159.5t-24 179.5
q0 96 20.5 167t56 130t83 113t100.5 116z" />
    <glyph glyph-name="khokhwaithai" unicode="&#xe04;" horiz-adv-x="1994" 
d="M999 1718q99 0 193.5 -21t179 -62t155.5 -101.5t122.5 -139.5t80 -176.5t28.5 -211.5v-1006h-448v1003q0 69 -19 127t-57.5 100t-97 66t-138.5 24q-75 0 -133.5 -24t-98.5 -66t-61 -100t-21 -127v-45h366v-350h-366v-608h-448v1006q0 114 29 211.5t81 176.5t123.5 139.5
t156 101.5t179.5 62t194 21z" />
    <glyph glyph-name="khokhonthai" unicode="&#xe05;" horiz-adv-x="2006" 
d="M1000 1021l-316 193v-357h366v-350h-366v-507h-448v1700h305l460 -284l465 284h304v-1700h-448v1216z" />
    <glyph glyph-name="khorakhangthai" unicode="&#xe06;" horiz-adv-x="1937" 
d="M915 1097q-46 -50 -90.5 -88.5t-80 -77t-57.5 -82t-23 -102.5l2 -91q1 -33 29 -80.5t74.5 -91.5t108 -75t129.5 -31q45 0 89.5 12t79 41t56 79t21.5 125v1065h448v-1068q0 -158 -45 -279.5t-120 -204t-173 -125t-204 -42.5q-79 0 -152.5 25t-138 67t-117 97t-89.5 114
v-284h-444v704q0 70 16 125.5t42 100t58 79.5t64 63.5t60.5 52.5t47.5 47q-30 40 -59 69t-63.5 47.5t-78.5 27t-105 8.5q-16 0 -41.5 -6t-63.5 -17v386q16 6 34.5 9t35 4.5t29.5 1.5h18q90 0 163.5 -28t128 -70t91 -90.5t53.5 -88.5q31 64 21 275h377q0 -93 -2 -178.5
t-14.5 -162t-39 -143t-75.5 -119.5z" />
    <glyph glyph-name="ngonguthai" unicode="&#xe07;" horiz-adv-x="1355" 
d="M537 -19q-89 0 -164 23.5t-137 62.5t-111.5 90t-87.5 106.5t-65 112t-44 105.5l325 200q34 -96 70 -157t71.5 -95.5t70.5 -47.5t68 -13q63 0 100.5 68.5t37.5 210.5v1053h448v-1046q0 -151 -35.5 -275t-107.5 -212.5t-181.5 -137t-257.5 -48.5z" />
    <glyph glyph-name="chochanthai" unicode="&#xe08;" horiz-adv-x="1486" 
d="M673 1332q-44 0 -90.5 -12t-93.5 -45t-92.5 -90t-87.5 -147l-346 194q34 104 101.5 193t160 154t206.5 101.5t242 36.5q150 0 278.5 -40t222.5 -118t148.5 -193t56.5 -264q-1 -90 -28 -187.5t-76 -206.5q-42 -88 -87.5 -178t-90.5 -180t-87 -178t-78 -172h-352l-501 940
h475l149 -346q17 -38 26 -72.5t15 -76.5h5q5 41 10 81t16 65q24 58 51.5 122t51 129.5t38.5 130.5t15 126q0 57 -21 100.5t-57 73t-82.5 44.5t-97.5 15z" />
    <glyph glyph-name="chochingthai" unicode="&#xe09;" horiz-adv-x="1905" 
d="M879 1717q168 0 312 -51t250.5 -149t167 -240.5t60.5 -326.5v-950h-448v270q-45 -65 -104.5 -118.5t-127 -91.5t-140.5 -58.5t-144 -20.5q-108 0 -203.5 41t-167 122t-113 202t-41.5 282v313h448v-288q0 -79 16.5 -132t47 -85t73.5 -45.5t97 -13.5q66 0 130.5 25
t115.5 69t82 103t31 128v248q0 91 -28 160.5t-75.5 116t-109.5 70t-129 23.5q-56 0 -117 -10t-126 -40t-133.5 -86.5t-139.5 -149.5l-287 286q85 117 185 193.5t205.5 122t211 63.5t201.5 18z" />
    <glyph glyph-name="chochangthai" unicode="&#xe0a;" horiz-adv-x="1723" 
d="M716 928q-41 -46 -67 -80t-41 -64.5t-21 -62.5t-6 -74q0 -51 19.5 -98t54.5 -82.5t84.5 -56.5t108.5 -21q58 0 107.5 20.5t84.5 55.5t55 81.5t20 97.5q0 48 -10 95t-36 86t-70.5 64.5t-113.5 30.5v267l332 513h478l-373 -570q40 -32 82 -78t76.5 -106t56.5 -134.5
t22 -165.5q0 -92 -25 -176.5t-71.5 -158.5t-111 -134.5t-143.5 -104t-170 -67t-189 -23.5q-99 0 -189.5 23.5t-169 67t-143 104t-110 134.5t-70.5 158.5t-25 176.5q0 94 20.5 167.5t53 131.5t73 102t80.5 79q21 18 43.5 35.5t41.5 36t31.5 38.5t12.5 43q0 33 -24 50t-54 17
q-44 -2 -99 -31t-120 -100l-177 298q51 50 109.5 87t118 61t117 35t107.5 11q95 -5 168.5 -35t124 -79.5t77 -114.5t27.5 -141q1 -62 -4 -112t-21.5 -96.5t-48 -94.5t-83.5 -106z" />
    <glyph glyph-name="sosothai" unicode="&#xe0b;" horiz-adv-x="1744" 
d="M728 936q-38 -48 -62.5 -83.5t-38.5 -67t-19.5 -64t-5.5 -74.5q0 -51 19.5 -98t54.5 -82.5t84.5 -56.5t108.5 -21q58 0 107.5 20.5t84.5 55.5t55 81.5t20 97.5q0 48 -10 95t-36 86t-70.5 64.5t-113.5 30.5v267l332 513h478l-373 -570q40 -32 82 -78t76.5 -106
t56.5 -134.5t22 -165.5q0 -92 -25 -176.5t-71.5 -158.5t-111 -134.5t-143.5 -104t-170 -67t-189 -23.5q-99 0 -189.5 23.5t-169 67t-143 104t-110 134.5t-70.5 158.5t-25 176.5q0 58 10 106t27.5 89t40 75.5t47.5 65.5q41 51 80.5 98.5t56.5 79.5q-14 24 -34 53t-51.5 53.5
t-75.5 41t-105 16.5q-16 0 -47.5 -3.5t-69.5 -14.5v386q26 6 62 8t59 2q72 0 133 -25t110 -65.5t85 -91t58 -101.5q16 37 21 75.5t4 94.5l-2 111h373q6 -125 -7 -256.5t-62 -255.5q-13 -34 -27 -63.5t-31 -59.5t-39 -61t-51 -68z" />
    <glyph glyph-name="chochoethai" unicode="&#xe0c;" horiz-adv-x="2745" 
d="M1687 664q2 -43 25.5 -92.5t59.5 -92t79.5 -71t85.5 -28.5q31 0 54.5 12.5t39 40.5t23 73t7.5 110v1084h448v-1088q0 -151 -25 -267.5t-76.5 -196t-131.5 -120.5t-191 -41q-65 0 -127.5 28t-115.5 69t-93.5 87.5t-61.5 84.5v-256h-448v1020q0 77 -28 134.5t-73 95
t-102 56t-115 18.5q-52 0 -95 -8.5t-79 -23.5t-66.5 -35.5t-55.5 -44.5l222 -230q-66 -47 -113 -93t-77 -97t-43.5 -109t-13.5 -128q0 -29 7 -64t22.5 -66t41.5 -52t65 -21q32 0 64.5 10t69.5 42l146 -270q-44 -42 -88 -70t-92 -45t-102.5 -24.5t-119.5 -7.5q-106 0 -191 42
t-144.5 113.5t-91.5 164.5t-32 195q0 137 46.5 264t146.5 240l-234 232q29 43 70 95t94.5 105.5t121 103.5t150.5 89t183 62.5t219 23.5q93 0 184 -18.5t172.5 -56t151 -94.5t120 -134t79 -174.5t28.5 -216.5v-359z" />
    <glyph glyph-name="yoyingthai" unicode="&#xe0d;" horiz-adv-x="2685" 
d="M1220 1020q0 77 -25 134.5t-66 95t-95.5 56t-112.5 18.5q-52 0 -95 -8.5t-79 -23.5t-66.5 -35.5t-55.5 -44.5l222 -230q-66 -47 -113 -93t-77 -97t-43.5 -109t-13.5 -128q0 -29 7 -64t22.5 -66t41.5 -52t65 -21q32 0 64.5 10t69.5 42l146 -270q-44 -42 -88 -70t-92 -45
t-102.5 -24.5t-119.5 -7.5q-106 0 -191 42t-144.5 113.5t-91.5 164.5t-32 195q0 137 46.5 264t146.5 240l-234 232q29 43 70 95t94.5 105.5t121 103.5t150.5 89t183 62.5t219 23.5q93 0 182.5 -18.5t169 -56t146.5 -94.5t115 -134t75.5 -174.5t27.5 -216.5v-207
q0 -63 16 -105.5t40.5 -67.5t55 -35.5t60.5 -10.5q28 0 57 10.5t52 35.5t37.5 67.5t14.5 105.5v884h448v-868q0 -109 -26 -197t-71 -156t-105 -117t-128 -80.5t-140 -46.5t-141 -15t-142 15t-141.5 46.5t-129.5 80.5t-106.5 117t-72 155.5t-26.5 197.5v188zM1236 142h1188
v-372h-1188v372z" />
    <glyph glyph-name="dochadathai" unicode="&#xe0e;" horiz-adv-x="1958" 
d="M1722 -523h-592l-307 150l-414 -200l-152 266l568 281l370 -167h79v1196q0 78 -26.5 137.5t-71.5 100t-104 61.5t-124 22q-40 1 -82 -6.5t-82.5 -22.5t-77.5 -37t-67 -50q55 -56 91.5 -121.5t59 -130t32 -124t9.5 -103.5q0 -117 -21.5 -227t-71.5 -209t-131.5 -185
t-201.5 -155l-277 290q82 65 133.5 126t80 120.5t38.5 117.5t10 117q0 55 -16 118.5t-50.5 128t-89.5 126.5t-133 113q76 119 166.5 213t196.5 159.5t229.5 100.5t265.5 35q156 0 294.5 -47t243 -137.5t165 -223t60.5 -304.5v-1529z" />
    <glyph glyph-name="topatakthai" unicode="&#xe0f;" horiz-adv-x="1958" 
d="M1171 -523l-239 120l-220 -148l-405 149l131 285l243 -89l254 156l278 -143h61v1196q0 78 -26.5 137.5t-71.5 100t-104 61.5t-124 22q-40 1 -82 -6.5t-82.5 -22.5t-77.5 -37t-67 -50q55 -56 92.5 -121.5t61 -130t34 -124t10.5 -103.5q0 -117 -22.5 -227t-73.5 -209
t-133.5 -185t-202.5 -155l-277 290q82 65 134 126t82 120.5t41 117.5t11 117q0 55 -16.5 118.5t-52.5 128t-92 126.5t-134 113q76 119 166.5 213t196.5 159.5t229.5 100.5t265.5 35q156 0 294.5 -47t243 -137.5t165 -223t60.5 -304.5v-1529h-551z" />
    <glyph glyph-name="thothanthai" unicode="&#xe10;" horiz-adv-x="1584" 
d="M769 -445q-26 -32 -59.5 -54t-69.5 -35t-72 -18.5t-67 -5.5q-92 0 -167.5 37t-130 103t-84.5 157t-30 199h315q0 -45 12 -77t31 -52.5t42 -29.5t46 -9q21 0 43 9t40 29.5t29 52.5t11 77h223q0 -45 11 -77t29 -52.5t40 -29.5t43 -9q22 0 45.5 9t42.5 29.5t31 52.5t12 77
h315q0 -108 -30 -199t-84.5 -157t-130.5 -103t-167 -37q-31 0 -67.5 5.5t-72.5 18.5t-69.5 35t-59.5 54zM1507 1718v-356h-233q34 -33 56.5 -70.5t36.5 -75t20 -72t7 -61.5q-1 -89 -27 -178t-75 -197q-42 -88 -87.5 -178t-90.5 -180t-87 -178t-78 -172h-352l-501 940h475
l149 -346q17 -38 26 -72.5t15 -76.5h5q5 41 10 81t16 65q24 58 51.5 122t51 129.5t38.5 130.5t15 126q0 57 -21 100.5t-57 73t-82.5 44.5t-97.5 15q-44 0 -90.5 -12t-93.5 -45t-92.5 -90t-87.5 -147l-346 194q34 104 101 192.5t159 153.5t205.5 102t241.5 37l-1 1h821z" />
    <glyph glyph-name="thonangmonthothai" unicode="&#xe11;" horiz-adv-x="2020" 
d="M309 704q0 105 14 178.5t36 126.5t50 91t56 72q-30 40 -59 69t-64 47.5t-79.5 27t-105.5 8.5q-16 0 -41.5 -6t-63.5 -17v386q16 6 34.5 9t35 4.5t29.5 1.5h18q90 0 163.5 -28t128 -70t91 -90.5t53.5 -88.5q31 64 21 275h377q0 -93 -2 -178.5t-14.5 -162t-39 -143
t-75.5 -119.5q-46 -50 -71 -91t-36.5 -82t-14 -86.5t-3.5 -104.5v-62l665 1029h372v-1700h-448v931l-618 -931h-409v704z" />
    <glyph glyph-name="thophuthaothai" unicode="&#xe12;" horiz-adv-x="2842" 
d="M1322 1194l-240 -175q-29 57 -62 111.5t-69 97t-74.5 68.5t-78.5 26q-58 0 -107.5 -35t-85.5 -98t-56.5 -149.5t-20.5 -189.5q0 -87 17.5 -172.5t54 -153.5t94.5 -110t139 -42q46 0 92.5 13.5t94.5 54.5l181 -292q-40 -44 -86.5 -75.5t-96 -51.5t-100.5 -29.5t-101 -9.5
q-109 0 -206 30.5t-179 86.5t-147.5 135t-111 175t-69.5 207.5t-24 233.5q0 120 23.5 231t67 207.5t105.5 175.5t139 135.5t168 87.5t192 31q55 0 108 -12.5t102 -39.5t94 -70t85 -105l264 209h342v-1036q2 -43 28 -92.5t64 -92t84 -71t88 -28.5q31 0 54.5 12.5t39 40.5
t23 73t7.5 110v1084h448v-1088q0 -151 -25 -267.5t-76.5 -196t-131.5 -120.5t-191 -41q-65 0 -129.5 28t-120.5 69t-98.5 87.5t-63.5 84.5v-256h-448v1194z" />
    <glyph glyph-name="nonenthai" unicode="&#xe13;" horiz-adv-x="2745" 
d="M1239 1020q0 77 -28 134.5t-73 95t-102 56t-115 18.5q-52 0 -95 -8.5t-79 -23.5t-66.5 -35.5t-55.5 -44.5l222 -230q-66 -47 -113 -93t-77 -97t-43.5 -109t-13.5 -128q0 -29 7 -64t22.5 -66t41.5 -52t65 -21q32 0 64.5 10t69.5 42l146 -270q-44 -42 -88 -70t-92 -45
t-102.5 -24.5t-119.5 -7.5q-106 0 -191 42t-144.5 113.5t-91.5 164.5t-32 195q0 137 46.5 264t146.5 240l-234 232q29 43 70 95t94.5 105.5t121 103.5t150.5 89t183 62.5t219 23.5q93 0 184 -18.5t172.5 -56t151 -94.5t120 -134t79 -174.5t28.5 -216.5v-407q0 -65 7.5 -110
t23 -73t38.5 -40.5t55 -12.5q42 0 85.5 28.5t79.5 71t59.5 92t25.5 92.5v1036h448v-1700h-448v256q-21 -38 -61.5 -84.5t-93.5 -87.5t-115.5 -69t-127.5 -28q-111 0 -191 41t-131.5 120.5t-76.5 196t-25 267.5v408z" />
    <glyph glyph-name="dodekthai" unicode="&#xe14;" horiz-adv-x="1963" 
d="M817 -18q-108 0 -204.5 31t-178.5 87t-147.5 134.5t-111.5 174t-70.5 205.5t-24.5 228q0 194 66 354.5t183.5 276t278.5 179.5t351 64q157 0 296.5 -44.5t244.5 -131.5t166 -214.5t61 -293.5v-1032h-448v1030q0 67 -21.5 122t-63 94.5t-101 61.5t-135.5 22
q-90 0 -168 -34.5t-136.5 -98.5t-92 -154t-33.5 -201q0 -84 21 -167.5t60.5 -151t96 -109.5t127.5 -42q23 0 44 2t43 8.5t45 18t50 30.5l171 -295q-82 -84 -175.5 -119t-193.5 -35z" />
    <glyph glyph-name="totaothai" unicode="&#xe15;" horiz-adv-x="2006" 
d="M1770 0h-448v1208l-240 -189q-29 57 -62 111.5t-69 97t-74.5 68.5t-78.5 26q-58 0 -107.5 -35t-85.5 -98t-56.5 -149.5t-20.5 -189.5q0 -87 17.5 -172.5t54 -153.5t94.5 -110t139 -42q46 0 92.5 13.5t94.5 54.5l181 -292q-40 -44 -86.5 -75.5t-96 -51.5t-100.5 -29.5
t-101 -9.5q-109 0 -206 30.5t-179 86.5t-147.5 135t-111 175t-69.5 207.5t-24 233.5q0 120 23.5 231t67 207.5t105.5 175.5t139 135.5t168 87.5t192 31q55 0 108 -12.5t102 -39.5t94 -70t85 -105l264 209h342v-1700z" />
    <glyph glyph-name="thothungthai" unicode="&#xe16;" horiz-adv-x="1923" 
d="M1687 0h-448v1020q0 77 -28 134.5t-73 95t-102 56t-115 18.5q-52 0 -95 -8.5t-79 -23.5t-66.5 -35.5t-55.5 -44.5l222 -230q-66 -47 -113 -93t-77 -97t-43.5 -109t-13.5 -128q0 -29 7 -64t22.5 -66t41.5 -52t65 -21q32 0 64.5 10t69.5 42l146 -270q-44 -42 -88 -70
t-92 -45t-102.5 -24.5t-119.5 -7.5q-106 0 -191 42t-144.5 113.5t-91.5 164.5t-32 195q0 137 46.5 264t146.5 240l-234 232q29 43 70 95t94.5 105.5t121 103.5t150.5 89t183 62.5t219 23.5q93 0 184 -18.5t172.5 -56t151 -94.5t120 -134t79 -174.5t28.5 -216.5v-1023z" />
    <glyph glyph-name="thothahanthai" unicode="&#xe17;" horiz-adv-x="1977" 
d="M1231 1719q106 0 199 -41.5t162 -124t109 -206t40 -286.5v-1061h-449v1057q0 137 -60.5 201t-170.5 64q-45 0 -90 -15t-87 -41.5t-78 -62t-63 -76.5t-42.5 -85.5t-15.5 -88.5v-953h-449v1700h445v-290q70 97 138 157.5t136 94.5t136.5 45.5t139.5 11.5z" />
    <glyph glyph-name="thothongthai" unicode="&#xe18;" horiz-adv-x="1723" 
d="M640 514q0 -48 25.5 -77t65.5 -44t87 -20t91 -5q46 1 85.5 13.5t68 33.5t45 50t17.5 63q1 32 -6 65t-33.5 64.5t-77 59.5t-136.5 51q-20 5 -70 13.5t-117 21.5t-144 30t-151 39q-46 13 -93.5 42.5t-85.5 75.5t-60.5 109.5t-19.5 145.5q3 81 34 147.5t82 119t119 91.5
t146 64.5t162.5 38t169.5 12.5q87 0 180 -13.5t187 -44.5t186 -81t177 -123l-226 -307q-63 51 -130 86.5t-133 58t-130 33.5t-121 14q-51 3 -97.5 -0.5t-81.5 -14.5t-56 -29.5t-21 -45.5q0 -28 32.5 -44t82 -26.5t107.5 -18.5t109 -19l122 -26q168 -36 273 -92t164 -126.5
t80 -152t21 -168.5q0 -110 -26.5 -197.5t-74 -154t-112.5 -113t-141.5 -76t-161.5 -43t-172 -13.5q-167 0 -295.5 30.5t-216 89.5t-132.5 144t-45 195v349h448v-275z" />
    <glyph glyph-name="nonuthai" unicode="&#xe19;" horiz-adv-x="1977" 
d="M746 -19q-106 0 -199 41.5t-162 124t-109 206t-40 286.5v1061h449v-1057q0 -137 60.5 -201t170.5 -64q45 0 90 15t87 41.5t78 62t63 76.5t42.5 85.5t15.5 88.5v953h449v-1700h-445v290q-70 -98 -138 -158t-136 -94t-136.5 -45.5t-139.5 -11.5z" />
    <glyph glyph-name="bobaimaithai" unicode="&#xe1a;" horiz-adv-x="1975" 
d="M990 -19q-99 0 -193 21t-178 62t-154 101.5t-121 139.5t-79.5 176.5t-28.5 211.5v1007h448v-1004q0 -69 19.5 -127t58 -100.5t95.5 -66.5t132 -24q79 0 136 24t94 66.5t54.5 100.5t17.5 127v1004h448v-1007q0 -171 -61 -304t-164.5 -223.5t-239 -137.5t-284.5 -47z" />
    <glyph glyph-name="poplathai" unicode="&#xe1b;" horiz-adv-x="1975" 
d="M990 -19q-99 0 -193 21t-178 62t-154 101.5t-121 139.5t-79.5 176.5t-28.5 211.5v1007h448v-1004q0 -69 19.5 -127t58 -100.5t95.5 -66.5t132 -24q79 0 136 24t94 66.5t54.5 100.5t17.5 127v1733h448v-1736q0 -171 -61 -304t-164.5 -223.5t-239 -137.5t-284.5 -47z" />
    <glyph glyph-name="phophungthai" unicode="&#xe1c;" horiz-adv-x="1997" 
d="M132 1116q-3 15 -6 38.5t-6 50t-5 51.5t-2 43q0 72 24.5 145t83.5 132t157 96t245 37q26 0 61 -4t75.5 -14t84.5 -25.5t88 -37.5l-94 -318q-51 25 -94.5 36.5t-78.5 11.5q-47 0 -69 -21t-29 -52t-4 -66.5t7 -63.5l73 -550l352 638l344 -598l109 1055h453l-230 -1700h-344
l-328 616l-322 -617h-339z" />
    <glyph glyph-name="fofathai" unicode="&#xe1d;" horiz-adv-x="1949" 
d="M132 1116q-3 15 -6 38.5t-6 50t-5 51.5t-2 43q0 72 24.5 145t83.5 132t157 96t245 37q26 0 61 -4t75.5 -14t84.5 -25.5t88 -37.5l-94 -318q-51 25 -94.5 36.5t-78.5 11.5q-47 0 -69 -21t-29 -52t-4 -66.5t7 -63.5l73 -550l352 638l344 -598l131 1781h453l-252 -2426h-344
l-328 616l-322 -617h-339z" />
    <glyph glyph-name="phophanthai" unicode="&#xe1e;" horiz-adv-x="2189" 
d="M768 0h-370l-302 1700h452l132 -843l267 843h293l268 -843l131 843h453l-301 -1700h-372l-325 1047z" />
    <glyph glyph-name="fofanthai" unicode="&#xe1f;" horiz-adv-x="2165" 
d="M768 0h-370l-302 1700h452l132 -843l267 843h293l268 -843l198 1566h453l-368 -2423h-372l-325 1047z" />
    <glyph glyph-name="phosamphaothai" unicode="&#xe20;" horiz-adv-x="1958" 
d="M1722 0h-448v1003q0 78 -26.5 137.5t-71.5 100t-104 61.5t-124 22q-40 1 -82 -6.5t-82.5 -22.5t-77.5 -37t-67 -50q55 -56 91.5 -121.5t59 -130t32 -124t9.5 -103.5q0 -117 -21.5 -227t-71.5 -209t-131.5 -185t-201.5 -155l-277 290q82 65 133.5 126t80 120.5t38.5 117.5
t10 117q0 55 -16 118.5t-50.5 128t-89.5 126.5t-133 113q76 119 166.5 213t196.5 159.5t229.5 100.5t265.5 35q156 0 294.5 -47t243 -137.5t165 -223t60.5 -304.5v-1006z" />
    <glyph glyph-name="momathai" unicode="&#xe21;" horiz-adv-x="1978" 
d="M1156 -19q-75 0 -147.5 29t-135.5 75.5t-113 104.5t-80 116v-306h-444v1700h448v-961q0 -66 33.5 -131t87.5 -116t121.5 -82.5t134.5 -31.5q48 0 90 15.5t74 48t50.5 82.5t18.5 119v1057h448v-1061q0 -161 -43.5 -284t-121 -206t-185 -125.5t-236.5 -42.5z" />
    <glyph glyph-name="yoyakthai" unicode="&#xe22;" horiz-adv-x="1947" 
d="M724 1700q-35 -50 -53 -95t-26 -80t-9 -58.5t-1 -30.5q0 -124 68 -185.5t212 -61.5h130v-341h-129q-144 0 -222.5 -49t-78.5 -152q0 -47 19 -95t58 -86.5t98 -63t138 -24.5q71 0 132.5 18.5t106.5 56t70.5 95t25.5 135.5v1017h448v-1018q0 -118 -30 -215.5t-83.5 -175.5
t-127 -136t-160.5 -97t-184 -58t-197 -19q-99 0 -194 22t-179.5 63t-156 100t-123 133t-80.5 161.5t-29 186.5q0 71 19.5 131t52.5 108t75.5 85t87.5 63q-40 24 -78.5 60.5t-69 85t-49 108.5t-18.5 131q0 85 21.5 156.5t49.5 124.5h466z" />
    <glyph glyph-name="roruathai" unicode="&#xe23;" horiz-adv-x="1579" 
d="M780 -19q-75 0 -158 15t-172 50.5t-181.5 94t-186.5 144.5l255 320q70 -63 133 -105t119.5 -66.5t105 -35t90.5 -10.5q37 0 68 6t53.5 18.5t35 31t12.5 43.5q0 34 -15 58.5t-47 45.5t-84 40t-125 42q-111 34 -206 81t-164.5 112t-108.5 150t-39 196q0 119 48.5 213
t131.5 159t195 99.5t238 34.5q174 0 339.5 -70.5t311.5 -195.5l-234 -331q-125 98 -229 144.5t-178 46.5q-72 0 -116.5 -23t-44.5 -65q0 -56 65 -95.5t186 -73.5q132 -37 232.5 -84.5t168.5 -111.5t102.5 -148t34.5 -194q0 -126 -52 -225.5t-140 -168.5t-203 -105.5
t-241 -36.5z" />
    <glyph glyph-name="ruthai" unicode="&#xe24;" horiz-adv-x="1923" 
d="M1687 -525h-448v1545q0 77 -28 134.5t-73 95t-102 56t-115 18.5q-52 0 -95 -8.5t-79 -23.5t-66.5 -35.5t-55.5 -44.5l222 -230q-66 -47 -113 -93t-77 -97t-43.5 -109t-13.5 -128q0 -29 7 -64t22.5 -66t41.5 -52t65 -21q32 0 64.5 10t69.5 42l146 -270q-44 -42 -88 -70
t-92 -45t-102.5 -24.5t-119.5 -7.5q-106 0 -191 42t-144.5 113.5t-91.5 164.5t-32 195q0 137 46.5 264t146.5 240l-234 232q29 43 70 95t94.5 105.5t121 103.5t150.5 89t183 62.5t219 23.5q93 0 184 -18.5t172.5 -56t151 -94.5t120 -134t79 -174.5t28.5 -216.5v-1548z" />
    <glyph glyph-name="lolingthai" unicode="&#xe25;" horiz-adv-x="1867" 
d="M747 378q22 0 44.5 1.5t48 6.5t54 14.5t62.5 25.5l153 -343q-117 -56 -218.5 -79t-189.5 -23q-117 0 -227 36.5t-195 108.5t-136 179t-51 248q0 144 59.5 253.5t160.5 184t234 112t280 37.5q84 0 176.5 -13.5t180.5 -40.5q-13 76 -45 124t-78.5 74.5t-105 36t-123.5 9.5
q-52 0 -115.5 -13.5t-131.5 -37.5t-138 -58t-135 -75l-170 363q82 49 175 88t186.5 66t183 41t165.5 14q163 0 305 -36t247.5 -114.5t166.5 -202.5t61 -301v-1064h-448v741q-33 7 -73.5 14t-84 12t-88 8t-86.5 3q-65 0 -122 -15t-99 -43.5t-66 -68.5t-24 -91q0 -46 17.5 -80
t47 -56.5t66.5 -34t76 -11.5z" />
    <glyph glyph-name="luthai" unicode="&#xe26;" horiz-adv-x="1958" 
d="M1722 -525h-448v1528q0 78 -26.5 137.5t-71.5 100t-104 61.5t-124 22q-40 1 -82 -6.5t-82.5 -22.5t-77.5 -37t-67 -50q55 -56 91.5 -121.5t59 -130t32 -124t9.5 -103.5q0 -117 -21.5 -225.5t-71.5 -206t-131.5 -181.5t-201.5 -153l-277 290q82 65 133.5 124.5t80 117
t38.5 114t10 115.5q0 55 -16 118.5t-50.5 128t-89.5 126.5t-133 113q76 119 166.5 213t196.5 159.5t229.5 100.5t265.5 35q156 0 294.5 -47t243 -137.5t165 -223t60.5 -304.5v-1531z" />
    <glyph glyph-name="wowaenthai" unicode="&#xe27;" horiz-adv-x="1682" 
d="M768 -19q-193 0 -372 84t-339 268l268 286q66 -79 126 -126.5t115 -73t105.5 -33.5t97.5 -8q72 0 141 28.5t123 87t87 149t33 214.5q0 112 -31.5 199t-84.5 146t-123 89.5t-146 30.5q-57 0 -115.5 -12.5t-115 -41.5t-108 -78t-94.5 -121l-293 282q134 178 315.5 272.5
t404.5 94.5q122 0 231.5 -28.5t203 -81.5t168.5 -129.5t127.5 -173t81 -211t28.5 -243.5q0 -141 -31 -260t-87 -215.5t-133.5 -170.5t-170 -123.5t-197.5 -75t-215 -25.5z" />
    <glyph glyph-name="sosalathai" unicode="&#xe28;" horiz-adv-x="1994" 
d="M1885 1850l-282 -394q72 -87 113.5 -199t41.5 -251v-1006h-448v1003q0 69 -19 127t-57.5 100t-97 66t-138.5 24q-75 0 -133.5 -24t-98.5 -66t-61 -100t-21 -127v-45h366v-350h-366v-608h-448v1006q0 114 29 211.5t81 176.5t123.5 139.5t156 101.5t179.5 62t194 21
q127 0 247 -35l119 167h520z" />
    <glyph glyph-name="sorusithai" unicode="&#xe29;" horiz-adv-x="1995" 
d="M870 1168h441v532h448v-532h188v-350h-188v-125q0 -114 -28.5 -211.5t-80 -176.5t-122 -139.5t-155 -101.5t-179.5 -62t-194 -21t-194 21t-180 62t-156.5 101.5t-123.5 139.5t-81 176.5t-29 211.5v1007h448v-1004q0 -69 21 -127t61.5 -100.5t99 -66.5t133.5 -24
q79 0 137.5 24t97.5 66.5t58 100.5t19 127v122h-441v350z" />
    <glyph glyph-name="sosuathai" unicode="&#xe2a;" horiz-adv-x="1867" 
d="M1755 1850l-262 -366q66 -77 102 -180.5t36 -239.5v-1064h-448v741q-33 7 -73.5 14t-84 12t-88 8t-86.5 3q-65 0 -122 -15t-99 -43.5t-66 -68.5t-24 -91q0 -46 17.5 -80t47 -56.5t66.5 -34t76 -11.5q22 0 44.5 1.5t48 6.5t54 14.5t62.5 25.5l153 -343
q-117 -56 -218.5 -79t-189.5 -23q-117 0 -227 36.5t-195 108.5t-136 179t-51 248q0 144 59.5 253.5t160.5 184t234 112t280 37.5q84 0 176.5 -13.5t180.5 -40.5q-13 76 -45 124t-78.5 74.5t-105 36t-123.5 9.5q-52 0 -115.5 -13.5t-131.5 -37.5t-138 -58t-135 -75l-170 363
q82 49 175 88t186.5 66t183 41t165.5 14q72 0 139.5 -7t130.5 -21l114 160h520z" />
    <glyph glyph-name="hohipthai" unicode="&#xe2b;" horiz-adv-x="1978" 
d="M684 523v-523h-448v1700h448v-622l609 622h576l-407 -404q144 -81 211.5 -208t67.5 -292v-796h-448v793q0 30 -7 61t-22 59.5t-38.5 52.5t-56.5 40z" />
    <glyph glyph-name="lochulathai" unicode="&#xe2c;" horiz-adv-x="2026" 
d="M1690 1351q52 -27 83.5 -61t48 -71.5t22 -75t5.5 -71.5q0 -4 -0.5 -13.5t-1.5 -21.5t-3 -25t-4 -24l-173 -989h-351l-317 620l-312 -619h-363l-229 1700h451l123 -1068l333 624l350 -629l54 451q2 11 3 20.5t1 20.5q0 54 -19.5 103t-57.5 86.5t-94.5 59.5t-129.5 22v310
h903v-349h-322z" />
    <glyph glyph-name="oangthai" unicode="&#xe2d;" horiz-adv-x="1832" 
d="M1037 643h-483q0 -62 31 -112t81.5 -85t113 -54t125.5 -19q90 0 163.5 35t125 97t79.5 148.5t28 188.5q0 129 -34.5 221t-93.5 150.5t-137.5 86t-167.5 27.5q-55 0 -113 -12.5t-117 -42t-117.5 -77.5t-113.5 -119l-267 259q64 95 151 166.5t184.5 119.5t200.5 72.5
t201 24.5q185 0 345 -59t277.5 -171t184.5 -275t67 -371q0 -136 -32 -252.5t-89.5 -212t-137 -169.5t-173.5 -124.5t-199.5 -76.5t-215.5 -26q-178 0 -325 60t-252.5 169t-163.5 262t-58 340q0 23 2.5 69t13.5 111h916v-349z" />
    <glyph glyph-name="honokhukthai" unicode="&#xe2e;" horiz-adv-x="1832" 
d="M1733 1850l-249 -348q125 -113 196 -278.5t71 -381.5q0 -136 -32 -252.5t-89.5 -212t-137 -169.5t-173.5 -124.5t-199.5 -76.5t-215.5 -26q-178 0 -325 60t-252.5 169t-163.5 262t-58 340q0 23 2.5 69t13.5 111h916v-349h-483q0 -62 31 -112t81.5 -85t113 -54t125.5 -19
q90 0 163.5 35t125 97t79.5 148.5t28 188.5q0 129 -34.5 221t-93.5 150.5t-137.5 86t-167.5 27.5q-55 0 -113 -12.5t-117 -42t-117.5 -77.5t-113.5 -119l-267 259q64 95 151 166.5t184.5 119.5t200.5 72.5t201 24.5q117 0 225 -24l111 156h520z" />
    <glyph glyph-name="paiyannoithai" unicode="&#xe2f;" horiz-adv-x="1765" 
d="M677 598q-135 0 -242 42.5t-181 125.5t-113 206t-39 284v444h448v-441q0 -137 50 -205.5t162 -68.5q71 0 130 27.5t101.5 72.5t66 103.5t23.5 120.5v391h446v-1700h-446v838q-44 -74 -95.5 -120.5t-105 -73t-106.5 -36.5t-99 -10z" />
    <glyph glyph-name="saraathai" unicode="&#xe30;" horiz-adv-x="1090" 
d="M981 132h-554q-80 0 -136.5 20.5t-94.5 53.5t-59.5 75t-32.5 84t-14 81t-3 66q-2 14 -1 38t2.5 48.5t3.5 45t3 27.5h391q-7 -41 -9 -73t-2 -66q0 -29 14 -45t34 -16h458v-339zM981 1052h-554q-80 0 -136.5 20.5t-94.5 53.5t-59.5 75t-32.5 84t-14 81t-3 66q-2 14 -1 38
t2.5 48.5t3.5 45t3 27.5h391q-7 -41 -9 -73t-2 -66q0 -29 14 -45t34 -16h458v-339z" />
    <glyph glyph-name="maihanakatthai" unicode="&#xe31;" 
d="M-71 2256v-298h-888q-112 0 -188 29t-122.5 74.5t-66.5 100.5t-20 107v218h375v-122q0 -109 146 -109h764z" />
    <glyph glyph-name="saraaathai" unicode="&#xe32;" horiz-adv-x="1336" 
d="M511 1729q159 0 271 -49t182.5 -135.5t103 -204t32.5 -254.5v-1086h-448v1106q0 62 -13.5 106t-35.5 71.5t-49 40.5t-54 13q-26 0 -60 -7t-73.5 -29t-82.5 -62t-87 -107l-275 250q54 94 120 160t141 107.5t157.5 60.5t170.5 19z" />
    <glyph glyph-name="saraamthai" unicode="&#xe33;" horiz-adv-x="1336" 
d="M511 1729q159 0 271 -49t182.5 -135.5t103 -204t32.5 -254.5v-1086h-448v1106q0 62 -13.5 106t-35.5 71.5t-49 40.5t-54 13q-26 0 -60 -7t-73.5 -29t-82.5 -62t-87 -107l-275 250q54 94 120 160t141 107.5t157.5 60.5t170.5 19zM-835 2247q0 63 29 118.5t79.5 96.5
t118 64.5t144.5 23.5q76 0 143 -23.5t116.5 -64.5t78.5 -96.5t29 -118.5t-29 -117.5t-78.5 -95.5t-116.5 -64.5t-143 -23.5q-77 0 -144.5 23.5t-118 64.5t-79.5 95.5t-29 117.5zM-590 2243q0 -22 8.5 -41.5t24 -34.5t37 -23.5t48.5 -8.5t49 8.5t37.5 23.5t24 34.5t8.5 41.5
t-8.5 41.5t-24 34t-37.5 23t-49 8.5q-54 0 -86 -31t-32 -76z" />
    <glyph glyph-name="saraithai" unicode="&#xe34;" 
d="M-1796 2256h1560v-298h-1560v298z" />
    <glyph glyph-name="saraiithai" unicode="&#xe35;" 
d="M-1796 2256h1122v250h438v-548h-1560v298z" />
    <glyph glyph-name="sarauethai" unicode="&#xe36;" 
d="M-1796 1958v298h1041v1q-4 64 15 116t56.5 88.5t91.5 56t119 19.5t117.5 -20.5t89 -58t56 -91t19.5 -118.5t-22.5 -119t-61.5 -92t-92.5 -59t-114.5 -21h-1314zM-574 2254q0 -55 27.5 -83t73.5 -28t74 28t28 83q0 54 -28 82.5t-74 28.5t-73.5 -28.5t-27.5 -82.5z" />
    <glyph glyph-name="saraueethai" unicode="&#xe37;" 
d="M-1796 2256h704v250h345v-250h166v250h345v-548h-1560v298z" />
    <glyph glyph-name="sarauthai" unicode="&#xe38;" 
d="M-657 -874v283q0 21 -7.5 36t-19.5 24.5t-27 13.5t-31 4q-27 0 -57 -16.5t-63 -46.5l-132 250q66 57 126 90t114 49.5t101 21t87 4.5q98 0 161.5 -34t101 -85t52.5 -109.5t15 -107.5v-377h-421z" />
    <glyph glyph-name="sarauuthai" unicode="&#xe39;" 
d="M-1450 -297q99 68 188.5 96.5t173.5 28.5q81 0 132 -21.5t80.5 -56.5t40.5 -79t11 -88v-141q0 -24 11 -38.5t25.5 -22.5t29.5 -11t23 -3q7 0 22 2.5t30 10.5t26.5 22.5t11.5 39.5v372h409v-351q0 -93 -40 -163t-109 -117t-161.5 -71t-197.5 -24q-106 0 -193.5 23.5
t-150.5 68t-97.5 109t-34.5 146.5v29q0 25 -13 32.5t-25 7.5q-22 0 -44.5 -12.5t-33.5 -23.5z" />
    <glyph glyph-name="phinthuthai" unicode="&#xe3a;" 
d="M-789 -428q0 52 22 98.5t59.5 81t88 54.5t106.5 20q58 0 109 -20t89 -54.5t60 -81t22 -98.5q0 -51 -22 -97t-60 -80.5t-89 -54.5t-109 -20q-56 0 -106.5 20t-88 54.5t-59.5 80.5t-22 97z" />
    <glyph glyph-name="uni0E3D" unicode="&#xe3d;" 
 />
    <glyph glyph-name="PUCR2005" unicode="&#xe3e;" 
 />
    <glyph glyph-name="bahtthai" unicode="&#xe3f;" horiz-adv-x="2132" 
d="M216 2122h704v231h263v-231h32q148 0 283 -42t238 -122q92 -72 146.5 -174t54.5 -232q0 -81 -20 -148.5t-56 -122t-86 -97.5t-109 -76q56 -18 122.5 -58t124.5 -101.5t96.5 -145t38.5 -188.5q0 -152 -51.5 -263t-148.5 -183q-117 -88 -273.5 -128.5t-345.5 -40.5h-46
v-291h-263v291h-704v2122zM1573 634q0 58 -20 101.5t-62.5 72.5t-110 44t-163.5 15h-34v-446h75q153 0 234 51t81 162zM686 421h234v446h-234v-446zM1468 1502q0 45 -18 81.5t-52.5 63t-85.5 40.5t-118 14h-11v-429h8q132 0 204.5 57t72.5 173zM686 1272h234v429h-234v-429z
" />
    <glyph glyph-name="saraethai" unicode="&#xe40;" horiz-adv-x="920" 
d="M236 0v1700h448v-1700h-448z" />
    <glyph glyph-name="saraaethai" unicode="&#xe41;" horiz-adv-x="1630" 
d="M236 0v1700h448v-1700h-448zM946 0v1700h448v-1700h-448z" />
    <glyph glyph-name="saraothai" unicode="&#xe42;" horiz-adv-x="900" 
d="M234 1557q0 110 -20.5 192t-60.5 147t-98.5 118t-133.5 106q52 95 121 158t145.5 101t156 53.5t152.5 15.5q56 0 118.5 -7t127 -25t129 -48.5t125.5 -77.5l-133 -234q-82 55 -166 85.5t-183 30.5q-30 0 -58.5 -4.5t-52.5 -11.5t-42.5 -14.5t-28.5 -14.5
q181 -129 265.5 -275t84.5 -316v-1536h-448v1557z" />
    <glyph glyph-name="saraaimaimuanthai" unicode="&#xe43;" horiz-adv-x="895" 
d="M680 0h-448v1625q62 49 119 106.5t101 114t70 107.5t26 86q0 49 -27.5 84t-88.5 35q-21 0 -51 -4t-70.5 -17.5t-93.5 -40t-120 -70.5l-120 221q43 35 99 70.5t122 63.5t140.5 45.5t152.5 17.5q90 0 163 -26.5t125 -73.5t80 -113t28 -144q0 -60 -16.5 -120t-45 -117
t-66 -109.5t-79.5 -98.5v-1642z" />
    <glyph glyph-name="saraaimaimalaithai" unicode="&#xe44;" horiz-adv-x="903" 
d="M680 0h-448v1437q0 108 26.5 199.5t73 172t109 153.5t134.5 146q-16 -6 -42.5 -12.5t-59.5 -12t-70 -7.5t-73 2q-107 10 -206.5 42.5t-169.5 85.5l121 247q54 -31 107.5 -50t100.5 -29t84.5 -13t59.5 -3q63 0 152.5 18.5t195.5 73.5l206 -263q-68 -60 -123 -134.5
t-95 -159t-61.5 -178t-21.5 -190.5v-1525z" />
    <glyph glyph-name="lakkhangyaothai" unicode="&#xe45;" horiz-adv-x="1336" 
d="M511 1729q159 0 271 -49t182.5 -135.5t103 -204t32.5 -254.5v-1585h-448v1605q0 62 -13.5 106t-35.5 71.5t-49 40.5t-54 13q-26 0 -60 -7t-73.5 -29t-82.5 -62t-87 -107l-275 250q54 94 120 160t141 107.5t157.5 60.5t170.5 19z" />
    <glyph glyph-name="maiyamokthai" unicode="&#xe46;" horiz-adv-x="1788" 
d="M98 1088q0 126 38.5 239t107.5 198.5t164 135.5t208 50q67 0 121 -21t96.5 -55.5t75 -79t58.5 -92.5l290 237h295v-2200h-448v1666l-184 -139l-68 148q-12 28 -30 55.5t-40 49t-48 35t-54 13.5q-35 0 -62 -20.5t-45 -54t-27 -76t-9 -87.5q0 -54 12 -99t33 -77.5t48.5 -50
t57.5 -17.5q32 0 55.5 9t52.5 35l190 -213q-57 -65 -113.5 -102t-107 -55.5t-91 -23t-64.5 -4.5q-58 0 -118.5 17.5t-117.5 52t-107.5 85t-88 117t-59 147.5t-21.5 177z" />
    <glyph glyph-name="maitaikhuthai" unicode="&#xe47;" 
d="M-1041 1951q-74 1 -143 22.5t-121.5 61t-84 96t-31.5 127.5q0 75 29 138.5t92.5 109.5t165.5 72t249 26q30 0 66.5 -3.5t71 -8t61.5 -9.5t38 -9l93 149h346l-239 -371q-46 17 -99 30t-109 22t-113 13.5t-109 4.5q-47 0 -88.5 -10t-73 -30.5t-50 -50t-18.5 -68.5
q0 -18 4.5 -35.5t13 -32.5t21 -26t28.5 -14l205 96q31 -36 55 -55.5t43.5 -29t36 -11t32.5 -1.5q26 0 36 19t12 41q1 17 -4.5 33t-10.5 26h286q8 -21 12.5 -43.5t4.5 -48.5q0 -47 -22.5 -89.5t-62.5 -74t-93.5 -50t-114.5 -17.5q-71 1 -125.5 24t-109.5 66z" />
    <glyph glyph-name="maiekthai" unicode="&#xe48;" 
d="M-669 2643v431h433v-431h-433z" />
    <glyph glyph-name="maithothai" unicode="&#xe49;" 
d="M-54 3138q-15 -72 -54.5 -141t-97.5 -129t-133.5 -106t-162.5 -71q-49 -14 -97 -23.5t-92 -16.5t-82 -11.5t-66 -7.5l-38 -2l-62 164q29 12 53 29q20 14 37 36t17 53q0 14 -6.5 25.5t-16.5 20t-23 13t-25 4.5q-27 0 -52 -6.5t-51 -20.5l-71 172q37 25 75 39.5t71 22.5
t59 10.5t39 2.5q49 0 90.5 -12t72 -35t47.5 -57t17 -79q0 -42 -10.5 -79.5t-32.5 -68.5q63 11 117 34.5t95.5 58t69 80t38.5 101.5h275z" />
    <glyph glyph-name="maitrithai" unicode="&#xe4a;" 
d="M-832 3139q57 0 104 -21.5t86 -53.5q53 39 99 57t91 18q48 0 83 -14.5t58.5 -39t34.5 -56t11 -64.5q-1 -9 -1.5 -16t-2 -14t-5 -14.5t-9.5 -17.5q28 22 50.5 49.5t38 56.5t24.5 57t11 50h199q-8 -64 -34.5 -124t-66.5 -113t-89 -97.5t-101.5 -76t-105 -49t-98.5 -17.5
q-11 0 -19.5 -1t-25.5 1l-44 141q15 5 31.5 13.5t30 22t22 31.5t8.5 43q0 17 -6.5 29t-14.5 19.5t-16 11t-11 3.5q-33 0 -56 -15.5t-45 -29.5q-8 -6 -18.5 -13.5t-21.5 -7.5q-15 0 -27.5 8.5t-20.5 14.5q-20 14 -41.5 28.5t-50.5 14.5q-10 0 -19 -5.5t-15.5 -14.5t-10.5 -21
t-3 -25q1 -23 13 -39t31 -25q14 -7 30 -9t33 -2l-47 -169q-9 -2 -24 -3t-31 -1q-54 0 -96 22.5t-71 59t-43.5 83.5t-14.5 96q0 54 20 98t51 75.5t69.5 48.5t76.5 17z" />
    <glyph glyph-name="maichattawathai" unicode="&#xe4b;" 
d="M-884 3027h231v178h271v-178h231v-204h-231v-177h-271v177h-231v204z" />
    <glyph glyph-name="thanthakhatthai" unicode="&#xe4c;" 
d="M-113 2695h-393q-38 0 -59.5 -20t-21.5 -47q0 -11 1 -21.5t5.5 -22.5t13.5 -25.5t25 -29.5l-227 -140q-39 35 -63.5 74t-38 75t-18 66.5t-4.5 48.5q0 78 32.5 127.5t81.5 77.5t106 38.5t106 10.5h454v-212z" />
    <glyph glyph-name="nikhahitthai" unicode="&#xe4d;" 
d="M-835 2247q0 63 29 118.5t79.5 96.5t118 64.5t144.5 23.5q76 0 143 -23.5t116.5 -64.5t78.5 -96.5t29 -118.5t-29 -117.5t-78.5 -95.5t-116.5 -64.5t-143 -23.5q-77 0 -144.5 23.5t-118 64.5t-79.5 95.5t-29 117.5zM-590 2243q0 -22 8.5 -41.5t24 -34.5t37 -23.5
t48.5 -8.5t49 8.5t37.5 23.5t24 34.5t8.5 41.5t-8.5 41.5t-24 34t-37.5 23t-49 8.5q-54 0 -86 -31t-32 -76z" />
    <glyph glyph-name="yamakkanthai" unicode="&#xe4e;" 
d="M-30 2397h-226q-9 0 -19.5 -3.5t-19.5 -11.5t-15 -20.5t-6 -31.5v-132h-175q-41 0 -61.5 -16t-20.5 -64v-110h-300v125q0 24 3 54.5t13.5 62t29 61.5t49.5 54.5t76 40.5t108 19q3 36 19 70t50 61t88.5 43.5t135.5 16.5h271v-219z" />
    <glyph glyph-name="fongmanthai" unicode="&#xe4f;" horiz-adv-x="2208" 
d="M226 849q0 121 31.5 233.5t88.5 210t137 177.5t177.5 137t210 88.5t233.5 31.5t233.5 -31.5t210 -88.5t177.5 -137t137 -177.5t88.5 -210t31.5 -233.5t-31.5 -233.5t-88.5 -210t-137 -177.5t-177.5 -137t-210 -88.5t-233.5 -31.5t-233.5 31.5t-210 88.5t-177.5 137
t-137 177.5t-88.5 210t-31.5 233.5zM651 849q0 94 35.5 176.5t97 144t144 97t176.5 35.5t176.5 -35.5t144 -97t97 -144t35.5 -176.5t-35.5 -176.5t-97 -144t-144 -97t-176.5 -35.5t-176.5 35.5t-144 97t-97 144t-35.5 176.5zM910 849q0 -40 15.5 -75t42 -61.5t61.5 -42
t75 -15.5t75 15.5t61.5 42t42 61.5t15.5 75t-15.5 75t-42 61.5t-61.5 42t-75 15.5t-75 -15.5t-61.5 -42t-42 -61.5t-15.5 -75zM518 848q0 -81 21 -156t59.5 -140.5t92 -119t119 -92t140.5 -59.5t156 -21t156 21t140.5 59.5t119 92t92 119t59.5 140.5t21 156t-21 156
t-59.5 140.5t-92 119t-119 92t-140.5 59.5t-156 21t-156 -21t-140.5 -59.5t-119 -92t-92 -119t-59.5 -140.5t-21 -156z" />
    <glyph glyph-name="zerothai" unicode="&#xe50;" horiz-adv-x="2117" 
d="M1978 758q0 -165 -64 -309t-183.5 -251t-289.5 -169t-383 -62t-383 62t-289.5 169t-183.5 251t-64 309q0 163 64 306.5t183.5 250.5t289.5 169t383 62t383 -62t289.5 -169t183.5 -250.5t64 -306.5zM565 756q0 -93 33.5 -171t97 -134t154.5 -87.5t206 -31.5
q118 0 210 31.5t155.5 87.5t96.5 134t33 171t-32 171.5t-94.5 134.5t-155 87.5t-213.5 31.5q-117 0 -208.5 -31.5t-154.5 -87.5t-95.5 -134.5t-32.5 -171.5z" />
    <glyph glyph-name="onethai" unicode="&#xe51;" horiz-adv-x="2112" 
d="M259 988q0 77 29.5 148.5t84 133.5t130 113t167.5 87t197 56t219 20q129 0 245 -25.5t214.5 -73.5t177.5 -116.5t134.5 -155t85.5 -189.5t30 -219q0 -113 -33.5 -216.5t-95.5 -193.5t-149.5 -164t-196.5 -126.5t-236.5 -81t-268.5 -28.5q-140 0 -266 20.5t-239.5 61
t-216.5 100.5t-198 140l262 257q91 -76 181.5 -122.5t175.5 -71.5t162 -33.5t141 -8.5q116 0 216.5 35.5t175 98t117.5 148t43 184.5q0 105 -39.5 183.5t-105.5 131t-151.5 78.5t-176.5 26q-88 0 -159.5 -16.5t-122.5 -45.5t-79 -68.5t-28 -84.5q0 -44 19.5 -74t48.5 -48.5
t63 -26.5t64 -8q17 0 41 4.5t50.5 13t53 21t49.5 28.5l122 -284q-26 -19 -63.5 -37t-84 -32t-99.5 -22.5t-109 -8.5q-55 0 -119.5 10.5t-129 34.5t-124.5 62t-106 93t-74 127t-28 165z" />
    <glyph glyph-name="twothai" unicode="&#xe52;" horiz-adv-x="2112" 
d="M1039 1519q61 0 117 -14.5t105.5 -40.5t91 -63.5t72.5 -82.5l284 201h317v-781q0 -114 -40.5 -214.5t-110.5 -185t-164.5 -151.5t-202.5 -113.5t-224 -71t-230 -24.5t-229.5 24.5t-223 71t-201.5 113.5t-164 151.5t-110 185t-40 214.5v1017h424v-1022q0 -59 21 -111
t58.5 -95t89 -77t112 -57.5t127 -36t135.5 -12.5q103 0 201.5 27.5t176 78t124.5 122.5t47 161v353l-288 -203q-9 22 -30 61.5t-49 83t-62.5 83.5t-70.5 64q-14 8 -30 13t-33 5q-24 0 -45 -8.5t-36.5 -23t-24.5 -34.5t-9 -43q0 -18 7 -34.5t18 -31.5t25 -28t28 -23
l-305 -173q-55 58 -86 132t-31 158q0 90 36 169t98.5 138.5t146 93.5t178.5 34z" />
    <glyph glyph-name="threethai" unicode="&#xe53;" horiz-adv-x="2112" 
d="M2032 743q0 -98 -14 -184.5t-35.5 -162t-49 -138.5t-54.5 -113t-51.5 -86.5t-39.5 -57.5h-450q48 61 96 138.5t86.5 171t63 201.5t24.5 230q0 97 -12 182t-38.5 148.5t-68.5 100.5t-102 37q-66 0 -109 -51.5t-44 -146.5v-265h-344v265q0 47 -12.5 84t-33.5 62.5t-49 38.5
t-58 13q-57 0 -101 -31t-74 -91t-45.5 -147.5t-15.5 -199.5q0 -102 17.5 -177.5t50 -125t78.5 -73.5t102 -24q20 0 44 4t50.5 14t54.5 27t56 44l189 -264q-101 -95 -197.5 -138t-201.5 -43q-140 0 -261.5 55.5t-212 156t-142.5 239.5t-52 306q0 172 48 316.5t133.5 249.5
t204 163.5t260.5 58.5q55 0 105.5 -15t94 -42t78.5 -63t59 -78q23 43 56.5 79.5t75.5 62.5t90.5 41t101.5 15q149 0 269 -59t204.5 -164t130 -249t45.5 -315z" />
    <glyph glyph-name="fourthai" unicode="&#xe54;" horiz-adv-x="2114" 
d="M1119 -24q-221 0 -407 57t-321 161.5t-210.5 252.5t-75.5 331q0 158 68.5 296t197.5 240t314 161t419 59q112 0 231.5 -17.5t229.5 -50.5l96 289h453l-250 -766q-92 48 -181.5 87.5t-180.5 67t-186 42.5t-197 15q-73 0 -145 -14t-136.5 -40.5t-120 -65t-95.5 -87.5
t-63 -108t-23 -127q0 -91 35.5 -170.5t101.5 -139t159.5 -94.5t210.5 -37q-38 24 -70.5 55.5t-56.5 70.5t-36 85t-7 98q5 57 26.5 103.5t54.5 84t74.5 65.5t86.5 49t90 34t86 21l243 -296q-83 -9 -137 -22.5t-86 -32t-45.5 -41t-15.5 -47.5q-3 -31 10.5 -58.5t38.5 -51.5
t58 -43.5t70 -32.5q37 4 82 15t92.5 29t94.5 42.5t88 54.5l225 -278q-43 -37 -104.5 -70t-134 -60.5t-154.5 -49t-166.5 -36t-168.5 -22.5t-162 -8z" />
    <glyph glyph-name="fivethai" unicode="&#xe55;" horiz-adv-x="2114" 
d="M1811 1019q-101 58 -185.5 97.5t-164 63t-161.5 33.5t-179 10q-110 0 -215 -34.5t-187.5 -96t-132.5 -146.5t-50 -187q0 -91 35.5 -170.5t101.5 -139t159.5 -94.5t210.5 -37q-38 24 -70.5 55.5t-56.5 70.5t-36 85t-7 98q5 57 26.5 103.5t54.5 84t74.5 65.5t86.5 49t90 34
t86 21l243 -296q-83 -9 -137 -22.5t-86 -32t-45.5 -41t-15.5 -47.5q-3 -31 10.5 -58.5t38.5 -51.5t58 -43.5t70 -32.5q37 4 82 15t92.5 29t94.5 42.5t88 54.5l225 -278q-43 -37 -104.5 -70t-134 -60.5t-154.5 -49t-166.5 -36t-168.5 -22.5t-162 -8q-221 0 -407 57
t-321 161.5t-210.5 252.5t-75.5 331q0 129 46 246.5t133.5 214t214.5 167.5t289 107q-11 42 -11 87q0 76 31 140.5t84.5 111t123.5 73t148 26.5t149 -26.5t124 -73t84.5 -111t31.5 -140.5q0 -54 -17 -105q154 -38 271 -96t206 -125zM1063 1596q0 -37 11.5 -61t27.5 -37.5
t33 -18.5t27 -5q12 0 29 5t32.5 18.5t26.5 37.5t11 61q0 35 -9.5 58t-24 36t-32 18t-33.5 5q-14 0 -31 -5t-32 -18t-25.5 -36t-10.5 -58z" />
    <glyph glyph-name="sixthai" unicode="&#xe56;" horiz-adv-x="2113" 
d="M951 1201q-75 0 -162.5 -13.5t-176.5 -38.5t-174.5 -61.5t-156.5 -81.5l-246 749h453l95 -289q46 14 100.5 26.5t114 21.5t121.5 14.5t124 5.5q209 0 374.5 -58.5t281 -164t176.5 -251.5t61 -320q0 -112 -30 -211.5t-86.5 -184.5t-136 -153t-178.5 -116t-215 -73.5
t-244 -25.5q-155 0 -289 37.5t-242.5 106t-189.5 165.5t-129 216l393 165q37 -87 86 -150t107 -103.5t124.5 -59.5t137.5 -19q94 0 178.5 28t148 81t100.5 128t37 170q0 114 -36.5 200t-107.5 143.5t-175 87t-238 29.5z" />
    <glyph glyph-name="seventhai" unicode="&#xe57;" horiz-adv-x="2114" 
d="M1317 0l146 428q12 36 26.5 85.5t27 99.5t20.5 96.5t8 76.5q0 72 -11.5 147.5t-37 137t-66.5 100.5t-101 39q-66 0 -109 -51.5t-44 -146.5v-265h-344v265q0 47 -12.5 84t-33.5 62.5t-49 38.5t-58 13q-57 0 -98 -31t-67 -90.5t-38.5 -146.5t-12.5 -199q0 -96 19.5 -172
t52 -129t75 -82t87.5 -31q57 -3 110 20.5t101 74.5l187 -258q-89 -84 -185 -132.5t-214 -48.5q-140 0 -260 61t-208.5 165t-139 241t-50.5 290q0 172 44.5 316.5t126.5 249.5t197.5 163.5t257.5 58.5q55 0 105.5 -15t94 -42t78.5 -63t59 -78q23 43 56.5 79.5t75.5 62.5
t90.5 41t101.5 15q278 0 412 -276l168 501h439l-596 -1755h-431z" />
    <glyph glyph-name="eightthai" unicode="&#xe58;" horiz-adv-x="2117" 
d="M537 759q0 -118 50 -210.5t132 -155.5l391 210l421 -228q13 9 25 24.5t21 33t14 35.5t5 34q0 33 -12 63t-35 55t-56 42.5t-75 25.5l109 287q117 -16 204.5 -64t146 -114t88 -142t29.5 -149q0 -87 -23.5 -166.5t-72.5 -148.5t-124 -125.5t-178 -96.5l-487 263l-484 -265
q-117 55 -212.5 138t-164 185t-106 218t-37.5 235q0 175 68.5 321t197.5 250t314 162t419 58q56 0 120.5 -6t127.5 -16t118.5 -22t94.5 -24l96 289h453l-244 -732q-92 48 -182.5 82t-182.5 55.5t-188 31t-198 9.5q-73 0 -145 -14t-136.5 -40.5t-120 -65t-95.5 -87.5
t-63 -108t-23 -127z" />
    <glyph glyph-name="ninethai" unicode="&#xe59;" horiz-adv-x="2117" 
d="M784 -23q-158 0 -284.5 63t-216 173t-137.5 258.5t-48 318.5q0 106 23.5 203t67 180.5t105 151.5t137 116t164 74.5t186.5 26.5q101 0 188 -26t160 -92q22 30 49 50t55.5 32.5t57 18t54.5 5.5q18 0 43.5 -4t54.5 -13t60 -23t60 -34l103 299h446l-249 -783
q-31 36 -78.5 75.5t-101 72.5t-108.5 56t-101 27q-45 4 -66 -14.5t-26.5 -48t2 -63t21.5 -60.5l529 -1017h-452l-539 1034q-12 22 -28.5 47t-39 46t-52.5 35t-67 14q-35 0 -76.5 -25.5t-76.5 -74.5t-58.5 -121t-23.5 -165q0 -124 29.5 -211.5t74.5 -143t99 -81.5t104 -26
q16 0 40 4.5t53.5 16.5t63 32.5t68.5 52.5l155 -277q-36 -41 -83 -74t-102 -56.5t-115.5 -36.5t-123.5 -13z" />
    <glyph glyph-name="angkhankhuthai" unicode="&#xe5a;" horiz-adv-x="2465" 
d="M677 598q-135 0 -242 42.5t-181 125.5t-113 206t-39 284v444h448v-441q0 -137 50 -205.5t162 -68.5q71 0 130 27.5t101.5 72.5t66 103.5t23.5 120.5v391h446v-1700h-446v838q-44 -74 -95.5 -120.5t-105 -73t-106.5 -36.5t-99 -10zM1783 1700h446v-1700h-446v1700z" />
    <glyph glyph-name="khomutthai" unicode="&#xe5b;" horiz-adv-x="3094" 
d="M1538 1130q0 -104 -35.5 -198.5t-96.5 -166t-143 -114t-176 -42.5q-26 0 -59 6t-69.5 19t-73.5 32.5t-70 46.5l107 295q21 -12 49 -22t54 -10q16 0 37 11.5t39.5 33.5t31.5 53.5t13 72.5q0 44 -16 84.5t-44.5 71t-67 49t-83.5 18.5q-63 0 -126 -29.5t-113.5 -92
t-82 -159.5t-31.5 -232q0 -120 41 -214t106.5 -159t147.5 -99.5t165 -34.5q120 0 233 59.5t201.5 170t142 267.5t53.5 352l263 153q18 -27 39.5 -62.5t43.5 -76.5t42.5 -86.5t36.5 -92.5q14 62 24 114.5t17 94.5l247 -12q5 -11 15 -35.5t21.5 -56.5t23 -68t20.5 -69
q18 46 41 76t50.5 48.5t58.5 26.5t64 10h262v-315h-218q-40 0 -65.5 -25.5t-41 -63.5t-23.5 -82t-13 -80l-220 -95q-3 20 -10.5 61t-18.5 90t-26 99.5t-33 88.5q-1 -13 -4 -38t-8 -55.5t-10.5 -63.5t-10.5 -61.5t-9 -49t-6 -25.5l-242 -65q-17 91 -26.5 151t-20.5 82
q-45 -165 -131.5 -299t-204 -228.5t-259.5 -145.5t-298 -51q-125 0 -239 29.5t-212 84.5t-177.5 133.5t-136 175.5t-87.5 210.5t-31 239.5q0 190 58 348t162.5 271t249.5 175.5t319 62.5q144 0 254.5 -51t185 -134.5t112.5 -190t38 -216.5z" />
    <glyph glyph-name="uni0E6C" unicode="&#xe6c;" 
 />
    <glyph glyph-name="ZWSP" unicode="&#x200b;" 
 />
    <glyph glyph-name="endash" unicode="&#x2013;" horiz-adv-x="1719" 
d="M166 1202h1388v-346h-1388v346z" />
    <glyph glyph-name="emdash" unicode="&#x2014;" horiz-adv-x="2711" 
d="M166 1202h2379v-346h-2379v346z" />
    <glyph glyph-name="quoteleft" unicode="&#x2018;" horiz-adv-x="953" 
d="M721 1393h-505v355q0 100 34 195t94 174t142.5 136.5t180.5 83.5l86 -183q-66 -25 -111 -60.5t-73.5 -75.5t-43.5 -80.5t-21 -74.5h217v-470z" />
    <glyph glyph-name="quoteright" unicode="&#x2019;" horiz-adv-x="953" 
d="M232 2307h505v-355q0 -100 -34 -195t-94 -174t-142.5 -137t-180.5 -83l-86 183q66 25 111 60.5t73.5 75.5t43.5 80t21 75h-217v470z" />
    <glyph glyph-name="quotedblleft" unicode="&#x201c;" horiz-adv-x="1713" 
d="M721 1393h-505v355q0 100 34 195t94 174t142.5 136.5t180.5 83.5l86 -183q-66 -25 -111 -60.5t-73.5 -75.5t-43.5 -80.5t-21 -74.5h217v-470zM1481 1393h-505v355q0 100 34 195t94 174t142.5 136.5t180.5 83.5l86 -183q-66 -25 -111 -60.5t-73.5 -75.5t-43.5 -80.5
t-21 -74.5h217v-470z" />
    <glyph glyph-name="quotedblright" unicode="&#x201d;" horiz-adv-x="1712" 
d="M991 2307h505v-355q0 -100 -34 -195t-94 -174t-142.5 -137t-180.5 -83l-86 183q66 25 111 60.5t73.5 75.5t43.5 80t21 75h-217v470zM231 2307h505v-355q0 -100 -34 -195t-94 -174t-142.5 -137t-180.5 -83l-86 183q66 25 111 60.5t73.5 75.5t43.5 80t21 75h-217v470z" />
    <glyph glyph-name="bullet" unicode="&#x2022;" horiz-adv-x="1386" 
d="M696 607q-95 0 -177 32.5t-143 90t-96 135.5t-35 170q0 93 36 171.5t97.5 135.5t143.5 89t174 32q90 0 170.5 -32t142 -89.5t97.5 -136t36 -171.5q0 -91 -35 -169t-95.5 -135.5t-142 -90t-173.5 -32.5z" />
    <glyph glyph-name="Euro" unicode="&#x20ac;" horiz-adv-x="2471" 
d="M1458 -28q-183 0 -345 51t-293 144t-228.5 222.5t-151.5 287.5h-309v316h249q-1 17 -1.5 33t-0.5 33t0.5 34t1.5 34h-249v316h312q56 156 154.5 286.5t231.5 225.5t296.5 148t349.5 53q130 0 243 -20t215 -63.5t196.5 -112.5t186.5 -168l-285 -335q-67 69 -131.5 120.5
t-132 85.5t-139.5 51t-153 17q-84 0 -160.5 -20t-143 -57.5t-122 -91t-97.5 -119.5h804v-316h-906q-3 -33 -3 -68t3 -66h906v-316h-805q41 -67 96 -120.5t120.5 -91t140 -58t155.5 -20.5q75 0 147 12.5t144.5 45.5t147.5 90.5t157 146.5l300 -304q-99 -114 -202 -192
t-214 -125.5t-231.5 -68t-253.5 -20.5z" />
    <glyph glyph-name="trademark" unicode="&#x2122;" horiz-adv-x="2105" 
d="M997 2122h243l238 -350l255 350h240v-867h-256v488l-210 -282h-64l-190 275v-481h-256v867zM386 1913h-251v209h770v-209h-250v-658h-269v658z" />
    <glyph glyph-name="uni25CC" unicode="&#x25cc;" horiz-adv-x="1986" 
d="M766 531l-140 -45l50 140q38 -56 90 -95zM922 1223l69 132l65 -128q-31 3 -61 3q-35 0 -73 -7zM1052 463l-61 -125l-60 125q29 -7 64 -7q30 0 57 7zM1378 907l122 -64l-122 -57q4 27 4 57q0 34 -4 64zM616 783l-134 68l134 64q-5 -34 -5 -72q0 -30 5 -60zM683 1074
l-38 137l134 -46q-58 -37 -96 -91zM1302 607l38 -121l-122 37q50 35 84 84zM1215 1165l144 46l-49 -141q-38 54 -95 95z" />
    <glyph glyph-name="thothannobasethai" unicode="&#xf700;" horiz-adv-x="1583" 
d="M1507 1718v-356h-233q34 -33 56.5 -70.5t36.5 -75t20 -72t7 -61.5q-1 -89 -27 -178t-75 -197q-42 -88 -87.5 -178t-90.5 -180t-87 -178t-78 -172h-352l-501 940h475l149 -346q17 -38 26 -72.5t15 -76.5h5q5 41 10 81t16 65q24 58 51.5 122t51 129.5t38.5 130.5t15 126
q0 57 -21 100.5t-57 73t-82.5 44.5t-97.5 15q-44 0 -90.5 -12t-93.5 -45t-92.5 -90t-87.5 -147l-346 194q34 104 101 192.5t159 153.5t205.5 102t241.5 37l-1 1h821z" />
    <glyph glyph-name="yoyingnobasethai" unicode="&#xf70f;" horiz-adv-x="2700" 
d="M1220 1020q0 77 -25 134.5t-66 95t-95.5 56t-112.5 18.5q-52 0 -95 -8.5t-79 -23.5t-66.5 -35.5t-55.5 -44.5l222 -230q-66 -47 -113 -93t-77 -97t-43.5 -109t-13.5 -128q0 -29 7 -64t22.5 -66t41.5 -52t65 -21q32 0 64.5 10t69.5 42l146 -270q-44 -42 -88 -70t-92 -45
t-102.5 -24.5t-119.5 -7.5q-106 0 -191 42t-144.5 113.5t-91.5 164.5t-32 195q0 137 46.5 264t146.5 240l-234 232q29 43 70 95t94.5 105.5t121 103.5t150.5 89t183 62.5t219 23.5q93 0 182.5 -18.5t169 -56t146.5 -94.5t115 -134t75.5 -174.5t27.5 -216.5v-447
q0 -63 16 -105.5t40.5 -67.5t55 -35.5t60.5 -10.5q28 0 57 10.5t52 35.5t37.5 67.5t14.5 105.5v1124h448v-1108q0 -109 -26 -197t-71 -156t-105 -117t-128 -80.5t-140 -46.5t-141 -15t-142 15t-141.5 46.5t-129.5 80.5t-106.5 117t-72 155.5t-26.5 197.5v428z" />
    <glyph glyph-name="saraulowthai" unicode="&#xf718;" 
d="M-657 -1364v283q0 21 -7.5 36t-19.5 24.5t-27 13.5t-31 4q-27 0 -57 -16.5t-63 -46.5l-132 250q66 57 126 90t114 49.5t101 21t87 4.5q98 0 161.5 -34t101 -85t52.5 -109.5t15 -107.5v-377h-421z" />
    <glyph glyph-name="sarauulowthai" unicode="&#xf719;" 
d="M-1450 -777q99 68 188.5 96.5t173.5 28.5q81 0 132 -21.5t80.5 -56.5t40.5 -79t11 -88v-141q0 -24 11 -38.5t25.5 -22.5t29.5 -11t23 -3q7 0 22 2.5t30 10.5t26.5 22.5t11.5 39.5v372h409v-351q0 -93 -40 -163t-109 -117t-161.5 -71t-197.5 -24q-106 0 -193.5 23.5
t-150.5 68t-97.5 109t-34.5 146.5v29q0 25 -13 32.5t-25 7.5q-22 0 -44.5 -12.5t-33.5 -23.5z" />
    <glyph glyph-name="phinthulowthai" unicode="&#xf71a;" 
d="M-789 -888q0 52 22 98.5t59.5 81t88 54.5t106.5 20q58 0 109 -20t89 -54.5t60 -81t22 -98.5q0 -51 -22 -97t-60 -80.5t-89 -54.5t-109 -20q-56 0 -106.5 20t-88 54.5t-59.5 80.5t-22 97z" />
    <glyph glyph-name="lochula.short" unicode="&#xf71d;" horiz-adv-x="1987" 
d="M1690 1351q52 -27 83.5 -61t48 -71.5t22 -75t5.5 -71.5q0 -4 -0.5 -13.5t-1.5 -21.5t-3 -25t-4 -24l-173 -989h-351l-317 620l-312 -619h-363l-229 1700h451l123 -1068l333 624l350 -629l54 451q2 11 3 20.5t1 20.5q0 54 -19.5 103t-57.5 86.5t-94.5 59.5t-129.5 22v310
h903v-349h-322z" />
    <glyph glyph-name="yamakkanleftthai" 
d="M-830 2397h-186q-9 0 -19.5 -3.5t-19.5 -11.5t-15 -20.5t-6 -31.5v-132h-175q-41 0 -61.5 -16t-20.5 -64v-110h-300v125q0 24 3 54.5t13.5 62t29 61.5t49.5 54.5t76 40.5t108 19q3 36 19 70t50 61t88.5 43.5t135.5 16.5h231v-219z" />
    <glyph glyph-name="uni0E33.alt1" horiz-adv-x="1336" 
d="M511 1729q159 0 271 -49t182.5 -135.5t103 -204t32.5 -254.5v-1086h-448v1106q0 62 -13.5 106t-35.5 71.5t-49 40.5t-54 13q-26 0 -60 -7t-73.5 -29t-82.5 -62t-87 -107l-275 250q54 94 120 160t141 107.5t157.5 60.5t170.5 19zM-1538 2247q0 63 29 118.5t79.5 96.5
t118 64.5t144.5 23.5q76 0 143 -23.5t116.5 -64.5t78.5 -96.5t29 -118.5t-29 -117.5t-78.5 -95.5t-116.5 -64.5t-143 -23.5q-77 0 -144.5 23.5t-118 64.5t-79.5 95.5t-29 117.5zM-1293 2243q0 -22 8.5 -41.5t24 -34.5t37 -23.5t48.5 -8.5t49 8.5t37.5 23.5t24 34.5t8.5 41.5
t-8.5 41.5t-24 34t-37.5 23t-49 8.5q-54 0 -86 -31t-32 -76z" />
    <glyph glyph-name="saraamleft" horiz-adv-x="1336" 
d="M511 1729q159 0 271 -49t182.5 -135.5t103 -204t32.5 -254.5v-1086h-448v1106q0 62 -13.5 106t-35.5 71.5t-49 40.5t-54 13q-26 0 -60 -7t-73.5 -29t-82.5 -62t-87 -107l-275 250q54 94 120 160t141 107.5t157.5 60.5t170.5 19zM-1538 2247q0 63 29 118.5t79.5 96.5
t118 64.5t144.5 23.5q76 0 143 -23.5t116.5 -64.5t78.5 -96.5t29 -118.5t-29 -117.5t-78.5 -95.5t-116.5 -64.5t-143 -23.5q-77 0 -144.5 23.5t-118 64.5t-79.5 95.5t-29 117.5zM-1293 2243q0 -22 8.5 -41.5t24 -34.5t37 -23.5t48.5 -8.5t49 8.5t37.5 23.5t24 34.5t8.5 41.5
t-8.5 41.5t-24 34t-37.5 23t-49 8.5q-54 0 -86 -31t-32 -76z" />
    <glyph glyph-name="guide" 
 />
    <glyph glyph-name="maiekthai.alt1" 
d="M-669 2523v431h433v-431h-433z" />
    <glyph glyph-name="maithothai.alt1" 
d="M-34 3028q-15 -72 -54.5 -141t-97.5 -129t-133.5 -106t-162.5 -71q-49 -14 -97 -23.5t-92 -16.5t-82 -11.5t-66 -7.5l-38 -2l-62 164q29 12 53 29q20 14 37 36t17 53q0 14 -6.5 25.5t-16.5 20t-23 13t-25 4.5q-27 0 -52 -6.5t-51 -20.5l-71 172q37 25 75 39.5t71 22.5
t59 10.5t39 2.5q49 0 90.5 -12t72 -35t47.5 -57t17 -79q0 -42 -10.5 -79.5t-32.5 -68.5q63 11 117 34.5t95.5 58t69 80t38.5 101.5h275z" />
    <glyph glyph-name="maitrithai.alt1" 
d="M-862 3039q57 0 104 -21.5t86 -53.5q53 39 99 57t91 18q48 0 83 -14.5t58.5 -39t34.5 -56t11 -64.5q-1 -9 -1.5 -16t-2 -14t-5 -14.5t-9.5 -17.5q28 22 50.5 49.5t38 56.5t24.5 57t11 50h199q-8 -64 -34.5 -124t-66.5 -113t-89 -97.5t-101.5 -76t-105 -49t-98.5 -17.5
q-11 0 -19.5 -1t-25.5 1l-44 141q15 5 31.5 13.5t30 22t22 31.5t8.5 43q0 17 -6.5 29t-14.5 19.5t-16 11t-11 3.5q-33 0 -56 -15.5t-45 -29.5q-8 -6 -18.5 -13.5t-21.5 -7.5q-15 0 -27.5 8.5t-20.5 14.5q-20 14 -41.5 28.5t-50.5 14.5q-10 0 -19 -5.5t-15.5 -14.5t-10.5 -21
t-3 -25q1 -23 13 -39t31 -25q14 -7 30 -9t33 -2l-47 -169q-9 -2 -24 -3t-31 -1q-54 0 -96 22.5t-71 59t-43.5 83.5t-14.5 96q0 54 20 98t51 75.5t69.5 48.5t76.5 17z" />
    <glyph glyph-name="maichattawathai.alt1" 
d="M-884 2917h231v178h271v-178h231v-204h-231v-177h-271v177h-231v204z" />
    <glyph glyph-name="maiekupperleftthai.alt2" 
d="M-1295 2543v431h433v-431h-433z" />
    <glyph glyph-name="maithoupperleftthai.alt2" 
d="M-384 3078q-15 -72 -54.5 -141t-97.5 -129t-133.5 -106t-162.5 -71q-49 -14 -97 -23.5t-92 -16.5t-82 -11.5t-66 -7.5l-38 -2l-62 164q29 12 53 29q20 14 37 36t17 53q0 14 -6.5 25.5t-16.5 20t-23 13t-25 4.5q-27 0 -52 -6.5t-51 -20.5l-71 172q37 25 75 39.5t71 22.5
t59 10.5t39 2.5q49 0 90.5 -12t72 -35t47.5 -57t17 -79q0 -42 -10.5 -79.5t-32.5 -68.5q63 11 117 34.5t95.5 58t69 80t38.5 101.5h275z" />
    <glyph glyph-name="maitriupperleftthai.alt2" 
d="M-1322 3039q57 0 104 -21.5t86 -53.5q53 39 99 57t91 18q48 0 83 -14.5t58.5 -39t34.5 -56t11 -64.5q-1 -9 -1.5 -16t-2 -14t-5 -14.5t-9.5 -17.5q28 22 50.5 49.5t38 56.5t24.5 57t11 50h199q-8 -64 -34.5 -124t-66.5 -113t-89 -97.5t-101.5 -76t-105 -49t-98.5 -17.5
q-11 0 -19.5 -1t-25.5 1l-44 141q15 5 31.5 13.5t30 22t22 31.5t8.5 43q0 17 -6.5 29t-14.5 19.5t-16 11t-11 3.5q-33 0 -56 -15.5t-45 -29.5q-8 -6 -18.5 -13.5t-21.5 -7.5q-15 0 -27.5 8.5t-20.5 14.5q-20 14 -41.5 28.5t-50.5 14.5q-10 0 -19 -5.5t-15.5 -14.5t-10.5 -21
t-3 -25q1 -23 13 -39t31 -25q14 -7 30 -9t33 -2l-47 -169q-9 -2 -24 -3t-31 -1q-54 0 -96 22.5t-71 59t-43.5 83.5t-14.5 96q0 54 20 98t51 75.5t69.5 48.5t76.5 17z" />
    <glyph glyph-name="maichattawaupperleftthai.alt2" 
d="M-1492 2917h231v178h271v-178h231v-204h-231v-177h-271v177h-231v204z" />
    <glyph glyph-name="maitaikhuthai.alt3" 
d="M-941 1951q-74 1 -143 22.5t-121.5 61t-84 96t-31.5 127.5q0 75 29 138.5t92.5 109.5t165.5 72t249 26q30 0 66.5 -3.5t71 -8t61.5 -9.5t38 -9l93 149h346l-239 -371q-46 17 -99 30t-109 22t-113 13.5t-109 4.5q-47 0 -88.5 -10t-73 -30.5t-50 -50t-18.5 -68.5
q0 -18 4.5 -35.5t13 -32.5t21 -26t28.5 -14l205 96q31 -36 55 -55.5t43.5 -29t36 -11t32.5 -1.5q26 0 36 19t12 41q1 17 -4.5 33t-10.5 26h286q8 -21 12.5 -43.5t4.5 -48.5q0 -47 -22.5 -89.5t-62.5 -74t-93.5 -50t-114.5 -17.5q-71 1 -125.5 24t-109.5 66z" />
    <glyph glyph-name="saraithai.alt3" 
d="M-1437 2256h1201v-298h-1201v298z" />
    <glyph glyph-name="saraiithai.alt3" 
d="M-1436 2256h762v250h438v-548h-1200v298z" />
    <glyph glyph-name="sarauethai.alt3" 
d="M-1436 1958v298h681q-2 62 17.5 112t57 85.5t90.5 54.5t117 19q65 0 117.5 -20t89 -56.5t56 -89t19.5 -117.5t-22.5 -118t-61.5 -90.5t-92.5 -57.5t-114.5 -20h-954zM-574 2244q0 -55 27.5 -83t73.5 -28t74 28t28 83q0 54 -28 82.5t-74 28.5t-73.5 -28.5t-27.5 -82.5z
" />
    <glyph glyph-name="saraueethai.alt3" 
d="M-1436 2256h391v250h318v-250h173v250h318v-548h-1200v298z" />
    <glyph glyph-name="maitaikhuthai.alt4" 
d="M-835 1951q-74 1 -143 22.5t-121.5 61t-84 96t-31.5 127.5q0 75 29 138.5t92.5 109.5t165.5 72t249 26q30 0 66.5 -3.5t71 -8t61.5 -9.5t38 -9l93 149h346l-239 -371q-46 17 -99 30t-109 22t-113 13.5t-109 4.5q-47 0 -88.5 -10t-73 -30.5t-50 -50t-18.5 -68.5
q0 -18 4.5 -35.5t13 -32.5t21 -26t28.5 -14l205 96q31 -36 55 -55.5t43.5 -29t36 -11t32.5 -1.5q26 0 36 19t12 41q1 17 -4.5 33t-10.5 26h286q8 -21 12.5 -43.5t4.5 -48.5q0 -47 -22.5 -89.5t-62.5 -74t-93.5 -50t-114.5 -17.5q-71 1 -125.5 24t-109.5 66z" />
    <glyph glyph-name="saraithai.alt4" 
d="M-1416 2256h1340v-298h-1340v298z" />
    <glyph glyph-name="saraiithai.alt4" 
d="M-1416 2256h902v250h438v-548h-1340v298z" />
    <glyph glyph-name="sarauethai.alt4" 
d="M-1416 1958v298h891q-2 62 17.5 112t57 85.5t90.5 54.5t117 19q65 0 117.5 -20t89 -56.5t56 -89t19.5 -117.5t-22.5 -118t-61.5 -90.5t-92.5 -57.5t-114.5 -20h-1164zM-344 2244q0 -55 27.5 -83t73.5 -28t74 28t28 83q0 54 -28 82.5t-74 28.5t-73.5 -28.5t-27.5 -82.5z
" />
    <glyph glyph-name="saraueethai.alt4" 
d="M-1415 2256h477v250h338v-250h173v250h338v-548h-1326v298z" />
    <glyph glyph-name="maiekthai.alt4" 
d="M-520 2643v431h444v-431h-444z" />
    <glyph glyph-name="maithothai.alt4" 
d="M266 3173q-17 -77 -58.5 -151.5t-103.5 -138t-142.5 -112t-173.5 -75.5q-53 -15 -104.5 -26t-98.5 -18.5t-87.5 -12t-70.5 -7.5l-42 -2l-66 174q32 13 58 31q22 16 40 40t18 56q0 29 -22.5 45t-49.5 16q-28 0 -55 -7t-54 -24l-81 193q39 26 79.5 42t75.5 24.5t63 11
t43 2.5q52 0 96.5 -13t76.5 -37.5t50.5 -61.5t18.5 -85q0 -44 -15.5 -80t-30.5 -67q135 25 224 99t115 184h297z" />
    <glyph glyph-name="maitrithai.alt4" 
d="M-566 3187q63 0 114.5 -23t93.5 -59q58 43 109 62.5t99 19.5q53 0 91.5 -16t64 -42.5t37.5 -61t12 -71.5q-1 -10 -1.5 -17.5t-2 -14.5t-5 -15.5t-9.5 -19.5q30 23 54.5 53.5t42 62t27 62.5t11.5 55h218q-9 -70 -38.5 -136t-73 -124t-97 -106.5t-111 -83t-115 -54
t-108.5 -19.5q-11 0 -21 -1t-28 1l-48 155q17 6 34.5 15.5t32 23.5t24 34t9.5 47q0 19 -6.5 32t-15.5 21t-17.5 12t-12.5 4q-36 0 -61.5 -17t-48.5 -32q-8 -7 -20.5 -15t-24.5 -8q-16 0 -29 9t-23 16q-22 15 -45 31t-55 16q-11 0 -21.5 -6t-18 -15.5t-11.5 -22.5t-3 -28
q1 -26 14.5 -43t35.5 -27q14 -7 31.5 -9.5t37.5 -2.5l-53 -186q-9 -2 -25.5 -3t-34.5 -1q-59 0 -105 24.5t-77.5 64.5t-47.5 91.5t-16 105.5q0 59 21.5 107.5t55.5 83t76 53t84 18.5z" />
    <glyph glyph-name="maichattawathai.alt4" 
d="M-763 3065h253v194h308v-194h253v-226h-253v-193h-308v193h-253v226z" />
    <glyph glyph-name="thanthakhatthai.alt4" 
d="M177 2695h-453q-38 0 -59.5 -20t-21.5 -47q0 -11 1 -21.5t5.5 -22.5t13.5 -25.5t25 -29.5l-247 -140q-39 35 -63.5 74t-38 75t-18 66.5t-4.5 48.5q0 88 31 143.5t78 86.5t102.5 42.5t104.5 11.5h544v-242z" />
    <glyph glyph-name="sarauthai.alt4" 
d="M-857 -874v283q0 21 -7.5 36t-19.5 24.5t-27 13.5t-31 4q-27 0 -57 -16.5t-63 -46.5l-132 250q66 57 126 90t114 49.5t101 21t87 4.5q98 0 161.5 -34t101 -85t52.5 -109.5t15 -107.5v-377h-421z" />
    <glyph glyph-name="sarauuthai.alt4" 
d="M-1400 -297q99 68 188.5 96.5t173.5 28.5q81 0 132 -21.5t80.5 -56.5t40.5 -79t11 -88v-141q0 -24 11 -38.5t25.5 -22.5t29.5 -11t23 -3q7 0 22 2.5t30 10.5t26.5 22.5t11.5 39.5v372h409v-351q0 -93 -40 -163t-109 -117t-161.5 -71t-197.5 -24q-106 0 -193.5 23.5
t-150.5 68t-97.5 109t-34.5 146.5v29q0 25 -13 32.5t-25 7.5q-22 0 -44.5 -12.5t-33.5 -23.5z" />
    <glyph glyph-name="phinthuthai.alt4" 
d="M-949 -438q0 52 22 98.5t59.5 81t88 54.5t106.5 20q58 0 109 -20t89 -54.5t60 -81t22 -98.5q0 -51 -22 -97t-60 -80.5t-89 -54.5t-109 -20q-56 0 -106.5 20t-88 54.5t-59.5 80.5t-22 97z" />
    <glyph glyph-name="saraamthai.alt4" horiz-adv-x="1436" 
d="M611 1729q159 0 271 -49t182.5 -135.5t103 -204t32.5 -254.5v-1086h-448v1106q0 62 -13.5 106t-35.5 71.5t-49 40.5t-54 13q-26 0 -60 -7t-73.5 -29t-82.5 -62t-87 -107l-275 250q54 94 120 160t141 107.5t157.5 60.5t170.5 19zM-625 2247q0 63 29 118.5t79.5 96.5
t118 64.5t144.5 23.5q76 0 143 -23.5t116.5 -64.5t78.5 -96.5t29 -118.5t-29 -117.5t-78.5 -95.5t-116.5 -64.5t-143 -23.5q-77 0 -144.5 23.5t-118 64.5t-79.5 95.5t-29 117.5zM-380 2243q0 -22 8.5 -41.5t24 -34.5t37 -23.5t48.5 -8.5t49 8.5t37.5 23.5t24 34.5t8.5 41.5
t-8.5 41.5t-24 34t-37.5 23t-49 8.5q-54 0 -86 -31t-32 -76z" />
    <glyph glyph-name="nikhahitthai.alt4" 
d="M-625 2247q0 63 29 118.5t79.5 96.5t118 64.5t144.5 23.5q76 0 143 -23.5t116.5 -64.5t78.5 -96.5t29 -118.5t-29 -117.5t-78.5 -95.5t-116.5 -64.5t-143 -23.5q-77 0 -144.5 23.5t-118 64.5t-79.5 95.5t-29 117.5zM-380 2243q0 -22 8.5 -41.5t24 -34.5t37 -23.5
t48.5 -8.5t49 8.5t37.5 23.5t24 34.5t8.5 41.5t-8.5 41.5t-24 34t-37.5 23t-49 8.5q-54 0 -86 -31t-32 -76z" />
    <glyph glyph-name="maiekthai.alt5" 
d="M-469 2643v431h433v-431h-433z" />
    <glyph glyph-name="maithothai.alt5" 
d="M176 3138q-15 -72 -54.5 -141t-97.5 -129t-133.5 -106t-162.5 -71q-49 -14 -97 -23.5t-92 -16.5t-82 -11.5t-66 -7.5l-38 -2l-62 164q29 12 53 29q20 14 37 36t17 53q0 14 -6.5 25.5t-16.5 20t-23 13t-25 4.5q-27 0 -52 -6.5t-51 -20.5l-71 172q37 25 75 39.5t71 22.5
t59 10.5t39 2.5q49 0 90.5 -12t72 -35t47.5 -57t17 -79q0 -42 -10.5 -79.5t-32.5 -68.5q63 11 117 34.5t95.5 58t69 80t38.5 101.5h275z" />
    <glyph glyph-name="maitrithai.alt5" 
d="M-532 3139q57 0 104 -21.5t86 -53.5q53 39 99 57t91 18q48 0 83 -14.5t58.5 -39t34.5 -56t11 -64.5q-1 -9 -1.5 -16t-2 -14t-5 -14.5t-9.5 -17.5q28 22 50.5 49.5t38 56.5t24.5 57t11 50h199q-8 -64 -34.5 -124t-66.5 -113t-89 -97.5t-101.5 -76t-105 -49t-98.5 -17.5
q-11 0 -19.5 -1t-25.5 1l-44 141q15 5 31.5 13.5t30 22t22 31.5t8.5 43q0 17 -6.5 29t-14.5 19.5t-16 11t-11 3.5q-33 0 -56 -15.5t-45 -29.5q-8 -6 -18.5 -13.5t-21.5 -7.5q-15 0 -27.5 8.5t-20.5 14.5q-20 14 -41.5 28.5t-50.5 14.5q-10 0 -19 -5.5t-15.5 -14.5t-10.5 -21
t-3 -25q1 -23 13 -39t31 -25q14 -7 30 -9t33 -2l-47 -169q-9 -2 -24 -3t-31 -1q-54 0 -96 22.5t-71 59t-43.5 83.5t-14.5 96q0 54 20 98t51 75.5t69.5 48.5t76.5 17z" />
    <glyph glyph-name="maichattawathai.alt5" 
d="M-633 3027h231v178h271v-178h231v-204h-231v-177h-271v177h-231v204z" />
    <glyph glyph-name="sarauthai.alt6" 
d="M-747 -874v283q0 21 -7.5 36t-19.5 24.5t-27 13.5t-31 4q-27 0 -57 -16.5t-63 -46.5l-132 250q66 57 126 90t114 49.5t101 21t87 4.5q98 0 161.5 -34t101 -85t52.5 -109.5t15 -107.5v-377h-421z" />
    <glyph glyph-name="sarauuthai.alt6" 
d="M-1570 -297q99 68 188.5 96.5t173.5 28.5q81 0 132 -21.5t80.5 -56.5t40.5 -79t11 -88v-141q0 -24 11 -38.5t25.5 -22.5t29.5 -11t23 -3q7 0 22 2.5t30 10.5t26.5 22.5t11.5 39.5v372h409v-351q0 -93 -40 -163t-109 -117t-161.5 -71t-197.5 -24q-106 0 -193.5 23.5
t-150.5 68t-97.5 109t-34.5 146.5v29q0 25 -13 32.5t-25 7.5q-22 0 -44.5 -12.5t-33.5 -23.5z" />
    <glyph glyph-name="phinthuthai.alt6" 
d="M-789 -428q0 52 22 98.5t59.5 81t88 54.5t106.5 20q58 0 109 -20t89 -54.5t60 -81t22 -98.5q0 -51 -22 -97t-60 -80.5t-89 -54.5t-109 -20q-56 0 -106.5 20t-88 54.5t-59.5 80.5t-22 97z" />
    <glyph glyph-name="sarauthai.alt7" 
d="M-797 -874v283q0 21 -7.5 36t-19.5 24.5t-27 13.5t-31 4q-27 0 -57 -16.5t-63 -46.5l-132 250q66 57 126 90t114 49.5t101 21t87 4.5q98 0 161.5 -34t101 -85t52.5 -109.5t15 -107.5v-377h-421z" />
    <glyph glyph-name="sarauuthai.alt7" 
d="M-1420 -297q99 68 188.5 96.5t173.5 28.5q81 0 132 -21.5t80.5 -56.5t40.5 -79t11 -88v-141q0 -24 11 -38.5t25.5 -22.5t29.5 -11t23 -3q7 0 22 2.5t30 10.5t26.5 22.5t11.5 39.5v372h409v-351q0 -93 -40 -163t-109 -117t-161.5 -71t-197.5 -24q-106 0 -193.5 23.5
t-150.5 68t-97.5 109t-34.5 146.5v29q0 25 -13 32.5t-25 7.5q-22 0 -44.5 -12.5t-33.5 -23.5z" />
    <glyph glyph-name="phinthuthai.alt7" 
d="M-989 -428q0 52 22 98.5t59.5 81t88 54.5t106.5 20q58 0 109 -20t89 -54.5t60 -81t22 -98.5q0 -51 -22 -97t-60 -80.5t-89 -54.5t-109 -20q-56 0 -106.5 20t-88 54.5t-59.5 80.5t-22 97z" />
    <glyph glyph-name="saraithai.alt8" 
d="M-1616 2256h1380v-298h-1380v298z" />
    <glyph glyph-name="saraiithai.alt8" 
d="M-1616 2256h942v250h438v-548h-1380v298z" />
    <glyph glyph-name="sarauethai.alt8" 
d="M-1616 1958v298h861q-2 62 17.5 112t57 85.5t90.5 54.5t117 19q65 0 117.5 -20t89 -56.5t56 -89t19.5 -117.5t-22.5 -118t-61.5 -90.5t-92.5 -57.5t-114.5 -20h-1134zM-574 2244q0 -55 27.5 -83t73.5 -28t74 28t28 83q0 54 -28 82.5t-74 28.5t-73.5 -28.5t-27.5 -82.5z
" />
    <glyph glyph-name="saraueethai.alt8" 
d="M-1616 2256h524v250h345v-250h166v250h345v-548h-1380v298z" />
    </font>
</defs>
</svg>
