<svg xmlns="http://www.w3.org/2000/svg">
<defs>
<font id="DBAiry-StdMedIt" horiz-adv-x="0" >
  <font-face 
    font-family="DB Airy Std Med It"
    font-weight="500"
    font-style="italic"
    font-stretch="normal"
    units-per-em="4096"
    panose-1="2 0 5 6 0 0 0 2 0 3"
    ascent="3276"
    descent="-820"
    x-height="1564"
    cap-height="2122"
    bbox="-1628 -1273 3573 3131"
    underline-thickness="143"
    underline-position="-531"
    unicode-range="U+0020-F880"
  />
<missing-glyph horiz-adv-x="1696" 
d="M130 569q0 95 37.5 168t98.5 122t139 74t159 25t157.5 -22t135 -67.5t94 -115.5t35.5 -167v-475h434v827h115v-934h-774v107h119v487q0 61 -24 107.5t-66 77t-99 46t-123 15.5q-61 0 -118.5 -17.5t-102 -50.5t-71.5 -81t-27 -109v-439l237 238q-11 4 -25.5 14.5t-28 27
t-23 39.5t-9.5 54q0 74 45 117t119 43q35 0 64 -13t49.5 -35t31.5 -51t11 -61q0 -29 -6.5 -51t-16.5 -38t-20.5 -27t-18.5 -19l-204 -197q-44 -40 -92 -85.5t-101 -98.5h-131v565zM1535 1618v-582q-98 31 -211.5 58t-238.5 47t-259 31.5t-274 11.5q-99 0 -194 -6t-191 -19
q24 92 78 175.5t135.5 146.5t189.5 100t240 37q127 0 229.5 -28.5t179 -70.5t128 -89.5t77.5 -86.5l-0.5 15.5t-0.5 39.5t-1 54.5t-1 61t-0.5 58t-0.5 46.5h115zM822 1294q43 -3 98 -9t114 -15t118.5 -20.5t112 -25.5t94 -30t65.5 -35q-41 81 -107 144.5t-146.5 107t-171 66
t-181.5 22.5q-69 0 -136 -13t-128.5 -40t-115 -68t-95.5 -96q74 9 147.5 12.5t147.5 3.5q46 0 92 -0.5t92 -3.5zM1752 1692q53 0 77.5 -32.5t24.5 -78.5q0 -17 -6 -33.5t-18.5 -30t-32 -22t-45.5 -8.5q-24 0 -44 8.5t-33.5 22t-21 30t-7.5 33.5q0 46 28.5 78.5t77.5 32.5z
M1752 1499q26 0 43.5 8t28 20.5t14.5 27t4 26.5q0 46 -21.5 72t-68.5 26q-46 0 -70 -26t-24 -72q0 -34 22.5 -58t71.5 -24zM626 520q0 34 -22.5 50t-47.5 16q-28 0 -49 -16t-21 -50t21 -47.5t49 -13.5q12 0 24.5 3t22.5 10.5t16.5 19t6.5 28.5zM1740 1577h-12v-57h-21v139
h45q49 0 49 -41q0 -28 -12.5 -34.5t-28.5 -6.5l41 -57h-20zM1728 1638v-57h24q29 0 29 37q0 3 -6.5 11.5t-22.5 8.5h-24z" />
    <glyph glyph-name="plusminus" unicode="&#x2b;&#x2d;" horiz-adv-x="1783" 
d="M791 890h-545l69 276h545l127 507h282l-127 -507h545l-69 -276h-545l-126 -508h-282zM25 0l68 276h1372l-68 -276h-1372z" />
    <glyph glyph-name="ellipsis" unicode="&#x2e;&#x2e;&#x2e;" horiz-adv-x="1836" 
d="M21 406h412l-101 -406h-412zM632 406h412l-101 -406h-412zM1245 406h412l-101 -406h-412z" />
    <glyph glyph-name="lessequal" unicode="&#x3c;&#x3d;" horiz-adv-x="1775" 
d="M1509 521l-1214 492l63 254l1465 512l-77 -308l-1031 -337l866 -326zM1413 135l-1212 500l69 279l1212 -501z" />
    <glyph glyph-name="greaterequal" unicode="&#x3e;&#x3d;" horiz-adv-x="1775" 
d="M235 808l1028 326l-863 337l77 308l1210 -512l-63 -254l-1461 -492zM136 413l1463 501l-69 -279l-1463 -500z" />
    <glyph glyph-name="fongmanfunnuthai" unicode="&#xe4f;&#x22;" horiz-adv-x="2209" 
d="M1079 1842l14 398l44 176h295l-143 -574h-210zM1484 1842l143 574h295l-45 -176l-183 -398h-210zM257 849q30 121 89.5 233.5t141 210t181.5 177.5t212 137t232 88.5t241 31.5t225.5 -31.5t188 -88.5t143.5 -137t93 -177.5t36 -210t-27 -233.5t-89.5 -233.5t-141 -210
t-181.5 -177.5t-212 -137t-232 -88.5t-241 -31.5t-225.5 31.5t-188 88.5t-143.5 137t-93 177.5t-36 210t27 233.5zM682 849q24 94 80 176.5t133 144t168 97t185 35.5t167.5 -35.5t120 -97t61.5 -144t-9 -176.5q-23 -94 -79.5 -176.5t-133 -144t-168 -97t-185.5 -35.5
t-167.5 35.5t-119.5 97t-61 144t8 176.5zM914 849q-11 -45 -3.5 -85.5t30 -70.5t58.5 -47.5t81 -17.5t90 17.5t82.5 47.5t65 70.5t38.5 85.5t3.5 85.5t-30 70.5t-58.5 47.5t-81 17.5t-90 -17.5t-82.5 -47.5t-65 -70.5t-38.5 -85.5zM522 848q-32 -127 -11.5 -239t83.5 -195.5
t163 -132t227 -48.5q85 0 169 22t162 62t148 96.5t127.5 124.5t99 146.5t62.5 163.5q31 127 10.5 239t-83 195.5t-162.5 132t-227 48.5q-85 0 -169 -22t-162 -62t-148.5 -96.5t-127.5 -124.5t-98.5 -146.5t-62.5 -163.5z" />
    <glyph glyph-name="dochadaphinthuthai" unicode="&#xe0e;&#xe3a;" horiz-adv-x="1958" 
d="M1455 -298h-552l-282 162l-436 -193l-117 245l612 261l356 -187h135l255 1023q22 88 8.5 159t-55 121.5t-105.5 79.5t-142 34q-100 6 -215 -31t-228 -117q35 -46 54 -96.5t26.5 -101.5t6.5 -98.5t-6 -86.5t-11.5 -67t-8.5 -38q-23 -91 -69.5 -179.5t-114.5 -168.5
t-156.5 -147.5t-195.5 -115.5l-153 262q90 46 149 93t96.5 93t57 89.5t29.5 83.5q15 59 18.5 119t-11 118.5t-51.5 114t-103 105.5q90 113 198.5 202t230.5 151t255.5 95t275.5 33q154 0 279 -46.5t205.5 -135.5t107.5 -220.5t-15 -300.5zM976 -580q11 43 37.5 82t62.5 67.5
t78 45.5t85 17t77.5 -17t56.5 -45.5t29 -67.5t-4 -82t-37 -81t-62 -66.5t-79 -45.5t-86 -17t-77 17t-55.5 45.5t-29 66.5t3.5 81z" />
    <glyph glyph-name="topatakphintuthai" unicode="&#xe0f;&#xe3a;" horiz-adv-x="1958" 
d="M1426 1013q22 88 8.5 159t-55 121.5t-105.5 79.5t-142 34q-100 6 -215 -31t-228 -117q35 -46 54 -96.5t26.5 -101.5t6.5 -98.5t-6 -86.5t-11.5 -67t-8.5 -38q-23 -91 -69.5 -179.5t-114.5 -168.5t-156.5 -147.5t-195.5 -115.5l-153 262q90 46 149 93t96.5 93t57 89.5
t29.5 83.5q15 59 18.5 119t-11 118.5t-51.5 114t-103 105.5q90 113 198.5 202t230.5 151t255.5 95t275.5 33q154 0 279 -46.5t205.5 -135.5t107.5 -220.5t-15 -300.5l-327 -1312h-559l-169 120l-279 -154l-366 178l177 251l231 -98l297 154l244 -159h141zM976 -580
q11 43 37.5 82t62.5 67.5t78 45.5t85 17t77.5 -17t56.5 -45.5t29 -67.5t-4 -82t-37 -81t-62 -66.5t-79 -45.5t-86 -17t-77 17t-55.5 45.5t-29 66.5t3.5 81z" />
    <glyph glyph-name="dochadasarauthai" unicode="&#xe0e;&#xe38;" horiz-adv-x="1958" 
d="M932 -1034l77 312q4 14 0 23.5t-12 15.5t-18.5 8.5t-19.5 2.5h-15t-23 -3t-34 -10.5t-48 -22.5l-31 189q46 25 94 43t92.5 29t83 16t67.5 5q82 0 129 -27t68.5 -68t22 -90t-10.5 -93l-82 -330h-340zM1455 -298h-552l-282 162l-436 -193l-117 245l612 261l356 -187h135
l255 1023q22 88 8.5 159t-55 121.5t-105.5 79.5t-142 34q-100 6 -215 -31t-228 -117q35 -46 54 -96.5t26.5 -101.5t6.5 -98.5t-6 -86.5t-11.5 -67t-8.5 -38q-23 -91 -69.5 -179.5t-114.5 -168.5t-156.5 -147.5t-195.5 -115.5l-153 262q90 46 149 93t96.5 93t57 89.5
t29.5 83.5q15 59 18.5 119t-11 118.5t-51.5 114t-103 105.5q90 113 198.5 202t230.5 151t255.5 95t275.5 33q154 0 279 -46.5t205.5 -135.5t107.5 -220.5t-15 -300.5z" />
    <glyph glyph-name="topataksarauthai" unicode="&#xe0f;&#xe38;" horiz-adv-x="1958" 
d="M932 -1034l77 312q4 14 0 23.5t-12 15.5t-18.5 8.5t-19.5 2.5h-15t-23 -3t-34 -10.5t-48 -22.5l-31 189q46 25 94 43t92.5 29t83 16t67.5 5q82 0 129 -27t68.5 -68t22 -90t-10.5 -93l-82 -330h-340zM1426 1013q22 88 8.5 159t-55 121.5t-105.5 79.5t-142 34
q-100 6 -215 -31t-228 -117q35 -46 54 -96.5t26.5 -101.5t6.5 -98.5t-6 -86.5t-11.5 -67t-8.5 -38q-23 -91 -69.5 -179.5t-114.5 -168.5t-156.5 -147.5t-195.5 -115.5l-153 262q90 46 149 93t96.5 93t57 89.5t29.5 83.5q15 59 18.5 119t-11 118.5t-51.5 114t-103 105.5
q90 113 198.5 202t230.5 151t255.5 95t275.5 33q154 0 279 -46.5t205.5 -135.5t107.5 -220.5t-15 -300.5l-327 -1312h-559l-169 120l-279 -154l-366 178l177 251l231 -98l297 154l244 -159h141z" />
    <glyph glyph-name="dochadasarauuthai" unicode="&#xe0e;&#xe39;" horiz-adv-x="1958" 
d="M399 -528q82 38 145.5 49.5t107.5 11.5q70 0 109 -18.5t55.5 -47.5t15.5 -66t-10 -74l-9 -34q-11 -42 -7.5 -68t15.5 -40.5t30 -19.5t38 -5q18 0 37.5 4t38.5 18t35.5 40.5t27.5 71.5l56 224h325l-58 -234q-21 -86 -69 -152t-117 -111.5t-155.5 -69t-185.5 -23.5
t-170.5 23t-114.5 65t-56.5 102.5t5.5 135.5q10 40 4 56.5t-26 16.5q-8 0 -29 -3.5t-41 -11.5zM1455 -298h-552l-282 162l-436 -193l-117 245l612 261l356 -187h135l255 1023q22 88 8.5 159t-55 121.5t-105.5 79.5t-142 34q-100 6 -215 -31t-228 -117q35 -46 54 -96.5
t26.5 -101.5t6.5 -98.5t-6 -86.5t-11.5 -67t-8.5 -38q-23 -91 -69.5 -179.5t-114.5 -168.5t-156.5 -147.5t-195.5 -115.5l-153 262q90 46 149 93t96.5 93t57 89.5t29.5 83.5q15 59 18.5 119t-11 118.5t-51.5 114t-103 105.5q90 113 198.5 202t230.5 151t255.5 95t275.5 33
q154 0 279 -46.5t205.5 -135.5t107.5 -220.5t-15 -300.5z" />
    <glyph glyph-name="topataksarauuthai" unicode="&#xe0f;&#xe39;" horiz-adv-x="1958" 
d="M399 -528q82 38 145.5 49.5t107.5 11.5q70 0 109 -18.5t55.5 -47.5t15.5 -66t-10 -74l-9 -34q-11 -42 -7.5 -68t15.5 -40.5t30 -19.5t38 -5q18 0 37.5 4t38.5 18t35.5 40.5t27.5 71.5l56 224h325l-58 -234q-21 -86 -69 -152t-117 -111.5t-155.5 -69t-185.5 -23.5
t-170.5 23t-114.5 65t-56.5 102.5t5.5 135.5q10 40 4 56.5t-26 16.5q-8 0 -29 -3.5t-41 -11.5zM1426 1013q22 88 8.5 159t-55 121.5t-105.5 79.5t-142 34q-100 6 -215 -31t-228 -117q35 -46 54 -96.5t26.5 -101.5t6.5 -98.5t-6 -86.5t-11.5 -67t-8.5 -38
q-23 -91 -69.5 -179.5t-114.5 -168.5t-156.5 -147.5t-195.5 -115.5l-153 262q90 46 149 93t96.5 93t57 89.5t29.5 83.5q15 59 18.5 119t-11 118.5t-51.5 114t-103 105.5q90 113 198.5 202t230.5 151t255.5 95t275.5 33q154 0 279 -46.5t205.5 -135.5t107.5 -220.5
t-15 -300.5l-327 -1312h-559l-169 120l-279 -154l-366 178l177 251l231 -98l297 154l244 -159h141z" />
    <glyph glyph-name=".notdef" horiz-adv-x="1696" 
d="M130 569q0 95 37.5 168t98.5 122t139 74t159 25t157.5 -22t135 -67.5t94 -115.5t35.5 -167v-475h434v827h115v-934h-774v107h119v487q0 61 -24 107.5t-66 77t-99 46t-123 15.5q-61 0 -118.5 -17.5t-102 -50.5t-71.5 -81t-27 -109v-439l237 238q-11 4 -25.5 14.5t-28 27
t-23 39.5t-9.5 54q0 74 45 117t119 43q35 0 64 -13t49.5 -35t31.5 -51t11 -61q0 -29 -6.5 -51t-16.5 -38t-20.5 -27t-18.5 -19l-204 -197q-44 -40 -92 -85.5t-101 -98.5h-131v565zM1535 1618v-582q-98 31 -211.5 58t-238.5 47t-259 31.5t-274 11.5q-99 0 -194 -6t-191 -19
q24 92 78 175.5t135.5 146.5t189.5 100t240 37q127 0 229.5 -28.5t179 -70.5t128 -89.5t77.5 -86.5l-0.5 15.5t-0.5 39.5t-1 54.5t-1 61t-0.5 58t-0.5 46.5h115zM822 1294q43 -3 98 -9t114 -15t118.5 -20.5t112 -25.5t94 -30t65.5 -35q-41 81 -107 144.5t-146.5 107t-171 66
t-181.5 22.5q-69 0 -136 -13t-128.5 -40t-115 -68t-95.5 -96q74 9 147.5 12.5t147.5 3.5q46 0 92 -0.5t92 -3.5zM1752 1692q53 0 77.5 -32.5t24.5 -78.5q0 -17 -6 -33.5t-18.5 -30t-32 -22t-45.5 -8.5q-24 0 -44 8.5t-33.5 22t-21 30t-7.5 33.5q0 46 28.5 78.5t77.5 32.5z
M1752 1499q26 0 43.5 8t28 20.5t14.5 27t4 26.5q0 46 -21.5 72t-68.5 26q-46 0 -70 -26t-24 -72q0 -34 22.5 -58t71.5 -24zM626 520q0 34 -22.5 50t-47.5 16q-28 0 -49 -16t-21 -50t21 -47.5t49 -13.5q12 0 24.5 3t22.5 10.5t16.5 19t6.5 28.5zM1740 1577h-12v-57h-21v139
h45q49 0 49 -41q0 -28 -12.5 -34.5t-28.5 -6.5l41 -57h-20zM1728 1638v-57h24q29 0 29 37q0 3 -6.5 11.5t-22.5 8.5h-24z" />
    <glyph glyph-name=".null" 
 />
    <glyph glyph-name="nonmarkingreturn" horiz-adv-x="1159" 
 />
    <glyph glyph-name="space" unicode=" " horiz-adv-x="1022" 
 />
    <glyph glyph-name="exclam" unicode="!" horiz-adv-x="834" 
d="M474 1730l102 411h389l-102 -411l-352 -1144h-255zM132 406h412l-101 -406h-412z" />
    <glyph glyph-name="quotedbl" unicode="&#x22;" horiz-adv-x="1281" 
d="M1126 2141h359l-56 -225l-356 -684h-242zM572 2141h362l-56 -225l-357 -684h-244z" />
    <glyph glyph-name="numbersign" unicode="#" horiz-adv-x="2099" 
d="M427 1557h329l223 565h289l-223 -565h579l223 565h289l-223 -565h262l-59 -234h-295l-206 -522h283l-58 -234h-316l-223 -567h-289l223 567h-579l-223 -567h-289l223 567h-275l58 234h308l206 522h-296zM747 801h579l206 522h-579z" />
    <glyph glyph-name="dollar" unicode="$" horiz-adv-x="1915" 
d="M680 -3q-94 7 -189 30t-185 66.5t-171.5 109t-148.5 157.5l295 241q45 -60 100.5 -108t117 -84t127.5 -59t134 -33l152 610q-129 32 -222 71.5t-156.5 87t-99 102t-50 114t-10 125t21.5 134.5q32 128 112 228.5t190.5 171.5t242.5 112t269 50l57 230h233l-59 -238
q67 -10 131.5 -32t127.5 -59t126 -90.5t128 -127.5l-282 -248q-86 104 -162.5 157t-150.5 73l-145 -583q175 -45 281.5 -108.5t158 -143t56.5 -174.5t-22 -202q-32 -127 -108 -226.5t-180.5 -171.5t-230 -116.5t-255.5 -60.5l-73 -293h-233zM755 1576q-15 -59 -14 -105.5
t26.5 -84.5t79.5 -69t147 -58l136 545q-69 -7 -132.5 -28t-114 -51.5t-84.5 -68.5t-44 -80zM1330 567q10 42 10 82t-20 77.5t-65.5 72t-125.5 65.5l-135 -540q59 11 114 31.5t100 51t77 70.5t45 90z" />
    <glyph glyph-name="percent" unicode="%" horiz-adv-x="2372" 
d="M2118 2122h332l-2000 -2122h-332zM541 1577q-21 -82 -12 -143.5t37 -102.5t70 -61.5t88 -20.5t96.5 20.5t97 61.5t84 102.5t58.5 143.5q20 82 13 143.5t-33.5 102.5t-66.5 61.5t-86 20.5t-98.5 -20.5t-100.5 -61.5t-87.5 -102.5t-59.5 -143.5zM1339 1577
q-35 -141 -105.5 -245.5t-162 -173.5t-196.5 -103t-209 -34t-192.5 37t-146.5 108t-78 174.5t13 236.5t104.5 236t165.5 174t200.5 108t210.5 37t192 -34t145 -103t75.5 -173t-16.5 -245zM1469 521q-20 -82 -11 -143.5t37 -102.5t70 -61.5t88 -20.5t96.5 20.5t96.5 61.5
t84 102.5t58 143.5q21 82 13.5 143.5t-33.5 102.5t-66 61.5t-86 20.5t-98.5 -20.5t-100.5 -61.5t-87.5 -102.5t-60.5 -143.5zM2267 521q-35 -141 -105.5 -245.5t-161.5 -173.5t-196 -103t-209 -34t-192.5 37t-146.5 108t-78.5 174.5t12.5 236.5t105 236t166 174t200.5 108
t210.5 37t192 -34t145 -103t75 -173t-17 -245z" />
    <glyph glyph-name="ampersand" unicode="&#x26;" horiz-adv-x="2207" 
d="M2048 938q-36 -69 -74 -131.5t-79 -120.5t-87.5 -112.5t-100.5 -108.5l228 -305l-285 -232l-221 297q-188 -130 -370 -185.5t-357 -55.5q-88 0 -171 19.5t-154 57t-127 91.5t-89.5 123.5t-42 153t15.5 180.5q19 76 61.5 154t113 152.5t170.5 144t234 130.5
q-42 69 -64.5 130.5t-30.5 118t-3.5 108.5t17.5 103q23 92 83.5 180.5t155 158.5t221 112.5t282.5 42.5t260.5 -40t163 -107.5t73.5 -157.5t-10 -190q-23 -91 -75.5 -168.5t-132 -145t-185.5 -126.5t-235 -113l305 -405q87 84 149.5 175t104.5 183zM777 281q51 0 111 7.5
t123.5 26t128 50.5t124.5 80l-379 513q-103 -45 -173 -87.5t-115 -85.5t-70 -87.5t-37 -92.5q-19 -76 -2.5 -136t57.5 -102t101.5 -64t130.5 -22zM963 1649q-5 -20 -10 -47.5t-0.5 -62.5t21.5 -77.5t56 -93.5l35 -49q208 74 325.5 159t139.5 172q15 58 2 98.5t-45.5 66
t-81.5 37t-106 11.5q-72 0 -130 -19.5t-100.5 -50t-69.5 -69t-36 -75.5z" />
    <glyph glyph-name="quotesingle" unicode="'" horiz-adv-x="729" 
d="M572 2141h362l-56 -225l-357 -684h-244z" />
    <glyph glyph-name="parenleft" unicode="(" horiz-adv-x="1392" 
d="M682 -609q-166 128 -281.5 290.5t-175.5 355t-61.5 414.5t60.5 470t176.5 472.5t271.5 418.5t351 356t415 286l102 -235q-174 -112 -325.5 -250t-274 -301t-213 -350t-142.5 -397t-53.5 -397t41.5 -349.5t127 -300.5t203 -250l-221 -233v0z" />
    <glyph glyph-name="parenright" unicode=")" horiz-adv-x="1393" 
d="M-59 -376q174 112 327 250t277 300.5t216 349.5t144 397t55 397t-38 350t-123.5 301t-200.5 250l218 235q159 -124 272.5 -286t173.5 -356t63 -418.5t-59 -472.5t-174 -470t-268 -414.5t-352.5 -355t-425.5 -290.5z" />
    <glyph glyph-name="asterisk" unicode="*" horiz-adv-x="1250" 
d="M744 1518l-322 -231l-82 244l365 123l-303 125l205 244l205 -230l27 353h283l-153 -354l321 231l84 -244l-368 -125l306 -123l-206 -244l-205 231l-25 -357h-283z" />
    <glyph glyph-name="plus" unicode="+" horiz-adv-x="1782" 
d="M791 890h-545l69 276h545l137 547h282l-137 -547h545l-69 -276h-545l-136 -548h-282z" />
    <glyph glyph-name="comma" unicode="," horiz-adv-x="803" 
d="M-91 -211q118 40 187 90.5t94 118.5h-173l102 410h446l-73 -293q-25 -100 -73.5 -180t-117.5 -141t-157.5 -104t-192.5 -68z" />
    <glyph glyph-name="hyphen" unicode="-" horiz-adv-x="1263" 
d="M300 1172h885l-72 -286h-885z" />
    <glyph glyph-name="period" unicode="." horiz-adv-x="752" 
d="M91 406h412l-101 -406h-412z" />
    <glyph glyph-name="slash" unicode="/" horiz-adv-x="1704" 
d="M1813 2382h321l-2048 -2729h-319z" />
    <glyph glyph-name="zero" unicode="0" horiz-adv-x="1849" 
d="M815 279q104 0 197.5 57.5t172 160t140 243.5t103.5 308q43 174 52 316.5t-19 244t-93 156.5t-170 55q-104 0 -196.5 -55t-171 -156.5t-141 -244t-105.5 -316.5q-42 -167 -50 -308t19.5 -243.5t92.5 -160t169 -57.5zM738 -31q-180 0 -304.5 79.5t-190 222t-71 339.5
t53.5 432q39 157 98.5 299t135.5 263t167 218.5t195 165.5t218.5 105t236.5 37q183 0 307 -81.5t187.5 -226.5t66.5 -344.5t-56 -435.5q-38 -152 -96.5 -290.5t-134.5 -257.5t-167.5 -216t-195 -165.5t-217 -106t-233.5 -37.5z" />
    <glyph glyph-name="one" unicode="1" horiz-adv-x="1849" 
d="M93 0l73 293h517l359 1440l-466 -180l-28 292l677 267h256l-453 -1819h499l-73 -293h-1361z" />
    <glyph glyph-name="two" unicode="2" horiz-adv-x="1849" 
d="M70 267l926 657q109 77 196 145t152.5 135t108.5 138t64 155q18 74 3.5 133.5t-54.5 101t-101.5 64t-136.5 22.5q-74 0 -148.5 -19t-149 -59.5t-149 -104.5t-148.5 -153l-217 183q88 114 191.5 199.5t217.5 142.5t235.5 86t243.5 29q161 0 283 -50.5t197.5 -138.5
t100 -207t-9.5 -256q-26 -104 -81 -203t-139.5 -196t-200.5 -193.5t-264 -195.5l-559 -375h944l-76 -307h-1495z" />
    <glyph glyph-name="three" unicode="3" horiz-adv-x="1849" 
d="M756 -31q-129 0 -239 34t-199 91t-156.5 131t-111.5 154l267 242q33 -61 77 -121.5t102 -108.5t129.5 -78t158.5 -30q81 0 160.5 23t146 67.5t116 109.5t70.5 148q18 73 -2 140.5t-75.5 118.5t-144.5 81.5t-208 30.5h-130l-3 223l665 562h-826l76 305h1357l-57 -230
l-728 -614q117 -23 209 -79t150 -137t77.5 -183t-8.5 -218q-32 -131 -106 -250.5t-185.5 -211t-258 -146t-323.5 -54.5z" />
    <glyph glyph-name="four" unicode="4" horiz-adv-x="1851" 
d="M1095 419h-1067l-2 228l1539 1464h290l-348 -1395h280l-74 -297h-280l-103 -419h-338zM1169 716l196 786l-822 -786h626z" />
    <glyph glyph-name="five" unicode="5" horiz-adv-x="1849" 
d="M725 -21q-113 0 -213 20.5t-184.5 63t-153 108t-119.5 155.5l223 270q54 -95 113 -154.5t121.5 -92.5t126.5 -45t127 -12q81 0 166 27.5t159 77.5t129.5 121t77.5 158q22 91 9 161.5t-54.5 118.5t-107.5 73t-149 25q-64 0 -123.5 -6.5t-119 -20t-120.5 -35.5t-129 -52
l-165 136l307 1016h1271l-77 -308h-956l-143 -470q41 11 86 20.5t90 16t88 10.5t82 4q95 0 181 -20.5t158 -60t126 -97.5t85 -134t36 -168.5t-22 -200.5q-26 -104 -76.5 -197t-119.5 -171.5t-153 -141t-178.5 -106t-195.5 -66.5t-203 -23z" />
    <glyph glyph-name="six" unicode="6" horiz-adv-x="1849" 
d="M752 -31q-101 0 -188.5 24.5t-157 64.5t-119 91t-76.5 103q-38 76 -56 155t-18 166t15.5 184t43.5 210q44 178 111 332.5t151.5 282t185 227t211 167.5t229.5 103.5t242 35.5q77 0 150.5 -11t144 -41.5t138 -84.5t133.5 -139l-199 -245q-56 69 -109 110.5t-104.5 63.5
t-101.5 28.5t-99 6.5q-86 0 -181.5 -42t-186.5 -122.5t-171 -197.5t-134 -267q62 49 127.5 83.5t132 55.5t132 30.5t127.5 9.5q157 0 281 -44.5t202 -129.5t103.5 -208t-13.5 -280q-28 -112 -82.5 -209.5t-127.5 -177.5t-161 -142.5t-184 -105t-195.5 -65t-195.5 -22.5z
M829 267q80 0 161 27t151.5 80t124.5 131t79 179q21 84 5 151.5t-60.5 115.5t-113.5 73.5t-155 25.5q-81 0 -162 -25t-150.5 -72t-121 -115t-72.5 -154q-23 -92 -11.5 -168.5t53 -132t111 -86t161.5 -30.5z" />
    <glyph glyph-name="seven" unicode="7" horiz-adv-x="1849" 
d="M1485 1784h-1067l77 308h1481l-56 -225l-1469 -1867h-392z" />
    <glyph glyph-name="eight" unicode="8" horiz-adv-x="1849" 
d="M736 -28q-169 0 -304.5 45t-224 126.5t-123 194.5t-0.5 249q45 179 160.5 307t292.5 209q-50 34 -88 77.5t-60 98t-25.5 121t16.5 146.5q22 87 68.5 163t112 139t147.5 113t173.5 84.5t190 52.5t198.5 18t190.5 -18t165 -52t131 -83.5t90.5 -113.5t42 -141t-14 -166
q-19 -77 -55 -142t-84.5 -119t-107.5 -97.5t-125 -78.5q132 -80 183.5 -213.5t9.5 -304.5q-35 -139 -125 -252.5t-219 -194t-287 -124.5t-329 -44zM1051 1238q75 0 153 22.5t145.5 63t116.5 96t66 121.5q16 64 -2.5 116.5t-64 89.5t-114.5 57t-154 20q-84 0 -162 -20
t-141.5 -57t-108.5 -89.5t-61 -117.5q-16 -66 5.5 -121.5t68 -95.5t113 -62.5t140.5 -22.5zM808 264q103 0 194 25.5t162 69t118.5 102t64.5 125.5q18 74 -2 139t-70 114t-126.5 77t-170.5 28t-184 -28t-164 -77t-126.5 -114t-70.5 -139q-17 -66 1 -124.5t67 -102.5
t126.5 -69.5t180.5 -25.5z" />
    <glyph glyph-name="nine" unicode="9" horiz-adv-x="1849" 
d="M1216 2119q200 0 334 -64.5t207 -202.5q40 -75 57.5 -156.5t17.5 -172t-15.5 -191t-43.5 -211.5q-68 -272 -184 -485.5t-265.5 -362t-323.5 -226.5t-358 -78q-77 0 -150.5 14t-143.5 46t-138 85.5t-135 131.5l224 262q32 -51 78.5 -93t99 -71.5t107.5 -46t104 -16.5
q88 0 184.5 46t188 130.5t169.5 204t129 265.5q-60 -51 -129.5 -90.5t-141.5 -66.5t-143.5 -41t-136.5 -14q-146 0 -263 47.5t-191 136t-98.5 215t14.5 283.5q28 112 82.5 209.5t127.5 177.5t161 142.5t184 105t195.5 65t195.5 22.5zM1139 1821q-80 0 -161 -28.5t-152 -83
t-125.5 -133.5t-79.5 -180q-21 -84 -5.5 -153.5t59.5 -119.5t112.5 -77.5t153.5 -27.5q79 0 160.5 28t152.5 79t124.5 123t75.5 160q21 87 9 162.5t-53 131t-110 87.5t-161 32z" />
    <glyph glyph-name="colon" unicode=":" horiz-adv-x="883" 
d="M157 406h412l-101 -406h-412zM451 1585h412l-102 -406h-412z" />
    <glyph glyph-name="semicolon" unicode=";" horiz-adv-x="952" 
d="M501 1585h412l-102 -406h-412zM-37 -211q118 40 187 90.5t94 118.5h-173l102 410h446l-73 -293q-25 -100 -73.5 -180t-117.5 -141t-157.5 -104t-192.5 -68z" />
    <glyph glyph-name="less" unicode="&#x3c;" horiz-adv-x="1575" 
d="M217 919l54 218l1374 659l-77 -310l-982 -455l754 -461l-78 -310z" />
    <glyph glyph-name="equal" unicode="=" horiz-adv-x="1669" 
d="M327 1138l71 283h1222l-71 -283h-1222zM202 635l70 283h1222l-70 -283h-1222z" />
    <glyph glyph-name="greater" unicode="&#x3e;" horiz-adv-x="1575" 
d="M52 260l78 310l985 461l-757 455l77 310l1046 -659l-54 -218z" />
    <glyph glyph-name="question" unicode="?" horiz-adv-x="1676" 
d="M694 1142q17 -2 46.5 -4t74.5 -2q112 0 209 30.5t172.5 82.5t125.5 121t70 147q15 58 6 113.5t-44 99t-97.5 69.5t-154.5 26q-82 0 -161 -25t-151.5 -66t-137 -93t-117.5 -106l-177 220q74 76 168 145.5t200.5 122t220.5 83.5t227 31q190 0 316 -47t195 -130t83.5 -196.5
t-18.5 -246.5q-33 -131 -109.5 -244.5t-181.5 -199.5t-230.5 -140t-256.5 -66l-84 -258h-288zM480 406h412l-101 -406h-412z" />
    <glyph glyph-name="at" unicode="@" horiz-adv-x="2560" 
d="M1099 -64q-163 0 -300.5 40t-245.5 112.5t-184.5 173.5t-117.5 224t-45 264t34 292q38 152 112.5 293.5t177.5 265.5t229.5 226.5t268.5 175.5t295 113.5t309 40.5q186 0 328.5 -40.5t245 -111t167 -166.5t95 -206.5t28.5 -230.5t-32 -240q-27 -110 -75 -202t-108.5 -166
t-130 -129.5t-140.5 -93t-139.5 -56.5t-126.5 -19q-42 0 -80.5 13.5t-67 39.5t-45 65.5t-14.5 91.5q-50 -45 -105.5 -83.5t-116.5 -67t-125.5 -44.5t-132.5 -16q-90 0 -165 35.5t-123 100.5t-63.5 157t12.5 205q24 94 71 179t110 158t138 132t154.5 100.5t159.5 64t153 22.5
q63 0 106.5 -14t72.5 -36.5t46 -51.5t26 -60l63 154l288 -32l-265 -629q-20 -48 -32.5 -84.5t-17.5 -53.5q-15 -62 -7 -89.5t31 -27.5q49 0 106.5 33t111.5 90t98.5 134t66.5 166q25 102 27.5 199t-20.5 182t-72.5 155.5t-127.5 121.5t-186 79t-248 28q-121 0 -238.5 -32
t-225.5 -90t-204 -138.5t-174 -177t-134.5 -206.5t-85.5 -227t-27 -225.5t32 -203.5t87.5 -173.5t139.5 -135t187 -87.5t231 -31q91 0 178.5 12.5t171.5 39.5t165 70t161 103l97 -202q-215 -143 -425 -208t-408 -65zM1185 760q66 0 133 30.5t124.5 82t101 120t62.5 143.5
q13 54 6.5 99.5t-29 78.5t-59 52t-82.5 19q-65 0 -133 -29.5t-128 -80.5t-106 -120.5t-66 -149.5q-15 -59 -8.5 -104.5t30 -76.5t63 -47.5t91.5 -16.5z" />
    <glyph glyph-name="A" unicode="A" horiz-adv-x="2334" 
d="M893 885h683l-154 755zM2117 0h-362l-112 555h-982l-388 -555h-416l1502 2143h324z" />
    <glyph glyph-name="B" unicode="B" horiz-adv-x="2128" 
d="M589 2122h930q95 0 182.5 -14.5t162 -45t131.5 -78t91 -113t40.5 -150.5t-19.5 -190q-20 -82 -56 -146t-82.5 -115t-101.5 -90t-113 -70q65 -35 114.5 -82.5t78.5 -110t34 -141.5t-19 -176q-39 -153 -124.5 -266t-206 -187t-270.5 -110.5t-317 -36.5h-984zM1735 1531
q33 133 -34.5 197t-236.5 64h-589l-138 -554h566q82 0 153 18t127 55t95 91.5t57 128.5zM1590 600q18 73 5.5 131.5t-58 99t-125 62t-194.5 21.5h-562l-146 -586h585q93 0 175.5 15.5t147.5 48.5t109.5 84.5t62.5 123.5z" />
    <glyph glyph-name="C" unicode="C" horiz-adv-x="2239" 
d="M1053 -36q-157 0 -290 37.5t-238 107t-179.5 168t-114.5 220t-42.5 263t36.5 297.5q38 152 108.5 293t167.5 263.5t217.5 223.5t258.5 173t289.5 111.5t311.5 39.5q130 0 241.5 -22t205.5 -68t172 -117.5t142 -170.5l-260 -258q-97 146 -230 218.5t-317 72.5
q-155 0 -303.5 -57t-274 -158t-217.5 -240t-133 -304q-41 -163 -25.5 -302t81 -240.5t177.5 -159t264 -57.5q86 0 169 15.5t168 51.5t175.5 95t191.5 146l238 -241q-123 -110 -243 -186.5t-241.5 -124t-247 -69t-258.5 -21.5z" />
    <glyph glyph-name="D" unicode="D" horiz-adv-x="2275" 
d="M588 2121h807q238 0 416.5 -75.5t286 -213.5t137.5 -332.5t-29 -431.5q-37 -148 -101.5 -284.5t-153.5 -255.5t-200 -216t-240.5 -166.5t-276.5 -107.5t-307 -38h-867zM875 1791l-364 -1462h432q167 0 310.5 50.5t257.5 145.5t196 231.5t125 309.5q40 160 30 293.5
t-71 229.5t-172 149t-272 53h-472z" />
    <glyph glyph-name="E" unicode="E" horiz-adv-x="1951" 
d="M589 2122h1566l-83 -330h-1197l-138 -556h1099l-82 -326h-1099l-147 -590h1218l-79 -320h-1587z" />
    <glyph glyph-name="F" unicode="F" horiz-adv-x="1783" 
d="M588 2121h1495l-82 -329h-1126l-141 -568h1015l-82 -329h-1015l-223 -895h-369z" />
    <glyph glyph-name="G" unicode="G" horiz-adv-x="2247" 
d="M1048 -29q-148 0 -279 34.5t-236.5 100.5t-183 161.5t-119.5 217t-46 267.5t38 314q39 156 111 296t169.5 260t218 216t256.5 164t284 104.5t302 36.5q142 0 252.5 -21.5t200 -62t164.5 -99t147 -133.5l-255 -256q-69 64 -131.5 110.5t-127 76.5t-135.5 44.5t-156 14.5
q-95 0 -192.5 -24.5t-190.5 -70.5t-178.5 -112.5t-156 -150t-123.5 -182.5t-81 -211q-45 -183 -26 -327t88 -243.5t181.5 -152t253.5 -52.5q61 0 136 9.5t152.5 28t152.5 47.5t137 68l107 428h-562l81 327h922l-228 -918q-130 -86 -251 -145t-237.5 -95.5t-230 -53
t-228.5 -16.5z" />
    <glyph glyph-name="H" unicode="H" horiz-adv-x="2239" 
d="M589 2122h369l-219 -877h1021l219 877h369l-529 -2122h-369l228 917h-1021l-228 -917h-369z" />
    <glyph glyph-name="I" unicode="I" horiz-adv-x="949" 
d="M639 2122h369l-529 -2122h-369z" />
    <glyph glyph-name="J" unicode="J" horiz-adv-x="1614" 
d="M510 -27q-97 0 -191 22.5t-174.5 70t-142.5 119.5t-94 171l282 226q26 -78 66 -132.5t87 -89t98 -50t100 -15.5q77 0 150 29.5t133.5 82.5t106 126t67.5 161l355 1427h369l-355 -1427q-43 -172 -122 -306t-188.5 -226.5t-247.5 -140.5t-299 -48z" />
    <glyph glyph-name="K" unicode="K" horiz-adv-x="2129" 
d="M1072 993l-499 -411l-144 -582h-369l528 2122h369l-255 -1022l1238 1022h502l-1081 -893l586 -1229h-394z" />
    <glyph glyph-name="L" unicode="L" horiz-adv-x="1763" 
d="M589 2122h369l-447 -1793h1124l-82 -329h-1493z" />
    <glyph glyph-name="M" unicode="M" horiz-adv-x="2576" 
d="M810 1544l-384 -1544h-366l529 2122h340l419 -1002l922 1002h414l-529 -2122h-366l384 1544l-936 -1019z" />
    <glyph glyph-name="N" unicode="N" horiz-adv-x="2336" 
d="M589 2122h315l794 -1538l380 1538h366l-529 -2122h-283l-818 1573l-388 -1573h-366z" />
    <glyph glyph-name="O" unicode="O" horiz-adv-x="2491" 
d="M233 1062q38 151 112 291.5t176 262.5t227 222t265 171.5t289.5 110.5t301.5 39q151 0 281.5 -39t234.5 -110.5t179 -171.5t116 -222t45.5 -262.5t-33.5 -291.5t-112 -291.5t-175.5 -262.5t-226.5 -222t-265 -171.5t-290 -110.5t-301 -39q-152 0 -282 39t-234.5 110.5
t-179.5 171.5t-116 222t-45.5 262t33.5 292zM600 1062q-39 -157 -17.5 -292.5t94 -235.5t192 -157t276.5 -57q104 0 205.5 26t194.5 73.5t175.5 114.5t149 149.5t115.5 178t75 200.5q26 104 25 200t-26.5 178.5t-74.5 149.5t-118.5 114.5t-158 73.5t-192.5 26
q-105 0 -206 -26t-194 -73.5t-175 -114.5t-149 -149.5t-116 -178.5t-75 -200z" />
    <glyph glyph-name="P" unicode="P" horiz-adv-x="1979" 
d="M589 2122h855q178 0 310.5 -50t212 -143t102 -226t-19.5 -300q-44 -176 -137 -306.5t-221.5 -216.5t-284.5 -129t-327 -44l-474 -1l-176 -706h-369zM1153 1037q102 0 188.5 24t153.5 69.5t113 112.5t68 154q23 93 12 166.5t-53 124.5t-114 78t-171 27h-474l-189 -756h466
z" />
    <glyph glyph-name="Q" unicode="Q" horiz-adv-x="2492" 
d="M233 1062q38 151 112 291.5t176 262.5t227 222t265 171.5t289.5 110.5t301.5 39q151 0 281.5 -39t234.5 -110.5t179 -171.5t116 -222t45.5 -262.5t-33.5 -291.5q-47 -187 -146 -354t-239 -306l208 -225l-295 -254l-212 245q-159 -97 -333 -150t-353 -53q-152 0 -282 39
t-234.5 110.5t-179.5 171.5t-116 222t-45.5 262t33.5 292zM600 1062q-39 -157 -17.5 -292.5t94 -235.5t192 -157t276.5 -57q100 0 196.5 23.5t186.5 67.5l-285 313l291 255l296 -341q81 90 141 197t89 227q26 104 25 200t-26.5 178.5t-74.5 149.5t-118.5 114.5t-158 73.5
t-192.5 26q-105 0 -206 -26t-194 -73.5t-175 -114.5t-149 -149.5t-116 -178.5t-75 -200z" />
    <glyph glyph-name="R" unicode="R" horiz-adv-x="2168" 
d="M589 2122h908q176 0 315.5 -44t228 -129.5t119 -211.5t-10.5 -290q-30 -120 -96.5 -224t-157 -186.5t-199.5 -140.5t-224 -86l407 -810h-410l-375 756h-477l-188 -756h-369zM1190 1077q107 0 204.5 23.5t176.5 69.5t133.5 113.5t76.5 154.5q19 79 4.5 144t-62.5 111.5
t-129.5 72t-194.5 25.5h-524l-178 -714h493z" />
    <glyph glyph-name="S" unicode="S" horiz-adv-x="1839" 
d="M751 -29q-105 0 -210 13.5t-205 53.5t-193 112.5t-173 191.5l285 262q62 -80 131 -138t142 -96t150 -56t155 -18q95 0 177 18.5t146 54.5t107 88.5t60 120.5q5 20 7 44.5t-6.5 51.5t-31.5 55.5t-69 57t-119 56t-180 53.5q-146 34 -249.5 76.5t-171 91.5t-103.5 105.5
t-48.5 119.5t-5.5 132t26 144q22 87 67.5 165t110.5 143t146.5 117t175 88.5t197 55.5t211.5 19q106 0 199 -13.5t177 -47t162.5 -91.5t155.5 -148l-282 -274q-34 49 -85.5 94t-116 80t-140.5 56t-158 21q-74 0 -146 -17t-133 -49t-104 -78.5t-58 -105.5q-9 -36 -11 -69.5
t8.5 -65t36 -60.5t72.5 -56t117.5 -51.5t171.5 -46.5q145 -32 247.5 -72.5t170.5 -88.5t104.5 -102.5t50 -115t7.5 -127t-24 -137.5q-21 -86 -67.5 -165.5t-113 -148t-151 -124.5t-183 -96t-208.5 -61.5t-228 -21.5z" />
    <glyph glyph-name="T" unicode="T" horiz-adv-x="1770" 
d="M964 1792h-654l83 330h1682l-83 -330h-658l-446 -1792h-370z" />
    <glyph glyph-name="U" unicode="U" horiz-adv-x="2290" 
d="M987 -32q-115 0 -223 24t-200 71t-164 117.5t-114.5 162.5t-51.5 206.5t25 249.5l330 1323h369l-329 -1317q-31 -125 -13 -221t73 -161t140 -98.5t187 -33.5q100 0 207 31.5t202.5 95t168.5 158t105 220.5l331 1326h369l-327 -1311q-35 -138 -96 -254.5t-143 -210
t-181 -164.5t-208 -118.5t-225 -71.5t-232 -24z" />
    <glyph glyph-name="V" unicode="V" horiz-adv-x="2215" 
d="M409 2122h381l236 -1643l1062 1643h416l-1430 -2136h-299z" />
    <glyph glyph-name="W" unicode="W" horiz-adv-x="3279" 
d="M2259 579l906 1543h408l-1291 -2136h-297l-128 1608l-931 -1608h-297l-225 2136h382l136 -1543l887 1543h333z" />
    <glyph glyph-name="X" unicode="X" horiz-adv-x="2074" 
d="M325 0h-487l1072 1095l-496 1027h438l325 -755l703 755h488l-1008 -1027l526 -1095h-437l-359 817z" />
    <glyph glyph-name="Y" unicode="Y" horiz-adv-x="2121" 
d="M1986 2122h468l-1182 -1291l-207 -831h-369l207 831l-538 1291h407l366 -965z" />
    <glyph glyph-name="Z" unicode="Z" horiz-adv-x="1944" 
d="M-14 229l1607 1583h-1171l78 310h1695l-58 -229l-1604 -1583h1210l-77 -310h-1737z" />
    <glyph glyph-name="bracketleft" unicode="[" horiz-adv-x="1348" 
d="M652 2376h917l-70 -281h-573l-594 -2382h573l-70 -281h-917z" />
    <glyph glyph-name="backslash" unicode="\" horiz-adv-x="1736" 
d="M1454 -347h-320l-688 2729h321z" />
    <glyph glyph-name="bracketright" unicode="]" horiz-adv-x="1348" 
d="M786 -568h-917l70 281h573l594 2382h-573l70 281h917z" />
    <glyph glyph-name="asciicircum" unicode="^" horiz-adv-x="1461" 
d="M979 2142h213l332 -687h-321l-188 412l-398 -412h-315z" />
    <glyph glyph-name="underscore" unicode="_" horiz-adv-x="1943" 
d="M-199 -171h1886l-67 -270h-1886z" />
    <glyph glyph-name="grave" unicode="`" horiz-adv-x="1596" 
d="M746 2025l330 248l319 -522l-242 -165z" />
    <glyph glyph-name="a" unicode="a" horiz-adv-x="1752" 
d="M521 -21q-108 0 -201.5 39t-156 111.5t-86 175.5t8.5 232q31 123 106.5 212t182.5 146t237.5 84.5t271.5 27.5q104 0 199.5 -14t167.5 -31l10 39q37 148 -38.5 225t-262.5 77q-51 0 -117.5 -11.5t-136.5 -30.5t-138 -43.5t-122 -49.5l-57 274q74 32 160.5 60.5
t175.5 49.5t174.5 33.5t156.5 12.5q191 0 315.5 -41.5t184.5 -121.5q58 -78 73.5 -184t-19.5 -246l-250 -1005h-346l49 199q-82 -75 -153.5 -118.5t-137 -66t-127 -29t-124.5 -6.5zM635 265q56 0 114.5 14t114 38t105.5 57.5t90.5 73t69 82.5t39.5 88l23 94
q-31 9 -71.5 17.5t-86 14.5t-93.5 10t-94 4q-69 0 -137.5 -18t-126 -50t-98.5 -76.5t-54 -97.5q-19 -75 -6.5 -123.5t44 -77t76 -39.5t91.5 -11z" />
    <glyph glyph-name="b" unicode="b" horiz-adv-x="1942" 
d="M890 -18q-49 0 -113.5 9.5t-129.5 35.5t-123.5 73t-95.5 121l-55 -221h-341l570 2287h341l-234 -939q61 63 130 109.5t140.5 76.5t142 44.5t135.5 14.5q148 0 270.5 -55.5t200.5 -161.5t102 -260t-25 -350q-34 -136 -91.5 -246.5t-131 -198t-159.5 -151.5t-176 -105.5
t-181.5 -62t-175.5 -20.5zM892 272q92 0 181 33t165.5 97.5t135 160t89.5 220.5q30 120 22 215.5t-48.5 162t-111 102.5t-165.5 36q-94 0 -189 -39t-177.5 -108t-145 -165t-90.5 -210q-29 -116 -12.5 -209.5t64.5 -159t122 -101t160 -35.5z" />
    <glyph glyph-name="c" unicode="c" horiz-adv-x="1650" 
d="M753 -21q-100 0 -194 23.5t-174.5 69.5t-142.5 114t-98 157.5t-42 200t27 240.5q30 119 85 226t129.5 197t165.5 162t192.5 122.5t210.5 77.5t220 27q204 0 340.5 -77.5t219.5 -219.5l-238 -228q-38 59 -78 102.5t-84.5 71.5t-93.5 41.5t-105 13.5q-57 0 -119.5 -15.5
t-124.5 -45.5t-120.5 -73.5t-108.5 -100.5t-88 -126t-58 -150q-33 -133 -17.5 -230.5t64 -161t121 -94.5t153.5 -31q51 0 109 10t120.5 34t128 63.5t133.5 98.5l167 -221q-92 -83 -179.5 -136.5t-174 -85t-172.5 -44t-174 -12.5z" />
    <glyph glyph-name="d" unicode="d" horiz-adv-x="1902" 
d="M682 -18q-84 0 -167.5 22t-157 66.5t-131.5 111.5t-92 156.5t-39 202t29 248.5q49 196 142.5 346.5t216 252t265.5 153.5t291 52q64 0 134 -14.5t134 -44.5t116.5 -76.5t81.5 -109.5l234 939h341l-570 -2287h-341l55 221q-74 -74 -150 -121t-146.5 -73t-133.5 -35.5
t-112 -9.5zM774 272q57 0 118.5 16t121 46.5t115.5 74.5t103 100t83 123.5t55 144.5q28 114 17 210t-55 165t-117 108t-167 39q-95 0 -186.5 -36t-168.5 -102.5t-135.5 -162t-88.5 -215.5q-31 -125 -22 -220.5t51 -160t113 -97.5t163 -33z" />
    <glyph glyph-name="e" unicode="e" horiz-adv-x="1768" 
d="M759 -21q-97 0 -190.5 24.5t-174 71.5t-143.5 116.5t-100.5 159.5t-44.5 200t25 238q32 126 87 235t128 198.5t160.5 159t184 117t198 72.5t202.5 25q163 0 287.5 -56.5t199.5 -159t95.5 -245.5t-22.5 -316q-2 -7 -7 -26t-12 -42.5t-14 -48t-13 -43.5h-1153
q-11 -95 17.5 -168t82 -122.5t124.5 -75t143 -25.5q52 0 111 7t123.5 29.5t133.5 64t141 110.5l182 -193q-99 -88 -191 -147t-182.5 -94.5t-183.5 -50.5t-194 -15zM1334 935q4 20 5.5 38.5t2.5 36.5q2 63 -14 117.5t-51 94t-89.5 62t-129.5 22.5q-87 0 -168.5 -28t-151 -78
t-125 -118t-90.5 -147h811z" />
    <glyph glyph-name="f" unicode="f" horiz-adv-x="1081" 
d="M412 1270h-274l74 295h274l54 218q31 123 90.5 219.5t138.5 156.5q43 33 91 56.5t96.5 39t95.5 23t87 7.5q55 0 105 -8t92.5 -21t77 -28t60.5 -30l-140 -263q-44 27 -77.5 42t-62 22t-54 8t-52.5 1q-29 0 -61 -16t-61.5 -47t-53.5 -75t-38 -99l-51 -206h440l-74 -295
h-436l-316 -1270h-341z" />
    <glyph glyph-name="g" unicode="g" horiz-adv-x="1923" 
d="M603 -531q-79 0 -168 15.5t-177.5 47t-172 78.5t-152.5 110l203 260q118 -112 250.5 -168.5t264.5 -56.5q100 0 194.5 25t171.5 75t132.5 125.5t79.5 176.5l40 172q-131 -134 -273.5 -193.5t-304.5 -59.5q-82 0 -163.5 21t-153.5 63.5t-129.5 105t-92 145.5t-41.5 185.5
t24 225.5q32 130 89.5 237t131.5 191.5t161.5 147t179.5 103.5t185.5 61t180.5 20q75 0 141 -11.5t123 -39t106 -74.5t91 -117l55 223h341l-351 -1408q-44 -176 -133 -305.5t-214.5 -214t-282.5 -125.5t-336 -41zM805 367q83 0 176.5 30t177.5 88.5t149.5 144.5t93.5 197
q26 106 2.5 192t-79 146.5t-132.5 93t-158 32.5t-167 -31t-162.5 -91t-136.5 -147.5t-88 -200.5t-8.5 -198t69 -142t119.5 -85.5t144 -28.5z" />
    <glyph glyph-name="h" unicode="h" horiz-adv-x="1816" 
d="M602 2288h341l-240 -961q49 54 106 102.5t121.5 85.5t137 59t152.5 22q122 0 223 -41.5t165 -124.5t83.5 -207.5t-22.5 -291.5l-232 -931h-340l232 931q21 84 18.5 151.5t-28 115.5t-75 73.5t-122.5 25.5q-78 0 -162 -31t-159.5 -92.5t-136 -152.5t-90.5 -211l-201 -810
h-341z" />
    <glyph glyph-name="i" unicode="i" horiz-adv-x="848" 
d="M600 2161h365l-89 -357h-365zM465 1565h340l-390 -1565h-340z" />
    <glyph glyph-name="j" unicode="j" horiz-adv-x="888" 
d="M670 2161h363l-89 -357h-363zM-81 -563q-21 0 -49 2t-59 8.5t-64.5 18t-64.5 30.5l138 259q42 -17 77.5 -23.5t62.5 -6.5q50 0 92.5 37.5t59.5 108.5l423 1694h338l-426 -1708q-25 -101 -73.5 -179.5t-116.5 -132t-153.5 -81t-184.5 -27.5z" />
    <glyph glyph-name="k" unicode="k" horiz-adv-x="1780" 
d="M601 2288h341l-343 -1375l814 652h479l-788 -630l446 -935h-374l-335 725l-361 -288l-107 -437h-341z" />
    <glyph glyph-name="l" unicode="l" horiz-adv-x="825" 
d="M632 2288h341l-570 -2288h-341z" />
    <glyph glyph-name="m" unicode="m" horiz-adv-x="2788" 
d="M422 1565h341l-52 -208q121 114 251 176.5t282 62.5q149 0 242 -72t143 -213q46 51 107 102t133 91.5t154 66t171 25.5q153 0 255 -50.5t156.5 -139t63 -209t-26.5 -259.5l-233 -938h-341l229 922q21 86 18 155.5t-28 118.5t-71 75.5t-110 26.5q-77 0 -153.5 -28
t-142.5 -77.5t-115 -118.5t-69 -151l-230 -923h-340l227 914q21 85 17.5 155.5t-29.5 121.5t-73 79t-112 28q-53 0 -106.5 -15t-103.5 -41.5t-95 -64t-81.5 -81.5t-63 -93.5t-39.5 -101.5l-224 -901h-341z" />
    <glyph glyph-name="n" unicode="n" horiz-adv-x="1808" 
d="M422 1565h341l-56 -224q65 64 128 110.5t126.5 77t128 45t132.5 14.5q129 0 229 -40t160 -121t75 -204t-27 -290l-232 -933h-340l232 933q42 168 -10 262t-199 94q-78 0 -159.5 -27.5t-154.5 -85.5t-131.5 -148.5t-89.5 -215.5l-202 -812h-341z" />
    <glyph glyph-name="o" unicode="o" horiz-adv-x="1871" 
d="M129 784q28 112 81.5 215.5t127.5 194t165 164.5t193 127t212.5 82t224.5 29q113 0 212.5 -29t179.5 -82t139.5 -127t92.5 -164.5t38 -194t-23 -215.5t-82 -216t-127.5 -194t-164.5 -164.5t-193 -127.5t-213 -82t-224 -29t-212.5 29t-180 82t-139.5 127.5t-92 164.5
t-38 194t23 216zM467 785q-27 -108 -15.5 -203.5t56.5 -167t120 -112.5t176 -41q67 0 135.5 18.5t133 53t123.5 82t107.5 106t84 125.5t53.5 139q27 108 14 203t-59.5 166.5t-123 112.5t-177.5 41t-201.5 -41t-186 -112.5t-149.5 -166.5t-91 -203z" />
    <glyph glyph-name="p" unicode="p" horiz-adv-x="1907" 
d="M1239 1583q84 0 168.5 -22t158.5 -66.5t134 -111.5t95 -156.5t40.5 -202t-28.5 -248.5q-49 -197 -144 -347t-219 -251.5t-268.5 -153.5t-292.5 -52q-65 0 -133 14.5t-130.5 44.5t-113 76.5t-79.5 109.5l-193 -772h-341l529 2120h341l-55 -221q74 74 148 120.5t143 73
t130 36t110 9.5zM1167 1293q-57 0 -119 -16t-123 -46.5t-118.5 -74.5t-105.5 -100t-84.5 -123.5t-55.5 -144.5q-29 -114 -19 -210t52 -165t113.5 -108t165.5 -39q95 0 188 36t172 102.5t139 162t90 215.5q31 125 23.5 220.5t-47.5 160t-109.5 97.5t-161.5 33z" />
    <glyph glyph-name="q" unicode="q" horiz-adv-x="1908" 
d="M1036 1583q32 0 73 -4t85.5 -14t90 -27t87 -44t77 -64t60.5 -86l55 221h341l-529 -2120h-341l193 772q-61 -63 -128.5 -109.5t-137 -76.5t-139 -44.5t-133.5 -14.5q-99 0 -188 23t-162.5 69t-128.5 113.5t-85 157t-31.5 200t31.5 241.5q34 136 91 248.5t130 202
t158 156.5t175 111.5t181 66.5t175 22zM1054 1293q-92 0 -182.5 -33t-168.5 -97.5t-138.5 -160t-91.5 -220.5q-30 -120 -22 -215.5t48.5 -162t111 -102.5t165.5 -36q94 0 189 39t177.5 108t144.5 165t91 210q29 116 14.5 209.5t-61 159t-119 101t-158.5 35.5z" />
    <glyph glyph-name="r" unicode="r" horiz-adv-x="1207" 
d="M1139 1241q-64 0 -128 -22t-124 -60.5t-115 -91t-100 -113.5t-77.5 -128t-49.5 -135l-173 -693h-341l391 1567h341l-82 -329q49 71 113 133.5t136 109t150 73.5t155 27q15 0 36 -0.5t44 -3t47.5 -6.5t47.5 -10l-150 -332q-65 14 -121 14z" />
    <glyph glyph-name="s" unicode="s" horiz-adv-x="1386" 
d="M549 -16q-83 0 -157.5 8t-146.5 33.5t-142.5 74t-143.5 128.5l198 241q58 -66 111.5 -106t106 -61.5t104.5 -28.5t108 -7q47 0 98 11.5t94.5 33t75.5 53t42 70.5q20 84 -53.5 143t-227.5 94q-122 29 -202.5 75.5t-124.5 109t-52.5 140.5t14.5 171q27 106 90 185.5
t148 131.5t183.5 78t196.5 26q88 0 161 -9.5t138 -32t125.5 -59t122.5 -89.5l-166 -249q-85 77 -186.5 117t-203.5 40q-67 0 -119 -13t-89 -34t-58.5 -48t-28.5 -54q-10 -40 -3.5 -71t36 -56.5t84.5 -47t141 -43.5q132 -33 219 -84t133.5 -116t57 -142t-10.5 -163
q-29 -118 -95.5 -203t-157.5 -140t-199.5 -81t-220.5 -26z" />
    <glyph glyph-name="t" unicode="t" horiz-adv-x="1132" 
d="M522 -15q-90 0 -163.5 23.5t-119.5 74t-60.5 131t14.5 194.5l215 862h-199l74 295h199l131 525h340l-131 -525h444l-74 -295h-444l-211 -848q-10 -41 -9 -68.5t11 -44t28.5 -23.5t43.5 -7q21 0 49 2.5t64 11t81 23.5t101 39l26 -266q-97 -54 -201 -79t-209 -25z" />
    <glyph glyph-name="u" unicode="u" horiz-adv-x="1816" 
d="M611 -33q-124 0 -221.5 47t-157.5 133t-77 206.5t19 267.5l236 944h341l-235 -941q-20 -80 -16 -146.5t31.5 -114.5t78.5 -74.5t125 -26.5q78 0 160 31.5t154 87.5t126 132.5t77 167.5l221 884h340l-390 -1565h-340l52 209q-54 -54 -116.5 -98.5t-130.5 -76.5t-138 -49.5
t-139 -17.5z" />
    <glyph glyph-name="v" unicode="v" horiz-adv-x="1720" 
d="M541 -2l-281 1567h347l165 -1121l725 1121h382l-1063 -1567h-275z" />
    <glyph glyph-name="w" unicode="w" horiz-adv-x="2453" 
d="M1322 1103l-645 -1105h-285l-133 1565h337l57 -1076l634 1078h256l95 -1078l595 1076h380l-913 -1565h-285z" />
    <glyph glyph-name="x" unicode="x" horiz-adv-x="1726" 
d="M843 559l-530 -559h-442l822 808l-396 756h381l237 -517l492 517h431l-772 -756l420 -808h-392z" />
    <glyph glyph-name="y" unicode="y" horiz-adv-x="1728" 
d="M1495 1565h392l-1124 -1714q-69 -105 -146 -172t-155 -105.5t-153 -52.5t-140 -14q-37 0 -83.5 9.5t-93 24.5t-89 33.5t-70.5 37.5l180 249q21 -13 46.5 -24.5t52.5 -20t54.5 -13.5t52.5 -5q9 0 28.5 0.5t46 7t57 21t60.5 42.5q18 16 37 40t36.5 49.5t31.5 48.5t22 37
l-277 1521h351l165 -1146z" />
    <glyph glyph-name="z" unicode="z" horiz-adv-x="1519" 
d="M-97 216l1145 1065h-830l71 284h1331l-54 -215l-1146 -1066h877l-70 -284h-1377z" />
    <glyph glyph-name="braceleft" unicode="{" horiz-adv-x="1456" 
d="M909 -606q-135 21 -237 59.5t-175 89.5t-118.5 112.5t-67.5 129t-22.5 139.5t17.5 144q29 114 65 227.5t65 233.5q15 58 14 106t-22 81.5t-65 52t-115 18.5h-105l69 278h105q71 0 124 18.5t91.5 52.5t63 82t39.5 106q28 112 48.5 225t50.5 233q27 108 98 215t188 199
t279 161.5t370 101.5l-10 -265q-135 -27 -237 -71t-174.5 -100t-116.5 -122.5t-62 -139.5q-28 -111 -48 -222.5t-49 -228.5q-35 -140 -114 -233.5t-194 -150.5q88 -57 119.5 -150.5t-2.5 -233.5q-28 -111 -63.5 -221.5t-65.5 -229.5q-18 -73 -7 -139.5t55.5 -122.5
t124.5 -100.5t201 -72.5l-117 -262v0z" />
    <glyph glyph-name="bar" unicode="|" horiz-adv-x="929" 
d="M720 2392h321l-686 -2752h-321z" />
    <glyph glyph-name="braceright" unicode="}" horiz-adv-x="1456" 
d="M-102 -344q135 28 237.5 72.5t174.5 100.5t116 122.5t62 139.5q30 118 49.5 229.5t47.5 221.5q35 141 112.5 234t194.5 150q-43 28 -73 65.5t-45.5 85t-15 105.5t17.5 128q29 117 65 228.5t64 222.5q18 73 7 139.5t-55 122.5t-124.5 100t-201.5 71l122 265
q192 -32 319 -101.5t197.5 -161.5t89 -199t-8.5 -215q-30 -121 -65.5 -233.5t-63.5 -224.5q-15 -58 -14 -106t22 -82t65 -52.5t115 -18.5h105l-69 -278h-105q-71 0 -124 -18.5t-91.5 -52t-63 -81.5t-39.5 -106q-29 -119 -50.5 -233.5t-49.5 -227.5q-27 -108 -94.5 -214.5
t-182.5 -198t-279 -160.5t-383 -101z" />
    <glyph glyph-name="asciitilde" unicode="~" horiz-adv-x="1567" 
d="M1018 719q-60 0 -129 18t-139 41q-55 18 -100.5 36t-81.5 18q-20 0 -43 -8.5t-45.5 -26t-43 -45t-35.5 -66.5l-235 68q51 103 111 174.5t122 116.5t123.5 65t117.5 20q59 0 124 -15.5t131 -38.5q28 -9 56 -19t53.5 -18.5t48 -13.5t40.5 -5q14 0 35.5 7t45 23.5t46.5 43.5
t41 68l235 -69q-52 -102 -112 -173.5t-122.5 -116t-125 -64.5t-118.5 -20z" />
    <glyph glyph-name="saraileftthai" 
d="M-1514 2211h1148l-63 -253h-1148z" />
    <glyph glyph-name="saraileftthai" unicode="&#xf701;" 
d="M-1514 2211h1148l-63 -253h-1148z" />
    <glyph glyph-name="saraiileftthai" 
d="M-1514 2211h793l61 245h355l-124 -498h-1148z" />
    <glyph glyph-name="saraiileftthai" unicode="&#xf702;" 
d="M-1514 2211h793l61 245h355l-124 -498h-1148z" />
    <glyph glyph-name="saraueleftthai" 
d="M-1516 2211h617q-2 14 -1 26t3 20q16 64 48 115.5t76.5 87.5t100.5 55t121 19q63 0 109 -21t72 -58.5t32.5 -90.5t-9.5 -117q-16 -63 -50.5 -116.5t-81.5 -91.5t-103.5 -59.5t-116.5 -21.5h-880zM-719 2257q-13 -54 3.5 -80.5t69.5 -26.5q52 0 82 26.5t43 80.5
q14 53 -3 81t-69 28q-53 0 -82.5 -28t-43.5 -81z" />
    <glyph glyph-name="saraueleftthai" unicode="&#xf703;" 
d="M-1516 2211h617q-2 14 -1 26t3 20q16 64 48 115.5t76.5 87.5t100.5 55t121 19q63 0 109 -21t72 -58.5t32.5 -90.5t-9.5 -117q-16 -63 -50.5 -116.5t-81.5 -91.5t-103.5 -59.5t-116.5 -21.5h-880zM-719 2257q-13 -54 3.5 -80.5t69.5 -26.5q52 0 82 26.5t43 80.5
q14 53 -3 81t-69 28q-53 0 -82.5 -28t-43.5 -81z" />
    <glyph glyph-name="saraueeleftthai" 
d="M-1514 2211h533l58 235h235l-58 -235h155l58 235h225l-121 -488h-1148z" />
    <glyph glyph-name="saraueeleftthai" unicode="&#xf704;" 
d="M-1514 2211h533l58 235h235l-58 -235h155l58 235h225l-121 -488h-1148z" />
    <glyph glyph-name="maieklowleftthai" 
d="M-964 1958l136 545h355l-136 -545h-355z" />
    <glyph glyph-name="maieklowleftthai" unicode="&#xf705;" 
d="M-964 1958l136 545h355l-136 -545h-355z" />
    <glyph glyph-name="maitholowleftthai" 
d="M-230 2517q-39 -84 -98.5 -161t-136.5 -141.5t-171 -114t-202 -78.5q-124 -33 -221.5 -46t-165.5 -19l-44 -2l-23 169q34 18 62 39q24 18 46 41.5t29 51.5q8 32 -7 49.5t-44 17.5q-31 0 -55.5 -6.5t-57.5 -23.5l-22 180q51 25 98 41.5t85 25.5t64 12.5t35 3.5
q57 0 94 -18t57 -47.5t24 -68t-6 -79.5q-8 -29 -24 -63.5t-41 -68.5q155 27 265 107.5t169 198.5h291z" />
    <glyph glyph-name="maitholowleftthai" unicode="&#xf706;" 
d="M-230 2517q-39 -84 -98.5 -161t-136.5 -141.5t-171 -114t-202 -78.5q-124 -33 -221.5 -46t-165.5 -19l-44 -2l-23 169q34 18 62 39q24 18 46 41.5t29 51.5q8 32 -7 49.5t-44 17.5q-31 0 -55.5 -6.5t-57.5 -23.5l-22 180q51 25 98 41.5t85 25.5t64 12.5t35 3.5
q57 0 94 -18t57 -47.5t24 -68t-6 -79.5q-8 -29 -24 -63.5t-41 -68.5q155 27 265 107.5t169 198.5h291z" />
    <glyph glyph-name="maitrilowleftthai" 
d="M-1235 2529q67 0 116 -23.5t84 -63.5q75 46 134 66.5t110 20.5q57 0 89 -20.5t46 -51t12.5 -66t-13.5 -65.5q-7 -20 -13 -33.5t-12 -29.5q40 28 71 60t54 63.5t38 62t23 56.5h219q-25 -71 -67.5 -138t-97 -126t-117 -108.5t-127.5 -85.5t-128.5 -57t-120.5 -22
q-11 0 -21.5 -1t-29.5 1l-10 138q24 11 44 23.5t36.5 29t28 38t19.5 50.5q5 20 2 32.5t-9 20t-13.5 10t-11.5 2.5q-38 0 -70 -18t-60 -35q-11 -7 -26 -15.5t-29 -8.5q-17 0 -28.5 10t-20.5 16q-9 9 -19 18t-21 16.5t-24 12t-29 4.5q-25 0 -46 -17t-26 -48q-12 -55 32 -75
q13 -8 31 -10.5t39 -2.5l-98 -185q-10 -3 -30.5 -4.5t-40.5 -1.5q-53 0 -88.5 27.5t-54.5 71t-21.5 96t10.5 103.5q15 58 44.5 106t68 83t83 54.5t89.5 19.5z" />
    <glyph glyph-name="maitrilowleftthai" unicode="&#xf707;" 
d="M-1235 2529q67 0 116 -23.5t84 -63.5q75 46 134 66.5t110 20.5q57 0 89 -20.5t46 -51t12.5 -66t-13.5 -65.5q-7 -20 -13 -33.5t-12 -29.5q40 28 71 60t54 63.5t38 62t23 56.5h219q-25 -71 -67.5 -138t-97 -126t-117 -108.5t-127.5 -85.5t-128.5 -57t-120.5 -22
q-11 0 -21.5 -1t-29.5 1l-10 138q24 11 44 23.5t36.5 29t28 38t19.5 50.5q5 20 2 32.5t-9 20t-13.5 10t-11.5 2.5q-38 0 -70 -18t-60 -35q-11 -7 -26 -15.5t-29 -8.5q-17 0 -28.5 10t-20.5 16q-9 9 -19 18t-21 16.5t-24 12t-29 4.5q-25 0 -46 -17t-26 -48q-12 -55 32 -75
q13 -8 31 -10.5t39 -2.5l-98 -185q-10 -3 -30.5 -4.5t-40.5 -1.5q-53 0 -88.5 27.5t-54.5 71t-21.5 96t10.5 103.5q15 58 44.5 106t68 83t83 54.5t89.5 19.5z" />
    <glyph glyph-name="maichattawalowleftthai" 
d="M-1263 2370h284l47 186h277l-47 -186h284l-56 -225h-284l-46 -185h-277l46 185h-284z" />
    <glyph glyph-name="maichattawalowleftthai" unicode="&#xf708;" 
d="M-1263 2370h284l47 186h277l-47 -186h284l-56 -225h-284l-46 -185h-277l46 185h-284z" />
    <glyph glyph-name="thanthakhatlowleftthai" 
d="M-407 2220h-415q-18 0 -32.5 -6.5t-26 -17t-19 -23t-10.5 -25.5q-5 -20 0.5 -37.5t13.5 -37.5l15 -36l-274 -111q-28 39 -40 78t-15 73.5t0.5 61t6.5 40.5q21 82 63 135.5t94 84.5t106.5 43t100.5 12h490z" />
    <glyph glyph-name="thanthakhatlowleftthai" unicode="&#xf709;" 
d="M-407 2220h-415q-18 0 -32.5 -6.5t-26 -17t-19 -23t-10.5 -25.5q-5 -20 0.5 -37.5t13.5 -37.5l15 -36l-274 -111q-28 39 -40 78t-15 73.5t0.5 61t6.5 40.5q21 82 63 135.5t94 84.5t106.5 43t100.5 12h490z" />
    <glyph glyph-name="maieklowrightthai" 
d="M-294 1958l135 545h355l-136 -545h-354z" />
    <glyph glyph-name="maieklowrightthai" unicode="&#xf70a;" 
d="M-294 1958l135 545h355l-136 -545h-354z" />
    <glyph glyph-name="maitholowrightthai" 
d="M369 2517q-39 -84 -103 -161t-147 -141.5t-181.5 -114t-205.5 -78.5q-124 -33 -221.5 -46t-165.5 -19l-44 -2l-23 169q34 18 62 39q24 18 46 41.5t29 51.5q8 32 -7 49.5t-44 17.5q-31 0 -55.5 -6.5t-57.5 -23.5l-22 180q51 25 98 41.5t85 25.5t64 12.5t35 3.5
q57 0 94 -18t57 -47.5t24 -68t-6 -79.5q-8 -29 -24 -63.5t-41 -68.5q77 13 148 40.5t131 67t107.5 89.5t76.5 109h291z" />
    <glyph glyph-name="maitholowrightthai" unicode="&#xf70b;" 
d="M369 2517q-39 -84 -103 -161t-147 -141.5t-181.5 -114t-205.5 -78.5q-124 -33 -221.5 -46t-165.5 -19l-44 -2l-23 169q34 18 62 39q24 18 46 41.5t29 51.5q8 32 -7 49.5t-44 17.5q-31 0 -55.5 -6.5t-57.5 -23.5l-22 180q51 25 98 41.5t85 25.5t64 12.5t35 3.5
q57 0 94 -18t57 -47.5t24 -68t-6 -79.5q-8 -29 -24 -63.5t-41 -68.5q77 13 148 40.5t131 67t107.5 89.5t76.5 109h291z" />
    <glyph glyph-name="maitrilowrightthai" 
d="M-595 2529q67 0 116 -23.5t84 -63.5q75 46 134 66.5t110 20.5q56 0 88.5 -20.5t46 -51t12 -66t-13.5 -65.5q-7 -20 -13 -33.5t-12 -29.5q40 28 71 60t54 63.5t38 62t23 56.5h219q-25 -71 -67.5 -138t-97 -126t-117 -108.5t-127 -85.5t-128.5 -57t-120 -22q-11 0 -21.5 -1
t-29.5 1l-10 138q24 11 44 23.5t36.5 29t28 38t19.5 50.5q5 20 2 32.5t-9 20t-13.5 10t-11.5 2.5q-38 0 -70 -18t-60 -35q-11 -7 -26 -15.5t-29 -8.5q-17 0 -28.5 10t-20.5 16q-9 9 -19 18t-21 16.5t-24 12t-29 4.5q-25 0 -46 -17t-26 -48q-12 -55 32 -75q13 -8 31 -10.5
t39 -2.5l-98 -185q-10 -3 -30.5 -4.5t-40.5 -1.5q-53 0 -88.5 27.5t-54.5 71t-21.5 96t10.5 103.5q15 58 44.5 106t68 83t83 54.5t89.5 19.5z" />
    <glyph glyph-name="maitrilowrightthai" unicode="&#xf70c;" 
d="M-595 2529q67 0 116 -23.5t84 -63.5q75 46 134 66.5t110 20.5q56 0 88.5 -20.5t46 -51t12 -66t-13.5 -65.5q-7 -20 -13 -33.5t-12 -29.5q40 28 71 60t54 63.5t38 62t23 56.5h219q-25 -71 -67.5 -138t-97 -126t-117 -108.5t-127 -85.5t-128.5 -57t-120 -22q-11 0 -21.5 -1
t-29.5 1l-10 138q24 11 44 23.5t36.5 29t28 38t19.5 50.5q5 20 2 32.5t-9 20t-13.5 10t-11.5 2.5q-38 0 -70 -18t-60 -35q-11 -7 -26 -15.5t-29 -8.5q-17 0 -28.5 10t-20.5 16q-9 9 -19 18t-21 16.5t-24 12t-29 4.5q-25 0 -46 -17t-26 -48q-12 -55 32 -75q13 -8 31 -10.5
t39 -2.5l-98 -185q-10 -3 -30.5 -4.5t-40.5 -1.5q-53 0 -88.5 27.5t-54.5 71t-21.5 96t10.5 103.5q15 58 44.5 106t68 83t83 54.5t89.5 19.5z" />
    <glyph glyph-name="maichattawalowrightthai" 
d="M-563 2370h284l47 186h276l-47 -186h284l-56 -225h-284l-46 -185h-276l46 185h-284z" />
    <glyph glyph-name="maichattawalowrightthai" unicode="&#xf70d;" 
d="M-563 2370h284l47 186h276l-47 -186h284l-56 -225h-284l-46 -185h-276l46 185h-284z" />
    <glyph glyph-name="thanthakhatlowrightthai" 
d="M229 2220h-414q-18 0 -32.5 -6.5t-26 -17t-19 -23t-10.5 -25.5q-5 -20 0.5 -37.5t13.5 -37.5l15 -36l-274 -111q-28 39 -40 78t-15 73.5t0.5 61t6.5 40.5q21 82 63 135.5t94 84.5t106.5 43t100.5 12h489z" />
    <glyph glyph-name="thanthakhatlowrightthai" unicode="&#xf70e;" 
d="M229 2220h-414q-18 0 -32.5 -6.5t-26 -17t-19 -23t-10.5 -25.5q-5 -20 0.5 -37.5t13.5 -37.5l15 -36l-274 -111q-28 39 -40 78t-15 73.5t0.5 61t6.5 40.5q21 82 63 135.5t94 84.5t106.5 43t100.5 12h489z" />
    <glyph glyph-name="maihanakatleftthai" 
d="M-656 2320q-27 -109 119 -109h817l-63 -253h-938q-82 0 -141 24t-94.5 65.5t-46 96.5t4.5 117l37 146h327z" />
    <glyph glyph-name="maihanakatleftthai" unicode="&#xf710;" 
d="M-656 2320q-27 -109 119 -109h817l-63 -253h-938q-82 0 -141 24t-94.5 65.5t-46 96.5t4.5 117l37 146h327z" />
    <glyph glyph-name="nikhahitleftthai" 
d="M-1028 2218q15 59 53.5 111t93 90.5t120.5 60.5t135 22q68 0 123 -22t90 -60.5t48.5 -90.5t-1.5 -111t-53.5 -110t-93 -89.5t-120.5 -60.5t-134 -22q-69 0 -124 22t-90 60.5t-48.5 89.5t1.5 110zM-810 2214q-11 -42 10.5 -71.5t70.5 -29.5q24 0 45.5 8t39 22t30 32
t17.5 39q10 42 -12 71t-70 29q-24 0 -46 -8t-39 -21.5t-29 -31.5t-17 -39z" />
    <glyph glyph-name="nikhahitleftthai" unicode="&#xf711;" 
d="M-1028 2218q15 59 53.5 111t93 90.5t120.5 60.5t135 22q68 0 123 -22t90 -60.5t48.5 -90.5t-1.5 -111t-53.5 -110t-93 -89.5t-120.5 -60.5t-134 -22q-69 0 -124 22t-90 60.5t-48.5 89.5t1.5 110zM-810 2214q-11 -42 10.5 -71.5t70.5 -29.5q24 0 45.5 8t39 22t30 32
t17.5 39q10 42 -12 71t-70 29q-24 0 -46 -8t-39 -21.5t-29 -31.5t-17 -39z" />
    <glyph glyph-name="maitaikhuleftthai" 
d="M-1163 1946q-74 8 -132.5 31t-96 61.5t-51 91t3.5 119.5q16 66 64 125.5t126 103.5t185 70t242 26q29 0 64 -3t69.5 -8t66 -10.5t52.5 -11.5l92 103h274l-284 -330q-38 16 -83.5 29.5t-96 23.5t-102.5 15.5t-101 5.5q-48 0 -98.5 -7t-94 -23.5t-75 -43t-41.5 -65.5
t6.5 -70t49.5 -39l261 108q19 -34 39 -54.5t39 -31.5t37 -14.5t34 -3.5q25 0 44.5 13.5t24.5 30.5q2 8 4.5 22.5t-0.5 33.5h235q2 -20 0 -39.5t-6 -33.5q-11 -44 -40.5 -85.5t-71.5 -73t-95 -50t-111 -17.5q-51 1 -106.5 27t-103.5 73z" />
    <glyph glyph-name="maitaikhuleftthai" unicode="&#xf712;" 
d="M-1163 1946q-74 8 -132.5 31t-96 61.5t-51 91t3.5 119.5q16 66 64 125.5t126 103.5t185 70t242 26q29 0 64 -3t69.5 -8t66 -10.5t52.5 -11.5l92 103h274l-284 -330q-38 16 -83.5 29.5t-96 23.5t-102.5 15.5t-101 5.5q-48 0 -98.5 -7t-94 -23.5t-75 -43t-41.5 -65.5
t6.5 -70t49.5 -39l261 108q19 -34 39 -54.5t39 -31.5t37 -14.5t34 -3.5q25 0 44.5 13.5t24.5 30.5q2 8 4.5 22.5t-0.5 33.5h235q2 -20 0 -39.5t-6 -33.5q-11 -44 -40.5 -85.5t-71.5 -73t-95 -50t-111 -17.5q-51 1 -106.5 27t-103.5 73z" />
    <glyph glyph-name="maiekupperleftthai" 
d="M-627 2590l108 431h354l-107 -431h-355z" />
    <glyph glyph-name="maiekupperleftthai" unicode="&#xf713;" 
d="M-627 2590l108 431h354l-107 -431h-355z" />
    <glyph glyph-name="maithoupperleftthai" 
d="M168 3058q-33 -72 -86 -138.5t-121 -122.5t-150 -99t-175 -68q-106 -28 -190 -39t-142 -16l-39 -2l-19 145q28 16 53 34q21 16 40.5 36.5t25.5 43.5q7 28 -6.5 43t-39.5 15t-47 -5.5t-50 -19.5l-19 155q44 22 84.5 35.5t73.5 21.5t55 11t30 3q49 0 81 -15.5t49 -41
t20.5 -58.5t-5.5 -69q-6 -25 -19.5 -54.5t-35.5 -58.5q134 23 232 92t149 172h251z" />
    <glyph glyph-name="maithoupperleftthai" unicode="&#xf714;" 
d="M168 3058q-33 -72 -86 -138.5t-121 -122.5t-150 -99t-175 -68q-106 -28 -190 -39t-142 -16l-39 -2l-19 145q28 16 53 34q21 16 40.5 36.5t25.5 43.5q7 28 -6.5 43t-39.5 15t-47 -5.5t-50 -19.5l-19 155q44 22 84.5 35.5t73.5 21.5t55 11t30 3q49 0 81 -15.5t49 -41
t20.5 -58.5t-5.5 -69q-6 -25 -19.5 -54.5t-35.5 -58.5q134 23 232 92t149 172h251z" />
    <glyph glyph-name="maitriupperleftthai" 
d="M-628 3064q58 0 100.5 -21t72.5 -55q64 40 115 58t96 18q48 0 76 -17.5t40 -44t11 -57.5t-11 -57q-6 -18 -12 -29.5t-11 -24.5q71 50 109 107t52 102h190q-22 -62 -59 -120t-83.5 -109t-101 -94t-110 -74t-110.5 -49t-104 -19q-10 0 -19 -1t-26 1l-8 119q40 19 69 45.5
t41 76.5q4 17 2 28t-7.5 17.5t-12 9t-9.5 2.5q-33 0 -60.5 -16t-52.5 -30q-10 -6 -23 -13.5t-24 -7.5q-14 0 -24 8.5t-18 14.5q-17 14 -35 29t-46 15q-21 0 -39.5 -15t-23.5 -42q-9 -47 28 -65q21 -11 61 -11l-84 -160q-9 -2 -27 -3.5t-35 -1.5q-47 0 -77.5 24t-47 61.5
t-18.5 83t10 89.5q13 49 38.5 91t58.5 72.5t71.5 47.5t77.5 17z" />
    <glyph glyph-name="maitriupperleftthai" unicode="&#xf715;" 
d="M-628 3064q58 0 100.5 -21t72.5 -55q64 40 115 58t96 18q48 0 76 -17.5t40 -44t11 -57.5t-11 -57q-6 -18 -12 -29.5t-11 -24.5q71 50 109 107t52 102h190q-22 -62 -59 -120t-83.5 -109t-101 -94t-110 -74t-110.5 -49t-104 -19q-10 0 -19 -1t-26 1l-8 119q40 19 69 45.5
t41 76.5q4 17 2 28t-7.5 17.5t-12 9t-9.5 2.5q-33 0 -60.5 -16t-52.5 -30q-10 -6 -23 -13.5t-24 -7.5q-14 0 -24 8.5t-18 14.5q-17 14 -35 29t-46 15q-21 0 -39.5 -15t-23.5 -42q-9 -47 28 -65q21 -11 61 -11l-84 -160q-9 -2 -27 -3.5t-35 -1.5q-47 0 -77.5 24t-47 61.5
t-18.5 83t10 89.5q13 49 38.5 91t58.5 72.5t71.5 47.5t77.5 17z" />
    <glyph glyph-name="maichattawaupperleftthai" 
d="M-731 2962h240l42 169h251l-42 -169h239l-51 -204h-239l-42 -168h-251l42 168h-240z" />
    <glyph glyph-name="maichattawaupperleftthai" unicode="&#xf716;" 
d="M-731 2962h240l42 169h251l-42 -169h239l-51 -204h-239l-42 -168h-251l42 168h-240z" />
    <glyph glyph-name="thanthakhatupperleftthai" 
d="M51 2607h-414q-18 0 -32.5 -6.5t-25.5 -17t-18.5 -23t-10.5 -25.5q-5 -20 0.5 -37.5t13.5 -37.5l15 -36l-275 -111q-27 39 -39.5 78t-15.5 73.5t0.5 61t6.5 40.5q21 82 63 134t93 81t105.5 39.5t100.5 10.5h489z" />
    <glyph glyph-name="thanthakhatupperleftthai" unicode="&#xf717;" 
d="M51 2607h-414q-18 0 -32.5 -6.5t-25.5 -17t-18.5 -23t-10.5 -25.5q-5 -20 0.5 -37.5t13.5 -37.5l15 -36l-275 -111q-27 39 -39.5 78t-15.5 73.5t0.5 61t6.5 40.5q21 82 63 134t93 81t105.5 39.5t100.5 10.5h489z" />
    <glyph glyph-name="uni00A0" unicode="&#xa0;" horiz-adv-x="1024" 
 />
    <glyph glyph-name="cent" unicode="&#xa2;" horiz-adv-x="1753" 
d="M725 227q-126 22 -231.5 84t-173.5 162.5t-89.5 237.5t21.5 309q39 159 125 294t202.5 239t256 172t286.5 93l91 365h233l-89 -355q169 -15 286 -90.5t192 -202.5l-279 -228q-61 95 -127 148.5t-147 71.5l-252 -1012q85 14 179 60t200 139l156 -221q-80 -72 -156.5 -122
t-152 -82.5t-150 -49t-150.5 -21.5l-70 -279h-233zM597 1025q-26 -104 -19.5 -186t36.5 -143.5t79 -102.5t108 -62l244 980q-72 -23 -142 -66t-130 -104.5t-106 -140.5t-70 -175z" />
    <glyph glyph-name="sterling" unicode="&#xa3;" horiz-adv-x="1825" 
d="M544 1458q37 149 117.5 274t194.5 215t256 140.5t303 50.5q100 0 189 -26.5t162.5 -69.5t130 -99t92.5 -114l-286 -214q-36 49 -78 90t-89.5 71t-98.5 47t-105 17q-85 -5 -155 -36.5t-123.5 -82.5t-90.5 -118t-56 -142l-68 -273h782l-76 -303h-782l-117 -471
q-3 -11 -9 -27.5t-13.5 -33.5t-16 -32t-16.5 -22h1009l-74 -299h-1564l54 217q27 6 68.5 23t82.5 43t74.5 61.5t44.5 78.5l115 462h-211l76 303h211z" />
    <glyph glyph-name="yen" unicode="&#xa5;" horiz-adv-x="2165" 
d="M1202 473l-117 -473h-366l117 473h-630l69 276h630l26 102l-23 52h-594l68 276h406l-406 943h428l386 -941l857 941h427l-879 -943h406l-68 -276h-594l-48 -52l-26 -102h629l-69 -276h-629z" />
    <glyph glyph-name="copyright" unicode="&#xa9;" horiz-adv-x="2506" 
d="M1207 445q-123 0 -216 45t-148.5 126t-69.5 195t21 252l3 15q23 91 63.5 173t94.5 151t120 124t139.5 94t152 59.5t159.5 20.5q69 0 126.5 -14.5t105.5 -40.5t88 -61.5t75 -76.5l-199 -187q-23 27 -49 53t-57.5 46.5t-68 32.5t-79.5 12q-71 0 -138 -28t-122.5 -78
t-97.5 -121t-63 -156l-4 -17q-21 -86 -14.5 -156.5t37.5 -121t84 -78t124 -27.5q72 0 160.5 36t177.5 103l101 -178q-55 -43 -117.5 -79t-128 -62.5t-132 -41t-128.5 -14.5zM247 1066q37 150 111 289.5t175.5 261t226 221t263.5 170.5t288 110t300 39q150 0 280 -39
t233.5 -110t178 -170.5t115.5 -221t45 -261t-33 -289.5q-38 -151 -111.5 -290.5t-175 -260.5t-225.5 -221t-263 -171t-288.5 -110t-299.5 -39q-151 0 -280.5 39t-233.5 110t-178.5 171t-115.5 221t-45.5 260.5t33.5 290.5zM496 1059q-29 -116 -25.5 -223.5t35 -201t89 -170
t137.5 -131.5t180 -85t216 -30t231 30t222 85t203 131.5t174 170t135 201t86 223.5t25.5 223.5t-35 201t-89.5 170t-137.5 131.5t-179.5 85t-216 30t-231 -30t-222 -85t-203 -131.5t-174.5 -170t-135 -201t-85.5 -223.5z" />
    <glyph glyph-name="guillemotleft" unicode="&#xab;" horiz-adv-x="1670" 
d="M902 1487l189 -161l-563 -526l301 -526l-269 -160l-408 687zM1498 1487l189 -161l-562 -526l300 -526l-269 -160l-407 687z" />
    <glyph glyph-name="registered" unicode="&#xae;" horiz-adv-x="2507" 
d="M1065 1683h502q84 0 148 -24.5t103 -73t49.5 -120.5t-13.5 -166q-16 -66 -44.5 -120t-66 -97.5t-82.5 -76.5t-96 -57l136 -465h-260l-111 414h-237l-103 -414h-224zM1409 1107q41 0 76 13t63 36t47.5 56t29.5 74q22 88 -13.5 132t-114.5 44h-263l-88 -355h263zM247 1066
q37 150 111 289.5t175.5 261t226 221t263.5 170.5t288 110t300 39q150 0 280 -39t233.5 -110t178 -170.5t115.5 -221t45 -261t-33 -289.5q-38 -151 -111.5 -290.5t-175 -260.5t-225.5 -221t-263 -171t-288.5 -110t-299.5 -39q-151 0 -280.5 39t-233.5 110t-178.5 171
t-115.5 221t-45.5 260.5t33.5 290.5zM496 1059q-29 -116 -25.5 -223.5t35 -201t89 -170t137.5 -131.5t180 -85t216 -30t231 30t222 85t203 131.5t174 170t135 201t86 223.5t25.5 223.5t-35 201t-89.5 170t-137.5 131.5t-179.5 85t-216 30t-231 -30t-222 -85t-203 -131.5
t-174.5 -170t-135 -201t-85.5 -223.5z" />
    <glyph glyph-name="guillemotright" unicode="&#xbb;" horiz-adv-x="1670" 
d="M1556 801l-750 -687l-189 160l563 526l-301 526l269 161zM959 801l-749 -687l-189 160l562 526l-300 526l269 161z" />
    <glyph glyph-name="onequarter" unicode="&#xbc;" horiz-adv-x="2368" 
d="M1909 2h-244l55 222h-516l10 185l733 715h242l-170 -680h156l-55 -220h-156zM1860 777l-355 -336h271zM143 817l59 236h306l147 590l-240 -104l-27 225l415 173h184l-220 -884h282l-59 -236h-847zM2116 1939h286l-1761 -1961h-285z" />
    <glyph glyph-name="onehalf" unicode="&#xbd;" horiz-adv-x="2411" 
d="M1295 180l565 383q39 27 75 52.5t64.5 51t48 52t26.5 55.5q6 25 -2 46.5t-26.5 37t-46 24t-58.5 8.5q-51 0 -97.5 -13t-88 -35.5t-77 -53t-62.5 -64.5l-137 168q51 53 108 96.5t121.5 74.5t137.5 48t155 17q85 0 155 -23.5t116.5 -68t64.5 -109t-3 -145.5
q-18 -71 -58.5 -131t-97.5 -112t-127 -99t-146 -92l-208 -121h499l-56 -226h-889zM83 817l59 236h306l147 590l-240 -104l-27 225l415 173h184l-220 -884h282l-59 -236h-847zM2036 1939h286l-1761 -1961h-285z" />
    <glyph glyph-name="threequarters" unicode="&#xbe;" horiz-adv-x="2276" 
d="M547 809q-59 0 -114 16.5t-101.5 45.5t-83.5 68t-61 84l189 174q24 -45 52.5 -75t59 -48t61.5 -25.5t59 -7.5t62.5 9t66 26.5t56 43.5t33.5 61q9 34 -2.5 62t-37 48t-62 30.5t-78.5 10.5h-102l-21 133l339 249h-430l55 223h761l-43 -176l-334 -242q48 -17 92.5 -47.5
t76 -73.5t44.5 -96.5t-3 -117.5q-22 -86 -78 -155.5t-131 -118.5t-160 -75t-165 -26zM2006 1939h286l-1761 -1961h-285zM1821 2h-244l55 222h-516l10 185l733 715h242l-170 -680h156l-55 -220h-156zM1772 777l-355 -336h271z" />
    <glyph glyph-name="multiply" unicode="&#xd7;" horiz-adv-x="1514" 
d="M770 839l-452 -371l-154 193l468 374l-280 377l252 195l266 -373l457 373l150 -193l-464 -373l277 -378l-251 -195z" />
    <glyph glyph-name="divide" unicode="&#xf7;" horiz-adv-x="1581" 
d="M224 888l70 281h1214l-70 -281h-1214zM780 1471q10 40 34.5 75.5t57.5 61.5t72.5 41.5t79.5 15.5t71.5 -15.5t51 -41.5t26 -61.5t-3.5 -75.5t-34 -75.5t-57 -62t-72 -42t-79 -15.5t-71.5 15.5t-51.5 42t-27 62t3 75.5zM560 587q10 40 34 75.5t57 62t72.5 42t79.5 15.5
t71.5 -15.5t51.5 -42t26.5 -62t-3.5 -75.5t-34.5 -75.5t-57.5 -62t-72 -42t-79 -15.5t-71.5 15.5t-51.5 42t-26.5 62t3.5 75.5z" />
    <glyph glyph-name="kokaithai" unicode="&#xe01;" horiz-adv-x="1975" 
d="M1237 1718q146 0 268 -46.5t201.5 -135.5t107.5 -220t-14 -300l-253 -1016h-356l252 1012q21 84 16.5 156t-38 124.5t-98 82t-164.5 29.5q-94 0 -173.5 -29.5t-141 -82t-104.5 -124.5t-64 -156l-252 -1012h-356l253 1016q42 169 135.5 300t218.5 220t270.5 135.5
t291.5 46.5z" />
    <glyph glyph-name="khokhaithai" unicode="&#xe02;" horiz-adv-x="1482" 
d="M1314 1700h386l-986 -1700h-304l-142 1700h366l56 -1141z" />
    <glyph glyph-name="khokhuatthai" unicode="&#xe03;" horiz-adv-x="1787" 
d="M1516 633q-33 -135 -105.5 -254t-176 -207.5t-233.5 -139.5t-278 -51q-91 0 -172 23.5t-147.5 65.5t-115.5 102t-77.5 132t-33.5 155.5t17 173.5q25 99 72 181t104 149.5t119 122.5t117 101q10 43 4.5 82.5t-27 69.5t-59 48t-91.5 18q-4 0 -16.5 -0.5t-29.5 -2t-35.5 -4
t-33.5 -5.5l74 296q13 4 33 6.5t39.5 4t36 2t24.5 0.5q69 0 131 -17t108 -53.5t71 -94.5t20 -139q25 36 42.5 69t31.5 68.5t25.5 75t23.5 89.5h341q-47 -189 -143.5 -333t-241.5 -262q-75 -61 -138 -113.5t-112 -106.5t-84 -115t-54 -139q-17 -66 -13 -126.5t30 -107t75 -74
t122 -27.5t139 28t119 74.5t90 107t54 126.5l264 1068h356z" />
    <glyph glyph-name="khokhwaithai" unicode="&#xe04;" horiz-adv-x="1994" 
d="M1228 1719q97 0 187 -20.5t165 -61t132.5 -100.5t90.5 -138t38.5 -174t-22.5 -209l-253 -1016h-356l252 1013q21 84 18.5 156t-34 124t-94.5 81.5t-163 29.5q-95 0 -178.5 -29.5t-151 -81.5t-114.5 -124t-68 -156l-2 -7h453l-76 -307h-453l-174 -699h-357l253 1016
q28 113 79.5 209t119.5 174t151 138t174 100.5t188.5 61t194.5 20.5z" />
    <glyph glyph-name="khokhonthai" unicode="&#xe05;" horiz-adv-x="2005" 
d="M1080 1044l-336 241l-101 -403h453l-76 -307h-453l-143 -575h-356l423 1700h226l429 -313l589 313h265l-423 -1700h-356l320 1286z" />
    <glyph glyph-name="khorakhangthai" unicode="&#xe06;" horiz-adv-x="1958" 
d="M566 1187q10 43 4.5 82.5t-27 69.5t-59 48t-91.5 18q-4 0 -16.5 -0.5t-29.5 -2t-35.5 -4t-33.5 -5.5l74 296q13 4 33 6.5t39.5 4t36 2t24.5 0.5q69 0 131 -17t108 -53.5t71 -94.5t20 -139q30 36 48 68.5t30.5 68t22.5 75.5t22 90h341q-24 -95 -58 -176t-80.5 -153
t-107.5 -137.5t-139 -128.5q-60 -50 -107.5 -95.5t-83.5 -91.5t-60.5 -95t-38.5 -106l-15 -75q-6 -28 1 -64.5t25.5 -75t48 -76t68.5 -67t87.5 -47.5t104.5 -18q60 0 121.5 15t116 52.5t98 100.5t67.5 159l269 1079h357l-269 -1082q-39 -155 -110.5 -274t-166 -200
t-205.5 -122.5t-229 -41.5q-89 0 -163.5 23t-135 61.5t-107 88.5t-77.5 104l-66 -257h-352l184 739q18 74 50.5 136t73.5 116t89 102t97 94z" />
    <glyph glyph-name="ngonguthai" unicode="&#xe07;" horiz-adv-x="1340" 
d="M368 -20q-85 0 -151.5 21.5t-116.5 57t-85 82t-58 97t-35.5 102t-16.5 96.5l308 175q6 -68 20 -126t38.5 -100.5t59 -66.5t81.5 -24t92 21.5t84.5 65.5t72 109.5t54.5 154.5l263 1055h357l-263 -1058q-37 -149 -98 -271t-148 -209t-201 -134.5t-257 -47.5z" />
    <glyph glyph-name="chochanthai" unicode="&#xe08;" horiz-adv-x="1486" 
d="M886 1412q-54 0 -117.5 -15.5t-128.5 -50t-127.5 -89.5t-113.5 -134l-289 140q55 94 141 177t193 144.5t229.5 97.5t248.5 36q147 0 266 -39t196 -115.5t105 -188.5t-6 -257q-9 -37 -28 -83t-45 -97t-59.5 -106t-71.5 -110q-17 -23 -46.5 -64t-67 -92t-80.5 -109
t-86 -115q-37 -49 -76 -101.5t-73 -99.5t-61 -84.5t-40 -56.5h-296l-262 978h379l125 -570q26 36 54.5 77.5t57 84t55.5 84t50.5 77t41.5 64t28 44.5q22 37 45 74.5t42.5 73.5t34.5 68.5t22 59.5q18 74 8 129.5t-43 93t-86 56t-119 18.5z" />
    <glyph glyph-name="chochingthai" unicode="&#xe09;" horiz-adv-x="1948" 
d="M1113 1718q110 0 206.5 -22.5t174.5 -66.5t135 -109t88 -150t33.5 -188.5t-27.5 -225.5l-238 -956h-356l55 223q-66 -53 -134 -97.5t-138.5 -77t-143 -50.5t-147.5 -18q-128 0 -227.5 43.5t-160.5 127t-77 205.5t23 280l85 342h357l-84 -338q-25 -99 -21 -165.5
t32.5 -106.5t80 -57t121.5 -17q58 0 118 14t116.5 39.5t108 61.5t93 80t71.5 95.5t44 108.5l66 263q27 111 16 194.5t-51.5 140t-107 85t-149.5 28.5q-66 0 -142.5 -16.5t-157.5 -51t-164.5 -88.5t-164.5 -130l-206 225q104 102 217.5 173t227 116t223 65.5t205.5 20.5z" />
    <glyph glyph-name="chochangthai" unicode="&#xe0a;" horiz-adv-x="1674" 
d="M1906 1700l-574 -530q71 -29 119 -79.5t72 -119.5t24 -154t-25 -184q-22 -90 -63.5 -173.5t-98.5 -155.5t-128.5 -132t-153 -102t-172.5 -65.5t-187 -23.5q-97 0 -181 23.5t-152.5 65.5t-119 102t-79.5 132t-34 155.5t17 173.5q22 88 63 161.5t91.5 133.5t104.5 106.5
t102 81.5q31 22 60 44.5t53 46.5t41.5 51.5t25.5 60.5q6 24 0 42t-18.5 29.5t-29.5 17t-32 5.5q-62 -3 -124 -35t-126 -82l-85 250q53 42 111 72.5t115.5 50t112.5 28.5t102 9q69 -1 131.5 -23t105.5 -68.5t59 -120.5t-9 -180q-19 -75 -56 -134.5t-80.5 -106.5t-87 -83.5
t-74.5 -66.5q-35 -32 -66.5 -65t-58.5 -68.5t-47.5 -74.5t-31.5 -83q-17 -66 -13.5 -125t29 -103.5t75 -71t126.5 -26.5t147.5 26.5t127.5 71t97 103.5t57 125q15 60 15 117.5t-21.5 103.5t-67 75t-121.5 33l79 318l434 421h420z" />
    <glyph glyph-name="sosothai" unicode="&#xe0b;" horiz-adv-x="1674" 
d="M828 1106q-58 -50 -105.5 -100t-85 -106.5t-66 -122t-49.5 -145.5q-17 -66 -14.5 -125t27 -103.5t73.5 -71t126 -26.5t148 26.5t129 71t99 103.5t58 125q15 60 15 117.5t-21.5 103.5t-67 75t-121.5 33l79 318l434 421h420l-574 -530q71 -29 119 -79.5t72 -119.5t24 -154
t-25 -184q-22 -90 -64 -173.5t-99.5 -155.5t-129.5 -132t-154.5 -102t-173.5 -65.5t-187 -23.5q-97 0 -181 23.5t-151.5 65.5t-117.5 102t-78.5 132t-33 155.5t17.5 173.5q25 99 59.5 177.5t77 144.5t92 122.5t104.5 109.5q10 43 4.5 82.5t-27 69.5t-59 48t-91.5 18
q-13 0 -32 -1t-42 -5l74 297q9 1 21.5 2.5t25.5 2t25 1t20 0.5q69 0 131 -17t108 -53.5t71 -94.5t20 -139q25 36 42.5 69t31.5 68.5t25.5 75t23.5 89.5h309q-48 -190 -138 -337.5t-218 -256.5z" />
    <glyph glyph-name="chochoethai" unicode="&#xe0c;" horiz-adv-x="2778" 
d="M1377 1033q22 101 10.5 172t-47.5 115.5t-91.5 64.5t-119.5 20q-72 0 -134 -9t-117.5 -26t-105.5 -42.5t-99 -58.5l163 -240q-59 -45 -116 -97.5t-106.5 -114t-87 -131.5t-56.5 -151q-10 -40 -11.5 -83.5t8 -79.5t31 -59.5t59.5 -23.5h18t27 3t37.5 10.5t50.5 22.5
l108 -244q-34 -22 -78 -39.5t-91 -30t-93.5 -19t-85.5 -6.5q-76 0 -134 23.5t-99.5 63.5t-67 94t-36.5 114.5t-8 125t18 126.5q20 80 49.5 149.5t68 131.5t85 117.5t99.5 108.5l-158 228q37 40 86.5 89t111 99t136 97.5t163 84t191.5 58.5t222 22q92 0 177 -18.5t156.5 -55
t126 -93t85.5 -132t35.5 -172t-24.5 -213.5l-92 -372q-14 -54 0 -117.5t47 -119t81.5 -92.5t105.5 -37q49 0 89 16t72.5 52t58.5 94.5t47 142.5l274 1099h357l-275 -1103q-37 -147 -92 -261t-131.5 -192t-175.5 -118t-222 -40q-56 0 -111 21t-101.5 56t-81.5 82t-51 99
l-61 -244h-351z" />
    <glyph glyph-name="yoyingthai" unicode="&#xe0d;" horiz-adv-x="2730" 
d="M838 1029q-59 -45 -116 -97.5t-106.5 -114t-87 -131.5t-56.5 -151q-10 -40 -11.5 -83.5t8 -79.5t31 -59.5t59.5 -23.5h18t27 3t37.5 10.5t50.5 22.5l108 -244q-34 -22 -78 -39.5t-91 -30t-93.5 -19t-85.5 -6.5q-76 0 -134 23.5t-99.5 63.5t-67 94t-36.5 114.5t-8 125
t18 126.5q20 80 49.5 149.5t68 131.5t85 117.5t99.5 108.5l-158 228q20 28 62 72.5t102.5 94.5t138 100.5t168.5 91t194.5 66t216.5 25.5q91 0 177.5 -18t160.5 -55t131.5 -93t91 -132t39.5 -172.5t-23 -213.5l-68 -274q-21 -83 -12.5 -138.5t35.5 -88.5t66.5 -46.5
t81.5 -13.5q41 0 85.5 13.5t86 46.5t75.5 88.5t55 138.5l235 940h357l-235 -944q-26 -107 -73 -192.5t-107 -151.5t-129.5 -113.5t-143 -78.5t-147 -45.5t-139.5 -14.5q-67 0 -133.5 14.5t-125 45.5t-105.5 78.5t-75 113.5t-32.5 151.5t22.5 192.5l69 277q22 101 11.5 172
t-46.5 115.5t-93.5 64.5t-129.5 20q-69 0 -133.5 -10.5t-121.5 -28.5t-104 -42.5t-81 -51.5zM1132 1h1143l-75 -299h-1143z" />
    <glyph glyph-name="dochadathai" unicode="&#xe0e;" horiz-adv-x="1953" 
d="M1399 -502h-552l-281 166l-423 -187l-116 251l602 265l352 -203h135l308 1233q21 84 15 154.5t-41 121.5t-100.5 79t-162.5 28q-55 0 -117.5 -13.5t-127 -39t-127 -62t-116.5 -82.5q33 -51 52.5 -104t28 -103.5t9.5 -97t-2.5 -86t-9.5 -70t-10 -47.5q-20 -78 -57 -171.5
t-101.5 -192.5t-160 -197t-231.5 -183l-190 264q88 57 155 118t115 124t78.5 127.5t46.5 130.5q15 59 19 125.5t-9 135.5t-46.5 138.5t-94.5 134.5q98 103 203 188.5t221 147t245 95t275 33.5q105 0 198 -20t168.5 -59.5t131.5 -97.5t87.5 -135t35.5 -172.5t-24 -208.5z" />
    <glyph glyph-name="topatakthai" unicode="&#xe0f;" horiz-adv-x="1958" 
d="M1399 -502h-559l-169 120l-278 -154l-407 173l201 258l247 -100l300 164l241 -169h141l308 1233q21 84 15 154.5t-41 121.5t-100.5 79t-162.5 28q-55 0 -117.5 -13.5t-127 -39t-127 -62t-116.5 -82.5q33 -51 52.5 -104t28 -103.5t9.5 -97t-2.5 -86t-9.5 -70t-10 -47.5
q-20 -78 -57 -171.5t-101.5 -192.5t-160 -197t-231.5 -183l-190 264q88 57 155 118t115 124t78.5 127.5t46.5 130.5q15 59 19 125.5t-9 135.5t-46.5 138.5t-94.5 134.5q98 103 203 188.5t221 147t245 95t275 33.5q105 0 198 -20t168.5 -59.5t131.5 -97.5t87.5 -135
t35.5 -172.5t-24 -208.5z" />
    <glyph glyph-name="thothanthai" unicode="&#xe10;" horiz-adv-x="1536" 
d="M863 1392q-54 0 -110 -14.5t-112 -47.5t-111 -87t-107 -133l-274 142q54 94 137 175.5t185.5 141.5t221.5 94.5t246 34.5h759l-70 -281h-240q26 -24 43 -60t25.5 -79t7.5 -89.5t-12 -90.5q-18 -75 -84 -193t-173 -279q-24 -36 -58.5 -84.5t-74 -104.5t-81.5 -116
t-82 -117.5t-75.5 -110t-61.5 -93.5h-298l-267 958h361l129 -531q29 42 59 86t58 85.5t52 78.5t41 64q21 33 48.5 82.5t54 100.5t47.5 97.5t28 73.5q18 74 12 129.5t-34 93t-76.5 56t-113.5 18.5zM723 -142q-10 -40 -9.5 -68t9 -45.5t23.5 -25.5t34 -8t39.5 8t40 25.5
t35.5 45.5t26 68h322q-23 -91 -72 -168t-116 -133t-147.5 -87.5t-165.5 -31.5q-33 0 -66 8t-62 23t-53.5 36t-42.5 47q-63 -52 -136 -83t-142 -31q-85 0 -155.5 31.5t-117 87.5t-63.5 133t6 168h321q-10 -40 -8 -68t12.5 -45.5t27 -25.5t35.5 -8t38 8t36.5 25.5t32.5 45.5
t25 68h293z" />
    <glyph glyph-name="thonangmonthothai" unicode="&#xe11;" horiz-adv-x="2020" 
d="M566 1175q10 43 4.5 84t-27 73.5t-59 52.5t-91.5 20q-4 0 -16.5 -0.5t-29.5 -2t-35.5 -4t-33.5 -5.5l74 296q13 4 33 6.5t39.5 4t36 2t24.5 0.5q69 0 131 -17t108 -53.5t71 -94.5t20 -139q30 36 48 68.5t30.5 68t22.5 75.5t22 90h341q-24 -95 -58 -175.5t-81 -152.5
t-108 -137.5t-138 -129.5q-11 -9 -14 -11.5t-5 -4t-5 -4.5t-12 -11q-29 -27 -52.5 -56t-43 -64t-36 -78.5t-30.5 -98.5l-40 -158l1041 1081h318l-423 -1700h-356l264 1065l-1027 -1065h-327l193 777q31 122 91 220.5t136 177.5z" />
    <glyph glyph-name="thophuthaothai" unicode="&#xe12;" horiz-adv-x="2894" 
d="M1656 1700h332l-262 -1056q-14 -54 0.5 -115t48 -113.5t83.5 -87t109 -34.5q49 0 91 16.5t77.5 53t63.5 95t49 142.5l274 1099h357l-275 -1103q-37 -147 -96.5 -262t-141 -194t-184.5 -120t-227 -41q-52 0 -102 17.5t-94.5 50.5t-80 80t-59.5 105l-59 -233h-351l324 1300
l-319 -203q-14 54 -34.5 109.5t-51.5 99.5t-72 72t-95 28q-74 0 -151 -44.5t-146 -122.5t-124 -183t-85 -226q-17 -68 -24.5 -136.5t-3 -130.5t22 -116t50.5 -94t82.5 -62.5t117.5 -22.5q24 0 58 8t74.5 25.5t85 45.5t89.5 67l96 -251q-55 -48 -114.5 -82.5t-119 -56.5
t-116.5 -32.5t-107 -10.5q-162 0 -283 69.5t-192 190t-87.5 281.5t28.5 344q30 120 79.5 230t115 204.5t145 172t170.5 132t191 84.5t206 30q230 0 318 -224z" />
    <glyph glyph-name="nonenthai" unicode="&#xe13;" horiz-adv-x="2777" 
d="M2349 0h-351l59 244q-41 -52 -99 -99t-122.5 -82t-130 -56t-121.5 -21q-123 0 -202 40.5t-116.5 118.5t-36 192.5t38.5 263.5l108 432q22 101 8.5 172t-51 115.5t-94.5 64.5t-121 20q-72 0 -132.5 -9t-114 -26t-102 -42.5t-97.5 -58.5l163 -240q-59 -45 -116 -97.5
t-106.5 -114t-87 -131.5t-56.5 -151q-10 -40 -11.5 -83.5t8 -79.5t31 -59.5t59.5 -23.5h18t27 3t37.5 10.5t50.5 22.5l118 -244q-34 -22 -78 -39.5t-91 -30t-93.5 -19t-85.5 -6.5q-76 0 -135 23.5t-101.5 63.5t-69 94t-38.5 114.5t-10 125t17 126.5q20 80 49.5 149.5
t68 131.5t85 117.5t99.5 108.5l-158 228q37 40 88 89t114.5 99t141 97.5t168 84t195 58.5t223.5 22q138 0 255.5 -41t194.5 -125.5t103.5 -213t-17.5 -304.5l-108 -433q-21 -84 -24 -142.5t12 -94.5t47 -52t81 -16q38 0 81 17t86.5 46t84.5 66.5t75 78t58 81.5t33 77
l257 1038h357z" />
    <glyph glyph-name="dodekthai" unicode="&#xe14;" horiz-adv-x="1946" 
d="M1100 145q-56 -47 -111 -78.5t-107 -50.5t-100 -27t-90 -8q-115 0 -210.5 32t-170 90.5t-125.5 139.5t-77 178.5t-25.5 208.5t30.5 229q32 129 89.5 243t136 209.5t174.5 170.5t205.5 127.5t229.5 80t246 27.5q155 0 280.5 -44t206.5 -129.5t108.5 -211t-12.5 -288.5
l-260 -1044h-356l259 1041q21 84 12 151t-47.5 114t-106 72.5t-163.5 25.5q-108 0 -213 -39t-194 -112t-156 -177.5t-100 -234.5q-24 -99 -19 -199t40.5 -181t102.5 -132t166 -51q29 0 64 8t71.5 22.5t71.5 33.5t64 41z" />
    <glyph glyph-name="totaothai" unicode="&#xe15;" horiz-adv-x="1993" 
d="M112 866q30 120 80 230t116.5 204.5t148 172t173 132t192.5 84.5t207 30q230 0 318 -224l319 205h322l-423 -1700h-356l324 1300l-319 -203q-14 54 -36.5 109.5t-54.5 99.5t-75 72t-97 28q-74 0 -149.5 -44.5t-142.5 -122.5t-120.5 -183t-83.5 -226q-17 -68 -24.5 -136.5
t-3 -130.5t22 -116t50.5 -94t82.5 -62.5t117.5 -22.5q24 0 58 8t74.5 25.5t85 45.5t89.5 67l96 -251q-55 -48 -114.5 -82.5t-119 -56.5t-116.5 -32.5t-107 -10.5q-162 0 -283 69.5t-192 190t-87.5 281.5t28.5 344z" />
    <glyph glyph-name="thothungthai" unicode="&#xe16;" horiz-adv-x="1923" 
d="M1495 0h-356l257 1033q22 101 6.5 172t-56 115.5t-99.5 64.5t-123 20q-72 0 -132.5 -9t-113.5 -26t-101.5 -42.5t-97.5 -58.5l163 -240q-59 -45 -116 -97.5t-106.5 -114t-87 -131.5t-56.5 -151q-10 -40 -11.5 -83.5t8 -79.5t31 -59.5t59.5 -23.5h18t27 3t37.5 10.5
t50.5 22.5l88 -244q-34 -22 -78 -39.5t-91 -30t-93.5 -19t-85.5 -6.5q-76 0 -132.5 23.5t-95.5 63.5t-62 94t-32 114.5t-4.5 125t19.5 126.5q20 80 49.5 149.5t68 131.5t85 117.5t99.5 108.5l-158 228q37 40 87.5 89t114.5 99t141 97.5t168 84t195 58.5t223 22
q92 0 176.5 -18.5t155.5 -55t124.5 -93t84 -132t34.5 -172t-25 -213.5z" />
    <glyph glyph-name="thothahanthai" unicode="&#xe17;" horiz-adv-x="1977" 
d="M1390 1720q124 0 220.5 -41.5t155.5 -123t74 -202.5t-24 -279l-267 -1074h-357l266 1070q22 87 13.5 150.5t-40 104.5t-82.5 61t-114 20q-55 0 -114.5 -17.5t-118.5 -48.5t-114 -73t-100 -90.5t-77 -102t-45 -106.5l-241 -968h-357l423 1700h353l-70 -281
q60 58 131.5 112.5t150 96.5t163 67t171.5 25z" />
    <glyph glyph-name="thothongthai" unicode="&#xe18;" horiz-adv-x="1710" 
d="M518 462q-9 -34 14 -64.5t66.5 -53.5t102.5 -36.5t123 -13.5q59 0 111.5 14.5t94 40.5t70 62.5t39.5 80.5q11 45 7.5 86.5t-29.5 78.5t-79.5 68t-141.5 56q-72 20 -151 42t-153 50t-138 64t-106 84.5t-56.5 111t11.5 143.5q23 75 69 137t107.5 111t136.5 86t156.5 61
t167 36t168.5 12q87 0 173 -12t165.5 -39t151 -71.5t130.5 -109.5l-223 -230q-94 94 -211.5 135t-239.5 41q-66 0 -134 -13.5t-125 -36t-96.5 -53.5t-48.5 -65q-7 -28 13 -51t57.5 -41.5t87 -34t101 -28t99.5 -23t83 -19.5q102 -27 175 -64t121.5 -82.5t75 -97t36 -107.5
t5 -114.5t-17.5 -116.5q-28 -122 -102.5 -216t-177 -158.5t-223.5 -98t-243 -33.5q-82 0 -162 15t-150.5 44t-128 71t-94.5 95.5t-50 117.5t5 137l82 327h357z" />
    <glyph glyph-name="nonuthai" unicode="&#xe19;" horiz-adv-x="1977" 
d="M670 -20q-124 0 -224 41.5t-162.5 123t-81 202.5t21.5 279l267 1074h357l-266 -1070q-22 -87 -13.5 -150.5t40 -104.5t82.5 -61t114 -20q55 0 114.5 17.5t118.5 48.5t114 73t100 90.5t77 101.5t45 107l241 968h357l-423 -1700h-353l70 281q-60 -59 -128.5 -113
t-143.5 -96t-156 -67t-168 -25z" />
    <glyph glyph-name="bobaimaithai" unicode="&#xe1a;" horiz-adv-x="1975" 
d="M825 -20q-97 0 -186.5 21t-164 61.5t-131.5 100t-89.5 137.5t-38 174t22.5 209l253 1017h356l-252 -1014q-21 -84 -16 -156t39 -124.5t97 -82t157 -29.5q100 0 181 29.5t142.5 82t103.5 124.5t63 156l252 1014h356l-253 -1017q-42 -169 -132 -300t-210 -220.5t-262 -136
t-288 -46.5z" />
    <glyph glyph-name="poplathai" unicode="&#xe1b;" horiz-adv-x="1975" 
d="M825 -20q-97 0 -186 21t-164 61.5t-131.5 100t-89.5 137.5t-38.5 174t22.5 209l253 1017h356l-252 -1014q-21 -84 -15.5 -156t39 -124.5t96.5 -82t157 -29.5q100 0 181 29.5t142.5 82t103.5 124.5t63 156l434 1743h356l-435 -1746q-42 -169 -132 -300t-210 -220.5
t-262 -136t-288 -46.5z" />
    <glyph glyph-name="phophungthai" unicode="&#xe1c;" horiz-adv-x="1997" 
d="M257 1143q1 15 3 34.5t4.5 40t5.5 41t8 38.5q19 75 60 149t111 132.5t171.5 94.5t241.5 37q21 0 49.5 -2.5t61.5 -9t68 -17t68 -25.5l-139 -278q-57 20 -101 27t-72 7q-70 0 -111.5 -37.5t-59.5 -108.5q-5 -21 -9 -47.5t-6 -53.5l-56 -650l605 797l212 -766l420 1154h359
l-653 -1700h-273l-185 734l-543 -735h-314z" />
    <glyph glyph-name="fofathai" unicode="&#xe1d;" horiz-adv-x="1949" 
d="M970 1378q-57 20 -101 27t-72 7q-70 0 -111.5 -37.5t-59.5 -108.5q-5 -21 -9 -47.5t-6 -53.5l-56 -650l605 797l212 -766l619 1883h359l-852 -2429h-275l-185 734l-543 -735h-312l74 1144q1 15 3 34.5t4.5 40t5.5 41t8 38.5q19 75 60 149t111 132.5t171.5 94.5t241.5 37
q21 0 49.5 -2.5t61.5 -9t68 -17t68 -25.5z" />
    <glyph glyph-name="phophanthai" unicode="&#xe1e;" horiz-adv-x="2189" 
d="M554 0h-329l121 1700h360l-84 -1029l594 1029h243l82 -1028l428 1028h360l-724 -1700h-290l-99 1130z" />
    <glyph glyph-name="fofanthai" unicode="&#xe1f;" horiz-adv-x="2165" 
d="M554 0h-329l121 1700h360l-84 -1029l594 1029h243l82 -1028l666 1751h360l-962 -2423h-290l-99 1130z" />
    <glyph glyph-name="phosamphaothai" unicode="&#xe20;" horiz-adv-x="1953" 
d="M1525 0h-356l255 1023q21 84 15 154.5t-41 121.5t-100.5 79t-162.5 28q-55 0 -117.5 -13.5t-127 -39t-127 -62t-116.5 -82.5q33 -51 52.5 -104t28 -103.5t9.5 -97t-2.5 -86t-9.5 -70t-10 -47.5q-20 -78 -57 -171.5t-101.5 -192.5t-160 -197t-231.5 -183l-190 264
q88 57 155 118t115 124t78.5 127.5t46.5 130.5q15 59 19 125.5t-9 135.5t-46.5 138.5t-94.5 134.5q98 103 203 188.5t221 147t245 95t275 33.5q105 0 198 -20t168.5 -59.5t131.5 -97.5t87.5 -135t35.5 -172.5t-24 -208.5z" />
    <glyph glyph-name="momathai" unicode="&#xe21;" horiz-adv-x="1977" 
d="M967 -20q-87 0 -160.5 25t-133 67t-105.5 96t-77 113l-70 -281h-353l423 1700h357l-241 -968q-13 -53 -7.5 -106.5t26.5 -102t54.5 -90.5t77 -73t94.5 -48.5t106 -17.5q63 0 124 20t113 61t92 104.5t62 150.5l266 1070h357l-267 -1074q-40 -158 -114 -279t-171.5 -202.5
t-213 -123t-239.5 -41.5z" />
    <glyph glyph-name="yoyakthai" unicode="&#xe22;" horiz-adv-x="1947" 
d="M877 1700q-33 -34 -57 -68.5t-41 -67t-27.5 -60.5t-15.5 -49q-18 -73 -9 -124.5t45 -84t99.5 -47.5t155.5 -15h79l-75 -298h-77q-91 0 -165 -13t-130 -43t-93.5 -78t-54.5 -118q-15 -59 -7.5 -119.5t42.5 -109.5t99.5 -80t163.5 -31q88 0 171.5 22.5t153 69t121 118
t75.5 168.5l256 1028h356l-256 -1029q-44 -174 -133 -304t-210.5 -216t-270 -128.5t-310.5 -42.5q-98 0 -187.5 21.5t-165 62t-133.5 98t-93 130.5t-43.5 159t15.5 183q19 78 56.5 142.5t85.5 116t101.5 89.5t105.5 63q-44 33 -76.5 70.5t-49.5 86.5t-17.5 110.5t19.5 142.5
q8 31 23 67.5t34 70.5t38.5 62.5t36.5 44.5h365z" />
    <glyph glyph-name="roruathai" unicode="&#xe23;" horiz-adv-x="1606" 
d="M628 -20q-75 0 -157 14t-164 47t-160 87.5t-145 135.5l266 256q53 -63 103.5 -106t100 -69.5t99 -38.5t100.5 -12t101 12.5t91 36t70.5 58t40.5 78.5q11 43 5 75t-34.5 58t-81.5 49.5t-136 51.5q-101 34 -186 84t-140.5 117.5t-76.5 153t5 192.5q28 114 94 199.5
t157.5 143.5t203.5 87t234 29q85 0 167 -16t156 -47t138.5 -75t115.5 -100l-230 -261q-94 91 -195 138.5t-190 47.5q-54 0 -102 -10t-85.5 -29.5t-63 -47t-34.5 -63.5q-10 -40 0 -73.5t41.5 -62.5t85.5 -54.5t132 -49.5q119 -37 205 -87.5t135.5 -117t62.5 -151t-13 -189.5
q-30 -122 -94.5 -213.5t-156.5 -153.5t-209.5 -93t-255.5 -31z" />
    <glyph glyph-name="ruthai" unicode="&#xe24;" horiz-adv-x="1923" 
d="M1370 -499h-356l382 1532q22 101 8 172t-52.5 115.5t-96 64.5t-121.5 20q-72 0 -134 -9t-117 -26t-105 -42.5t-99 -58.5l163 -240q-59 -45 -116 -97.5t-106.5 -114t-87 -131.5t-56.5 -151q-10 -40 -11.5 -83.5t8 -79.5t31 -59.5t59.5 -23.5h18t27 3t37.5 10.5t50.5 22.5
l88 -244q-34 -22 -78 -39.5t-91 -30t-93.5 -19t-85.5 -6.5q-76 0 -132.5 23.5t-95.5 63.5t-62 94t-32 114.5t-4.5 125t19.5 126.5q20 80 49.5 149.5t68 131.5t85 117.5t99.5 108.5l-158 228q37 40 86.5 89t110.5 99t135.5 97.5t163.5 84t191.5 58.5t221.5 22q92 0 178 -18.5
t159 -55t129.5 -93t89 -132t38 -172t-23.5 -213.5z" />
    <glyph glyph-name="lolingthai" unicode="&#xe25;" horiz-adv-x="1867" 
d="M613 294q17 0 44 3.5t60 10.5t69 17.5t72 23.5l72 -275q-53 -23 -107.5 -40.5t-106 -29.5t-97 -18t-79.5 -6q-74 0 -144.5 17.5t-130.5 51.5t-107.5 83.5t-75 113.5t-33.5 142.5t17 169.5q35 140 119 244.5t199.5 174t254 104t282.5 34.5q53 0 110.5 -4t114 -11
t108.5 -16t94 -19l3 12q24 97 6.5 160.5t-66.5 101t-123.5 52.5t-162.5 15q-60 0 -130.5 -12t-145 -34.5t-149.5 -53.5t-143 -68l-67 293q85 44 177.5 79t184.5 59t180 37t166 13q107 0 203.5 -15.5t176 -48.5t139 -84t94 -122t40 -163.5t-23.5 -207.5l-268 -1078h-356
l193 775q-33 10 -79.5 19.5t-100 16.5t-110 11.5t-110.5 4.5q-82 0 -158 -20t-138 -56.5t-105.5 -89.5t-59.5 -119q-16 -62 -8.5 -108.5t34.5 -77.5t71 -46.5t101 -15.5z" />
    <glyph glyph-name="luthai" unicode="&#xe26;" horiz-adv-x="1953" 
d="M1399 -502h-356l381 1525q21 84 15 154.5t-41 121.5t-100.5 79t-162.5 28q-55 0 -117.5 -13.5t-126.5 -39t-126.5 -62t-116.5 -82.5q33 -51 52.5 -104t28 -103.5t9.5 -97t-2.5 -86t-9.5 -70t-10 -47.5q-20 -78 -57.5 -171.5t-102 -192.5t-160 -197t-231.5 -183l-190 264
q88 57 155 118t115 124t78.5 127.5t46.5 130.5q15 59 19 125.5t-9 135.5t-46.5 138.5t-94.5 134.5q98 103 203 188.5t221 147t245 95t275 33.5q105 0 198 -20t168.5 -59.5t131.5 -97.5t87.5 -135t35.5 -172.5t-24 -208.5z" />
    <glyph glyph-name="wowaenthai" unicode="&#xe27;" horiz-adv-x="1682" 
d="M603 -20q-96 0 -189.5 18.5t-177.5 57.5t-156 99.5t-124 143.5l272 231q46 -68 91 -113t92 -72.5t97 -39t107 -11.5q88 0 184 33.5t182.5 102.5t156.5 175t106 252q33 133 23 235t-53.5 172t-116.5 106t-166 36q-62 0 -128 -12.5t-134.5 -41t-138 -75t-137.5 -115.5
l-181 226q160 160 345.5 245.5t405.5 85.5q121 0 224.5 -28.5t185.5 -82t140.5 -130t89 -173t31 -211t-33.5 -243.5q-58 -220 -159.5 -383.5t-233 -272t-286 -162t-318.5 -53.5z" />
    <glyph glyph-name="sosalathai" unicode="&#xe28;" horiz-adv-x="2004" 
d="M1248 1719q155 0 282 -52l195 184h441l-399 -374q56 -87 71.5 -202t-19.5 -259l-253 -1016h-356l252 1013q21 84 17 156t-37.5 124t-98 81.5t-164.5 29.5q-95 0 -177 -29.5t-147.5 -81.5t-111 -124t-66.5 -156l-2 -7h453l-76 -307h-453l-174 -699h-357l253 1016
q28 113 81 209t123.5 174t155.5 138t178.5 100.5t192.5 61t196 20.5z" />
    <glyph glyph-name="sorusithai" unicode="&#xe29;" horiz-adv-x="1993" 
d="M1033 1136h459l140 564h356l-140 -564h188l-77 -306h-188l-36 -147q-42 -169 -128.5 -300t-205 -220.5t-263 -136t-304.5 -46.5q-97 0 -186.5 21t-165.5 61.5t-134 100t-92 137.5t-40 174t22 209l253 1017h356l-252 -1014q-21 -84 -14.5 -156t41.5 -124.5t99.5 -82
t159.5 -29.5q100 0 182.5 29.5t145.5 82t106.5 124.5t64.5 156l35 144h-459z" />
    <glyph glyph-name="sosuathai" unicode="&#xe2a;" horiz-adv-x="1867" 
d="M66 558q35 140 119 244.5t199.5 174t254 104t282.5 34.5q53 0 110.5 -4t114 -11t108.5 -16t94 -19l3 12q24 97 5 160.5t-70 101t-127 52.5t-164 15q-60 0 -129 -12t-141.5 -34.5t-146 -53.5t-141.5 -68l-67 293q85 44 180.5 79t191.5 59t187 37t169 13q178 0 315 -42
l184 174h441l-372 -348q50 -76 62.5 -181.5t-21.5 -243.5l-268 -1078h-356l193 775q-33 10 -79.5 19.5t-100 16.5t-110 11.5t-110.5 4.5q-82 0 -158 -20t-138 -56.5t-105.5 -89.5t-59.5 -119q-16 -62 -8.5 -108.5t34.5 -77.5t71 -46.5t101 -15.5q17 0 44 3.5t60 10.5
t69 17.5t72 23.5l72 -275q-53 -23 -107.5 -40.5t-106 -29.5t-97 -18t-79.5 -6q-74 0 -144.5 17.5t-130.5 51.5t-107.5 83.5t-75 113.5t-33.5 142.5t17 169.5z" />
    <glyph glyph-name="hohipthai" unicode="&#xe2b;" horiz-adv-x="1976" 
d="M1387 789q12 49 10 95.5t-18.5 87.5t-45.5 74t-71 54l-701 -548l-136 -552h-357l422 1700h357l-164 -659l833 659h513l-465 -364q66 -38 111 -93.5t68 -125.5t23 -152t-22 -172l-197 -792h-356l196 788v0z" />
    <glyph glyph-name="lochulathai" unicode="&#xe2c;" horiz-adv-x="2068" 
d="M1912 1420q18 -21 32 -51t21.5 -66t7 -76t-10.5 -82q-11 -43 -29 -83l-467 -1063h-281l-166 733l-540 -732h-326l193 1700h359l-148 -1144l593 776l200 -808l240 559q5 14 9.5 27t8.5 26q15 62 6 115t-41.5 91.5t-88.5 60.5t-134 22l69 276h797l-70 -281h-234z" />
    <glyph glyph-name="oangthai" unicode="&#xe2d;" horiz-adv-x="1841" 
d="M1412 842q37 147 25.5 254t-61.5 177t-133 104t-190 34q-66 0 -142 -18.5t-153 -54t-149.5 -87.5t-131.5 -119l-184 216q89 95 188 165t202 115.5t206 68t200 22.5q123 0 231 -26.5t195.5 -77.5t151.5 -126t98.5 -172.5t37.5 -216.5t-32 -258q-34 -136 -92.5 -252.5
t-136 -212.5t-171 -170t-196.5 -124.5t-212 -76.5t-218 -26q-176 0 -311.5 59.5t-218 168.5t-107 262t22.5 340q5 17 18.5 67t35.5 113h863l-75 -301h-507q-19 -91 -6 -164.5t53.5 -126t106.5 -81t153 -28.5q73 0 144 20.5t136 57t122 88t104 113t81 131t52 143.5z" />
    <glyph glyph-name="honokhukthai" unicode="&#xe2e;" horiz-adv-x="1989" 
d="M2086 1851l-398 -372q86 -112 110 -272t-27 -365q-34 -136 -92.5 -252.5t-136 -212.5t-171 -170t-196.5 -124.5t-212 -76.5t-218 -26q-176 0 -311.5 59.5t-218 168.5t-107 262t22.5 340q5 17 18.5 67t35.5 113h863l-75 -301h-507q-20 -90 -7 -164t54 -126.5t107 -81
t153 -28.5q73 0 144 20.5t136 57t122 88t104 113t81 131t52 143.5q37 147 25.5 254t-61.5 177t-133 104t-190 34q-66 0 -142 -18.5t-153 -54t-149.5 -87.5t-131.5 -119l-184 216q89 95 193 165t212 115.5t216 68t205 22.5q181 0 326 -58l200 190h441z" />
    <glyph glyph-name="paiyannoithai" unicode="&#xe2f;" horiz-adv-x="1765" 
d="M649 636q-130 0 -222 41.5t-142.5 123t-58 202t31.5 279.5l104 418h357l-103 -415q-43 -172 3 -258.5t196 -86.5q88 0 170 34t149 89.5t114 127t66 147.5l90 362h356l-423 -1700h-356l218 877q-66 -65 -138 -111t-144 -75t-141 -42t-127 -13z" />
    <glyph glyph-name="saraathai" unicode="&#xe30;" horiz-adv-x="1070" 
d="M1048 1072h-534q-81 0 -133 17t-83 44.5t-44 62.5t-14.5 72t4 72t12.5 62q2 14 8.5 38t14.5 48.5t15 45t10 27.5h341q-16 -42 -26.5 -78t-18.5 -70q-6 -24 3 -38t29 -14h488zM828 192h-534q-80 0 -132.5 17t-83.5 44.5t-44 62.5t-14.5 72t4.5 72t13 62q2 14 8.5 38
t14 48.5t14.5 45t10 27.5h341q-17 -41 -27 -73t-18 -66q-8 -29 2 -45t30 -16h488z" />
    <glyph glyph-name="maihanakatthai" unicode="&#xe31;" 
d="M-540 2321q-27 -109 119 -109h701l-63 -254h-822q-82 0 -141 24t-94.5 65.5t-46 96.5t4.5 117l37 146h327z" />
    <glyph glyph-name="saraaathai" unicode="&#xe32;" horiz-adv-x="1300" 
d="M736 1731q153 0 248.5 -48t142.5 -132.5t49.5 -200t-30.5 -249.5l-274 -1101h-357l274 1100q40 160 6 241t-132 81q-42 0 -85.5 -10t-90 -35t-98.5 -68t-110 -109l-177 204q139 168 301 247.5t333 79.5z" />
    <glyph glyph-name="saraamthai" unicode="&#xe33;" horiz-adv-x="1300" 
d="M736 1731q153 0 248.5 -48t142.5 -132.5t49.5 -200t-30.5 -249.5l-274 -1101h-357l274 1100q40 160 6 241t-132 81q-42 0 -85.5 -10t-90 -35t-98.5 -68t-110 -109l-177 204q139 168 301 247.5t333 79.5zM-386 2218q15 59 53.5 111t92.5 90.5t120 60.5t135 22
q68 0 123 -22t90 -60.5t48.5 -90.5t-1.5 -111t-53.5 -110t-93 -89.5t-120.5 -60.5t-134 -22q-69 0 -123.5 22t-90 60.5t-48.5 89.5t2 110zM-169 2214q-10 -42 11 -71.5t70 -29.5q24 0 45.5 8t39 22t30 32t17.5 39q10 42 -12 71t-70 29q-24 0 -46 -8t-39 -21.5t-29 -31.5
t-17 -39z" />
    <glyph glyph-name="saraithai" unicode="&#xe34;" 
d="M-1355 2211h1478l-63 -253h-1478z" />
    <glyph glyph-name="saraiithai" unicode="&#xe35;" 
d="M-1354 2211h1123l60 245h355l-124 -498h-1477z" />
    <glyph glyph-name="sarauethai" unicode="&#xe36;" 
d="M-1355 2211h1018q-2 17 0.5 32.5t4.5 23.5q16 64 47.5 115.5t76 87.5t100.5 55t121 19q63 0 108.5 -21.5t72 -60.5t32 -92.5t-10.5 -117.5q-16 -63 -50.5 -117t-82 -93.5t-104 -61.5t-116.5 -22h-1280zM-155 2267q-14 -54 2.5 -80.5t69.5 -26.5q52 0 82 26.5t44 80.5
q13 53 -3.5 81t-68.5 28q-53 0 -83 -28t-43 -81z" />
    <glyph glyph-name="saraueethai" unicode="&#xe37;" 
d="M-1354 2211h773l66 265h275l-66 -265h154l66 265h275l-129 -518h-1477z" />
    <glyph glyph-name="sarauthai" unicode="&#xe38;" 
d="M-962 -781l78 312q3 14 -1 23.5t-12 15.5t-18.5 8.5t-19.5 2.5h-15t-23 -3t-34 -10.5t-48 -22.5l-31 189q46 25 94 43t92.5 29t83 16t67.5 5q82 0 129 -27t68.5 -68t22 -90t-10.5 -93l-82 -330h-340z" />
    <glyph glyph-name="sarauuthai" unicode="&#xe39;" 
d="M-1485 -235q82 38 145.5 49.5t107.5 11.5q70 0 109 -18.5t55.5 -47.5t15.5 -66t-10 -74l-9 -34q-11 -42 -7.5 -68t15.5 -40.5t30 -19.5t38 -5q18 0 37.5 4t38.5 18t36 40.5t28 71.5l55 224h325l-58 -234q-21 -86 -69 -152t-117 -111.5t-155.5 -69t-185.5 -23.5t-170.5 23
t-114.5 65t-56.5 102.5t5.5 135.5q10 40 4 56.5t-26 16.5q-8 0 -29 -3.5t-41 -11.5z" />
    <glyph glyph-name="phinthuthai" unicode="&#xe3a;" 
d="M-908 -345q11 43 37.5 82t62.5 67.5t78 45.5t85 17t77.5 -17t56.5 -45.5t29 -67.5t-4 -82t-37 -81t-62 -66.5t-79 -45.5t-86 -17t-77 17t-55.5 45.5t-29 66.5t3.5 81z" />
    <glyph glyph-name="uni0E3D" unicode="&#xe3d;" 
 />
    <glyph glyph-name="PUCR2005" unicode="&#xe3e;" 
 />
    <glyph glyph-name="bahtthai" unicode="&#xe3f;" horiz-adv-x="2122" 
d="M565 2122h645l57 231h233l-57 -231h72q73 0 142 -7.5t130.5 -24.5t114 -45t92.5 -70q38 -40 63.5 -86t37.5 -101t9.5 -118.5t-21.5 -138.5q-20 -82 -56 -146t-82.5 -115t-101.5 -90t-113 -70q65 -35 114.5 -82.5t78.5 -110t34 -141.5t-19 -176q-38 -152 -126.5 -263
t-227.5 -191q-119 -69 -269 -107.5t-315 -38.5h-86l-73 -291h-233l73 291h-645zM1566 600q18 73 5.5 131.5t-58 99t-125 62t-194.5 21.5h-53l-146 -586h96q93 0 172.5 15.5t140.5 48.5t102.5 84.5t59.5 123.5zM1711 1531q33 132 -45 196.5t-246 64.5h-60l-138 -554h57
q82 0 153 18t127 55t95 91.5t57 128.5zM486 328h276l146 586h-276zM713 1238h276l138 554h-276z" />
    <glyph glyph-name="saraethai" unicode="&#xe40;" horiz-adv-x="852" 
d="M68 0l423 1700h356l-423 -1700h-356z" />
    <glyph glyph-name="saraaethai" unicode="&#xe41;" horiz-adv-x="1505" 
d="M68 0l423 1700h357l-423 -1700h-357zM721 0l423 1700h356l-423 -1700h-356z" />
    <glyph glyph-name="saraothai" unicode="&#xe42;" horiz-adv-x="841" 
d="M490 1674q18 71 11 136t-35 124t-74 114t-107 106q73 83 152.5 139t159 90.5t157 49.5t147.5 15q55 0 111.5 -11t110.5 -31t103.5 -50t90.5 -67l-199 -225q-40 31 -77 51t-71 31.5t-65 16t-58 4.5q-21 0 -41 -2.5t-36.5 -5.5t-28 -6.5t-17.5 -6.5q42 -47 71.5 -106
t45.5 -122t17 -125.5t-12 -116.5l-417 -1676h-356z" />
    <glyph glyph-name="saraaimaimuanthai" unicode="&#xe43;" horiz-adv-x="846" 
d="M425 0h-356l426 1710q49 27 108 67.5t112 87.5t93.5 97.5t52.5 96.5q6 21 4 42.5t-14 38.5t-34.5 27.5t-57.5 10.5q-27 0 -63.5 -9.5t-75 -25t-76 -35.5t-65.5 -42l-65 246q40 28 93.5 52.5t111.5 43t115.5 29t107.5 10.5q98 0 170 -25t114.5 -72.5t54.5 -117t-10 -157.5
q-17 -69 -56 -132t-87 -117.5t-99 -99.5t-94 -78z" />
    <glyph glyph-name="saraaimaimalaithai" unicode="&#xe44;" horiz-adv-x="846" 
d="M424 0h-356l394 1596q15 61 53 129.5t92.5 138.5t124 137t149.5 125q-12 -4 -30.5 -7.5t-40 -6t-44.5 -4t-45 -1.5q-112 0 -213 32t-174 83l150 230q40 -25 86 -42t89 -27.5t79 -15t57 -4.5t52 2t73.5 10t98.5 24t127 44l153 -208q-73 -53 -148.5 -126.5t-142 -158
t-117 -175.5t-72.5 -180z" />
    <glyph glyph-name="lakkhangyaothai" unicode="&#xe45;" horiz-adv-x="1300" 
d="M736 1731q153 0 248.5 -48t142.5 -132.5t49.5 -200t-30.5 -249.5l-399 -1600h-357l399 1599q40 160 6 241t-132 81q-42 0 -85.5 -10t-90 -35t-98.5 -68t-110 -109l-177 204q139 168 301 247.5t333 79.5z" />
    <glyph glyph-name="maiyamokthai" unicode="&#xe46;" horiz-adv-x="1788" 
d="M231 1114q31 123 95 231.5t149.5 190t187 129t208.5 47.5q73 0 125.5 -21.5t90 -57t62.5 -81t42 -93.5l342 241h250l-539 -2163h-357l432 1731l-260 -182l-23 98q-6 34 -18 74t-34 74.5t-56 57t-83 22.5q-39 0 -78.5 -24.5t-74 -65.5t-61.5 -94.5t-41 -111.5
q-18 -71 -16.5 -125t17.5 -90.5t44.5 -55t65.5 -18.5q32 0 77 15.5t96 55.5l93 -190q-60 -56 -115.5 -89t-103 -49.5t-84 -21t-58.5 -4.5q-95 0 -177.5 39t-137.5 112.5t-74 179.5t14 239z" />
    <glyph glyph-name="maitaikhuthai" unicode="&#xe47;" 
d="M-773 1946q-74 8 -132.5 31t-96 61.5t-51 91t3.5 119.5q16 66 64 125.5t126 103.5t185 70t242 26q29 0 64 -3t69.5 -8t66 -10.5t52.5 -11.5l91 103h274l-284 -330q-37 16 -83 29.5t-96 23.5t-102 15.5t-101 5.5q-48 0 -98.5 -7t-94 -23.5t-75 -43t-41.5 -65.5t6.5 -70
t49.5 -39l261 108q19 -34 39 -54.5t39 -31.5t37 -14.5t34 -3.5q25 0 44.5 13.5t24.5 30.5q2 8 4.5 22.5t-0.5 33.5h234q2 -20 0 -39.5t-6 -33.5q-11 -44 -40.5 -85.5t-71.5 -73t-94.5 -50t-110.5 -17.5q-51 1 -106.5 27t-103.5 73z" />
    <glyph glyph-name="maiekthai" unicode="&#xe48;" 
d="M-138 2590l108 431h355l-108 -431h-355z" />
    <glyph glyph-name="maithothai" unicode="&#xe49;" 
d="M524 3066q-33 -72 -86 -138.5t-121 -122.5t-150.5 -99t-175.5 -68q-106 -28 -189.5 -39t-141.5 -16l-39 -2l-19 145q28 16 53 34q21 16 40.5 36.5t25.5 43.5q7 28 -6.5 43t-39.5 15t-47 -5.5t-50 -19.5l-19 155q44 22 84.5 35.5t73.5 21.5t55 11t30 3q48 0 80 -15.5
t49.5 -41t20.5 -58.5t-6 -69q-6 -25 -19.5 -54.5t-35.5 -58.5q134 23 232.5 92t149.5 172h251z" />
    <glyph glyph-name="maitrithai" unicode="&#xe4a;" 
d="M-150 3064q58 0 100.5 -21t72.5 -55q64 40 115 58t96 18q49 0 77 -17.5t40 -44t11 -57.5t-11 -57q-6 -18 -12 -29.5t-11 -24.5q71 50 109 107t52 102h190q-22 -62 -59 -120t-84 -109t-101 -94t-110 -74t-111 -49t-104 -19q-10 0 -19 -1t-26 1l-8 119q40 19 69 45.5
t41 76.5q4 17 2 28t-7.5 17.5t-12 9t-9.5 2.5q-33 0 -60.5 -16t-52.5 -30q-10 -6 -23 -13.5t-24 -7.5q-14 0 -24 8.5t-18 14.5q-17 14 -35 29t-46 15q-21 0 -39 -15t-23 -42q-9 -46 27 -65q21 -11 61 -11l-83 -160q-9 -2 -27 -3.5t-35 -1.5q-47 0 -77.5 24t-47 61.5
t-18.5 83t10 89.5q13 49 38.5 91t58.5 72.5t71.5 47.5t76.5 17z" />
    <glyph glyph-name="maichattawathai" unicode="&#xe4b;" 
d="M-271 2962h239l42 169h251l-42 -169h240l-51 -204h-240l-42 -168h-251l42 168h-239z" />
    <glyph glyph-name="thanthakhatthai" unicode="&#xe4c;" 
d="M374 2638h-415q-18 0 -32.5 -6.5t-26 -17t-19 -23t-10.5 -25.5q-5 -20 1 -37.5t14 -37.5l15 -36l-274 -111q-27 39 -39.5 78t-15.5 73.5t0.5 61t6.5 40.5q21 82 63 134t93 81t105.5 39.5t99.5 10.5h490z" />
    <glyph glyph-name="nikhahitthai" unicode="&#xe4d;" 
d="M-386 2218q15 59 53.5 111t92.5 90.5t120 60.5t135 22q68 0 123 -22t90 -60.5t48.5 -90.5t-1.5 -111t-53.5 -110t-93 -89.5t-120.5 -60.5t-134 -22q-69 0 -123.5 22t-90 60.5t-48.5 89.5t2 110zM-169 2214q-10 -42 11 -71.5t70 -29.5q24 0 45.5 8t39 22t30 32t17.5 39
q10 42 -12 71t-70 29q-24 0 -46 -8t-39 -21.5t-29 -31.5t-17 -39z" />
    <glyph glyph-name="yamakkanthai" unicode="&#xe4e;" 
d="M350 2407h-256q-19 0 -43.5 -15t-33.5 -52l-33 -132h-174q-41 0 -66.5 -21t-37.5 -69l-28 -110h-260l31 125q6 24 17 55t29.5 63.5t45 64t64 57t86.5 42.5t113 20q12 36 36.5 71.5t65.5 64.5t100 47t140 18h261z" />
    <glyph glyph-name="fongmanthai" unicode="&#xe4f;" horiz-adv-x="2208" 
d="M257 849q30 121 89.5 233.5t141 210t181.5 177.5t212 137t232 88.5t241 31.5t225.5 -31.5t188 -88.5t143.5 -137t93 -177.5t36 -210t-27 -233.5t-89.5 -233.5t-141 -210t-181.5 -177.5t-212 -137t-232 -88.5t-241 -31.5t-225.5 31.5t-188 88.5t-143.5 137t-93 177.5
t-36 210t27 233.5zM682 849q24 94 80 176.5t133 144t168 97t185 35.5t167.5 -35.5t120 -97t61.5 -144t-9 -176.5q-23 -94 -79.5 -176.5t-133 -144t-168 -97t-185.5 -35.5t-167.5 35.5t-119.5 97t-61 144t8 176.5zM914 849q-11 -45 -3.5 -85.5t30 -70.5t58.5 -47.5t81 -17.5
t90 17.5t82.5 47.5t65 70.5t38.5 85.5t3.5 85.5t-30 70.5t-58.5 47.5t-81 17.5t-90 -17.5t-82.5 -47.5t-65 -70.5t-38.5 -85.5zM522 848q-32 -127 -11.5 -239t83.5 -195.5t163 -132t227 -48.5q85 0 169 22t162 62t148 96.5t127.5 124.5t99 146.5t62.5 163.5q31 127 10.5 239
t-83 195.5t-162.5 132t-227 48.5q-85 0 -169 -22t-162 -62t-148.5 -96.5t-127.5 -124.5t-98.5 -146.5t-62.5 -163.5z" />
    <glyph glyph-name="zerothai" unicode="&#xe50;" horiz-adv-x="2117" 
d="M1906 758q-27 -110 -78 -211t-123.5 -189t-165 -160t-203.5 -123.5t-238 -79.5t-269 -28q-213 0 -361.5 62t-233.5 169t-107 251t19 309q41 163 134.5 306.5t232 250.5t318 169t392.5 62t361.5 -62t233.5 -169t107 -250.5t-19 -306.5zM503 756q-23 -93 -12.5 -178.5
t58.5 -151.5t136.5 -105t220.5 -39t240 39t189 105t134 151.5t76 178.5t12.5 179t-58.5 152t-136.5 105t-220.5 39t-240 -39t-189 -105t-134 -152t-76 -179z" />
    <glyph glyph-name="onethai" unicode="&#xe51;" horiz-adv-x="2114" 
d="M308 938q21 83 68 160t115 144.5t154 123.5t184 96t206 62t220 22q121 0 225.5 -24.5t187.5 -71t142.5 -114.5t92.5 -154.5t36.5 -191t-26.5 -223.5q-27 -109 -87.5 -211t-146 -191t-191 -162.5t-224 -125.5t-244.5 -81t-252 -29q-132 0 -251.5 21t-221.5 63.5
t-183.5 105.5t-136.5 147l331 191q55 -74 123 -117.5t139.5 -66.5t143 -30t135.5 -7q69 0 143.5 17.5t147 49t139.5 76.5t122.5 99.5t95 117.5t56.5 132q27 109 12 196t-65.5 148t-133 93t-189.5 32q-93 0 -177.5 -23t-151.5 -63t-112.5 -93t-60.5 -114q-14 -55 2 -93
t46.5 -61.5t67.5 -34t67 -10.5q17 0 41 4t51 11.5t56 19t55 27.5l59 -253q-76 -50 -170 -79.5t-188 -29.5q-49 0 -108 10.5t-116.5 34t-109.5 62t-85.5 93.5t-44.5 128t12 167z" />
    <glyph glyph-name="twothai" unicode="&#xe52;" horiz-adv-x="2112" 
d="M1940 708q-28 -114 -89.5 -212.5t-145.5 -179.5t-187.5 -144t-216 -106t-230.5 -65.5t-232 -22.5q-113 0 -220 22.5t-198 65.5t-163 106t-116 144t-56 179.5t17 212.5l261 1047h360l-265 -1062q-22 -89 8 -162.5t96 -126t158.5 -81.5t195.5 -29t210.5 29t199.5 81.5
t159 126t89 162.5l113 451l-377 -213q-2 10 -5 35t-10 56.5t-18.5 65t-30.5 62t-46.5 46.5t-64.5 18q-45 0 -80 -14t-60.5 -38t-42 -55t-24.5 -65q-11 -48 -7.5 -98t23.5 -92h-318q-9 23 -13.5 51t-5 58t3 60t9.5 56q25 99 76.5 181t127 140t172 90t211.5 32q43 0 88.5 -9
t86.5 -30t74.5 -55t53.5 -84l313 178l318 -1z" />
    <glyph glyph-name="threethai" unicode="&#xe53;" horiz-adv-x="2112" 
d="M2020 758q-24 -98 -60 -186t-77 -164.5t-84.5 -142t-83.5 -117t-73 -89t-54 -58.5h-410q63 61 134.5 141t138.5 176t122.5 206.5t85.5 232.5q24 97 26.5 181.5t-16 147t-58.5 98.5t-100 36q-33 0 -65 -18t-60.5 -49t-50.5 -72.5t-34 -88.5l-67 -265h-343l66 265
q12 47 9.5 88.5t-15.5 72.5t-36.5 49t-53.5 18q-57 0 -115 -30.5t-110 -89.5t-95.5 -145.5t-71.5 -198.5q-26 -102 -23 -187.5t27.5 -147t68 -96t99.5 -34.5q29 0 78.5 25t118.5 85l144 -235q-62 -47 -116.5 -81.5t-105 -56.5t-99.5 -32.5t-101 -10.5q-140 0 -243.5 58
t-163.5 161t-73.5 244.5t28.5 308.5q29 115 77 217t110.5 187.5t137.5 154t157 116t169 73t174 25.5q88 0 166.5 -34t126.5 -104q39 34 83 59.5t89 43t90 26.5t86 9q138 0 240.5 -56.5t162.5 -158.5t73 -244t-30 -313z" />
    <glyph glyph-name="fourthai" unicode="&#xe54;" horiz-adv-x="2114" 
d="M933 -24q-221 0 -387 60t-268.5 166.5t-136.5 253.5t10 322q41 163 139 301.5t246 239.5t342 158t428 57q56 0 120 -6.5t128 -19t123.5 -30t107.5 -38.5l177 305h379l-460 -778q-124 118 -288 185t-369 67q-132 0 -250 -33.5t-211 -93t-156.5 -139.5t-86.5 -173
q-25 -100 -12.5 -188.5t65 -156t146.5 -110t232 -49.5q-24 22 -45 48.5t-35.5 58.5t-18.5 70.5t7 84.5q16 68 47.5 124.5t73.5 101.5t91 80t100 60t100 40.5t92 23.5l151 -265q-86 -9 -143.5 -29t-93.5 -45.5t-54 -54t-24 -53.5q-9 -38 -4.5 -71t19.5 -60t38.5 -48t52.5 -35
q74 17 170 58t228 109l133 -228q-79 -56 -186.5 -105.5t-227.5 -86t-246 -57.5t-243 -21z" />
    <glyph glyph-name="fivethai" unicode="&#xe55;" horiz-adv-x="2114" 
d="M140 778q34 136 114 256.5t192 218t249 169.5t285 110q0 32 9 68q16 64 56.5 120.5t96 98.5t122.5 66.5t136 24.5t124 -24.5t90 -66.5t47 -98.5t-4 -120.5q-4 -16 -9.5 -31.5t-12.5 -30.5q60 -15 124.5 -38.5t126.5 -58.5t117 -82.5t96 -108.5l-259 -230
q-106 115 -255 178t-351 63q-129 0 -248.5 -36t-216.5 -100t-165.5 -152t-94.5 -193q-26 -104 -1.5 -193t87.5 -156.5t160 -110t216 -52.5q-32 24 -56.5 52.5t-39.5 63t-18 76t10 91.5q17 68 48 124t71 100.5t86.5 78t95 58t96 39.5t89.5 23l152 -265q-85 -9 -142.5 -29
t-93.5 -45.5t-54 -54t-24 -53.5q-8 -31 0 -60.5t28 -56.5t50 -51t68 -45q40 12 83 27.5t90.5 36t100.5 45t114 54.5l127 -225q-96 -64 -209.5 -115t-234.5 -87t-244.5 -55t-240.5 -19q-221 0 -387 60t-268.5 166.5t-137 253.5t9.5 322zM1230 1596q-2 -10 -4 -18.5t-2 -16.5
l76 -52l8 5q20 15 42.5 29.5t48.5 21.5q5 15 9 31q9 35 7 58t-11.5 36t-24 18t-30.5 5q-14 0 -31 -5t-33.5 -18t-31 -36t-23.5 -58z" />
    <glyph glyph-name="sixthai" unicode="&#xe56;" horiz-adv-x="2113" 
d="M522 652q11 -101 47 -171.5t89 -114t119 -63t137 -19.5q109 0 209 36t181 98t137.5 145t80.5 178q28 114 13.5 202.5t-64.5 149.5t-133 93t-191 32q-74 0 -156.5 -11t-176 -41.5t-199.5 -85t-227 -142.5l-71 807h379l23 -322q111 50 241.5 80.5t264.5 30.5
q209 0 355.5 -58.5t229.5 -164t103 -251.5t-23 -320q-28 -112 -80.5 -211.5t-126.5 -184.5t-167 -153t-200 -116t-227.5 -73.5t-248.5 -25.5q-312 0 -488 136t-201 400z" />
    <glyph glyph-name="seventhai" unicode="&#xe57;" horiz-adv-x="2114" 
d="M1101 0l371 627q13 23 29 53.5t30 62t25.5 61.5t17.5 53q16 63 18.5 129.5t-12.5 121t-51 90t-98 35.5q-31 0 -63.5 -19.5t-62 -52.5t-53 -76.5t-35.5 -91.5l-66 -265h-342l66 265q12 48 10.5 91.5t-14.5 76.5t-35.5 52.5t-53.5 19.5q-58 0 -113 -42t-102.5 -112
t-86 -161.5t-63.5 -191.5q-24 -96 -25.5 -176t17.5 -137.5t57 -89.5t93 -32q33 0 88 31t125 86l123 -243q-63 -51 -116.5 -85.5t-103 -55.5t-98 -30t-100.5 -9q-140 0 -239.5 52t-154 148t-62.5 233.5t35 308.5q44 178 121.5 327.5t181.5 257.5t230.5 168t268.5 60
q100 0 172.5 -38t114.5 -100q36 30 78 55.5t88 44t95 28.5t97 10q77 0 139.5 -20t107.5 -55t72 -84t32 -106l271 469h378l-1023 -1744h-379z" />
    <glyph glyph-name="eightthai" unicode="&#xe58;" horiz-adv-x="2117" 
d="M456 -33q-104 39 -178.5 114.5t-115.5 178.5t-46 230t31 270q27 108 81 208t131.5 186.5t176.5 157.5t215 122t247.5 78.5t274.5 27.5q146 0 262 -23.5t201 -58.5l170 288h378l-454 -734q-57 46 -125.5 85t-148 67.5t-170.5 44.5t-192 16q-130 0 -242.5 -33t-201 -94
t-149 -146.5t-86.5 -190.5q-19 -77 -23.5 -137.5t5 -110t32 -91.5t58.5 -83l468 249l346 -240q42 32 67.5 72.5t40.5 97.5q7 28 -0.5 56.5t-29.5 53t-56.5 42.5t-81.5 26l173 281q122 -27 196.5 -76.5t111.5 -113t41.5 -136t-13.5 -145.5q-22 -87 -69 -169.5t-113 -153
t-147.5 -126t-172.5 -88.5l-375 286z" />
    <glyph glyph-name="ninethai" unicode="&#xe59;" horiz-adv-x="2117" 
d="M688 -23q-87 0 -169.5 21.5t-151.5 65t-121.5 110t-81 157t-29 205t34.5 254.5q25 99 70 193.5t106.5 178t137 153.5t161 120.5t179 78.5t191.5 28q101 0 181.5 -26t137.5 -92q29 30 63 50t69.5 32.5t70.5 18t66 5.5q57 0 116 -20t107 -61l201 306h342l-459 -714
q-35 33 -79 68t-91 63.5t-95 47t-91 18.5q-42 0 -64.5 -18t-33.5 -41q-10 -23 2 -68l295 -1111h-391l-282 1034q-5 23 -14.5 56t-26 63t-42 51.5t-61.5 21.5q-50 0 -108.5 -30.5t-114 -87t-102.5 -137t-72 -181.5q-36 -143 -29 -240.5t41 -157.5t87 -86t109 -26q16 0 44.5 7
t64.5 22.5t77 41t83 63.5l106 -251q-53 -49 -113 -84t-119 -57.5t-112 -33.5t-90 -11z" />
    <glyph glyph-name="angkhankhuthai" unicode="&#xe5a;" horiz-adv-x="2344" 
d="M1983 1700h356l-423 -1700h-356zM649 636q-130 0 -222 41.5t-142.5 123t-58 202t31.5 279.5l104 418h357l-103 -415q-43 -172 3 -258.5t196 -86.5q88 0 170 34t149 89.5t114 127t66 147.5l90 362h356l-423 -1700h-356l218 877q-66 -65 -138 -111t-144 -75t-141 -42
t-127 -13z" />
    <glyph glyph-name="khomutthai" unicode="&#xe5b;" horiz-adv-x="3094" 
d="M1607 1136q-28 -111 -85.5 -202t-133.5 -156.5t-163 -101t-174 -35.5q-46 0 -98.5 18t-98.5 57l151 254q22 -20 47.5 -30.5t54.5 -10.5t54 16.5t45.5 42.5t35 58.5t22.5 65.5q18 71 11.5 127t-32 94.5t-66.5 58.5t-92 20q-78 2 -160 -35t-155.5 -109.5t-133 -178.5
t-93.5 -241q-32 -129 -18 -232t63.5 -175t129 -110.5t178.5 -38.5q93 0 184 31t175.5 86.5t160.5 133.5t139 172t111 201t77 221l313 157q14 -30 29 -73.5t28.5 -93t25 -99t18.5 -91.5q14 22 34 57.5t41 73t39 71t28 53.5l164 -10q3 -11 8 -43.5t10.5 -71.5t10 -78t6.5 -63
q12 18 30 43.5t36.5 50.5t34 44.5t22.5 25.5q23 21 52 32.5t58 11.5h286l-72 -292h-269q-16 0 -35 -20.5t-38.5 -53.5t-38.5 -74t-35 -82l-221 -80q6 42 5.5 85t-3.5 83.5t-7 74.5t-6 58q-12 -25 -29 -62t-35 -75.5t-36 -72.5t-31 -54l-194 -48q-4 40 -10.5 89.5t-13.5 94.5
t-13.5 80t-9.5 46q-83 -189 -200.5 -344t-260.5 -265t-306 -170t-336 -60q-122 0 -225.5 29.5t-184 84t-137.5 131.5t-86.5 173.5t-30.5 209t30 237.5q30 122 83.5 232.5t125 204.5t158.5 170t186.5 129.5t207.5 82.5t222 29q92 0 164.5 -22.5t127 -62.5t90.5 -94t53.5 -117
t17.5 -133t-17 -140z" />
    <glyph glyph-name="ZWSP" unicode="&#x200b;" 
 />
    <glyph glyph-name="endash" unicode="&#x2013;" horiz-adv-x="1719" 
d="M276 1167h1387l-69 -279h-1387z" />
    <glyph glyph-name="emdash" unicode="&#x2014;" horiz-adv-x="2711" 
d="M295 1167h2342l-69 -279h-2342z" />
    <glyph glyph-name="quoteleft" unicode="&#x2018;" horiz-adv-x="773" 
d="M996 2075q-59 -20 -108 -49.5t-87 -63.5t-64 -70t-38 -70h183l-102 -410h-446l73 293q25 100 74.5 184.5t120 151.5t160 114t193.5 73z" />
    <glyph glyph-name="quoteright" unicode="&#x2019;" horiz-adv-x="773" 
d="M311 1515q59 20 108 49.5t87 63.5t64 70t38 70h-183l103 410h446l-74 -293q-25 -100 -74.5 -184.5t-120 -151.5t-160 -114.5t-193.5 -72.5z" />
    <glyph glyph-name="quotedblleft" unicode="&#x201c;" horiz-adv-x="1373" 
d="M996 2075q-59 -20 -108 -49.5t-87 -63.5t-64 -70t-38 -70h183l-102 -410h-446l73 293q25 100 74.5 184.5t120 151.5t160 114t193.5 73zM1596 2075q-59 -20 -108 -49.5t-87 -63.5t-64 -70t-38 -70h183l-102 -410h-446l73 293q25 100 74.5 184.5t120 151.5t160 114
t193.5 73z" />
    <glyph glyph-name="quotedblright" unicode="&#x201d;" horiz-adv-x="1373" 
d="M924 1565q59 20 108 49.5t86.5 63.5t63.5 70t39 70h-183l102 410h446l-73 -293q-25 -100 -74.5 -184.5t-120 -151.5t-160 -114.5t-193.5 -72.5zM324 1565q59 20 108 49.5t86.5 63.5t63.5 70t39 70h-183l102 410h446l-73 -293q-25 -100 -74.5 -184.5t-120 -151.5
t-160 -114.5t-193.5 -72.5z" />
    <glyph glyph-name="bullet" unicode="&#x2022;" horiz-adv-x="1386" 
d="M677 646q-86 0 -153.5 29.5t-110 81.5t-56.5 123.5t7 154.5q21 84 71.5 155.5t119 123.5t150.5 81t166 29q81 0 147.5 -29t109 -81t57 -123.5t-6.5 -156.5q-21 -83 -70.5 -154t-117 -123t-148.5 -81.5t-165 -29.5z" />
    <glyph glyph-name="Euro" unicode="&#x20ac;" horiz-adv-x="2471" 
d="M827 717q17 -97 61.5 -176t112.5 -135.5t158 -87t199 -30.5q86 0 171 14t173 48.5t180.5 92.5t193.5 145l187 -223q-123 -110 -243 -186.5t-241.5 -124t-247 -69t-258.5 -21.5q-190 0 -343 55t-262 154t-170.5 237.5t-69.5 306.5h-299l69 276h253q3 16 6.5 31.5t7.5 32.5
q5 17 9.5 35t9.5 35h-253l69 276h303q62 110 142 208.5t174.5 183t202 152t224 115.5t240.5 73.5t252 25.5q130 0 241.5 -22t205.5 -68t172 -117.5t142 -170.5l-297 -248q-96 146 -230.5 214t-318.5 68q-110 0 -216 -29.5t-203 -83.5t-181.5 -130.5t-150.5 -170.5h923
l-69 -276h-992q-5 -17 -10 -35t-10 -35q-4 -17 -8 -32.5t-6 -31.5h993l-69 -276h-927z" />
    <glyph glyph-name="trademark" unicode="&#x2122;" horiz-adv-x="1980" 
d="M1296 2122h193l150 -350l343 350h190l-217 -867h-206l127 508l-280 -282h-64l-122 275l-125 -501h-206zM687 1933h-281l48 189h770l-48 -189h-280l-169 -678h-209z" />
    <glyph glyph-name="uni25CC" unicode="&#x25cc;" horiz-adv-x="1986" 
d="M718 531l-151 -45l85 140q24 -56 66 -95zM1046 1223l102 132l33 -128q-30 3 -60 3q-35 0 -75 -7zM987 463l-92 -125l-29 125q27 -7 62 -7q30 0 59 7zM1424 907l106 -64l-137 -57q11 27 19 57q8 34 12 64zM631 783l-117 68l150 64q-14 -34 -23 -72q-8 -30 -10 -60z
M770 1074l-4 137l123 -46q-67 -37 -119 -91zM1273 607l8 -121l-113 37q59 35 105 84zM1325 1165l155 46l-84 -141q-24 54 -71 95z" />
    <glyph glyph-name="thothannobasethai" unicode="&#xf700;" horiz-adv-x="1532" 
d="M863 1392q-54 0 -110 -14.5t-112 -47.5t-111 -87t-107 -133l-274 142q54 94 137 175.5t185.5 141.5t221.5 94.5t246 34.5h759l-70 -281h-240q26 -24 43 -60t25.5 -79t7.5 -89.5t-12 -90.5q-18 -75 -84 -193t-173 -279q-24 -36 -58.5 -84.5t-74 -104.5t-81.5 -116
t-82 -117.5t-75.5 -110t-61.5 -93.5h-298l-267 958h381l129 -531q29 42 59 86t58 85.5t52 78.5t41 64q21 33 48.5 82.5t54 100.5t47.5 97.5t28 73.5q18 74 8.5 129.5t-41 93t-83 56t-116.5 18.5z" />
    <glyph glyph-name="yoyingnobasethai" unicode="&#xf70f;" horiz-adv-x="2700" 
d="M838 1029q-59 -45 -116 -97.5t-106.5 -114t-87 -131.5t-56.5 -151q-10 -40 -11.5 -83.5t8 -79.5t31 -59.5t59.5 -23.5h18t27 3t37.5 10.5t50.5 22.5l88 -244q-34 -22 -78 -39.5t-91 -30t-93.5 -19t-85.5 -6.5q-76 0 -132.5 23.5t-95.5 63.5t-62 94t-32 114.5t-4.5 125
t19.5 126.5q20 80 49.5 149.5t68 131.5t85 117.5t99.5 108.5l-158 228q28 31 73.5 77t107 96t138.5 99.5t167 89t192 64t215 24.5q85 0 166.5 -18t150.5 -55t123 -93t85 -132t35.5 -172.5t-24.5 -213.5l-113 -454q-21 -83 -12 -138.5t36 -88.5t66.5 -46.5t81.5 -13.5
q41 0 85.5 13.5t85.5 46.5t75 88.5t55 138.5l280 1120h357l-280 -1124q-27 -106 -73 -192t-106 -152t-130 -113.5t-143 -78.5t-146.5 -45.5t-139.5 -14.5q-67 0 -133.5 14.5t-125.5 45.5t-106 78.5t-75 113.5t-32.5 151.5t22.5 192.5l114 457q22 101 7.5 172t-53 115.5
t-94.5 64.5t-117 20q-69 0 -129 -10.5t-111.5 -28.5t-94 -42.5t-76.5 -51.5z" />
    <glyph glyph-name="saraulowthai" unicode="&#xf718;" 
d="M-1078 -1246l78 312q3 14 -1 23.5t-12 15.5t-18.5 8.5t-19.5 2.5h-15t-23 -3t-34 -10.5t-48 -22.5l-31 189q46 25 94 43t92.5 29t83 16t67.5 5q82 0 129 -27t68.5 -68t22 -90t-10.5 -93l-82 -330h-340z" />
    <glyph glyph-name="sarauulowthai" unicode="&#xf719;" 
d="M-1608 -729q82 38 145.5 49.5t107.5 11.5q70 0 109 -18.5t55.5 -47.5t15.5 -66t-10 -74l-9 -34q-11 -42 -7.5 -68t15.5 -40.5t30 -19.5t38 -5q18 0 37.5 4t38.5 18t35.5 40.5t27.5 71.5l56 224h325l-58 -234q-21 -86 -69 -152t-117 -111.5t-155.5 -69t-185.5 -23.5
t-170.5 23t-115 65t-56.5 102.5t5 135.5q11 40 5 56.5t-26 16.5q-8 0 -29 -3.5t-41 -11.5z" />
    <glyph glyph-name="phinthulowthai" unicode="&#xf71a;" 
d="M-1037 -865q11 43 37.5 82t62.5 67.5t78 45.5t85 17t77.5 -17t56.5 -45.5t29 -67.5t-4 -82t-37.5 -81t-62.5 -66.5t-79 -45.5t-86 -17t-77 17t-55.5 45.5t-28.5 66.5t4 81z" />
    <glyph glyph-name="lochula.short" unicode="&#xf71d;" horiz-adv-x="2068" 
d="M1912 1420q18 -21 32 -51t21.5 -66t7 -76t-10.5 -82q-11 -43 -29 -83l-467 -1063h-302l-166 733l-540 -732h-305l193 1700h359l-148 -1144l593 776l200 -808l240 559q5 14 9.5 27t8.5 26q15 62 6 115t-41.5 91.5t-88.5 60.5t-134 22l69 276h797l-70 -281h-234z" />
    <glyph glyph-name="yamakkanleftthai" 
d="M-129 2381h-255q-19 0 -43 -15t-34 -52l-32 -132h-175q-41 0 -67 -21t-38 -69l-27 -110h-260l31 125q6 24 17 55t29 63.5t44.5 64t64 57t86.5 42.5t113 20q12 36 37 71.5t66 64.5t100 47t140 18h260z" />
    <glyph glyph-name="uni0E33.alt1" horiz-adv-x="1300" 
d="M-1028 2218q15 59 53.5 111t93 90.5t120.5 60.5t135 22q68 0 123 -22t90 -60.5t48.5 -90.5t-1.5 -111t-53.5 -110t-93 -89.5t-120.5 -60.5t-134 -22q-69 0 -124 22t-90 60.5t-48.5 89.5t1.5 110zM-810 2214q-11 -42 10.5 -71.5t70.5 -29.5q24 0 45.5 8t39 22t30 32
t17.5 39q10 42 -12 71t-70 29q-24 0 -46 -8t-39 -21.5t-29 -31.5t-17 -39zM736 1731q153 0 248.5 -48t142.5 -132.5t49.5 -200t-30.5 -249.5l-274 -1101h-357l274 1100q40 160 6 241t-132 81q-42 0 -85.5 -10t-90 -35t-98.5 -68t-110 -109l-177 204q139 168 301 247.5
t333 79.5z" />
    <glyph glyph-name="saraamleft" horiz-adv-x="1300" 
d="M-1028 2218q15 59 53.5 111t93 90.5t120.5 60.5t135 22q68 0 123 -22t90 -60.5t48.5 -90.5t-1.5 -111t-53.5 -110t-93 -89.5t-120.5 -60.5t-134 -22q-69 0 -124 22t-90 60.5t-48.5 89.5t1.5 110zM-810 2214q-11 -42 10.5 -71.5t70.5 -29.5q24 0 45.5 8t39 22t30 32
t17.5 39q10 42 -12 71t-70 29q-24 0 -46 -8t-39 -21.5t-29 -31.5t-17 -39zM736 1731q153 0 248.5 -48t142.5 -132.5t49.5 -200t-30.5 -249.5l-274 -1101h-357l274 1100q40 160 6 241t-132 81q-42 0 -85.5 -10t-90 -35t-98.5 -68t-110 -109l-177 204q139 168 301 247.5
t333 79.5z" />
    <glyph glyph-name="guide" 
 />
    <glyph glyph-name="maiekthai.alt1" 
d="M-165 2480l107 431h355l-107 -431h-355z" />
    <glyph glyph-name="maithothai.alt1" 
d="M499 2966q-33 -72 -86 -138.5t-121 -122.5t-150.5 -99t-175.5 -68q-106 -28 -189.5 -39t-141.5 -16l-39 -2l-19 145q28 16 53 34q21 16 40.5 36.5t25.5 43.5q7 28 -6.5 43t-39.5 15t-47 -5.5t-50 -19.5l-18 155q43 22 83.5 35.5t73.5 21.5t55 11t30 3q48 0 80 -15.5
t49.5 -41t20.5 -58.5t-6 -69q-6 -25 -19.5 -54.5t-35.5 -58.5q134 23 232.5 92t149.5 172h251z" />
    <glyph glyph-name="maitrithai.alt1" 
d="M-273 2964q58 0 99.5 -21t72.5 -55q63 40 114.5 58t96.5 18q49 0 76.5 -17.5t39.5 -44t11 -57.5t-11 -57q-6 -18 -12 -29.5t-11 -24.5q71 50 109 107t52 102h190q-22 -62 -59 -120t-84 -109t-101 -94t-110 -74t-111 -49t-104 -19q-10 0 -19 -1t-26 1l-8 119
q40 19 69 45.5t41 76.5q4 17 2 28t-7.5 17.5t-12 9t-9.5 2.5q-33 0 -60.5 -16t-52.5 -30q-10 -6 -23 -13.5t-24 -7.5q-14 0 -24 8.5t-17 14.5q-17 14 -35 29t-46 15q-21 0 -39.5 -15t-23.5 -42q-9 -47 28 -65q21 -11 61 -11l-84 -160q-9 -2 -27 -3.5t-35 -1.5
q-47 0 -77.5 24t-47 61.5t-18.5 83t10 89.5q13 49 38.5 91t59 72.5t72 47.5t77.5 17z" />
    <glyph glyph-name="maichattawathai.alt1" 
d="M-296 2862h239l42 169h251l-42 -169h240l-51 -204h-240l-42 -168h-251l42 168h-239z" />
    <glyph glyph-name="maiekupperleftthai.alt2" 
d="M-652 2490l108 431h355l-108 -431h-355z" />
    <glyph glyph-name="maithoupperleftthai.alt2" 
d="M343 2998q-33 -72 -86 -138.5t-121 -122.5t-150 -99t-175 -68q-106 -28 -190 -39t-142 -16l-39 -2l-19 145q28 16 53 34q21 16 40.5 36.5t25.5 43.5q7 28 -6.5 43t-39.5 15t-47 -5.5t-50 -19.5l-18 155q43 22 83.5 35.5t73.5 21.5t55 11t30 3q49 0 81 -15.5t49 -41
t20.5 -58.5t-5.5 -69q-6 -25 -19.5 -54.5t-35.5 -58.5q133 23 231.5 92t149.5 172h251z" />
    <glyph glyph-name="maitriupperleftthai.alt2" 
d="M-652 2964q58 0 100 -21t73 -55q63 40 114.5 58t96.5 18q48 0 76 -17.5t40 -44t10.5 -57.5t-11.5 -57q-6 -18 -12 -29.5t-11 -24.5q71 50 109 107t52 102h190q-22 -62 -59 -120t-83.5 -109t-100.5 -94t-110 -74t-111 -49t-104 -19q-10 0 -19 -1t-26 1l-8 119
q40 19 69 45.5t41 76.5q4 17 2 28t-7.5 17.5t-12 9t-9.5 2.5q-33 0 -60.5 -16t-52.5 -30q-10 -6 -23 -13.5t-24 -7.5q-14 0 -24 8.5t-18 14.5q-17 14 -35 29t-46 15q-21 0 -39.5 -15t-23.5 -42q-9 -47 28 -65q21 -11 61 -11l-84 -160q-9 -2 -27 -3.5t-35 -1.5
q-47 0 -77.5 24t-47 61.5t-18.5 83t10 89.5q13 49 38.5 91t59 72.5t72 47.5t77.5 17z" />
    <glyph glyph-name="maichattawaupperleftthai.alt2" 
d="M-756 2862h240l42 169h251l-42 -169h239l-51 -204h-239l-42 -168h-251l42 168h-240z" />
    <glyph glyph-name="maitaikhuthai.alt3" 
d="M-673 1946q-74 8 -132.5 31t-96 61.5t-51 91t3.5 119.5q16 66 64 125.5t126 103.5t185 70t242 26q29 0 64 -3t69.5 -8t65.5 -10.5t52 -11.5l92 103h274l-284 -330q-38 16 -83.5 29.5t-95.5 23.5t-102 15.5t-101 5.5q-48 0 -98.5 -7t-94 -23.5t-75 -43t-41.5 -65.5
t6.5 -70t49.5 -39l261 108q19 -34 39 -54.5t39 -31.5t37 -14.5t34 -3.5q25 0 44 13.5t24 30.5q2 8 4.5 22.5t-0.5 33.5h235q2 -20 0 -39.5t-6 -33.5q-11 -44 -40.5 -85.5t-71.5 -73t-94.5 -50t-110.5 -17.5q-51 1 -106.5 27t-103.5 73z" />
    <glyph glyph-name="saraithai.alt3" 
d="M-1080 2211h1203l-63 -253h-1203z" />
    <glyph glyph-name="saraiithai.alt3" 
d="M-1080 2211h849l60 245h355l-124 -498h-1203z" />
    <glyph glyph-name="sarauethai.alt3" 
d="M-1082 2211h745q-2 12 -1 25t3 21q16 64 48 115.5t76.5 87.5t100 55t120.5 19q63 0 109 -21t72 -58.5t32.5 -90.5t-9.5 -117q-16 -63 -50.5 -116.5t-81.5 -91.5t-103.5 -59.5t-116.5 -21.5h-1007zM-158 2257q-13 -54 3.5 -80.5t69.5 -26.5q52 0 82 26.5t43 80.5
q14 53 -3 81t-69 28q-53 0 -82.5 -28t-43.5 -81z" />
    <glyph glyph-name="saraueethai.alt3" 
d="M-1081 2211h520l58 235h265l-58 -235h154l58 235h265l-121 -488h-1204z" />
    <glyph glyph-name="maitaikhuthai.alt4" 
d="M-523 1946q-74 8 -132.5 31t-96 61.5t-51 91t3.5 119.5q16 66 64 125.5t126 103.5t185 70t242 26q29 0 63.5 -3t69 -8t66 -10.5t52.5 -11.5l92 103h274l-284 -330q-38 16 -83.5 29.5t-95.5 23.5t-102 15.5t-101 5.5q-48 0 -98.5 -7t-94 -23.5t-75 -43t-41.5 -65.5
t6.5 -70t49.5 -39l261 108q19 -34 38.5 -54.5t38.5 -31.5t37 -14.5t34 -3.5q25 0 44.5 13.5t24.5 30.5q2 8 4.5 22.5t-0.5 33.5h235q2 -20 0 -39.5t-6 -33.5q-11 -44 -40.5 -85.5t-71.5 -73t-95 -50t-111 -17.5q-51 1 -106 27t-103 73z" />
    <glyph glyph-name="saraithai.alt4" 
d="M-1044 2211h1327l-63 -253h-1327z" />
    <glyph glyph-name="saraiithai.alt4" 
d="M-1044 2211h972l61 245h355l-124 -498h-1327z" />
    <glyph glyph-name="sarauethai.alt4" 
d="M-1043 2211h806q-2 13 -1 25.5t3 20.5q16 64 48 115.5t76.5 87.5t100 55t120.5 19q63 0 109 -21t72 -58.5t32.5 -90.5t-9.5 -117q-16 -63 -50.5 -116.5t-81.5 -91.5t-103.5 -59.5t-116.5 -21.5h-1068zM-58 2257q-13 -54 3.5 -80.5t69.5 -26.5q52 0 82 26.5t43 80.5
q14 53 -3 81t-69 28q-53 0 -82.5 -28t-43.5 -81z" />
    <glyph glyph-name="saraueethai.alt4" 
d="M-1044 2211h623l58 235h274l-58 -235h155l58 235h275l-121 -488h-1327z" />
    <glyph glyph-name="maiekthai.alt4" 
d="M22 2590l108 431h355l-108 -431h-355z" />
    <glyph glyph-name="maithothai.alt4" 
d="M794 3066q-33 -72 -86 -138.5t-121 -122.5t-150.5 -99t-175.5 -68q-106 -28 -190 -39t-142 -16l-39 -2l-19 145q28 16 53 34q21 16 40.5 36.5t25.5 43.5q7 28 -6.5 43t-39.5 15t-47 -5.5t-50 -19.5l-19 155q44 22 84.5 35.5t73.5 21.5t55 11t30 3q49 0 81 -15.5t49 -41
t20.5 -58.5t-5.5 -69q-6 -25 -19.5 -54.5t-35.5 -58.5q134 23 232.5 92t149.5 172h251z" />
    <glyph glyph-name="maitrithai.alt4" 
d="M40 3064q58 0 100.5 -21t72.5 -55q64 40 115 58t96 18q49 0 77 -17.5t40 -44t11 -57.5t-11 -57q-6 -18 -12 -29.5t-11 -24.5q71 50 109 107t52 102h190q-22 -62 -59 -120t-84 -109t-101 -94t-110 -74t-111 -49t-104 -19q-10 0 -19 -1t-26 1l-8 119q40 19 69 45.5t41 76.5
q4 17 2 28t-7.5 17.5t-12 9t-9.5 2.5q-33 0 -60.5 -16t-52.5 -30q-10 -6 -23 -13.5t-24 -7.5q-14 0 -24 8.5t-18 14.5q-17 14 -35 29t-46 15q-21 0 -39.5 -15t-23.5 -42q-9 -47 28 -65q21 -11 61 -11l-84 -160q-9 -2 -27 -3.5t-35 -1.5q-46 0 -77 24t-47 61.5t-18 83
t10 89.5q12 49 37.5 91t58.5 72.5t71.5 47.5t77.5 17z" />
    <glyph glyph-name="maichattawathai.alt4" 
d="M-62 2962h240l42 169h251l-42 -169h240l-51 -204h-240l-42 -168h-251l42 168h-240z" />
    <glyph glyph-name="thanthakhatthai.alt4" 
d="M661 2587h-366q-35 0 -57 -18t-29 -44q-5 -20 0.5 -37.5t13.5 -37.5l15 -36l-241 -102q-24 37 -34.5 75t-13 71t0.5 58.5t6 39.5q19 75 59.5 121t90.5 71.5t104 34t100 8.5h401z" />
    <glyph glyph-name="sarauthai.alt4" 
d="M-1192 -781l78 312q3 14 -1 23.5t-12 15.5t-18.5 8.5t-19.5 2.5h-15t-23 -3t-34 -10.5t-48 -22.5l-31 189q46 25 94 43t92.5 29t83 16t67.5 5q82 0 129 -27t68.5 -68t22 -90t-10.5 -93l-82 -330h-340z" />
    <glyph glyph-name="sarauuthai.alt4" 
d="M-1515 -235q82 38 145.5 49.5t107.5 11.5q70 0 109 -18.5t55.5 -47.5t15.5 -66t-10 -74l-9 -34q-11 -42 -7.5 -68t15.5 -40.5t30 -19.5t38 -5q18 0 37.5 4t38.5 18t36 40.5t28 71.5l55 224h325l-58 -234q-21 -86 -69 -152t-117 -111.5t-155.5 -69t-185.5 -23.5t-170.5 23
t-114.5 65t-56.5 102.5t5.5 135.5q10 40 4 56.5t-26 16.5q-8 0 -29 -3.5t-41 -11.5z" />
    <glyph glyph-name="phinthuthai.alt4" 
d="M-1205 -335q11 43 37.5 82t62.5 67.5t78 45.5t85 17t77.5 -17t56.5 -45.5t29 -67.5t-4 -82t-37 -81t-62 -66.5t-79 -45.5t-86 -17t-77 17t-55.5 45.5t-29 66.5t3.5 81z" />
    <glyph glyph-name="saraamthai.alt4" horiz-adv-x="1380" 
d="M816 1731q153 0 248.5 -48t142.5 -132.5t49.5 -200t-30.5 -249.5l-274 -1101h-357l274 1100q40 160 6 241t-132 81q-42 0 -85.5 -10t-90 -35t-98.5 -68t-110 -109l-177 204q139 168 301 247.5t333 79.5zM-137 2218q15 59 53.5 111t93 90.5t120.5 60.5t135 22
q68 0 123 -22t90 -60.5t48.5 -90.5t-1.5 -111t-53.5 -110t-93 -89.5t-120.5 -60.5t-134 -22q-69 0 -124 22t-90 60.5t-48.5 89.5t1.5 110zM81 2214q-11 -42 10.5 -71.5t70.5 -29.5q24 0 45.5 8t39 22t30 32t17.5 39q10 42 -12 71t-70 29q-24 0 -46 -8t-39 -21.5t-29 -31.5
t-17 -39z" />
    <glyph glyph-name="nikhahitthai.alt4" 
d="M-137 2218q15 59 53.5 111t93 90.5t120.5 60.5t135 22q68 0 123 -22t90 -60.5t48.5 -90.5t-1.5 -111t-53.5 -110t-93 -89.5t-120.5 -60.5t-134 -22q-69 0 -124 22t-90 60.5t-48.5 89.5t1.5 110zM81 2214q-11 -42 10.5 -71.5t70.5 -29.5q24 0 45.5 8t39 22t30 32t17.5 39
q10 42 -12 71t-70 29q-24 0 -46 -8t-39 -21.5t-29 -31.5t-17 -39z" />
    <glyph glyph-name="maiekthai.alt5" 
d="M92 2590l108 431h355l-108 -431h-355z" />
    <glyph glyph-name="maithothai.alt5" 
d="M804 3066q-33 -72 -86 -138.5t-121 -122.5t-150.5 -99t-175.5 -68q-106 -28 -190 -39t-142 -16l-39 -2l-19 145q28 16 53 34q21 16 40.5 36.5t25.5 43.5q7 28 -6.5 43t-39.5 15t-47 -5.5t-50 -19.5l-19 155q44 22 84.5 35.5t73.5 21.5t55 11t30 3q49 0 81 -15.5t49 -41
t20.5 -58.5t-5.5 -69q-6 -25 -19.5 -54.5t-35.5 -58.5q134 23 232.5 92t149.5 172h251z" />
    <glyph glyph-name="maitrithai.alt5" 
d="M90 3064q58 0 100.5 -21t72.5 -55q64 40 115 58t96 18q49 0 77 -17.5t40 -44t11 -57.5t-11 -57q-6 -18 -12 -29.5t-11 -24.5q71 50 109 107t52 102h190q-22 -62 -59 -120t-84 -109t-101 -94t-110 -74t-111 -49t-104 -19q-10 0 -19 -1t-26 1l-8 119q40 19 69 45.5t41 76.5
q4 17 2 28t-7.5 17.5t-12 9t-9.5 2.5q-33 0 -60.5 -16t-52.5 -30q-10 -6 -23 -13.5t-24 -7.5q-14 0 -24 8.5t-18 14.5q-17 14 -35 29t-46 15q-21 0 -39.5 -15t-23.5 -42q-9 -47 28 -65q21 -11 61 -11l-84 -160q-9 -2 -27 -3.5t-35 -1.5q-47 0 -77.5 24t-46.5 61.5t-18 83
t9 89.5q13 49 38.5 91t58.5 72.5t71.5 47.5t77.5 17z" />
    <glyph glyph-name="maichattawathai.alt5" 
d="M8 2962h240l42 169h251l-42 -169h240l-51 -204h-240l-42 -168h-251l42 168h-240z" />
    <glyph glyph-name="sarauthai.alt6" 
d="M-1062 -781l78 312q3 14 -1 23.5t-12 15.5t-18.5 8.5t-19.5 2.5h-15t-23 -3t-34 -10.5t-48 -22.5l-31 189q46 25 94 43t92.5 29t83 16t67.5 5q82 0 129 -27t68.5 -68t22 -90t-10.5 -93l-82 -330h-340z" />
    <glyph glyph-name="sarauuthai.alt6" 
d="M-1625 -235q82 38 145.5 49.5t107.5 11.5q70 0 109 -18.5t55.5 -47.5t15.5 -66t-10 -74l-9 -34q-11 -42 -7.5 -68t15.5 -40.5t30 -19.5t38 -5q18 0 37.5 4t38.5 18t36 40.5t28 71.5l55 224h325l-58 -234q-21 -86 -69 -152t-117 -111.5t-155.5 -69t-185.5 -23.5t-170.5 23
t-114.5 65t-56.5 102.5t5.5 135.5q10 40 4 56.5t-26 16.5q-8 0 -29 -3.5t-41 -11.5z" />
    <glyph glyph-name="phinthuthai.alt6" 
d="M-1008 -345q11 43 37.5 82t62.5 67.5t78 45.5t85 17t77.5 -17t56.5 -45.5t29 -67.5t-4 -82t-37 -81t-62 -66.5t-79 -45.5t-86 -17t-77 17t-55.5 45.5t-29 66.5t3.5 81z" />
    <glyph glyph-name="sarauthai.alt7" 
d="M-1152 -781l78 312q3 14 -1 23.5t-12 15.5t-18.5 8.5t-19.5 2.5h-15t-23 -3t-34 -10.5t-48 -22.5l-31 189q46 25 94 43t92.5 29t83 16t67.5 5q82 0 129 -27t68.5 -68t22 -90t-10.5 -93l-82 -330h-340z" />
    <glyph glyph-name="sarauuthai.alt7" 
d="M-1505 -235q82 38 145.5 49.5t107.5 11.5q70 0 109 -18.5t55.5 -47.5t15.5 -66t-10 -74l-9 -34q-11 -42 -7.5 -68t15.5 -40.5t30 -19.5t38 -5q18 0 37.5 4t38.5 18t36 40.5t28 71.5l55 224h325l-58 -234q-21 -86 -69 -152t-117 -111.5t-155.5 -69t-185.5 -23.5t-170.5 23
t-114.5 65t-56.5 102.5t5.5 135.5q10 40 4 56.5t-26 16.5q-8 0 -29 -3.5t-41 -11.5z" />
    <glyph glyph-name="phinthuthai.alt7" 
d="M-1178 -345q11 43 37.5 82t62.5 67.5t78 45.5t85 17t77.5 -17t56.5 -45.5t29 -67.5t-4 -82t-37 -81t-62 -66.5t-79 -45.5t-86 -17t-77 17t-55.5 45.5t-29 66.5t3.5 81z" />
    <glyph glyph-name="saraithai.alt8" 
d="M-1225 2211h1348l-63 -253h-1348z" />
    <glyph glyph-name="saraiithai.alt8" 
d="M-1224 2211h993l60 245h355l-124 -498h-1347z" />
    <glyph glyph-name="sarauethai.alt8" 
d="M-1225 2211h888q-2 13 -1 25.5t3 20.5q16 64 48 115.5t76.5 87.5t100 55t120.5 19q63 0 109 -21t72 -58.5t32.5 -90.5t-9.5 -117q-16 -63 -50.5 -116.5t-81.5 -91.5t-103.5 -59.5t-116.5 -21.5h-1150zM-158 2257q-13 -54 3.5 -80.5t69.5 -26.5q52 0 82 26.5t43 80.5
q14 53 -3 81t-69 28q-53 0 -82.5 -28t-43.5 -81z" />
    <glyph glyph-name="saraueethai.alt8" 
d="M-1224 2211h643l58 235h275l-58 -235h154l58 235h275l-121 -488h-1347z" />
    </font>
</defs>
</svg>
