<svg xmlns="http://www.w3.org/2000/svg">
<defs>
<font id="DBAiry-StdBdIt" horiz-adv-x="0" >
  <font-face 
    font-family="DB Airy Std Bd It"
    font-weight="700"
    font-style="italic"
    font-stretch="normal"
    units-per-em="4096"
    panose-1="2 0 8 6 0 0 0 2 0 3"
    ascent="3276"
    descent="-820"
    x-height="1563"
    cap-height="2122"
    bbox="-1824 -1392 3576 3259"
    underline-thickness="143"
    underline-position="-531"
    unicode-range="U+0020-F880"
  />
<missing-glyph horiz-adv-x="1696" 
d="M131 569q0 95 37 168t98 122t139 74t159 25t157.5 -22t135 -67.5t94 -115.5t35.5 -167v-475h434v827h115v-934h-774v107h119v487q0 61 -24 107.5t-66 77t-99 46t-123 15.5q-61 0 -118.5 -17.5t-102 -50.5t-71.5 -81t-27 -109v-439l237 238q-11 4 -25.5 14.5t-28 27
t-23 39.5t-9.5 54q0 74 45 117t119 43q35 0 64 -13t49.5 -35t31.5 -51t11 -61q0 -29 -6.5 -51t-16.5 -38t-20.5 -27t-18.5 -19l-204 -197q-44 -40 -92 -85.5t-101 -98.5h-130v565zM1535 1618v-582q-98 31 -211.5 58t-238.5 47t-259 31.5t-274 11.5q-99 0 -194 -6t-190 -19
q24 92 78 175.5t135 146.5t189 100t240 37q127 0 229.5 -28.5t179 -70.5t128 -89.5t77.5 -86.5l-0.5 15.5t-0.5 39.5t-1 54.5t-1 61t-0.5 58t-0.5 46.5h115zM822 1294q43 -3 98 -9t114 -15t118.5 -20.5t112 -25.5t94 -30t65.5 -35q-41 81 -107 144.5t-146.5 107t-171 66
t-181.5 22.5q-69 0 -136 -13t-128.5 -40t-115 -68t-95.5 -96q74 9 147.5 12.5t147.5 3.5q46 0 92 -0.5t92 -3.5zM1752 1692q53 0 77.5 -32.5t24.5 -78.5q0 -17 -6 -33.5t-18.5 -30t-32 -22t-45.5 -8.5q-24 0 -44 8.5t-33.5 22t-21 30t-7.5 33.5q0 46 28.5 78.5t77.5 32.5z
M1752 1499q26 0 43.5 8t28 20.5t14.5 27t4 26.5q0 46 -21.5 72t-68.5 26q-46 0 -70 -26t-24 -72q0 -34 22.5 -58t71.5 -24zM626 520q0 34 -22.5 50t-47.5 16q-28 0 -49 -16t-21 -50t21 -47.5t49 -13.5q12 0 24.5 3t22.5 10.5t16.5 19t6.5 28.5zM1740 1577h-12v-57h-21v139
h45q49 0 49 -41q0 -28 -12.5 -34.5t-28.5 -6.5l41 -57h-20zM1728 1638v-57h24q29 0 29 37q0 3 -6.5 11.5t-22.5 8.5h-24z" />
    <glyph glyph-name="plusminus" unicode="&#x2b;&#x2d;" horiz-adv-x="1783" 
d="M26 0l86 346h1372l-86 -346h-1372zM788 1007h-524l85 342h524l131 527h348l-131 -527h525l-85 -342h-525l-132 -528h-348z" />
    <glyph glyph-name="ellipsis" unicode="&#x2e;&#x2e;&#x2e;" horiz-adv-x="2341" 
d="M76 470h505l-117 -470h-505zM854 470h505l-117 -470h-505zM1633 470h505l-117 -470h-505z" />
    <glyph glyph-name="lessequal" unicode="&#x3c;&#x3d;" horiz-adv-x="1775" 
d="M1517 551l-1214 492l63 254l1465 512l-92 -368l-906 -277l770 -266zM1396 65l-1213 500l87 349l1212 -501z" />
    <glyph glyph-name="greaterequal" unicode="&#x3e;&#x3d;" horiz-adv-x="1775" 
d="M266 898l904 266l-768 277l92 368l1209 -512l-63 -254l-1460 -492zM145 413l1462 501l-87 -349l-1461 -500z" />
    <glyph glyph-name="fongmanfunnuthai" unicode="&#xe4f;&#x22;" horiz-adv-x="2209" 
d="M999 1842l14 398l44 176h375l-143 -574h-290zM1484 1842l143 574h375l-45 -176l-183 -398h-290zM257 849q30 121 89.5 233.5t141 210t181.5 177.5t212 137t232 88.5t241 31.5t225.5 -31.5t188 -88.5t143.5 -137t93 -177.5t36 -210t-27 -233.5t-89.5 -233.5t-141 -210
t-181.5 -177.5t-212 -137t-232 -88.5t-241 -31.5t-225.5 31.5t-188 88.5t-143.5 137t-93 177.5t-36 210t27 233.5zM682 849q24 94 80 176.5t133 144t168 97t185 35.5t167.5 -35.5t120 -97t61.5 -144t-9 -176.5q-23 -94 -79.5 -176.5t-133 -144t-168 -97t-185.5 -35.5
t-167.5 35.5t-119.5 97t-61 144t8 176.5zM941 849q-10 -40 -3 -75t26.5 -61.5t51 -42t71.5 -15.5t79 15.5t72 42t57 61.5t34 75t3.5 75t-26 61.5t-51 42t-71.5 15.5t-79 -15.5t-72 -42t-57.5 -61.5t-34.5 -75zM549 848q-20 -81 -18 -156t24 -140.5t62.5 -119t96 -92
t125.5 -59.5t151 -21t161.5 21t155 59.5t142 92t122 119t94.5 140.5t60 156q30 121 10.5 228.5t-79.5 187t-155.5 126t-216.5 46.5q-81 0 -161.5 -21t-155 -59.5t-142 -92t-122 -119t-94.5 -140.5t-60 -156z" />
    <glyph glyph-name="dochadaphinthuthai" unicode="&#xe0e;&#xe3a;" horiz-adv-x="1958" 
d="M1467 -297h-592l-269 150l-464 -200l-86 266l638 281l329 -167h79l242 970q19 78 6 137.5t-50.5 99.5t-94.5 60t-124 20q-77 0 -162 -26t-160 -79q34 -27 57.5 -73.5t35 -102.5t10.5 -117t-15 -119q-23 -93 -61.5 -170t-86 -140t-102 -112.5t-110.5 -87.5t-110.5 -65
t-102.5 -44l-204 274q43 18 97 55t103.5 86.5t88.5 107t54 116.5q18 74 12 144t-29.5 126.5t-61.5 96t-84 52.5q90 108 198.5 196t230.5 150.5t256.5 96t276.5 33.5q156 0 282.5 -47t207 -137.5t107 -223t-16.5 -304.5zM878 -619q13 52 46.5 98.5t80 81t101.5 54.5t111 20
q58 0 104 -20t75.5 -54.5t40 -81t-2.5 -98.5q-13 -51 -46.5 -97t-80 -80.5t-102.5 -54.5t-114 -20q-56 0 -101 20t-74.5 54.5t-40 80.5t2.5 97z" />
    <glyph glyph-name="topatakphintuthai" unicode="&#xe0f;&#xe3a;" horiz-adv-x="1958" 
d="M878 -619q13 52 46.5 98.5t80 81t101.5 54.5t111 20q58 0 104 -20t75.5 -54.5t40 -81t-2.5 -98.5q-13 -51 -46.5 -97t-80 -80.5t-102.5 -54.5t-114 -20q-56 0 -101 20t-74.5 54.5t-40 80.5t2.5 97zM1467 -297h-551l-208 121l-279 -154l-395 173l202 285l248 -113l315 162
l242 -144h61l242 970q19 78 6 137.5t-49.5 99.5t-93.5 60t-124 20q-38 0 -79.5 -6.5t-83.5 -19.5t-83 -32.5t-78 -46.5q34 -27 57.5 -73.5t35 -102.5t10.5 -117t-15 -119q-23 -93 -61.5 -170t-86 -140t-102 -112.5t-110.5 -87.5t-110.5 -65t-102.5 -44l-204 274q43 18 97 55
t103.5 86.5t88.5 107t54 116.5q37 149 -5 254t-158 165q87 105 195.5 192.5t232 150.5t259 98t277.5 35q156 0 282 -47t206 -137.5t106.5 -223t-16.5 -304.5z" />
    <glyph glyph-name="dochadasarauthai" unicode="&#xe0e;&#xe38;" horiz-adv-x="1958" 
d="M835 -1144l71 283q5 21 1.5 36t-13.5 24.5t-24 13.5t-30 4q-27 0 -60.5 -16.5t-74.5 -46.5l-70 250q80 57 148.5 90t126.5 49.5t106 21t88 4.5q65 0 111 -16t76 -42t46 -60.5t21.5 -72t2.5 -75t-11 -70.5l-94 -377h-421zM1467 -297h-592l-269 150l-464 -200l-86 266
l638 281l329 -167h79l242 970q19 78 6 137.5t-50.5 99.5t-94.5 60t-124 20q-77 0 -162 -26t-160 -79q34 -27 57.5 -73.5t35 -102.5t10.5 -117t-15 -119q-23 -93 -61.5 -170t-86 -140t-102 -112.5t-110.5 -87.5t-110.5 -65t-102.5 -44l-204 274q43 18 97 55t103.5 86.5
t88.5 107t54 116.5q18 74 12 144t-29.5 126.5t-61.5 96t-84 52.5q90 108 198.5 196t230.5 150.5t256.5 96t276.5 33.5q156 0 282.5 -47t207 -137.5t107 -223t-16.5 -304.5z" />
    <glyph glyph-name="topataksarauthai" unicode="&#xe0f;&#xe38;" horiz-adv-x="1958" 
d="M835 -1144l71 283q5 21 1.5 36t-13.5 24.5t-24 13.5t-30 4q-27 0 -60.5 -16.5t-74.5 -46.5l-70 250q80 57 148.5 90t126.5 49.5t106 21t88 4.5q65 0 111 -16t76 -42t46 -60.5t21.5 -72t2.5 -75t-11 -70.5l-94 -377h-421zM1467 -297h-551l-208 121l-279 -154l-395 173
l202 285l248 -113l315 162l242 -144h61l242 970q19 78 6 137.5t-49.5 99.5t-93.5 60t-124 20q-38 0 -79.5 -6.5t-83.5 -19.5t-83 -32.5t-78 -46.5q34 -27 57.5 -73.5t35 -102.5t10.5 -117t-15 -119q-23 -93 -61.5 -170t-86 -140t-102 -112.5t-110.5 -87.5t-110.5 -65
t-102.5 -44l-204 274q43 18 97 55t103.5 86.5t88.5 107t54 116.5q37 149 -5 254t-158 165q87 105 195.5 192.5t232 150.5t259 98t277.5 35q156 0 282 -47t206 -137.5t106.5 -223t-16.5 -304.5z" />
    <glyph glyph-name="dochadasarauuthai" unicode="&#xe0e;&#xe39;" horiz-adv-x="1958" 
d="M185 -572q115 68 212 96.5t181 28.5q81 0 126.5 -21.5t66.5 -56.5t21 -79t-11 -88l-35 -141q-6 -24 1 -38.5t19.5 -22.5t27 -11t22.5 -3q7 0 22.5 2.5t32.5 10.5t32.5 22.5t21.5 39.5l93 372h409l-88 -351q-23 -93 -80.5 -163t-138 -117t-179 -71t-203.5 -24
q-106 0 -188 23.5t-134 68t-70.5 109t2.5 146.5l7 29q3 12 1.5 20t-6 12.5t-11 6t-12.5 1.5q-11 0 -23.5 -3.5t-24.5 -9t-22 -12t-17 -11.5zM1467 -297h-592l-269 150l-464 -200l-86 266l638 281l329 -167h79l242 970q19 78 6 137.5t-50.5 99.5t-94.5 60t-124 20
q-77 0 -162 -26t-160 -79q34 -27 57.5 -73.5t35 -102.5t10.5 -117t-15 -119q-23 -93 -61.5 -170t-86 -140t-102 -112.5t-110.5 -87.5t-110.5 -65t-102.5 -44l-204 274q43 18 97 55t103.5 86.5t88.5 107t54 116.5q18 74 12 144t-29.5 126.5t-61.5 96t-84 52.5
q90 108 198.5 196t230.5 150.5t256.5 96t276.5 33.5q156 0 282.5 -47t207 -137.5t107 -223t-16.5 -304.5z" />
    <glyph glyph-name="topataksarauuthai" unicode="&#xe0f;&#xe39;" horiz-adv-x="1958" 
d="M185 -572q115 68 212 96.5t181 28.5q81 0 126.5 -21.5t66.5 -56.5t21 -79t-11 -88l-35 -141q-6 -24 1 -38.5t19.5 -22.5t27 -11t22.5 -3q7 0 22.5 2.5t32.5 10.5t32.5 22.5t21.5 39.5l93 372h409l-88 -351q-23 -93 -80.5 -163t-138 -117t-179 -71t-203.5 -24
q-106 0 -188 23.5t-134 68t-70.5 109t2.5 146.5l7 29q3 12 1.5 20t-6 12.5t-11 6t-12.5 1.5q-11 0 -23.5 -3.5t-24.5 -9t-22 -12t-17 -11.5zM1467 -297h-551l-208 121l-279 -154l-395 173l202 285l248 -113l315 162l242 -144h61l242 970q19 78 6 137.5t-49.5 99.5t-93.5 60
t-124 20q-38 0 -79.5 -6.5t-83.5 -19.5t-83 -32.5t-78 -46.5q34 -27 57.5 -73.5t35 -102.5t10.5 -117t-15 -119q-23 -93 -61.5 -170t-86 -140t-102 -112.5t-110.5 -87.5t-110.5 -65t-102.5 -44l-204 274q43 18 97 55t103.5 86.5t88.5 107t54 116.5q37 149 -5 254t-158 165
q87 105 195.5 192.5t232 150.5t259 98t277.5 35q156 0 282 -47t206 -137.5t106.5 -223t-16.5 -304.5z" />
    <glyph glyph-name=".notdef" horiz-adv-x="1696" 
d="M131 569q0 95 37 168t98 122t139 74t159 25t157.5 -22t135 -67.5t94 -115.5t35.5 -167v-475h434v827h115v-934h-774v107h119v487q0 61 -24 107.5t-66 77t-99 46t-123 15.5q-61 0 -118.5 -17.5t-102 -50.5t-71.5 -81t-27 -109v-439l237 238q-11 4 -25.5 14.5t-28 27
t-23 39.5t-9.5 54q0 74 45 117t119 43q35 0 64 -13t49.5 -35t31.5 -51t11 -61q0 -29 -6.5 -51t-16.5 -38t-20.5 -27t-18.5 -19l-204 -197q-44 -40 -92 -85.5t-101 -98.5h-130v565zM1535 1618v-582q-98 31 -211.5 58t-238.5 47t-259 31.5t-274 11.5q-99 0 -194 -6t-190 -19
q24 92 78 175.5t135 146.5t189 100t240 37q127 0 229.5 -28.5t179 -70.5t128 -89.5t77.5 -86.5l-0.5 15.5t-0.5 39.5t-1 54.5t-1 61t-0.5 58t-0.5 46.5h115zM822 1294q43 -3 98 -9t114 -15t118.5 -20.5t112 -25.5t94 -30t65.5 -35q-41 81 -107 144.5t-146.5 107t-171 66
t-181.5 22.5q-69 0 -136 -13t-128.5 -40t-115 -68t-95.5 -96q74 9 147.5 12.5t147.5 3.5q46 0 92 -0.5t92 -3.5zM1752 1692q53 0 77.5 -32.5t24.5 -78.5q0 -17 -6 -33.5t-18.5 -30t-32 -22t-45.5 -8.5q-24 0 -44 8.5t-33.5 22t-21 30t-7.5 33.5q0 46 28.5 78.5t77.5 32.5z
M1752 1499q26 0 43.5 8t28 20.5t14.5 27t4 26.5q0 46 -21.5 72t-68.5 26q-46 0 -70 -26t-24 -72q0 -34 22.5 -58t71.5 -24zM626 520q0 34 -22.5 50t-47.5 16q-28 0 -49 -16t-21 -50t21 -47.5t49 -13.5q12 0 24.5 3t22.5 10.5t16.5 19t6.5 28.5zM1740 1577h-12v-57h-21v139
h45q49 0 49 -41q0 -28 -12.5 -34.5t-28.5 -6.5l41 -57h-20zM1728 1638v-57h24q29 0 29 37q0 3 -6.5 11.5t-22.5 8.5h-24z" />
    <glyph glyph-name=".null" 
 />
    <glyph glyph-name="nonmarkingreturn" horiz-adv-x="1159" 
 />
    <glyph glyph-name="space" unicode=" " horiz-adv-x="1022" 
 />
    <glyph glyph-name="exclam" unicode="!" horiz-adv-x="834" 
d="M461 1873l68 272h484l-68 -272l-364 -1186h-346zM101 470h505l-117 -470h-505z" />
    <glyph glyph-name="quotedbl" unicode="&#x22;" horiz-adv-x="1436" 
d="M1209 2136h431l-20 -81l-420 -885h-295zM583 2136h434l-15 -61l-426 -905h-297z" />
    <glyph glyph-name="numbersign" unicode="#" horiz-adv-x="2154" 
d="M397 1597h335l207 525h409l-207 -525h459l207 525h409l-207 -525h256l-79 -314h-301l-174 -442h277l-78 -314h-322l-207 -527h-409l207 527h-459l-207 -527h-409l207 527h-269l78 314h314l174 442h-290zM843 841h459l174 442h-459z" />
    <glyph glyph-name="dollar" unicode="$" horiz-adv-x="1934" 
d="M1305 2353h263l-60 -240q73 -10 144.5 -32t142.5 -61t142 -97.5t144 -140.5l-336 -301q-95 99 -179.5 150.5t-158.5 73.5l-118 -470q190 -50 307.5 -114t175 -143t63 -173.5t-27.5 -205.5q-41 -132 -124.5 -236.5t-194.5 -179.5t-241.5 -120.5t-264.5 -61.5l-73 -292
h-263l73 291q-92 10 -185.5 37t-183 74.5t-172 117t-152.5 164.5l363 302q42 -61 93 -109t107 -83t114.5 -58.5t116.5 -35.5l120 479q-188 46 -300.5 113t-166.5 150.5t-59 180t21 202.5q32 129 112 231t190 175.5t241.5 118t267.5 57.5zM1353 590q8 32 7.5 62.5t-17.5 59
t-54 55.5t-103 53l-103 -414q46 7 90 20.5t80.5 35.5t62.5 53.5t37 74.5zM890 1548q-11 -43 -9 -78.5t19 -64.5t52 -54t92 -47l103 413q-48 -9 -91.5 -25.5t-78 -38.5t-57.5 -48.5t-30 -56.5z" />
    <glyph glyph-name="percent" unicode="%" horiz-adv-x="2628" 
d="M2178 2122h452l-2000 -2122h-452zM665 1621q-14 -55 -8 -96t24.5 -68.5t47 -41t59.5 -13.5q30 0 64 13.5t64.5 41t56 68.5t39.5 96q13 55 8.5 96t-22 68.5t-44.5 41t-57 13.5q-31 0 -66 -13.5t-67.5 -41t-59 -68.5t-39.5 -96zM1363 1621q-34 -137 -102.5 -238.5
t-157.5 -169t-191.5 -100.5t-203.5 -33t-187 36t-143 105t-76.5 170t12.5 230t102 230t161.5 170t195.5 105t205 36t186.5 -33t141 -100.5t73.5 -169t-16 -238.5zM1786 513q-14 -55 -7.5 -96t25 -68.5t47 -41t59.5 -13.5q30 0 64 13.5t64.5 41t55.5 68.5t39 96t9 96
t-22 68.5t-44 41t-57 13.5q-31 0 -66 -13.5t-67.5 -41t-59 -68.5t-40.5 -96zM2484 513q-34 -137 -102.5 -238.5t-157.5 -169t-191 -100.5t-203 -33t-187 36t-143 105t-77 170t12 230t102 230t161.5 170t195.5 105t205 36t186.5 -33t141 -100.5t73.5 -169t-16 -238.5z" />
    <glyph glyph-name="ampersand" unicode="&#x26;" horiz-adv-x="2089" 
d="M2053 972q-38 -72 -76 -136.5t-78 -123t-82.5 -111.5t-89.5 -103l186 -245l-366 -297l-181 237q-176 -112 -346 -160t-334 -48q-91 0 -176 20t-158 58.5t-130.5 94.5t-92 128t-43 158t16.5 186q18 75 59 148t107 143.5t158.5 137t214.5 127.5q-65 124 -78 230t11 203
t87.5 190t162 166.5t231 118.5t294.5 45t268.5 -42t163.5 -113t69 -166t-14 -200q-22 -88 -71 -161t-121 -136.5t-164.5 -121t-202.5 -115.5l227 -292q60 69 110.5 152.5t94.5 175.5zM783 370q39 0 84 4.5t93 16.5t97.5 32.5t97.5 52.5l-320 424q-72 -34 -121.5 -68
t-82 -67.5t-50 -68t-26.5 -70.5q-15 -60 -2 -107.5t45.5 -80.5t80.5 -50.5t104 -17.5zM1004 1618q-4 -17 -8 -39.5t-0.5 -51t17.5 -63.5t46 -77l22 -24q79 30 137 62t97.5 65t62 65.5t30.5 63.5q10 41 4 71.5t-26.5 50.5t-53.5 30t-76 10q-54 0 -97.5 -15.5t-75.5 -39.5
t-52 -52.5t-27 -55.5z" />
    <glyph glyph-name="quotesingle" unicode="'" horiz-adv-x="813" 
d="M583 2136h434l-15 -61l-426 -905h-297z" />
    <glyph glyph-name="parenleft" unicode="(" horiz-adv-x="1392" 
d="M669 -609q-177 137 -291.5 306t-169.5 364t-51.5 413t61.5 452q59 235 166.5 451t259 409.5t345 361.5t425.5 308l123 -307q-344 -234 -569.5 -535.5t-322.5 -687.5q-48 -193 -51.5 -366t34.5 -325.5t116 -285t193 -244.5l-268 -314v0z" />
    <glyph glyph-name="parenright" unicode=")" horiz-adv-x="1393" 
d="M-52 -295q171 112 315 244.5t258 285t196.5 325.5t130.5 366t53 364.5t-31.5 323t-113 285t-190.5 250.5l277 307q162 -140 272 -308t165 -361.5t54.5 -409.5t-59.5 -451q-58 -234 -163 -452t-257 -413t-350.5 -364t-444.5 -306z" />
    <glyph glyph-name="asterisk" unicode="*" horiz-adv-x="1250" 
d="M717 1484l-290 -208l-90 267l331 111l-275 113l224 267l184 -208l24 319h309l-137 -320l289 209l91 -267l-334 -113l278 -111l-224 -267l-186 207l-22 -321h-309z" />
    <glyph glyph-name="plus" unicode="+" horiz-adv-x="1782" 
d="M749 857h-524l85 342h524l132 527h348l-132 -527h525l-85 -342h-525l-131 -528h-348z" />
    <glyph glyph-name="comma" unicode="," horiz-adv-x="897" 
d="M147 470h505l-89 -355q-25 -100 -82.5 -195t-137 -174t-177 -137t-201.5 -83l-40 183q73 25 127 60.5t92.5 75.5t63 80t39.5 75h-217z" />
    <glyph glyph-name="hyphen" unicode="-" horiz-adv-x="1372" 
d="M310 1212h995l-92 -366h-995z" />
    <glyph glyph-name="period" unicode="." horiz-adv-x="883" 
d="M126 470h505l-117 -470h-505z" />
    <glyph glyph-name="slash" unicode="/" horiz-adv-x="1804" 
d="M1813 2382h421l-2048 -2729h-419z" />
    <glyph glyph-name="zero" unicode="0" horiz-adv-x="1849" 
d="M836 368q85 0 161 52t140 143.5t115 216t87 268.5q37 150 48.5 275.5t-7.5 216t-69.5 141t-135.5 50.5t-160 -50.5t-139 -141t-116 -216t-89 -275.5q-36 -144 -46.5 -268.5t8 -216t68.5 -143.5t135 -52zM737 -29q-185 0 -312.5 79.5t-196 221.5t-75 338.5t52.5 431.5
q59 236 163 435t242.5 344t307 226t356.5 81q187 0 315 -81t194 -226t70.5 -344t-54.5 -435q-38 -152 -97 -290t-136 -257t-170 -216t-198.5 -165.5t-222 -105.5t-239.5 -37z" />
    <glyph glyph-name="one" unicode="1" horiz-adv-x="1849" 
d="M56 0l99 401h491l305 1220l-419 -165l-36 376l707 279h333l-427 -1710h464l-99 -401h-1418z" />
    <glyph glyph-name="two" unicode="2" horiz-adv-x="1849" 
d="M52 327l898 642q90 64 166.5 125t136 123t99.5 125.5t57 132.5q13 51 3 97t-39 81t-75 55.5t-106 20.5q-63 0 -128.5 -19.5t-134.5 -61.5t-141.5 -107.5t-149.5 -157.5l-281 236q97 124 208 218t230.5 157t244 95t249.5 32q165 0 291 -48t203.5 -133.5t103 -204.5
t-9.5 -260q-26 -103 -89 -208t-157.5 -208.5t-216.5 -204t-264 -194.5l-388 -259h843l-99 -401h-1535z" />
    <glyph glyph-name="three" unicode="3" horiz-adv-x="1849" 
d="M732 -29q-131 0 -242.5 31t-201 88.5t-157 140t-110.5 184.5l380 310q33 -97 77 -164t98 -109t118 -61t138 -19q65 0 126.5 18.5t112.5 54t88 87.5t54 119q15 59 -1.5 109t-62 87t-119 57.5t-173.5 20.5h-168l-6 271l592 513h-752l95 383h1405l-72 -289l-646 -536
q119 -25 201.5 -83.5t129 -140.5t56.5 -182.5t-17 -209.5q-22 -89 -66.5 -174.5t-109 -161t-147 -139t-180 -109t-208.5 -71t-232 -25.5z" />
    <glyph glyph-name="four" unicode="4" horiz-adv-x="1851" 
d="M1019 398h-1004l-2 280l1506 1432h362l-331 -1326h267l-96 -386h-267l-99 -398h-435zM1115 784l151 605l-635 -605h484z" />
    <glyph glyph-name="five" unicode="5" horiz-adv-x="1849" 
d="M684 -20q-114 0 -216.5 22t-190.5 68.5t-160.5 118t-127.5 170.5l321 323q55 -93 116 -151.5t123 -92t122.5 -46t114.5 -12.5q66 0 131 22.5t120.5 63.5t96.5 99t59 129q18 74 9.5 132.5t-39 99.5t-82 63t-118.5 22q-58 0 -114 -5.5t-114.5 -19t-122 -37t-136.5 -58.5
l-193 159l316 1042h1320l-96 -385h-911l-110 -359q24 9 60.5 18.5t77 17t82 12.5t76.5 5q148 0 270 -47t200 -136t104.5 -219.5t-14.5 -296.5q-27 -107 -80.5 -202t-126.5 -175.5t-163 -144t-189 -108t-204.5 -68.5t-210.5 -24z" />
    <glyph glyph-name="six" unicode="6" horiz-adv-x="1849" 
d="M729 -27q-104 0 -193.5 23.5t-161 63.5t-123 94t-78.5 114q-41 90 -56 175t-12 170.5t20 174t41 185.5q66 266 181 478t265.5 359.5t330.5 226.5t377 79q79 0 158 -8t157 -35.5t154.5 -80t150.5 -140.5l-296 -303q-65 65 -119.5 102t-103 55t-92 22.5t-85.5 4.5
q-83 0 -162.5 -34t-151 -99t-132 -161t-105.5 -220q35 25 92 50t121.5 44t129.5 31t117 12q144 0 264 -44t198 -127.5t106.5 -203.5t-8.5 -271q-32 -128 -90 -232t-134.5 -186t-168 -142t-190 -99.5t-201 -58.5t-200.5 -19zM828 359q65 0 132 20t125.5 60t102.5 98t63 135
q19 75 5.5 134.5t-51 100t-95.5 62t-128 21.5q-66 0 -132 -21.5t-123 -63t-100 -101.5t-62 -137q-17 -66 -6 -122.5t46 -98t91.5 -64.5t131.5 -23z" />
    <glyph glyph-name="seven" unicode="7" horiz-adv-x="1849" 
d="M1380 1707h-980l96 385h1523l-69 -278l-1428 -1814h-501z" />
    <glyph glyph-name="eight" unicode="8" horiz-adv-x="1849" 
d="M736 -29q-177 0 -316 43t-228.5 122.5t-123.5 192.5t1 252q47 188 166.5 310.5t313.5 194.5q-53 36 -93 80.5t-63.5 100t-26.5 124.5t18 155q30 120 109.5 224.5t197 182t266 122t315.5 44.5q169 0 295.5 -44t205 -121.5t105.5 -182t-3 -225.5q-21 -86 -59.5 -155
t-89.5 -124.5t-113.5 -100t-132.5 -80.5q76 -39 130 -86t84.5 -107t35 -134t-18.5 -166q-37 -148 -127.5 -264t-220 -195.5t-290 -121t-337.5 -41.5zM1051 1235q66 0 123 19.5t102.5 54.5t77.5 83t46 106q12 48 4.5 92t-35.5 77t-75.5 52.5t-116.5 19.5q-68 0 -125.5 -19.5
t-101 -52.5t-72.5 -77t-41 -92q-14 -56 -6.5 -104.5t34.5 -83.5t74 -55t112 -20zM831 351q86 0 158 21.5t127 57.5t90.5 83.5t48.5 100.5q14 56 -0.5 103.5t-53 82t-99.5 53.5t-141 19t-150.5 -19t-126 -53.5t-93 -82t-51.5 -103.5t-2.5 -104t48 -83.5t98 -55.5t147.5 -20z
" />
    <glyph glyph-name="nine" unicode="9" horiz-adv-x="1849" 
d="M1251 2116q104 0 193.5 -23.5t161 -63.5t123 -94t78.5 -114q40 -90 53.5 -181.5t10 -181.5t-20.5 -176.5t-36 -165.5q-66 -266 -181 -478t-265.5 -360t-330.5 -226.5t-377 -78.5q-79 0 -158 8t-157 35.5t-154.5 79.5t-150.5 141l296 303q64 -65 119 -102t103.5 -55
t92 -22.5t85.5 -4.5q82 0 165 33t156.5 98t133 161t95.5 222q-35 -26 -91.5 -50.5t-121 -43.5t-129.5 -31t-117 -12q-144 0 -264 44t-198 127.5t-107 203t9 271.5q32 128 90 232t134.5 186t168 142t190 99.5t200.5 58.5t201 19zM1152 1730q-65 0 -132 -20t-125.5 -60
t-102.5 -98.5t-63 -134.5q-19 -75 -5.5 -134.5t51 -100t95.5 -62t128 -21.5q66 0 132 21.5t123 62.5t100 101.5t62 137.5q16 66 5.5 122.5t-45.5 98t-91.5 64.5t-131.5 23z" />
    <glyph glyph-name="colon" unicode=":" horiz-adv-x="883" 
d="M121 450h505l-117 -470h-505zM398 1563h505l-117 -470h-505z" />
    <glyph glyph-name="semicolon" unicode=";" horiz-adv-x="943" 
d="M458 1563h505l-117 -470h-505zM186 470h505l-89 -355q-25 -100 -82.5 -195t-137 -174t-177 -137t-201.5 -83l-40 183q73 25 127 60.5t92.5 75.5t63 80t39.5 75h-217z" />
    <glyph glyph-name="less" unicode="&#x3c;" horiz-adv-x="1575" 
d="M193 906l61 244l1420 680l-89 -356l-955 -443l733 -449l-89 -356z" />
    <glyph glyph-name="equal" unicode="=" horiz-adv-x="1669" 
d="M302 1118l81 323h1262l-81 -323h-1262zM177 615l80 323h1262l-80 -323h-1262z" />
    <glyph glyph-name="greater" unicode="&#x3e;" horiz-adv-x="1575" 
d="M24 226l89 356l958 449l-736 443l89 356l1080 -680l-61 -244z" />
    <glyph glyph-name="question" unicode="?" horiz-adv-x="1676" 
d="M649 1206q34 -5 79 -8t86 -3q98 0 180.5 24t145.5 65.5t104 98.5t58 123q15 62 3 109.5t-46 79.5t-87 48t-118 16q-63 0 -130 -20.5t-133 -58.5t-129.5 -91.5t-120.5 -118.5l-225 291q83 92 182.5 164t208.5 121.5t223 75t227 25.5q190 0 319.5 -47.5t202 -131.5t90 -199
t-16.5 -250q-32 -128 -102 -240.5t-169 -198.5t-222.5 -140t-261.5 -64l-71 -199h-365zM434 470h505l-117 -470h-505z" />
    <glyph glyph-name="at" unicode="@" horiz-adv-x="2560" 
d="M1094 -84q-166 0 -305.5 40.5t-249.5 114.5t-188 177t-120 228t-45.5 268.5t34.5 297.5t114 298.5t181 270.5t233.5 230t273.5 179t300.5 116t314.5 41q190 0 335 -41t249 -113.5t169.5 -170t96.5 -210t29 -235.5t-32 -245q-27 -107 -75.5 -195.5t-111 -159t-135 -123.5
t-146.5 -88.5t-145.5 -53t-131.5 -17.5q-41 0 -82.5 10.5t-74.5 33t-52.5 58.5t-17.5 88q-113 -100 -229.5 -146t-235.5 -46q-87 0 -159 34t-117.5 96.5t-60.5 150.5t12 196q22 89 66.5 169.5t104 149.5t130.5 124.5t146.5 95t151.5 61t146 21.5q49 0 86.5 -9.5t65 -25.5
t46 -37t30.5 -45l45 111l301 -33l-252 -597q-17 -43 -28.5 -76.5t-15.5 -47.5q-9 -35 -6 -57.5t13 -35.5t24 -18t28 -5q52 0 111.5 22t116 72t104.5 130.5t78 198.5q23 92 25 183t-20 174.5t-70.5 155t-127.5 124.5t-190 83t-258 30q-123 0 -240.5 -31t-224.5 -88
t-201.5 -137t-170.5 -177t-132 -209.5t-86 -233.5q-45 -182 -22.5 -337t106.5 -268.5t225.5 -178t333.5 -64.5q97 0 186.5 15t176 43.5t171.5 71t173 96.5l91 -215q-229 -152 -445.5 -220.5t-419.5 -68.5zM1174 804q57 0 115 26.5t107.5 71.5t87 104t53.5 125
q12 46 6.5 84.5t-24.5 66.5t-49.5 43.5t-69.5 15.5q-56 0 -115 -25.5t-111 -70t-92 -105t-58 -130.5q-12 -49 -6.5 -87.5t25.5 -64.5t53.5 -40t77.5 -14z" />
    <glyph glyph-name="A" unicode="A" horiz-adv-x="2334" 
d="M1725 2138l408 -2138h-470l-83 463h-876l-313 -463h-550l1474 2138h410zM979 868h530l-111 620z" />
    <glyph glyph-name="B" unicode="B" horiz-adv-x="2104" 
d="M565 2122h969q148 0 272.5 -42t207.5 -122q74 -72 103 -174t-4 -232q-20 -81 -57 -148.5t-86.5 -122t-110 -97.5t-127.5 -76q34 -12 71.5 -34t72 -53.5t63.5 -72.5t46.5 -91.5t20 -111t-14.5 -130.5q-38 -152 -117 -263t-194 -183q-139 -88 -305.5 -128.5t-355.5 -40.5
h-983zM1632 1502q22 90 -34.5 144.5t-189.5 54.5h-478l-107 -429h475q132 0 218.5 57t115.5 173zM1521 634q14 58 5 101.5t-44.5 72.5t-99 44t-159.5 15h-501l-112 -446h542q153 0 247 51t122 162z" />
    <glyph glyph-name="C" unicode="C" horiz-adv-x="2171" 
d="M991 -28q-156 0 -288 37.5t-234.5 106.5t-175 167t-110 218.5t-39 261.5t37.5 296q37 151 109 291t171 262t222 222t262.5 171.5t292.5 111t313 39.5q130 0 238 -20t199.5 -63.5t168 -112.5t144.5 -168l-368 -335q-50 69 -102 120.5t-110.5 85.5t-126.5 51t-149 17
q-134 0 -261.5 -50.5t-234 -140.5t-185 -213t-114.5 -268q-36 -144 -19 -267t77.5 -213t160.5 -141t229 -51q75 0 150 12.5t156 45.5t170.5 90.5t193.5 146.5l224 -304q-127 -114 -249.5 -192t-245.5 -125.5t-248.5 -68t-258.5 -20.5z" />
    <glyph glyph-name="D" unicode="D" horiz-adv-x="2254" 
d="M565 2122h862q260 0 448 -91t292 -256q85 -134 107 -311.5t-31 -391.5q-59 -234 -189 -432t-315 -344q-88 -69 -186 -124t-204 -93t-219.5 -58.5t-231.5 -20.5h-862zM930 1701l-320 -1280h386q141 0 267 48t227 134.5t174 205.5t108 261q37 148 18.5 265t-81 198.5
t-163.5 124.5t-230 43h-386z" />
    <glyph glyph-name="E" unicode="E" horiz-adv-x="1930" 
d="M565 2122h1625l-105 -421h-1155l-107 -429h1051l-101 -405h-1051l-112 -446h1175l-104 -421h-1645z" />
    <glyph glyph-name="F" unicode="F" horiz-adv-x="1804" 
d="M565 2122h1557l-105 -421h-1087l-107 -429h972l-101 -405h-972l-216 -867h-470z" />
    <glyph glyph-name="G" unicode="G" horiz-adv-x="2247" 
d="M1008 -28q-151 0 -282.5 34.5t-237 100t-182 160.5t-118 217t-44 269.5t39.5 316.5q40 158 114 299t175 261t225.5 216.5t265 164t292.5 103.5t308 36q144 0 262 -18.5t215 -59.5t175.5 -108t144.5 -163l-373 -328q-53 78 -114 128t-127.5 79t-139 40.5t-148.5 11.5
q-84 0 -169.5 -21t-167 -61.5t-156 -98.5t-136.5 -131.5t-108 -161.5t-71 -188q-27 -109 -26 -202.5t25 -169.5t69.5 -134.5t106.5 -98t135.5 -60t157.5 -20.5q51 0 110.5 6.5t121 21t122.5 36.5t115 53l82 329h-537l98 394h1004l-231 -925q-120 -89 -247 -151.5
t-254.5 -101.5t-253 -57t-241.5 -18z" />
    <glyph glyph-name="H" unicode="H" horiz-adv-x="2243" 
d="M565 2122h469l-212 -850h872l212 850h470l-529 -2122h-470l216 867h-872l-216 -867h-469z" />
    <glyph glyph-name="I" unicode="I" horiz-adv-x="948" 
d="M588 2122h470l-529 -2122h-470z" />
    <glyph glyph-name="J" unicode="J" horiz-adv-x="1690" 
d="M552 -26q-101 0 -190.5 14t-169.5 60t-149.5 131t-129.5 228l400 275q29 -92 64.5 -149.5t75.5 -89.5t83.5 -43.5t89.5 -11.5q63 0 122 21.5t109 64t88 104.5t58 143l350 1401h470l-350 -1401q-44 -178 -135 -317t-214 -234.5t-269.5 -145.5t-302.5 -50z" />
    <glyph glyph-name="K" unicode="K" horiz-adv-x="2186" 
d="M1042 896l-396 -330l-140 -566h-470l527 2121h470l-227 -911l1076 911h628l-1108 -925l594 -1196h-507z" />
    <glyph glyph-name="L" unicode="L" horiz-adv-x="1798" 
d="M565 2122h472l-425 -1701h1083l-104 -421h-1555z" />
    <glyph glyph-name="M" unicode="M" horiz-adv-x="2566" 
d="M843 1362l-339 -1362h-468l529 2122h404l393 -957l874 957h463l-529 -2122h-468l338 1358l-824 -901z" />
    <glyph glyph-name="N" unicode="N" horiz-adv-x="2335" 
d="M565 2122h421l674 -1362l340 1362h468l-529 -2122h-400l-689 1391l-346 -1391h-468z" />
    <glyph glyph-name="O" unicode="O" horiz-adv-x="2390" 
d="M182 1062q38 151 112 291.5t176 262.5t227 222t265 171.5t289.5 110.5t301.5 39q151 0 281.5 -39t234.5 -110.5t179 -171.5t116 -222t45.5 -262.5t-33.5 -291.5t-112 -291.5t-175.5 -262.5t-226.5 -222t-265 -171.5t-290 -110.5t-301 -39t-281.5 39t-235 110.5
t-179.5 171.5t-116 222t-45.5 262t33.5 292zM652 1062q-33 -135 -14.5 -251t80.5 -202t164.5 -135t237.5 -49t262 49t232.5 135t182 202t109.5 251q34 135 15.5 251t-81 202t-165 135t-237.5 49q-90 0 -176.5 -22.5t-166.5 -63t-151 -98.5t-128 -128.5t-99.5 -152.5
t-64.5 -172z" />
    <glyph glyph-name="P" unicode="P" horiz-adv-x="1979" 
d="M565 2122h881q185 0 323 -49.5t221 -144t107 -230.5t-19 -309q-46 -183 -142 -316t-228.5 -219.5t-294 -129t-338.5 -43.5l-400 -1l-169 -680h-470zM1173 1103q85 0 156.5 17t127 52t93.5 87.5t56 123.5q19 78 9.5 137t-45.5 99.5t-97 61t-143 20.5h-400l-149 -598h392z
" />
    <glyph glyph-name="Q" unicode="Q" horiz-adv-x="2410" 
d="M182 1062q38 151 112 291.5t176 262.5t227 222t265 171.5t289.5 110.5t301.5 39q151 0 281.5 -39t234.5 -110.5t179 -171.5t116 -222t45.5 -262.5t-33.5 -291.5q-42 -170 -128.5 -323t-205.5 -284l204 -228l-378 -325l-217 242q-151 -85 -314 -132t-331 -47
q-151 0 -281.5 39t-235 110.5t-179.5 171.5t-116 222t-45.5 262t33.5 292zM652 1062q-33 -135 -14.5 -251t80.5 -202t164.5 -135t237.5 -49q63 0 123.5 11t120.5 31l-247 278l373 329l274 -308q50 66 86 140.5t56 155.5q34 135 15.5 251t-81 202t-165 135t-237.5 49
q-90 0 -176.5 -22.5t-166.5 -63t-151 -98.5t-128 -128.5t-99.5 -152.5t-64.5 -172z" />
    <glyph glyph-name="R" unicode="R" horiz-adv-x="2188" 
d="M565 2122h933q182 0 326.5 -43.5t236.5 -130t124 -215.5t-10 -299q-29 -115 -90 -216t-145 -182t-187 -140.5t-215 -91.5l417 -804h-554l-361 729h-353l-181 -729h-470zM1208 1142q91 0 173 17.5t147.5 52.5t111 88t63.5 125q16 64 3 115t-54.5 87t-110 55t-163.5 19
h-448l-140 -559h418z" />
    <glyph glyph-name="S" unicode="S" horiz-adv-x="1839" 
d="M758 -28q-106 0 -213.5 15t-211.5 59t-203 124t-187 210l365 335q65 -95 133.5 -158t138.5 -100.5t141 -52.5t141 -15q75 0 144 16t125.5 45.5t95 72t52.5 95.5q6 23 3 53t-36.5 63.5t-110 68.5t-217.5 68q-146 34 -250.5 76.5t-174 92.5t-108 107.5t-53 122t-8.5 135.5
t25 148q23 92 70 172t113.5 146t150.5 118t180.5 87.5t203 54t219.5 18.5q108 0 207 -18.5t190 -58.5t174.5 -104t160.5 -154l-354 -332q-37 54 -91 100t-118.5 79.5t-136 53t-143.5 19.5q-60 0 -120 -13t-110.5 -37.5t-86 -59.5t-46.5 -79q-11 -43 -5.5 -80.5t42.5 -71
t114 -63.5t209 -57q141 -29 243 -70.5t170.5 -94t106.5 -113.5t53.5 -128t10 -139.5t-23.5 -146.5q-34 -136 -121.5 -248t-216 -192.5t-291 -124.5t-345.5 -44z" />
    <glyph glyph-name="T" unicode="T" horiz-adv-x="1770" 
d="M892 1701h-630l105 422h1734l-105 -422h-634l-424 -1701h-470z" />
    <glyph glyph-name="U" unicode="U" horiz-adv-x="2292" 
d="M958 -31q-118 0 -226.5 24.5t-199.5 73t-161 120.5t-110.5 167t-48 212t27.5 256l325 1300h470l-323 -1294q-27 -108 -9 -190.5t68.5 -138.5t126 -85t162.5 -29q85 0 175 27t168.5 81.5t139 136t87.5 189.5l325 1303h470l-322 -1288q-35 -142 -100.5 -261t-153 -215
t-193 -169t-221 -122t-237 -73.5t-240.5 -24.5z" />
    <glyph glyph-name="V" unicode="V" horiz-adv-x="2183" 
d="M1093 -13h-372l-357 2135h494l195 -1472l929 1472h534z" />
    <glyph glyph-name="W" unicode="W" horiz-adv-x="3242" 
d="M2249 737l804 1385h523l-1300 -2135h-372l-111 1427l-823 -1427h-372l-234 2135h482l113 -1385l797 1385h388z" />
    <glyph glyph-name="X" unicode="X" horiz-adv-x="2174" 
d="M447 0h-619l1071 1092l-497 1030h562l278 -658l607 658h621l-1010 -1030l526 -1092h-559l-312 716z" />
    <glyph glyph-name="Y" unicode="Y" horiz-adv-x="2214" 
d="M1976 2122h579l-1190 -1304l-203 -818h-470l203 818l-537 1304h536l319 -889z" />
    <glyph glyph-name="Z" unicode="Z" horiz-adv-x="1944" 
d="M-34 288l1502 1430h-1105l100 403h1750l-71 -288l-1499 -1430h1142l-100 -403h-1790z" />
    <glyph glyph-name="bracketleft" unicode="[" horiz-adv-x="1348" 
d="M623 2373h970l-88 -353h-546l-556 -2231h546l-88 -354h-970z" />
    <glyph glyph-name="backslash" unicode="\" horiz-adv-x="1804" 
d="M1554 -347h-420l-688 2729h421z" />
    <glyph glyph-name="bracketright" unicode="]" horiz-adv-x="1348" 
d="M815 -565h-970l88 354h546l556 2231h-546l88 353h970z" />
    <glyph glyph-name="asciicircum" unicode="^" horiz-adv-x="1522" 
d="M969 2142h293l315 -717h-411l-133 392l-333 -392h-405z" />
    <glyph glyph-name="underscore" unicode="_" horiz-adv-x="1943" 
d="M-199 -171h1886l-77 -310h-1886z" />
    <glyph glyph-name="grave" unicode="`" horiz-adv-x="1596" 
d="M709 1995l368 277l338 -553l-264 -201z" />
    <glyph glyph-name="a" unicode="a" horiz-adv-x="1754" 
d="M458 -20q-65 0 -128 13.5t-117.5 41t-97 69.5t-67.5 99.5t-29 130t18 161.5q23 93 66.5 166t101.5 128t128.5 93t147.5 61.5t158.5 34t161.5 10.5q34 0 78 -3.5t93.5 -10.5t101.5 -17.5t103 -25.5q22 91 6.5 150t-54 93.5t-92.5 48.5t-107 14q-122 0 -251.5 -26.5
t-263.5 -86.5l-34 343q96 38 193.5 63t187 39.5t165.5 20.5t127 6q88 0 167 -11t144.5 -32t115.5 -52.5t81 -72.5q60 -81 77 -188.5t-18 -248.5l-247 -991h-429l46 193q-70 -63 -141 -104t-139 -65.5t-132.5 -34t-120.5 -9.5zM655 301q113 0 191 29t128 70t75.5 87t34.5 80
l23 93q-75 29 -149.5 39.5t-144.5 10.5q-54 0 -109 -11.5t-102 -35t-81.5 -60.5t-47.5 -88q-11 -44 -7.5 -76.5t17 -56.5t34.5 -39.5t45 -25t48.5 -13t44.5 -3.5z" />
    <glyph glyph-name="b" unicode="b" horiz-adv-x="1912" 
d="M915 -17q-40 0 -94.5 6.5t-112 29t-112 67t-94.5 119.5l-51 -205h-431l569 2286h431l-235 -943q64 69 135 116.5t142.5 77t142 42.5t133.5 13q87 0 166.5 -23t145 -69t114 -114t74 -157t25 -199.5t-32.5 -240.5q-34 -135 -91 -247.5t-130.5 -202t-159 -156.5t-176 -111.5
t-182 -66.5t-176.5 -22zM917 351q75 0 149.5 27.5t139.5 81.5t115 133.5t76 184.5q25 100 15.5 181.5t-46.5 139.5t-98 89.5t-138 31.5t-154 -32.5t-144.5 -91.5t-119.5 -141.5t-77 -182.5q-26 -102 -11 -181t56.5 -132t104 -80.5t132.5 -27.5z" />
    <glyph glyph-name="c" unicode="c" horiz-adv-x="1610" 
d="M732 -20q-101 0 -194.5 23.5t-173.5 69.5t-141 114t-96.5 157.5t-41 199.5t27.5 240q30 119 86.5 225.5t133.5 196.5t171 162t198 122t215 77t222 27q102 0 184.5 -15t149.5 -47.5t121.5 -83t100.5 -121.5l-336 -289q-35 57 -70 92t-73 54t-81.5 25.5t-94.5 6.5
q-70 0 -146.5 -29t-145.5 -83.5t-123.5 -134t-79.5 -180.5q-28 -111 -12.5 -193t58 -135.5t105 -79.5t128.5 -26q42 0 88 6t98.5 25.5t113.5 57.5t133 101l197 -262q-102 -93 -194.5 -152t-180 -92.5t-173 -46t-174.5 -12.5z" />
    <glyph glyph-name="d" unicode="d" horiz-adv-x="1912" 
d="M627 -17q-85 0 -165.5 22t-149 66.5t-120.5 111.5t-80.5 156.5t-30 201.5t32.5 248q33 130 87.5 240.5t125 199.5t153 156.5t171 113t180 68.5t178.5 23q68 0 130.5 -12t117 -41t99.5 -76.5t79 -117.5l235 943h431l-569 -2286h-431l51 205q-78 -75 -155 -119.5t-146 -67
t-126.5 -29t-97.5 -6.5zM809 351q70 0 146 27.5t144.5 80.5t122 132t79.5 181q25 100 14.5 181t-48.5 138t-99.5 87.5t-137.5 30.5q-77 0 -154 -30t-143 -85.5t-116.5 -135.5t-75.5 -180q-26 -105 -15.5 -184.5t48.5 -133.5t99 -81.5t136 -27.5z" />
    <glyph glyph-name="e" unicode="e" horiz-adv-x="1719" 
d="M707 -20q-105 0 -198 26t-169 75t-132.5 119.5t-87.5 160.5t-34 197.5t28 230.5q32 126 88.5 234.5t132 197.5t166.5 158t190 116.5t202.5 72t205.5 24.5q165 0 287.5 -57t194.5 -160.5t90 -247t-25 -316.5q-5 -19 -11.5 -42.5t-13.5 -48.5t-14 -48.5t-13 -42.5h-1083
q-9 -71 16.5 -124.5t72.5 -89.5t110 -54.5t131 -18.5q45 0 96.5 8.5t106.5 27.5t111 50t110 76l174 -227q-83 -77 -167.5 -133t-174.5 -92.5t-187 -54t-203 -17.5zM1241 902q17 73 7.5 133.5t-40.5 104t-82 67.5t-117 24q-80 0 -151.5 -28.5t-128.5 -75t-96 -105.5t-54 -120
h662z" />
    <glyph glyph-name="f" unicode="f" horiz-adv-x="1184" 
d="M390 1206h-256l89 357h256l51 205q32 125 94 225.5t147 163.5v-1q91 69 193 100.5t196 31.5q56 0 111.5 -7t104.5 -19.5t90 -30.5t68 -39l-183 -331q-65 34 -121.5 45t-100.5 11q-24 0 -50.5 -10t-50.5 -30t-43 -50t-29 -70l-49 -194h411l-89 -357h-408l-300 -1206h-431z
" />
    <glyph glyph-name="g" unicode="g" horiz-adv-x="1912" 
d="M1175 297q-77 -72 -153.5 -116t-146 -68t-127.5 -32t-98 -8q-89 0 -171.5 21.5t-151 64t-120.5 106t-80.5 148t-30.5 190t29 231.5q28 113 80.5 213t121.5 184.5t151.5 151t171.5 113t180.5 71t178.5 24.5q71 0 134.5 -11.5t117.5 -39t98 -75t77 -119.5l54 217h431
l-339 -1362q-30 -118 -86 -218.5t-131 -182.5t-166 -144t-191 -104t-205.5 -63.5t-209.5 -21.5q-91 0 -182.5 6t-183 26t-183.5 57.5t-184 100.5l255 350q83 -66 163.5 -102.5t150.5 -54t127 -21.5t94 -4q82 0 163 25.5t148.5 72.5t117 113.5t68.5 148.5zM831 441
q70 0 145.5 24.5t142.5 72.5t118.5 118t74.5 161q22 89 10 163t-51 127t-101 82.5t-138 29.5q-77 0 -153.5 -28.5t-141.5 -80.5t-113.5 -125t-70.5 -162q-23 -93 -10.5 -164.5t51.5 -120t100.5 -73t136.5 -24.5z" />
    <glyph glyph-name="h" unicode="h" horiz-adv-x="1836" 
d="M590 2287h431l-235 -942q43 53 101 98.5t123.5 79t135 52.5t135.5 19q121 0 215 -42t150 -126t68.5 -210t-29.5 -295l-229 -921h-431l229 921q17 67 13.5 120t-25.5 89.5t-62 56t-95 19.5q-62 0 -128 -25t-125.5 -74.5t-107 -124t-72.5 -174.5l-201 -808h-431z" />
    <glyph glyph-name="i" unicode="i" horiz-adv-x="854" 
d="M421 1563h430l-389 -1563h-430zM558 2161h454l-108 -435h-454z" />
    <glyph glyph-name="j" unicode="j" horiz-adv-x="897" 
d="M614 2161h454l-108 -435h-454zM477 1563h430l-410 -1646q-27 -107 -79 -191t-125 -142t-164.5 -88t-197.5 -30q-22 0 -55.5 2t-75 10t-88 24t-93.5 43l172 331q28 -20 71.5 -32t83.5 -12q45 0 79 28.5t45 69.5z" />
    <glyph glyph-name="k" unicode="k" horiz-adv-x="1809" 
d="M589 2287h431l-312 -1250l657 526h600l-805 -642l439 -921h-472l-308 648l-260 -208l-108 -440h-431z" />
    <glyph glyph-name="l" unicode="l" horiz-adv-x="831" 
d="M451 0h-431l570 2287h431z" />
    <glyph glyph-name="m" unicode="m" horiz-adv-x="2819" 
d="M409 1564h431l-54 -219q43 53 102.5 98.5t127 79t138.5 52.5t137 19q171 0 274.5 -83t131.5 -251q78 88 161 151.5t164 104t157 59.5t139 19q136 0 223.5 -42t129.5 -126t40.5 -210t-43.5 -295l-229 -921h-431l229 921q17 67 14 120t-23 89.5t-55 56t-81 19.5
q-62 0 -123.5 -18.5t-117 -55.5t-102.5 -93t-80 -130l-226 -909h-431l229 921q34 134 -5.5 209.5t-150.5 75.5q-62 0 -128 -25t-125.5 -74.5t-107 -124t-72.5 -174.5l-201 -808h-431z" />
    <glyph glyph-name="n" unicode="n" horiz-adv-x="1835" 
d="M409 1563h431l-54 -218q43 53 102.5 98.5t127 79t138.5 52.5t137 19q121 0 213.5 -42t146.5 -126t65 -210t-31 -295l-229 -921h-431l229 921q17 67 13.5 120t-25.5 89.5t-62 56t-95 19.5q-62 0 -128 -25t-125.5 -74.5t-107 -124t-72.5 -174.5l-201 -808h-431z" />
    <glyph glyph-name="o" unicode="o" horiz-adv-x="1841" 
d="M114 784q28 112 83 215.5t131 194t169.5 164.5t198 127t216.5 82t226 29q113 0 211 -29t176 -82t134.5 -127t87.5 -164.5t34.5 -194t-24.5 -215.5t-83.5 -216t-131.5 -194t-169.5 -164.5t-198 -127.5t-216.5 -82t-225 -29t-211 29t-176 82t-134.5 127.5t-87.5 164.5
t-34.5 194t24.5 216zM544 785q-22 -88 -10 -165.5t51 -135.5t102.5 -91.5t145.5 -33.5t162 33.5t148.5 91.5t118.5 135.5t72 165.5t10.5 165t-51 134.5t-103 91t-145.5 33.5t-162 -33.5t-148 -91t-118.5 -134.5t-72.5 -165z" />
    <glyph glyph-name="p" unicode="p" horiz-adv-x="1912" 
d="M1313 1580q85 0 165.5 -22t149 -66.5t121 -111.5t81 -156.5t29.5 -202t-33 -247.5q-32 -130 -86.5 -240.5t-125 -199.5t-152.5 -157t-170.5 -114t-179.5 -69t-178 -23q-63 0 -127 13t-121 42.5t-104 77t-77 116.5l-193 -775h-431l528 2118h431l-51 -205
q78 75 154.5 119.5t145.5 67t126.5 29t97.5 6.5zM1132 1212q-70 0 -146 -27.5t-144.5 -80.5t-122.5 -132t-79 -181q-25 -100 -14.5 -182.5t48.5 -141.5t99 -91.5t138 -32.5t153.5 31.5t142.5 89.5t116.5 139.5t75.5 181.5q26 105 16 184.5t-48 133.5t-99 81.5t-136 27.5z
" />
    <glyph glyph-name="q" unicode="q" horiz-adv-x="1912" 
d="M1025 1580q40 0 94.5 -6.5t112 -29t112 -67t95.5 -119.5l51 205h431l-528 -2118h-431l193 775q-65 -69 -135.5 -116.5t-142 -77t-142 -42.5t-133.5 -13q-87 0 -166.5 23t-145 69t-114 114t-74 157t-25.5 199t33 241q34 135 91.5 247.5t130.5 202t158.5 156.5t176 111.5
t182 66.5t176.5 22zM1024 1212q-75 0 -149.5 -27.5t-139.5 -81.5t-115.5 -133.5t-76.5 -184.5q-25 -100 -15 -181.5t47 -139.5t98 -89.5t138 -31.5q76 0 153.5 32.5t145 91.5t119.5 141.5t77 182.5q25 102 10.5 181t-56 132t-104 80.5t-132.5 27.5z" />
    <glyph glyph-name="r" unicode="r" horiz-adv-x="1236" 
d="M1114 1171q-87 0 -166 -39.5t-143 -103.5t-109.5 -146.5t-66.5 -167.5l-179 -716h-431l390 1566h431l-64 -257q58 62 119.5 112t126.5 85.5t134 54.5t141 19q22 0 48 -4q22 -3 49.5 -10t56.5 -20l-183 -407q-20 10 -42 17t-43 10.5t-39 5t-30 1.5z" />
    <glyph glyph-name="s" unicode="s" horiz-adv-x="1386" 
d="M524 -15q-74 0 -148.5 9t-150.5 37.5t-154.5 81.5t-159.5 142l297 314q62 -71 118.5 -114.5t108.5 -66.5t101 -30.5t96 -7.5q34 0 67.5 7.5t61.5 21t47.5 33t25.5 44.5q14 55 -52 94t-190 68q-125 29 -208 75t-128 108t-53.5 141.5t15.5 175.5q19 74 57.5 137.5t92 115.5
t119.5 92t138.5 67.5t150 41.5t153.5 14q75 0 142.5 -11t132.5 -36t130 -66t136 -101l-259 -313q-48 46 -98.5 77.5t-100 50.5t-97 27t-90.5 8q-47 0 -81 -7.5t-56.5 -20.5t-35 -29t-16.5 -32q-7 -27 -0.5 -48t30.5 -39t67.5 -34.5t112.5 -33.5q140 -35 231 -79.5
t139.5 -104t57 -137.5t-15.5 -179q-20 -82 -61 -150.5t-97 -123t-124 -96t-143 -69t-153.5 -41t-155.5 -13.5z" />
    <glyph glyph-name="t" unicode="t" horiz-adv-x="1162" 
d="M516 -14q-96 0 -171.5 24.5t-121 78t-57.5 138.5t18 205l193 774h-186l89 357h186l131 526h431l-131 -526h414l-89 -357h-414l-190 -761q-22 -93 84 -93q35 0 101 16t155 64l13 -319q-52 -32 -109.5 -56t-117 -40t-117.5 -23.5t-111 -7.5z" />
    <glyph glyph-name="u" unicode="u" horiz-adv-x="1836" 
d="M1456 0h-431l54 218q-44 -53 -103.5 -98.5t-126.5 -79t-138 -52.5t-137 -19q-121 0 -213.5 42t-146.5 126t-65 210t31 295l229 921h431l-229 -921q-17 -67 -13.5 -120t25.5 -89.5t61.5 -56t95.5 -19.5q62 0 128 25t125.5 74.5t107 124t72.5 174.5l201 808h431z" />
    <glyph glyph-name="v" unicode="v" horiz-adv-x="1720" 
d="M513 -2l-282 1565h452l120 -986l611 986h494l-1061 -1565h-334z" />
    <glyph glyph-name="w" unicode="w" horiz-adv-x="2395" 
d="M1255 958l-542 -960h-350l-133 1565h441l32 -954l525 954h323l48 -956l510 956h474l-913 -1565h-351z" />
    <glyph glyph-name="x" unicode="x" horiz-adv-x="1758" 
d="M838 479l-444 -479h-553l809 806l-385 757h503l191 -439l409 439h543l-763 -756l408 -807h-513z" />
    <glyph glyph-name="y" unicode="y" horiz-adv-x="1705" 
d="M1405 1563h488l-1085 -1671q-69 -105 -151 -178.5t-166 -119.5t-165 -66.5t-148 -20.5q-51 0 -103 8.5t-100.5 25t-92.5 41t-80 56.5l235 325q16 -17 40.5 -31.5t53 -25.5t59.5 -17.5t61 -6.5q75 0 148 70q32 31 55.5 67t37.5 68l-262 1476h450l121 -1006z" />
    <glyph glyph-name="z" unicode="z" horiz-adv-x="1519" 
d="M-78 270l1016 938h-736l89 357h1357l-68 -270l-1016 -938h780l-89 -357h-1400z" />
    <glyph glyph-name="braceleft" unicode="{" horiz-adv-x="1456" 
d="M909 -606q-135 21 -237 59.5t-175 89.5t-118.5 112.5t-67.5 129t-22.5 139.5t17.5 144q29 114 65 227.5t65 233.5q15 58 13.5 104.5t-23 78t-66 48.5t-115.5 17h-105l75 298h105q71 0 124 17t90.5 49.5t61.5 78.5t39 104q28 112 48.5 225t50.5 233q27 108 98 215t188 199
t279 161.5t370 101.5l2 -295q-135 -27 -228 -66t-154.5 -89.5t-96.5 -112.5t-53 -135q-28 -111 -48 -222.5t-49 -228.5q-35 -140 -114 -233.5t-194 -150.5q88 -57 119.5 -150.5t-2.5 -233.5q-28 -111 -63.5 -221.5t-65.5 -229.5q-18 -73 -14 -135t40.5 -112.5t110 -90
t194.5 -67.5l-144 -292v0z" />
    <glyph glyph-name="bar" unicode="|" horiz-adv-x="929" 
d="M690 2392h381l-686 -2752h-381z" />
    <glyph glyph-name="braceright" unicode="}" horiz-adv-x="1456" 
d="M-115 -314q135 28 228.5 67.5t155 90t96.5 112.5t53 135q30 118 49.5 229.5t47.5 221.5q35 141 112.5 234t194.5 150q-43 28 -73 65.5t-45.5 85t-15 105.5t17.5 128q29 117 65 228.5t64 222.5q18 73 14 135t-40.5 112.5t-110.5 89.5t-195 66l150 295q192 -32 319 -101.5
t197.5 -161.5t89 -199t-8.5 -215q-30 -121 -65.5 -233.5t-63.5 -224.5q-15 -58 -13.5 -104t23 -78.5t66 -49.5t115.5 -17h105l-75 -298h-105q-71 0 -124 -17t-90.5 -48.5t-61.5 -78t-39 -104.5q-29 -119 -50.5 -233.5t-49.5 -227.5q-27 -108 -94.5 -214.5t-182.5 -198
t-279 -160.5t-383 -101z" />
    <glyph glyph-name="asciitilde" unicode="~" horiz-adv-x="1567" 
d="M1013 699q-26 0 -63.5 8.5t-80 21t-87.5 27t-86.5 27t-76 21t-56.5 8.5q-17 0 -37 -8.5t-40 -27t-39.5 -47t-35.5 -68.5l-272 79q56 112 120 190.5t130.5 127t131.5 70.5t124 22t116 -17t113 -38t112 -38t112 -17q12 0 30.5 7t39.5 24t42.5 45.5t40.5 70.5l273 -80
q-57 -112 -122 -189.5t-131.5 -126t-132.5 -70.5t-125 -22z" />
    <glyph glyph-name="saraileftthai" 
d="M-1649 2256h1170l-74 -298h-1170z" />
    <glyph glyph-name="saraileftthai" unicode="&#xf701;" 
d="M-1649 2256h1170l-74 -298h-1170z" />
    <glyph glyph-name="saraiileftthai" 
d="M-1649 2256h762l57 230h408l-131 -528h-1170z" />
    <glyph glyph-name="saraiileftthai" unicode="&#xf702;" 
d="M-1649 2256h762l57 230h408l-131 -528h-1170z" />
    <glyph glyph-name="saraueleftthai" 
d="M-1722 1958l74 298h665q18 63 51 113t78 85t101.5 54t120.5 19q65 0 112.5 -20t74.5 -56.5t33.5 -89t-9.5 -117.5t-51 -118t-82.5 -90.5t-105.5 -57.5t-119 -20h-943zM-804 2244q-14 -55 2.5 -83t70.5 -28t85 28t45 83q14 54 -3 82.5t-71 28.5t-84.5 -28.5t-44.5 -82.5z
" />
    <glyph glyph-name="saraueleftthai" unicode="&#xf703;" 
d="M-1722 1958l74 298h665q18 63 51 113t78 85t101.5 54t120.5 19q65 0 112.5 -20t74.5 -56.5t33.5 -89t-9.5 -117.5t-51 -118t-82.5 -90.5t-105.5 -57.5t-119 -20h-943zM-804 2244q-14 -55 2.5 -83t70.5 -28t85 28t45 83q14 54 -3 82.5t-71 28.5t-84.5 -28.5t-44.5 -82.5z
" />
    <glyph glyph-name="saraueeleftthai" 
d="M-1649 2256h425l57 230h295l-57 -230h165l57 230h285l-131 -528h-1170z" />
    <glyph glyph-name="saraueeleftthai" unicode="&#xf704;" 
d="M-1649 2256h425l57 230h295l-57 -230h165l57 230h285l-131 -528h-1170z" />
    <glyph glyph-name="maieklowleftthai" 
d="M-1085 1958l128 515h438l-128 -515h-438z" />
    <glyph glyph-name="maieklowleftthai" unicode="&#xf705;" 
d="M-1085 1958l128 515h438l-128 -515h-438z" />
    <glyph glyph-name="maitholowleftthai" 
d="M-336 2504q-36 -77 -93 -151.5t-131.5 -137.5t-164 -112t-191.5 -75q-59 -16 -115.5 -27.5t-106.5 -19t-93 -12.5t-75 -7l-40 -2l-27 176q36 12 68 30q26 16 51.5 40t33.5 57q7 29 -12.5 44.5t-47.5 15.5q-29 0 -60 -7.5t-61 -22.5l-34 192q48 26 93 42t83.5 25t67.5 12
t45 3q54 0 96.5 -13t69.5 -38t36 -62t-3 -84q-11 -45 -27.5 -77t-40.5 -65q63 14 114.5 38.5t92.5 59t74.5 79t60.5 99.5h337z" />
    <glyph glyph-name="maitholowleftthai" unicode="&#xf706;" 
d="M-336 2504q-36 -77 -93 -151.5t-131.5 -137.5t-164 -112t-191.5 -75q-59 -16 -115.5 -27.5t-106.5 -19t-93 -12.5t-75 -7l-40 -2l-27 176q36 12 68 30q26 16 51.5 40t33.5 57q7 29 -12.5 44.5t-47.5 15.5q-29 0 -60 -7.5t-61 -22.5l-34 192q48 26 93 42t83.5 25t67.5 12
t45 3q54 0 96.5 -13t69.5 -38t36 -62t-3 -84q-11 -45 -27.5 -77t-40.5 -65q63 14 114.5 38.5t92.5 59t74.5 79t60.5 99.5h337z" />
    <glyph glyph-name="maitrilowleftthai" 
d="M-1277 2551q62 0 108.5 -23.5t79.5 -63.5q69 46 126 66.5t106 20.5q54 0 86.5 -17t48.5 -45.5t17.5 -65.5t-8.5 -76q-2 -8 -10.5 -30t-23.5 -42q37 24 63.5 56.5t45.5 67t31 67.5t20 59h260q-28 -76 -74.5 -147t-104.5 -133.5t-124.5 -114t-132.5 -89t-129 -58
t-114 -20.5q-12 0 -22.5 -1t-28.5 1l-7 167q19 7 39.5 17t39 25t33 35.5t21.5 49.5q5 21 2 35.5t-9.5 23.5t-14.5 13t-12 4q-37 0 -67 -18.5t-56 -36.5q-12 -7 -26 -15t-26 -8q-16 0 -27 9.5t-21 16.5q-8 8 -17 17.5t-19.5 17t-23 12.5t-27.5 5q-22 0 -44.5 -23t-28.5 -55
q-6 -28 2.5 -46.5t27.5 -29.5q13 -7 30 -9t37 -2l-103 -200q-10 -3 -27 -4t-36 -1q-60 0 -99.5 26t-60.5 69t-23.5 98t12.5 113q16 64 51 116t78.5 89t91.5 57t90 20z" />
    <glyph glyph-name="maitrilowleftthai" unicode="&#xf707;" 
d="M-1277 2551q62 0 108.5 -23.5t79.5 -63.5q69 46 126 66.5t106 20.5q54 0 86.5 -17t48.5 -45.5t17.5 -65.5t-8.5 -76q-2 -8 -10.5 -30t-23.5 -42q37 24 63.5 56.5t45.5 67t31 67.5t20 59h260q-28 -76 -74.5 -147t-104.5 -133.5t-124.5 -114t-132.5 -89t-129 -58
t-114 -20.5q-12 0 -22.5 -1t-28.5 1l-7 167q19 7 39.5 17t39 25t33 35.5t21.5 49.5q5 21 2 35.5t-9.5 23.5t-14.5 13t-12 4q-37 0 -67 -18.5t-56 -36.5q-12 -7 -26 -15t-26 -8q-16 0 -27 9.5t-21 16.5q-8 8 -17 17.5t-19.5 17t-23 12.5t-27.5 5q-22 0 -44.5 -23t-28.5 -55
q-6 -28 2.5 -46.5t27.5 -29.5q13 -7 30 -9t37 -2l-103 -200q-10 -3 -27 -4t-36 -1q-60 0 -99.5 26t-60.5 69t-23.5 98t12.5 113q16 64 51 116t78.5 89t91.5 57t90 20z" />
    <glyph glyph-name="maichattawalowleftthai" 
d="M-1355 2388h287l49 196h288l-49 -196h287l-58 -234h-287l-49 -194h-288l49 194h-287z" />
    <glyph glyph-name="maichattawalowleftthai" unicode="&#xf708;" 
d="M-1355 2388h287l49 196h288l-49 -196h287l-58 -234h-287l-49 -194h-288l49 194h-287z" />
    <glyph glyph-name="thanthakhatlowleftthai" 
d="M-470 2256h-352q-37 0 -63.5 -19.5t-33.5 -45.5q-5 -21 -4 -44.5t25 -55.5l-285 -142q-31 35 -46 74.5t-19.5 76t-1.5 67.5t8 50q19 78 65 132t107.5 88.5t133 50t141.5 15.5h387z" />
    <glyph glyph-name="thanthakhatlowleftthai" unicode="&#xf709;" 
d="M-470 2256h-352q-37 0 -63.5 -19.5t-33.5 -45.5q-5 -21 -4 -44.5t25 -55.5l-285 -142q-31 35 -46 74.5t-19.5 76t-1.5 67.5t8 50q19 78 65 132t107.5 88.5t133 50t141.5 15.5h387z" />
    <glyph glyph-name="maieklowrightthai" 
d="M-365 1958l136 545h437l-136 -545h-437z" />
    <glyph glyph-name="maieklowrightthai" unicode="&#xf70a;" 
d="M-365 1958l136 545h437l-136 -545h-437z" />
    <glyph glyph-name="maitholowrightthai" 
d="M303 2504q-36 -77 -98 -151.5t-141.5 -137.5t-173.5 -112t-196 -75q-59 -16 -115.5 -27.5t-106.5 -19t-93 -12.5t-75 -7l-40 -2l-27 176q36 12 68 30q26 16 51.5 40t33.5 57q7 29 -12.5 44.5t-47.5 15.5q-29 0 -60 -7.5t-61 -22.5l-34 192q48 26 93 42t83.5 25t67.5 12
t45 3q54 0 96.5 -13t69.5 -38t36 -62t-3 -84q-11 -45 -27.5 -77t-40.5 -65q128 29 222 97.5t149 178.5h337z" />
    <glyph glyph-name="maitholowrightthai" unicode="&#xf70b;" 
d="M303 2504q-36 -77 -98 -151.5t-141.5 -137.5t-173.5 -112t-196 -75q-59 -16 -115.5 -27.5t-106.5 -19t-93 -12.5t-75 -7l-40 -2l-27 176q36 12 68 30q26 16 51.5 40t33.5 57q7 29 -12.5 44.5t-47.5 15.5q-29 0 -60 -7.5t-61 -22.5l-34 192q48 26 93 42t83.5 25t67.5 12
t45 3q54 0 96.5 -13t69.5 -38t36 -62t-3 -84q-11 -45 -27.5 -77t-40.5 -65q128 29 222 97.5t149 178.5h337z" />
    <glyph glyph-name="maitrilowrightthai" 
d="M-612 2551q65 0 114 -23.5t83 -64.5q73 47 132.5 67.5t110.5 20.5q55 0 91 -17.5t54.5 -46t21 -65.5t-7.5 -76q-6 -23 -14.5 -39.5t-26.5 -39.5q38 24 69 57.5t54 69.5t38.5 70.5t23.5 60.5h261q-28 -76 -77 -147.5t-110.5 -134.5t-131.5 -115.5t-140 -90t-136 -58
t-119 -20.5q-13 0 -23.5 -1t-30.5 1l-9 168q19 7 40.5 17t41 25t35 36t22.5 50q5 21 1.5 35.5t-11 23.5t-15.5 13.5t-12 4.5q-38 0 -69 -19t-59 -37q-12 -7 -27 -15t-28 -8q-17 0 -28.5 9.5t-20.5 16.5q-9 8 -18.5 17.5t-20.5 17.5t-24 13t-29 5q-12 0 -24 -6.5t-22.5 -17.5
t-19 -25t-11.5 -30q-6 -28 3.5 -47t29.5 -30q13 -7 31 -9t39 -2l-106 -201q-10 -3 -28 -4t-38 -1q-62 0 -103.5 26t-64 69.5t-25.5 98.5t12 114q16 64 52 116.5t81 89.5t95 57.5t94 20.5z" />
    <glyph glyph-name="maitrilowrightthai" unicode="&#xf70c;" 
d="M-612 2551q65 0 114 -23.5t83 -64.5q73 47 132.5 67.5t110.5 20.5q55 0 91 -17.5t54.5 -46t21 -65.5t-7.5 -76q-6 -23 -14.5 -39.5t-26.5 -39.5q38 24 69 57.5t54 69.5t38.5 70.5t23.5 60.5h261q-28 -76 -77 -147.5t-110.5 -134.5t-131.5 -115.5t-140 -90t-136 -58
t-119 -20.5q-13 0 -23.5 -1t-30.5 1l-9 168q19 7 40.5 17t41 25t35 36t22.5 50q5 21 1.5 35.5t-11 23.5t-15.5 13.5t-12 4.5q-38 0 -69 -19t-59 -37q-12 -7 -27 -15t-28 -8q-17 0 -28.5 9.5t-20.5 16.5q-9 8 -18.5 17.5t-20.5 17.5t-24 13t-29 5q-12 0 -24 -6.5t-22.5 -17.5
t-19 -25t-11.5 -30q-6 -28 3.5 -47t29.5 -30q13 -7 31 -9t39 -2l-106 -201q-10 -3 -28 -4t-38 -1q-62 0 -103.5 26t-64 69.5t-25.5 98.5t12 114q16 64 52 116.5t81 89.5t95 57.5t94 20.5z" />
    <glyph glyph-name="maichattawalowrightthai" 
d="M-625 2388h287l49 196h287l-49 -196h287l-58 -234h-287l-49 -194h-287l49 194h-287z" />
    <glyph glyph-name="maichattawalowrightthai" unicode="&#xf70d;" 
d="M-625 2388h287l49 196h287l-49 -196h287l-58 -234h-287l-49 -194h-287l49 194h-287z" />
    <glyph glyph-name="thanthakhatlowrightthai" 
d="M207 2207h-364q-38 0 -65.5 -20t-34.5 -48q-3 -11 -4.5 -22t0 -23.5t7.5 -27t19 -30.5l-295 -147q-32 36 -47.5 76.5t-20 78.5t-1 70t8.5 52q20 80 67 136.5t110.5 92t137 51.5t145.5 16h400z" />
    <glyph glyph-name="thanthakhatlowrightthai" unicode="&#xf70e;" 
d="M207 2207h-364q-38 0 -65.5 -20t-34.5 -48q-3 -11 -4.5 -22t0 -23.5t7.5 -27t19 -30.5l-295 -147q-32 36 -47.5 76.5t-20 78.5t-1 70t8.5 52q20 80 67 136.5t110.5 92t137 51.5t145.5 16h400z" />
    <glyph glyph-name="maihanakatleftthai" 
d="M311 2256l-74 -298h-1052q-112 0 -180.5 29t-104 74.5t-42 100.5t6.5 107l55 218h375l-31 -122q-27 -109 119 -109h928z" />
    <glyph glyph-name="maihanakatleftthai" unicode="&#xf710;" 
d="M311 2256l-74 -298h-1052q-112 0 -180.5 29t-104 74.5t-42 100.5t6.5 107l55 218h375l-31 -122q-27 -109 119 -109h928z" />
    <glyph glyph-name="nikhahitleftthai" 
d="M-1157 2247q16 63 58.5 118.5t103 96.5t134 64.5t150.5 23.5q76 0 137 -23.5t101 -64.5t55 -96.5t-1 -118.5t-58.5 -117.5t-102.5 -95.5t-132.5 -64.5t-148.5 -23.5q-77 0 -138.5 23.5t-102 64.5t-56 95.5t0.5 117.5zM-913 2243q-11 -45 13 -76.5t78 -31.5q27 0 51 8.5
t43.5 23.5t32.5 34.5t19 41.5q11 45 -14 76t-79 31q-27 0 -50.5 -8.5t-42.5 -23t-32.5 -34t-18.5 -41.5z" />
    <glyph glyph-name="nikhahitleftthai" unicode="&#xf711;" 
d="M-1157 2247q16 63 58.5 118.5t103 96.5t134 64.5t150.5 23.5q76 0 137 -23.5t101 -64.5t55 -96.5t-1 -118.5t-58.5 -117.5t-102.5 -95.5t-132.5 -64.5t-148.5 -23.5q-77 0 -138.5 23.5t-102 64.5t-56 95.5t0.5 117.5zM-913 2243q-11 -45 13 -76.5t78 -31.5q27 0 51 8.5
t43.5 23.5t32.5 34.5t19 41.5q11 45 -14 76t-79 31q-27 0 -50.5 -8.5t-42.5 -23t-32.5 -34t-18.5 -41.5z" />
    <glyph glyph-name="maitaikhuleftthai" 
d="M-1164 1951q-74 1 -135.5 22.5t-103 61t-57.5 96t2 127.5q19 75 65 138t120 108.5t175.5 71t231.5 25.5q25 0 57.5 -3t63.5 -7t55.5 -8.5t33.5 -8.5l130 149h336l-326 -363q-37 14 -82.5 25.5t-96 19.5t-104 12.5t-105.5 4.5q-94 0 -161.5 -40.5t-87.5 -118.5
q-5 -18 -5 -35.5t5 -32.5t15 -26t25 -14l209 96q22 -50 56.5 -73.5t66.5 -23.5q26 0 40.5 19t22.5 41q5 17 3 33t-4 26h276q2 -21 1.5 -43.5t-7.5 -48.5q-12 -47 -43 -89.5t-75 -74t-96.5 -50t-106.5 -17.5q-43 0 -73 6.5t-53.5 17.5t-43.5 28t-42 38z" />
    <glyph glyph-name="maitaikhuleftthai" unicode="&#xf712;" 
d="M-1164 1951q-74 1 -135.5 22.5t-103 61t-57.5 96t2 127.5q19 75 65 138t120 108.5t175.5 71t231.5 25.5q25 0 57.5 -3t63.5 -7t55.5 -8.5t33.5 -8.5l130 149h336l-326 -363q-37 14 -82.5 25.5t-96 19.5t-104 12.5t-105.5 4.5q-94 0 -161.5 -40.5t-87.5 -118.5
q-5 -18 -5 -35.5t5 -32.5t15 -26t25 -14l209 96q22 -50 56.5 -73.5t66.5 -23.5q26 0 40.5 19t22.5 41q5 17 3 33t-4 26h276q2 -21 1.5 -43.5t-7.5 -48.5q-12 -47 -43 -89.5t-75 -74t-96.5 -50t-106.5 -17.5q-43 0 -73 6.5t-53.5 17.5t-43.5 28t-42 38z" />
    <glyph glyph-name="maiekupperleftthai" 
d="M-816 2643l108 431h433l-108 -431h-433z" />
    <glyph glyph-name="maiekupperleftthai" unicode="&#xf713;" 
d="M-816 2643l108 431h433l-108 -431h-433z" />
    <glyph glyph-name="maithoupperleftthai" 
d="M18 3138q-33 -72 -89.5 -141t-129.5 -129t-159.5 -106t-180.5 -71q-53 -14 -103.5 -23.5t-96 -16.5t-84 -11.5t-67.5 -7.5l-39 -2l-21 164q33 12 61 29q24 14 46 36t30 53q3 14 -0.5 25.5t-12 20t-20 13t-23.5 4.5q-27 0 -53.5 -6.5t-55.5 -20.5l-29 172q43 25 85 39.5
t77 22.5t61.5 10.5t39.5 2.5q49 0 87.5 -12t63 -35t33 -57t-2.5 -79q-20 -86 -79 -148q66 11 125.5 34.5t109.5 58t89.5 80t63.5 101.5h274z" />
    <glyph glyph-name="maithoupperleftthai" unicode="&#xf714;" 
d="M18 3138q-33 -72 -89.5 -141t-129.5 -129t-159.5 -106t-180.5 -71q-53 -14 -103.5 -23.5t-96 -16.5t-84 -11.5t-67.5 -7.5l-39 -2l-21 164q33 12 61 29q24 14 46 36t30 53q3 14 -0.5 25.5t-12 20t-20 13t-23.5 4.5q-27 0 -53.5 -6.5t-55.5 -20.5l-29 172q43 25 85 39.5
t77 22.5t61.5 10.5t39.5 2.5q49 0 87.5 -12t63 -35t33 -57t-2.5 -79q-20 -86 -79 -148q66 11 125.5 34.5t109.5 58t89.5 80t63.5 101.5h274z" />
    <glyph glyph-name="maitriupperleftthai" 
d="M-719 3139q57 0 98.5 -21.5t72.5 -53.5q63 39 113.5 57t95.5 18q48 0 79.5 -14.5t48.5 -39t20.5 -56t-4.5 -64.5q-3 -9 -5.5 -16t-6 -14t-8.5 -14.5t-14 -17.5q33 22 62.5 49.5t52.5 56.5t38.5 57t22.5 50h199q-24 -64 -65.5 -124t-94 -113t-112.5 -97.5t-120.5 -76
t-117.5 -49t-103 -17.5q-11 0 -19.5 -1t-25.5 1l-8 141q16 5 34.5 13.5t35.5 22t30 31.5t19 43q4 17 0.5 29t-9.5 19.5t-13 11t-10 3.5q-33 0 -60 -15.5t-52 -29.5q-9 -6 -22 -13.5t-24 -7.5q-15 0 -25 8.5t-17 14.5q-17 14 -34.5 28.5t-46.5 14.5q-10 0 -20.5 -5.5
t-19.5 -14.5t-15.5 -21t-9.5 -25q-5 -23 3 -39t25 -25q13 -7 28.5 -9t32.5 -2l-90 -169q-9 -2 -24.5 -3t-31.5 -1q-54 0 -90.5 22.5t-56 59t-22.5 83.5t10 96q13 54 44 98t70 75.5t81.5 48.5t80.5 17z" />
    <glyph glyph-name="maitriupperleftthai" unicode="&#xf715;" 
d="M-719 3139q57 0 98.5 -21.5t72.5 -53.5q63 39 113.5 57t95.5 18q48 0 79.5 -14.5t48.5 -39t20.5 -56t-4.5 -64.5q-3 -9 -5.5 -16t-6 -14t-8.5 -14.5t-14 -17.5q33 22 62.5 49.5t52.5 56.5t38.5 57t22.5 50h199q-24 -64 -65.5 -124t-94 -113t-112.5 -97.5t-120.5 -76
t-117.5 -49t-103 -17.5q-11 0 -19.5 -1t-25.5 1l-8 141q16 5 34.5 13.5t35.5 22t30 31.5t19 43q4 17 0.5 29t-9.5 19.5t-13 11t-10 3.5q-33 0 -60 -15.5t-52 -29.5q-9 -6 -22 -13.5t-24 -7.5q-15 0 -25 8.5t-17 14.5q-17 14 -34.5 28.5t-46.5 14.5q-10 0 -20.5 -5.5
t-19.5 -14.5t-15.5 -21t-9.5 -25q-5 -23 3 -39t25 -25q13 -7 28.5 -9t32.5 -2l-90 -169q-9 -2 -24.5 -3t-31.5 -1q-54 0 -90.5 22.5t-56 59t-22.5 83.5t10 96q13 54 44 98t70 75.5t81.5 48.5t80.5 17z" />
    <glyph glyph-name="maichattawaupperleftthai" 
d="M-917 3027h231l45 178h271l-45 -178h231l-51 -204h-231l-44 -177h-271l44 177h-231z" />
    <glyph glyph-name="maichattawaupperleftthai" unicode="&#xf716;" 
d="M-917 3027h231l45 178h271l-45 -178h231l-51 -204h-231l-44 -177h-271l44 177h-231z" />
    <glyph glyph-name="thanthakhatupperleftthai" 
d="M-62 2695h-392q-38 0 -64 -20t-33 -47q-5 -21 -4 -44t24 -55l-262 -140q-31 35 -45.5 74t-19 75t-1.5 66.5t8 48.5q19 78 64 127.5t101 77.5t115.5 38.5t108.5 10.5h453z" />
    <glyph glyph-name="thanthakhatupperleftthai" unicode="&#xf717;" 
d="M-62 2695h-392q-38 0 -64 -20t-33 -47q-5 -21 -4 -44t24 -55l-262 -140q-31 35 -45.5 74t-19 75t-1.5 66.5t8 48.5q19 78 64 127.5t101 77.5t115.5 38.5t108.5 10.5h453z" />
    <glyph glyph-name="uni00A0" unicode="&#xa0;" horiz-adv-x="1024" 
 />
    <glyph glyph-name="cent" unicode="&#xa2;" horiz-adv-x="1753" 
d="M715 227q-85 14 -162 46.5t-140 82t-110 116.5t-72.5 150.5t-26.5 183t28 214.5q40 159 126.5 295t204.5 240t259 171.5t290 91.5l91 365h273l-90 -360q74 -9 135.5 -28.5t113.5 -51.5t96 -76.5t83 -103.5l-336 -289q-44 73 -90 110.5t-98 52.5l-207 -830
q61 17 132.5 56.5t160.5 117.5l197 -262q-83 -75 -158.5 -127.5t-147.5 -87.5t-141.5 -54t-138.5 -27l-71 -284h-273zM664 1025q-21 -83 -17 -149.5t26 -117t58.5 -85.5t81.5 -55l201 806q-57 -21 -111.5 -57.5t-101 -87t-82.5 -114.5t-55 -140z" />
    <glyph glyph-name="sterling" unicode="&#xa3;" horiz-adv-x="1825" 
d="M492 1444q37 151 118.5 277t197 217t260 142t307.5 51q97 0 186.5 -25.5t166.5 -71.5t139 -108.5t105 -137.5l-330 -261q-21 37 -52.5 77t-76.5 72.5t-104 53.5t-134 21q-64 -5 -118.5 -30.5t-97 -66.5t-72 -94t-44.5 -113l-58 -235h731l-94 -374h-731l-71 -285
q-11 -47 -41 -90.5t-88 -81.5h1005l-94 -381h-1575l76 307q25 6 65 25t80 50t73.5 73.5t46.5 93.5l72 289h-198l94 374h198z" />
    <glyph glyph-name="yen" unicode="&#xa5;" horiz-adv-x="2233" 
d="M1259 382l-95 -382h-454l95 382h-590l82 330h590l30 120l-18 43h-561l82 329h344l-379 919h532l332 -870l767 870h531l-837 -919h343l-82 -329h-561l-39 -43l-30 -120h589l-82 -330h-589z" />
    <glyph glyph-name="copyright" unicode="&#xa9;" horiz-adv-x="2506" 
d="M247 1066q37 150 111 289.5t175.5 261t226 221t263.5 170.5t288 110t300 39q150 0 280 -39t233.5 -110t178 -170.5t115.5 -221t45 -261t-33 -289.5q-38 -151 -111.5 -290.5t-175 -260.5t-225.5 -221t-263 -171t-288.5 -110t-299.5 -39q-151 0 -280.5 39t-233.5 110
t-178.5 171t-115.5 221t-45.5 260.5t33.5 290.5zM1211 474q-118 0 -207 43t-142 120.5t-66.5 186t19.5 240.5l3 14q33 131 102.5 240t163 187.5t204.5 122t227 43.5q66 0 120 -14t99 -41.5t82.5 -67.5t69.5 -92l-217 -202q-17 34 -39 64t-49 51.5t-59.5 34t-69.5 12.5
q-62 0 -120 -24.5t-106.5 -68.5t-84.5 -106t-55 -137l-4 -15q-19 -75 -13 -137t32.5 -106.5t72.5 -68.5t107 -24q31 0 67.5 5.5t76 21.5t81 44t82.5 72l98 -188q-115 -102 -235.5 -156t-239.5 -54zM507 1059q-29 -114 -25.5 -220.5t34.5 -198.5t88 -168t136 -130
t177.5 -83.5t213.5 -29.5q114 0 227.5 29.5t219 83.5t200.5 130t172 168t133 198t85 221q28 114 25 220.5t-34.5 198.5t-88.5 168t-135.5 130t-177.5 83.5t-213 29.5q-115 0 -228 -29.5t-219 -83.5t-200.5 -130t-171.5 -168t-133.5 -198.5t-84.5 -220.5z" />
    <glyph glyph-name="guillemotleft" unicode="&#xab;" horiz-adv-x="1842" 
d="M933 1551l218 -225l-563 -526l301 -526l-331 -226l-426 753zM1676 1551l218 -225l-563 -526l301 -526l-331 -226l-426 753z" />
    <glyph glyph-name="registered" unicode="&#xae;" horiz-adv-x="2507" 
d="M247 1066q37 150 111 289.5t175.5 261t226 221t263.5 170.5t288 110t300 39q150 0 280 -39t233.5 -110t178 -170.5t115.5 -221t45 -261t-33 -289.5q-38 -151 -111.5 -290.5t-175 -260.5t-225.5 -221t-263 -171t-288.5 -110t-299.5 -39q-151 0 -280.5 39t-233.5 110
t-178.5 171t-115.5 221t-45.5 260.5t33.5 290.5zM507 1059q-29 -114 -25.5 -220.5t34.5 -198.5t88 -168t136 -130t177.5 -83.5t213.5 -29.5q114 0 227.5 29.5t219 83.5t200.5 130t172 168t133 198t85 221q28 114 25 220.5t-34.5 198.5t-88.5 168t-135.5 130t-177.5 83.5
t-213 29.5q-115 0 -228 -29.5t-219 -83.5t-200.5 -130t-171.5 -168t-133.5 -198.5t-84.5 -220.5zM1076 1655h482q81 0 143.5 -24t100 -71t48 -117t-12.5 -161q-15 -60 -41 -109.5t-59.5 -90.5t-74.5 -73.5t-86 -56.5l128 -441h-283l-102 382h-189l-95 -382h-244zM1412 1124
q68 0 113.5 40t62.5 106q18 72 -10.5 108t-93.5 36h-224l-72 -290h224z" />
    <glyph glyph-name="guillemotright" unicode="&#xbb;" horiz-adv-x="1842" 
d="M1748 801l-802 -753l-217 226l563 526l-301 526l330 225zM1005 801l-802 -753l-217 226l563 526l-301 526l330 225z" />
    <glyph glyph-name="onequarter" unicode="&#xbc;" horiz-adv-x="2368" 
d="M1970 2h-315l48 192h-506l17 215l733 715h303l-172 -690h125l-60 -240h-125zM1838 729l-316 -298h242zM143 817l64 256h286l133 534l-232 -97l-31 247l440 180h214l-215 -864h252l-64 -256h-847zM2116 1939h286l-1761 -1961h-285z" />
    <glyph glyph-name="onehalf" unicode="&#xbd;" horiz-adv-x="2431" 
d="M83 817l64 256h286l133 534l-232 -97l-31 247l440 180h214l-215 -864h252l-64 -256h-847zM2056 1939h286l-1761 -1961h-285zM1314 176l516 366q39 28 72 53t59 50t43.5 51t24.5 55q3 13 5 31.5t-5.5 35.5t-29 29.5t-64.5 12.5q-48 0 -89 -17t-73.5 -41.5t-56 -51.5
t-37.5 -47l-203 156q61 66 121.5 116t125.5 84t136.5 51.5t153.5 17.5q88 0 158.5 -23.5t115.5 -68t61.5 -109t-4.5 -145.5q-18 -71 -56.5 -130t-92.5 -110t-120.5 -97.5t-141.5 -93.5l-150 -94h431l-64 -256h-879z" />
    <glyph glyph-name="threequarters" unicode="&#xbe;" horiz-adv-x="2276" 
d="M563 809q-59 0 -117.5 12t-110 38t-94.5 66.5t-71 96.5l235 208q21 -43 46 -71.5t52.5 -46t56 -24.5t56.5 -7t55.5 7.5t51 22t40.5 36t24 49.5q12 51 -25 81.5t-122 30.5h-102l-33 143l313 232l-404 1l63 253h791l-43 -176l-321 -244q62 -23 106.5 -53.5t70 -71.5
t31 -92.5t-10.5 -115.5q-20 -80 -71 -148.5t-123 -118.5t-160.5 -79t-183.5 -29zM1860 2h-315l48 192h-506l17 215l733 715h303l-172 -690h125l-60 -240h-125zM1728 729l-316 -298h242zM2006 1939h286l-1761 -1961h-285z" />
    <glyph glyph-name="multiply" unicode="&#xd7;" horiz-adv-x="1652" 
d="M843 794l-451 -368l-188 235l463 375l-275 378l301 235l271 -371l457 371l183 -235l-463 -378l275 -375l-304 -235z" />
    <glyph glyph-name="divide" unicode="&#xf7;" horiz-adv-x="1581" 
d="M786 1576q11 45 38 84t64 68t80.5 46t87.5 17q45 0 80 -17t56.5 -46t28.5 -68t-4 -84q-11 -44 -37.5 -83.5t-63 -69t-79.5 -46.5t-88 -17q-44 0 -79 17t-57.5 46.5t-30 69t3.5 83.5zM305 1202h1208l-86 -346h-1208zM514 483q11 45 38 84t64 68t80.5 46t87.5 17
q45 0 80 -17t56.5 -46t28.5 -68t-4 -84q-11 -44 -37.5 -83.5t-63 -69t-80 -46.5t-88.5 -17q-44 0 -79 17t-57 46.5t-29.5 69t3.5 83.5z" />
    <glyph glyph-name="kokaithai" unicode="&#xe01;" horiz-adv-x="1975" 
d="M1237 1717q149 0 273 -47t204.5 -137.5t109 -223t-14.5 -303.5l-250 -1006h-448l249 1002q17 69 14.5 127t-29 100.5t-77.5 66.5t-130 24q-75 0 -138 -24t-112 -66.5t-83.5 -100.5t-51.5 -127l-249 -1002h-448l250 1006q29 114 81.5 211t123 176t155.5 139.5t179 101.5
t193.5 62t198.5 21z" />
    <glyph glyph-name="khokhaithai" unicode="&#xe02;" horiz-adv-x="1482" 
d="M1261 1700h472l-985 -1700h-370l-143 1700h473l33 -870q1 -18 -3 -53t-10 -72.5t-12 -70.5t-9 -48h2q4 15 14.5 48t22.5 70.5t24.5 72.5t22.5 53z" />
    <glyph glyph-name="khokhuatthai" unicode="&#xe03;" horiz-adv-x="1817" 
d="M597 1172q-20 40 -42 69t-52.5 47.5t-72.5 27t-103 8.5q-16 0 -42.5 -6t-68.5 -17l96 386q18 6 37 9t36 4.5t30 1.5h18q90 0 156.5 -28t111 -70t68.5 -90.5t31 -88.5q47 64 89 275h377q-23 -93 -46.5 -178.5t-55 -162t-74.5 -143t-105 -119.5q-60 -60 -113.5 -114
t-97 -107.5t-76 -110t-49.5 -122.5q-15 -59 -11.5 -108t24.5 -84.5t59 -55.5t94 -20q111 0 188 68.5t110 201.5l263 1055h448l-262 -1054q-23 -92 -68 -176.5t-106.5 -158.5t-138 -134.5t-162.5 -104t-179.5 -67t-189.5 -23.5q-141 0 -251.5 51t-180.5 140.5t-92.5 210.5
t12.5 262q24 96 62 167t88.5 130t111 113t129.5 116z" />
    <glyph glyph-name="khokhwaithai" unicode="&#xe04;" horiz-adv-x="1994" 
d="M1247 1718q99 0 188.5 -21t163.5 -62t130 -101.5t87.5 -139.5t36 -176.5t-24.5 -211.5l-250 -1006h-448l250 1003q17 69 12.5 127t-32.5 100t-80.5 66t-132.5 24q-75 0 -139.5 -24t-115.5 -66t-86 -100t-52 -127l-12 -45h366l-87 -350h-366l-151 -608h-448l250 1006
q29 114 82.5 211.5t125 176.5t158 139.5t181.5 101.5t195 62t199 21z" />
    <glyph glyph-name="khokhonthai" unicode="&#xe05;" horiz-adv-x="2006" 
d="M1074 1021l-268 193l-89 -357h366l-87 -350h-366l-126 -507h-448l423 1700h305l390 -284l535 284h304l-423 -1700h-448l303 1216z" />
    <glyph glyph-name="khorakhangthai" unicode="&#xe06;" horiz-adv-x="1937" 
d="M1008 1097q-58 -50 -112.5 -88.5t-99.5 -77t-78 -82t-48 -102.5l-21 -91q-8 -33 8.5 -80.5t52.5 -91.5t89.5 -75t121.5 -31q45 0 92.5 12t89.5 41t75.5 79t52.5 125l265 1065h448l-266 -1068q-39 -158 -114.5 -279.5t-171 -204t-204 -125t-214.5 -42.5q-79 0 -146.5 25
t-121.5 67t-93 97t-61 114l-70 -284h-444l175 704q18 70 47.5 125.5t66.5 100t78 79.5t80 63.5t73.5 52.5t59.5 47q-20 40 -42 69t-52 47.5t-71.5 27t-102.5 8.5q-16 0 -42.5 -6t-68.5 -17l96 386q18 6 37 9t36 4.5t30 1.5h18q90 0 156.5 -28t111 -70t68.5 -90.5t31 -88.5
q47 64 89 275h377q-23 -93 -46.5 -178.5t-55 -162t-74.5 -143t-105 -119.5z" />
    <glyph glyph-name="ngonguthai" unicode="&#xe07;" horiz-adv-x="1355" 
d="M352 -19q-89 0 -158 23.5t-121.5 62.5t-89.5 90t-61 106.5t-37 112t-18 105.5l375 200q10 -96 30.5 -157t47.5 -95.5t59 -47.5t65 -13q63 0 118 68.5t90 210.5l262 1053h448l-260 -1046q-38 -151 -104 -275t-160 -212.5t-216 -137t-270 -48.5z" />
    <glyph glyph-name="chochanthai" unicode="&#xe08;" horiz-adv-x="1486" 
d="M825 1332q-44 0 -93.5 -12t-104.5 -45t-115.5 -90t-124.5 -147l-297 194q60 104 149.5 193t198 154t232 101.5t251.5 36.5q150 0 269 -40.5t194.5 -118.5t101.5 -192.5t-10 -263.5q-11 -45 -31 -91t-47 -95t-59.5 -100.5t-67.5 -107.5l-449 -708h-422l-267 940h475
l63 -346q7 -38 7.5 -72.5t-4.5 -76.5h5q15 41 30.5 81t32.5 65q39 58 82.5 122t83 129.5t71 130.5t46.5 126q14 57 3.5 100.5t-38.5 73t-71 44.5t-94 15z" />
    <glyph glyph-name="chochingthai" unicode="&#xe09;" horiz-adv-x="1905" 
d="M1127 1717q168 0 299.5 -51t213 -149t106.5 -240.5t-21 -326.5l-236 -950h-448l67 270q-62 -65 -134.5 -118.5t-149.5 -91.5t-155 -58.5t-149 -20.5q-108 0 -193 41t-136.5 122t-63 202t28.5 282l78 313h448l-72 -288q-20 -79 -16.5 -132t26 -85t62 -45.5t93.5 -13.5
q66 0 137 25t132.5 69t108 103t63.5 128l61 248q23 91 12 160.5t-46.5 116t-91.5 70t-123 23.5q-56 0 -119.5 -10t-136.5 -40t-155.5 -86.5t-176.5 -149.5l-215 286q114 117 233 193.5t235.5 122t227 63.5t206.5 18z" />
    <glyph glyph-name="chochangthai" unicode="&#xe0a;" horiz-adv-x="1723" 
d="M767 928q-53 -46 -87.5 -80t-57 -64.5t-36 -62.5t-24.5 -74q-13 -51 -5 -98t34 -82.5t70 -56.5t103 -21q58 0 112.5 20.5t98.5 55.5t75.5 81.5t44.5 97.5q12 48 14 95t-14.5 86t-54.5 64.5t-106 30.5l66 267l460 513h478l-515 -570q32 -32 63 -78t50.5 -106t22.5 -134.5
t-19 -165.5q-23 -92 -69.5 -176.5t-111 -158.5t-144.5 -134.5t-169.5 -104t-186.5 -67t-195 -23.5q-99 0 -183.5 23.5t-152.5 67t-117 104t-76.5 134.5t-31 158.5t19.5 176.5q23 94 62 167.5t85.5 131.5t98 102t100.5 79q25 18 52 35.5t51 36t41 38.5t23 43q8 33 -11.5 50
t-49.5 17q-44 -2 -106.5 -31t-145.5 -100l-102 298q64 50 131.5 87t133 61t125.5 35t110 11q94 -5 160 -35t104 -79.5t48.5 -114.5t-7.5 -141q-15 -62 -32 -112t-45.5 -96.5t-72 -94.5t-109.5 -106z" />
    <glyph glyph-name="sosothai" unicode="&#xe0b;" horiz-adv-x="1744" 
d="M781 936q-50 -48 -83.5 -83.5t-55 -67t-35 -64t-24.5 -74.5q-13 -51 -5 -98t34 -82.5t70 -56.5t103 -21q58 0 112.5 20.5t98.5 55.5t75.5 81.5t44.5 97.5q12 48 14 95t-14.5 86t-54.5 64.5t-106 30.5l66 267l460 513h478l-515 -570q32 -32 63 -78t50.5 -106t22.5 -134.5
t-19 -165.5q-23 -92 -69.5 -176.5t-111 -158.5t-144.5 -134.5t-169.5 -104t-186.5 -67t-195 -23.5q-99 0 -183.5 23.5t-152.5 67t-117 104t-76.5 134.5t-31 158.5t19.5 176.5q14 58 36 106t49.5 89t58.5 75.5t64 65.5l54 50t51.5 48.5t44.5 43.5t32 36q-8 24 -21 53
t-38 53.5t-65 41t-101 16.5q-16 0 -48 -3.5t-74 -14.5l96 386q13 3 30 5t34 3t33 1.5t27 0.5q72 0 126.5 -25t93.5 -65.5t62.5 -91t32.5 -101.5q13 19 22.5 37t17.5 38.5t14.5 43.5t13.5 51l25 111h373q-25 -125 -70.5 -256.5t-125.5 -255.5q-22 -34 -43 -63.5t-46 -59.5
t-54.5 -61t-67.5 -68z" />
    <glyph glyph-name="chochoethai" unicode="&#xe0c;" horiz-adv-x="2745" 
d="M1322 1055q19 78 9 130.5t-42 85t-83.5 46.5t-114.5 14q-52 0 -100.5 -9.5t-92 -25.5t-82 -38t-69.5 -46l164 -230q-78 -47 -136.5 -93t-101 -97t-70.5 -109t-45 -128q-7 -29 -12 -64t-1 -66t21.5 -52t56.5 -21q32 0 77 10t90 42l99 -270q-55 -42 -106 -70t-103.5 -45
t-108.5 -24.5t-121 -7.5q-106 0 -183.5 42t-123 113.5t-57.5 164.5t14 195q34 137 112 264t206 240l-176 232q38 46 88.5 99.5t114 106.5t140.5 102.5t167.5 87.5t194.5 60.5t223 22.5q93 0 181.5 -18.5t164 -56t135 -94.5t94 -134t41 -174.5t-23.5 -216.5l-90 -359
q-8 -43 3 -92.5t36 -92t61.5 -71t78.5 -28.5q31 0 57.5 12.5t49 40.5t41.5 73t35 110l270 1084h448l-271 -1088q-38 -151 -91.5 -267.5t-125.5 -196t-162 -120.5t-201 -41q-65 0 -120.5 28t-98.5 69t-71.5 87.5t-40.5 84.5l-63 -256h-448z" />
    <glyph glyph-name="yoyingthai" unicode="&#xe0d;" horiz-adv-x="2685" 
d="M242 1238q38 46 88.5 99.5t114 106.5t140.5 102.5t167.5 87.5t194.5 60.5t223 22.5q93 0 180 -18.5t161 -56t130.5 -94.5t89 -134t37.5 -174.5t-25 -216.5l-52 -207q-16 -63 -10.5 -105.5t24 -67.5t46 -35.5t57.5 -10.5q28 0 59.5 10.5t61 35.5t54.5 67.5t41 105.5
l220 884h448l-216 -868q-27 -109 -75 -197t-110 -156t-134.5 -117t-148.5 -80.5t-151.5 -46.5t-144.5 -15t-138 15t-130 46.5t-109.5 80.5t-77 117t-33.5 155.5t23 197.5l56 223q19 78 12 130.5t-35.5 85t-77 46.5t-111.5 14q-52 0 -100.5 -9.5t-92 -25.5t-82 -38t-69.5 -46
l164 -230q-78 -47 -136.5 -93t-101 -97t-70.5 -109t-45 -128q-7 -29 -9 -64t6 -66t28.5 -52t59.5 -21q32 0 67.5 10t79.5 42l79 -270q-55 -42 -106 -70t-103.5 -45t-108.5 -24.5t-121 -7.5q-106 0 -180 42t-116 113.5t-51 164.5t17 195q34 137 112 264t206 240zM1091 142
h1188l-93 -372h-1188z" />
    <glyph glyph-name="dochadathai" unicode="&#xe0e;" horiz-adv-x="1958" 
d="M1411 -523h-592l-269 150l-464 -200l-86 266l638 281l328 -167h79l299 1196q19 78 7.5 137.5t-46.5 100t-89 61.5t-118 22q-40 1 -84 -6.5t-88.5 -22.5t-87 -37t-78.5 -50q40 -56 61 -121.5t27 -130t0.5 -124t-16.5 -103.5q-29 -117 -78.5 -227t-124 -209t-177.5 -185
t-239 -155l-205 290q98 65 164.5 126t110 120.5t68 117.5t39.5 117q14 55 14 118.5t-18.5 128t-58 126.5t-105.5 113q106 119 219.5 213t236.5 159.5t255 100.5t274 35q156 0 283 -47t208.5 -137.5t109 -223t-15.5 -304.5z" />
    <glyph glyph-name="topatakthai" unicode="&#xe0f;" horiz-adv-x="1958" 
d="M860 -523l-209 120l-257 -148l-368 149l202 285l221 -89l293 156l242 -143h61l299 1196q19 78 7.5 137.5t-46.5 100t-89 61.5t-118 22q-40 1 -84 -6.5t-88.5 -22.5t-87 -37t-78.5 -50q40 -56 61.5 -121.5t29 -130t3 -124t-15.5 -103.5q-29 -117 -79.5 -227t-126 -209
t-179.5 -185t-240 -155l-205 290q98 65 165.5 126t112 120.5t70 117.5t40.5 117q14 55 13 118.5t-20.5 128t-60 126.5t-106.5 113q106 119 219.5 213t236.5 159.5t255 100.5t274 35q156 0 283 -47t208.5 -137.5t109 -223t-15.5 -304.5l-381 -1529h-551z" />
    <glyph glyph-name="thothanthai" unicode="&#xe10;" horiz-adv-x="1584" 
d="M478 -445q-34 -32 -73 -54t-78.5 -35t-77 -18.5t-68.5 -5.5q-92 0 -158.5 37t-104 103t-45 157t19.5 199h315q-11 -45 -7 -77t18 -52.5t34.5 -29.5t43.5 -9q21 0 45.5 9t47 29.5t42 52.5t30.5 77h223q-11 -45 -8 -77t16 -52.5t32.5 -29.5t40.5 -9q22 0 48 9t50 29.5
t44 52.5t31 77h315q-27 -108 -80 -199t-123.5 -157t-156 -103t-176.5 -37q-31 0 -66 5.5t-67.5 18.5t-60.5 35t-46 54zM1755 1718l-89 -356h-233q25 -33 39 -70.5t19.5 -75t3 -72t-8.5 -61.5q-11 -45 -28 -88.5t-40.5 -88.5t-53.5 -94t-66 -104l-459 -708h-422l-267 940h475
l63 -346q7 -38 7.5 -72.5t-4.5 -76.5h5q15 41 30.5 81t32.5 65q39 58 82.5 122t83 129.5t71 130.5t46.5 126q14 57 3.5 100.5t-38.5 73t-71 44.5t-94 15q-44 0 -93.5 -12t-104.5 -45t-115.5 -90t-124.5 -147l-297 194q60 104 149 192.5t197 153.5t231 102t251 37l-1 1h821z
" />
    <glyph glyph-name="thonangmonthothai" unicode="&#xe11;" horiz-adv-x="2020" 
d="M304 704q26 105 58.5 178.5t67.5 126.5t72.5 91t74.5 72q-20 40 -42 69t-52.5 47.5t-72.5 27t-103 8.5q-16 0 -42.5 -6t-68.5 -17l96 386q18 6 37 9t36 4.5t30 1.5h18q90 0 156.5 -28t111 -70t68.5 -90.5t31 -88.5q47 64 89 275h377q-23 -93 -46.5 -178.5t-55 -162
t-74.5 -143t-105 -119.5q-58 -50 -93 -91t-57 -82t-36 -86.5t-30 -104.5l-15 -62l921 1029h372l-423 -1700h-448l232 931l-850 -931h-409z" />
    <glyph glyph-name="thophuthaothai" unicode="&#xe12;" horiz-adv-x="2842" 
d="M555 849q-22 -87 -28.5 -172.5t10.5 -153t62 -109.5t126 -42q46 0 96 13.5t108 54.5l128 -292q-103 -89 -204 -127.5t-201 -38.5q-109 0 -199.5 32t-159.5 89.5t-116 138.5t-70 179.5t-20 211t33 234.5q30 120 80.5 229.5t117 204.5t147 171.5t171 131.5t188.5 84.5
t199 29.5q55 0 104.5 -12.5t92 -39.5t77 -70t58.5 -105l316 209h342l-258 -1036q-8 -43 5 -92.5t41 -92t66.5 -71t80.5 -28.5q31 0 57.5 12.5t49 40.5t41.5 73t35 110l270 1084h448l-271 -1088q-38 -151 -91.5 -267.5t-125.5 -196t-162 -120.5t-201 -41q-65 0 -122.5 28
t-103 69t-76.5 87.5t-43 84.5l-63 -256h-448l297 1194l-283 -175q-15 57 -34.5 111.5t-45 97t-57.5 68.5t-72 26q-58 0 -117 -35t-111.5 -98t-95 -150t-68.5 -190z" />
    <glyph glyph-name="nonenthai" unicode="&#xe13;" horiz-adv-x="2745" 
d="M1660 616q-16 -65 -19.5 -110t4.5 -73t28 -40.5t52 -12.5q28 0 60.5 13t65.5 35t64.5 51t57.5 60.5t45 63.5t28 61l258 1036h448l-423 -1700h-448l63 256q-30 -38 -82.5 -84.5t-115.5 -87.5t-132.5 -69t-134.5 -28q-111 0 -180.5 41t-102 120.5t-28 196t42.5 267.5
l111 443q19 78 9 130.5t-42 85t-83.5 46.5t-114.5 14q-52 0 -100.5 -9.5t-92 -25.5t-82 -38t-69.5 -46l164 -230q-78 -47 -136.5 -93t-101 -97t-70.5 -109t-45 -128q-7 -29 -12 -64t-1 -66t21.5 -52t56.5 -21q32 0 77 10t90 42l99 -270q-55 -42 -106 -70t-103.5 -45
t-108.5 -24.5t-121 -7.5q-106 0 -183.5 42t-123 113.5t-57.5 164.5t14 195q34 137 112 264t206 240l-176 232q38 46 88.5 99.5t114 106.5t140.5 102.5t167.5 87.5t194.5 60.5t223 22.5q93 0 181.5 -18.5t164 -56t135 -94.5t94 -134t41 -174.5t-23.5 -216.5z" />
    <glyph glyph-name="dodekthai" unicode="&#xe14;" horiz-adv-x="1963" 
d="M652 -18q-108 0 -197.5 33t-158 92.5t-116 142t-70.5 181.5t-21 211t31 230q48 194 148 350t238.5 266t309 169t360.5 59q105 0 200 -20t173.5 -59t138.5 -97t95 -134t41.5 -170t-20.5 -204l-257 -1032h-448l256 1030q17 67 12.5 122t-32.5 94.5t-79 61.5t-127 22
q-90 0 -180 -34.5t-168 -98.5t-137 -154t-87 -201q-14 -56 -20 -113t-3 -110.5t15.5 -100t35.5 -81.5t57.5 -55t82.5 -20q23 0 45 3.5t45 12t49 21.5t58 32l117 -295q-51 -42 -99.5 -71.5t-95.5 -47.5t-94.5 -26.5t-97.5 -8.5z" />
    <glyph glyph-name="totaothai" unicode="&#xe15;" horiz-adv-x="2006" 
d="M1590 0h-448l301 1208l-287 -189q-15 57 -34.5 111.5t-45 97t-57.5 68.5t-72 26q-58 0 -117 -35t-111.5 -98t-95 -150t-68.5 -190q-14 -58 -22 -116t-7 -111t12 -98.5t34.5 -79.5t61 -53t91.5 -19q46 0 96 13.5t108 54.5l128 -292q-103 -89 -204 -127.5t-201 -38.5
q-109 0 -199.5 32t-159.5 89.5t-116 138.5t-70 179.5t-20 211t33 234.5q30 120 80.5 229.5t117 204.5t147 171.5t171 131.5t188.5 84.5t199 29.5q55 0 104.5 -12.5t92 -39.5t77 -70t58.5 -105l316 209h342z" />
    <glyph glyph-name="thothungthai" unicode="&#xe16;" horiz-adv-x="1923" 
d="M1507 0h-448l263 1055q19 78 9 130.5t-42 85t-83.5 46.5t-114.5 14q-52 0 -100.5 -9.5t-92 -25.5t-82 -38t-69.5 -46l164 -230q-78 -47 -136.5 -93t-101 -97t-70.5 -109t-45 -128q-7 -29 -12 -64t-1 -66t21.5 -52t56.5 -21q32 0 77 10t90 42l99 -270q-55 -42 -106 -70
t-103.5 -45t-108.5 -24.5t-121 -7.5q-106 0 -183.5 42t-123 113.5t-57.5 164.5t14 195q34 137 112 264t206 240l-176 232q38 46 88.5 99.5t114 106.5t140.5 102.5t167.5 87.5t194.5 60.5t223 22.5q93 0 181.5 -18.5t164 -56t135 -94.5t94 -134t41 -174.5t-23.5 -216.5z" />
    <glyph glyph-name="thothahanthai" unicode="&#xe17;" horiz-adv-x="1977" 
d="M1479 1719q106 0 188.5 -41.5t131 -124t57.5 -206t-31 -286.5l-264 -1061h-449l263 1057q34 137 -10.5 201t-154.5 64q-45 0 -94 -15t-97 -41.5t-93.5 -62t-82.5 -76.5t-63.5 -85.5t-37.5 -88.5l-237 -953h-449l423 1700h445l-72 -290q94 97 177.5 157.5t159.5 94.5
t147.5 45.5t142.5 11.5z" />
    <glyph glyph-name="thothongthai" unicode="&#xe18;" horiz-adv-x="1723" 
d="M588 514q-12 -48 6.5 -77t54 -44t81.5 -20t90 -5q47 1 89.5 13.5t76 33.5t57.5 50t33 63q9 32 10 65t-17 64.5t-61.5 59.5t-124.5 51q-19 5 -67 13.5t-111.5 21.5t-136 30t-141.5 39q-42 13 -82.5 42.5t-66.5 75.5t-33.5 109.5t16.5 145.5q36 121 122.5 210.5t202 147.5
t247.5 86.5t259 28.5q87 0 176.5 -13.5t176 -44.5t166 -81t146.5 -123l-303 -307q-51 51 -108.5 86.5t-118.5 58t-121.5 33.5t-117.5 14q-50 3 -97.5 -0.5t-85.5 -14.5t-63.5 -29.5t-32.5 -45.5q-5 -19 7 -32t35 -22.5t55 -16.5t67.5 -12.5t71.5 -11.5t68 -13l116 -26
q106 -24 181 -57t124.5 -73.5t76.5 -87.5t36.5 -99t4.5 -108t-19 -114q-28 -110 -76.5 -197.5t-112 -154t-140 -113t-160.5 -76t-172.5 -43t-175.5 -13.5q-167 0 -288 30.5t-194 89.5t-96.5 144t3.5 195l87 349h448z" />
    <glyph glyph-name="nonuthai" unicode="&#xe19;" horiz-adv-x="1977" 
d="M561 -19q-106 0 -188.5 41.5t-131.5 124t-58 206t32 286.5l264 1061h449l-263 -1057q-35 -137 10 -201t155 -64q45 0 94 15t97 41.5t93.5 62t82.5 76.5t63.5 85.5t37.5 88.5l237 953h449l-423 -1700h-445l72 290q-95 -98 -178 -158t-159 -94t-147.5 -45.5t-142.5 -11.5z
" />
    <glyph glyph-name="bobaimaithai" unicode="&#xe1a;" horiz-adv-x="1975" 
d="M805 -19q-99 0 -188 21t-162.5 62t-129 101.5t-86.5 139.5t-35.5 176.5t24.5 211.5l251 1007h448l-250 -1004q-17 -69 -12 -127t33 -100.5t79 -66.5t126 -24q79 0 142 24t110.5 66.5t79.5 100.5t49 127l250 1004h448l-251 -1007q-43 -171 -137 -304t-220 -223.5
t-273 -137.5t-296 -47z" />
    <glyph glyph-name="poplathai" unicode="&#xe1b;" horiz-adv-x="1975" 
d="M805 -19q-99 0 -188 21t-162.5 62t-129 101.5t-86.5 139.5t-35.5 176.5t24.5 211.5l251 1007h448l-250 -1004q-17 -69 -12 -127t33 -100.5t79 -66.5t126 -24q79 0 142 24t110.5 66.5t79.5 100.5t49 127l432 1733h448l-433 -1736q-43 -171 -137 -304t-220 -223.5
t-273 -137.5t-296 -47z" />
    <glyph glyph-name="phophungthai" unicode="&#xe1c;" horiz-adv-x="1997" 
d="M230 1116q1 15 3.5 38.5t6 50t7.5 51.5t9 43q18 72 61 145t116.5 132t181 96t254.5 37q26 0 60 -4t72 -14t78 -25.5t78 -37.5l-173 -318q-45 25 -85.5 36.5t-75.5 11.5q-47 0 -74.5 -21t-42.5 -52t-20.5 -66.5t-8.5 -63.5l-64 -550l511 638l195 -598l372 1055h453
l-653 -1700h-344l-175 616l-476 -617h-339z" />
    <glyph glyph-name="fofathai" unicode="&#xe1d;" horiz-adv-x="1949" 
d="M230 1116q1 15 3.5 38.5t6 50t7.5 51.5t9 43q18 72 61 145t116.5 132t181 96t254.5 37q26 0 60 -4t72 -14t78 -25.5t78 -37.5l-173 -318q-45 25 -85.5 36.5t-75.5 11.5q-47 0 -74.5 -21t-42.5 -52t-20.5 -66.5t-8.5 -63.5l-64 -550l511 638l195 -598l575 1781h453
l-856 -2426h-344l-175 616l-476 -617h-339z" />
    <glyph glyph-name="phophanthai" unicode="&#xe1e;" horiz-adv-x="2189" 
d="M598 0h-380l121 1700h452l-78 -843l477 843h293l58 -843l341 843h453l-724 -1700h-362l-64 1047z" />
    <glyph glyph-name="fofanthai" unicode="&#xe1f;" horiz-adv-x="2165" 
d="M588 0h-370l121 1700h452l-78 -843l477 843h293l58 -843l589 1566h453l-972 -2423h-372l-64 1047z" />
    <glyph glyph-name="phosamphaothai" unicode="&#xe20;" horiz-adv-x="1958" 
d="M1542 0h-448l250 1003q19 78 7.5 137.5t-46.5 100t-89 61.5t-118 22q-40 1 -84 -6.5t-88.5 -22.5t-87 -37t-78.5 -50q40 -56 61 -121.5t27 -130t0.5 -124t-16.5 -103.5q-29 -117 -78.5 -227t-124 -209t-177.5 -185t-239 -155l-205 290q98 65 164.5 126t110 120.5
t68 117.5t39.5 117q14 55 14 118.5t-18.5 128t-58 126.5t-105.5 113q106 119 219.5 213t236.5 159.5t255 100.5t274 35q156 0 283 -47t208.5 -137.5t109 -223t-15.5 -304.5z" />
    <glyph glyph-name="momathai" unicode="&#xe21;" horiz-adv-x="1978" 
d="M971 -19q-75 0 -140.5 29t-117 75.5t-87 104.5t-50.5 116l-76 -306h-444l423 1700h448l-239 -961q-17 -66 1 -131t59 -116t100.5 -82.5t126.5 -31.5q48 0 94 15.5t86 48t71 82.5t48 119l263 1057h448l-264 -1061q-40 -161 -114 -284t-172.5 -206t-216.5 -125.5
t-247 -42.5z" />
    <glyph glyph-name="yoyakthai" unicode="&#xe22;" horiz-adv-x="1947" 
d="M967 1700q-47 -50 -76.5 -95t-46 -80t-23.5 -58.5t-8 -30.5q-31 -124 21.5 -185.5t196.5 -61.5h130l-85 -341h-129q-144 0 -234.5 -49t-116.5 -152q-12 -47 -4.5 -95t36.5 -86.5t82 -63t132 -24.5q71 0 137 18.5t120.5 56t94 95t59.5 135.5l253 1017h448l-253 -1018
q-30 -118 -84.5 -215.5t-127 -175.5t-160.5 -136t-184.5 -97t-198.5 -58t-202 -19q-99 0 -188.5 22t-164 63t-131 100t-90 133t-40.5 161.5t18 186.5q18 71 52.5 131t79 108t96 85t103.5 63q-34 24 -63.5 60.5t-47.5 85t-22 108.5t14 131q21 85 60.5 156.5t80.5 124.5h466z
" />
    <glyph glyph-name="roruathai" unicode="&#xe23;" horiz-adv-x="1514" 
d="M565 -19q-75 0 -154.5 15t-159.5 50.5t-158 94t-150 144.5l334 320q54 -63 107 -105t103 -66.5t96 -35t88 -10.5q74 0 127.5 24.5t66.5 74.5q8 34 -0.5 58.5t-36 45.5t-74 40t-114.5 42q-103 34 -186 81t-136 112t-71 150t10 196q30 119 101.5 213t171 159t220 99.5
t246.5 34.5q174 0 322 -70.5t263 -195.5l-317 -331q-101 98 -193 144.5t-166 46.5q-72 0 -122 -23t-61 -65q-14 -56 41.5 -95.5t167.5 -73.5q122 -37 210.5 -84.5t140.5 -111.5t65.5 -148t-13.5 -194q-31 -126 -108 -225.5t-182 -168.5t-229 -105.5t-250 -36.5z" />
    <glyph glyph-name="ruthai" unicode="&#xe24;" horiz-adv-x="1923" 
d="M1376 -526h-448l394 1581q19 78 9 130.5t-42 85t-83.5 46.5t-114.5 14q-52 0 -100.5 -9.5t-92 -25.5t-82 -38t-69.5 -46l164 -230q-78 -47 -136.5 -93t-101 -97t-70.5 -109t-45 -128q-7 -29 -12 -64t-1 -66t21.5 -52t56.5 -21q32 0 77 10t90 42l99 -270q-55 -42 -106 -70
t-103.5 -45t-108.5 -24.5t-121 -7.5q-106 0 -183.5 42t-123 113.5t-57.5 164.5t14 195q34 137 112 264t206 240l-176 232q38 46 88.5 99.5t114 106.5t140.5 102.5t167.5 87.5t194.5 60.5t223 22.5q93 0 181.5 -18.5t164 -56t135 -94.5t94 -134t41 -174.5t-23.5 -216.5z" />
    <glyph glyph-name="lolingthai" unicode="&#xe25;" horiz-adv-x="1867" 
d="M631 368q43 0 91.5 12.5t119.5 45.5l97 -343q-65 -31 -119 -51t-100.5 -31t-85.5 -15.5t-74 -4.5q-84 0 -159.5 18.5t-138 54t-109.5 87.5t-73.5 119t-31 148t18.5 176q35 144 119 249t200.5 173.5t256.5 101t287 32.5q84 0 173 -13.5t170 -40.5q6 76 -11 124t-53 74.5
t-89 36t-118 9.5q-52 0 -121.5 -13.5t-147.5 -37.5t-160 -58t-157 -75l-79 363q94 49 193.5 88t196 66t186.5 41t166 14q108 0 205 -18.5t176.5 -56t139 -94t93.5 -133t39 -172.5t-24 -212l-257 -1032h-448l184 741q-32 7 -70.5 14t-80.5 12t-86 8t-86 3q-65 0 -127 -15
t-113 -43.5t-86.5 -68.5t-48.5 -91q-11 -46 -5 -81.5t25.5 -60t51 -37.5t70.5 -13z" />
    <glyph glyph-name="luthai" unicode="&#xe26;" horiz-adv-x="1958" 
d="M1411 -525h-448l381 1528q19 78 7.5 137.5t-46.5 100t-89 61.5t-118 22q-40 1 -84 -6.5t-88.5 -22.5t-87 -37t-78.5 -50q40 -56 61 -121.5t27 -130t0.5 -124t-16.5 -103.5q-29 -117 -78 -225.5t-123 -206t-176.5 -181.5t-239.5 -153l-204 290q98 65 164 124.5t109 117
t67 114t39 115.5q14 55 14 118.5t-18.5 128t-58 126.5t-105.5 113q106 119 219.5 213t236.5 159.5t255 100.5t274 35q156 0 283 -47t208.5 -137.5t109 -223t-15.5 -304.5z" />
    <glyph glyph-name="wowaenthai" unicode="&#xe27;" horiz-adv-x="1682" 
d="M613 -19q-96 0 -189 20.5t-177 63.5t-157 109.5t-130 158.5l319 286q46 -79 94 -126.5t97 -73t97.5 -33.5t95.5 -8q72 0 151.5 28.5t151.5 87t130.5 149t89.5 214.5q28 112 21.5 199t-41 146t-94 89.5t-135.5 30.5q-57 0 -122 -12.5t-132 -41.5t-134 -78t-128 -121
l-223 282q178 177 374.5 272t417.5 95q122 0 226 -28.5t186 -81.5t141 -129.5t90 -173t32 -211t-31 -243.5q-35 -141 -94 -260t-135.5 -215.5t-168.5 -170.5t-193.5 -123.5t-210.5 -75t-219 -25.5z" />
    <glyph glyph-name="sosalathai" unicode="&#xe28;" horiz-adv-x="1994" 
d="M2166 1850l-380 -394q51 -87 64 -199t-22 -251l-250 -1006h-448l250 1003q17 69 12.5 127t-32.5 100t-80.5 66t-132.5 24q-75 0 -139.5 -24t-115.5 -66t-86 -100t-52 -127l-12 -45h366l-87 -350h-366l-151 -608h-448l250 1006q29 114 82.5 211.5t125 176.5t158 139.5
t181.5 101.5t195 62t199 21q127 0 238 -35l161 167h520z" />
    <glyph glyph-name="sorusithai" unicode="&#xe29;" horiz-adv-x="1995" 
d="M981 1168h441l132 532h448l-132 -532h188l-88 -350h-188l-31 -125q-43 -171 -134 -304t-213 -223.5t-266 -137.5t-293 -47q-99 0 -191 21t-170 62t-138.5 101.5t-96 139.5t-43 176.5t21.5 211.5l251 1007h448l-250 -1004q-17 -69 -13.5 -127t29.5 -100.5t75.5 -66.5
t124.5 -24q79 0 146.5 24t120.5 66.5t90 100.5t54 127l30 122h-441z" />
    <glyph glyph-name="sosuathai" unicode="&#xe2a;" horiz-adv-x="1867" 
d="M631 368q43 0 91.5 12.5t119.5 45.5l97 -343q-65 -31 -119 -51t-100.5 -31t-85.5 -15.5t-74 -4.5q-84 0 -159.5 18.5t-138 54t-109.5 87.5t-73.5 119t-31 148t18.5 176q35 144 119 249t200.5 173.5t256.5 101t287 32.5q84 0 173 -13.5t170 -40.5q6 76 -11 124t-53 74.5
t-89 36t-118 9.5q-52 0 -121.5 -13.5t-147.5 -37.5t-160 -58t-157 -75l-79 363q94 49 193.5 88t196 66t186.5 41t166 14q151 0 276 -36l161 168h520l-370 -384q51 -81 63.5 -189t-21.5 -245l-257 -1032h-448l184 741q-32 7 -70.5 14t-80.5 12t-86 8t-86 3q-65 0 -127 -15
t-113 -43.5t-86.5 -68.5t-48.5 -91q-11 -46 -5 -81.5t25.5 -60t51 -37.5t70.5 -13z" />
    <glyph glyph-name="hohipthai" unicode="&#xe2b;" horiz-adv-x="1978" 
d="M633 523l-129 -523h-448l422 1700h448l-147 -592l726 592h606l-507 -404q123 -80 159 -208t-5 -292l-197 -796h-448l196 793q7 30 8 61t-7 59.5t-25.5 52.5t-46.5 40z" />
    <glyph glyph-name="lochulathai" unicode="&#xe2c;" horiz-adv-x="2026" 
d="M1846 1351q46 -27 68.5 -61t30 -71.5t3.5 -75t-12 -71.5q-1 -4 -4 -13.5t-7 -21.5t-9 -25t-10 -24l-420 -989h-351l-162 620l-466 -619h-363l194 1700h451l-143 -1068l489 624l193 -629l166 451q5 11 8.5 20.5t5.5 20.5q13 54 6 103t-35.5 86.5t-79.5 59.5t-124 22
l77 310h903l-87 -349h-322z" />
    <glyph glyph-name="oangthai" unicode="&#xe2d;" horiz-adv-x="1832" 
d="M1017 643h-483q-16 -62 2.5 -112t60 -85t99.5 -54t121 -19q90 0 172 35t149.5 97t116.5 148.5t75 188.5q32 129 20.5 221t-55.5 150.5t-116 86t-161 27.5q-55 0 -116 -12.5t-127.5 -42t-136.5 -77.5t-143 -119l-203 259q88 95 192.5 166.5t214 119.5t219 72.5t207.5 24.5
q185 0 330 -59t234.5 -171t116 -275t-25.5 -371q-34 -136 -95 -252.5t-142.5 -212t-179 -169.5t-204 -124.5t-218.5 -76.5t-222 -26q-178 0 -310.5 60t-210.5 169t-98 262t27 340q6 23 20 69t41 111h916z" />
    <glyph glyph-name="honokhukthai" unicode="&#xe2e;" horiz-adv-x="1886" 
d="M2014 1850l-336 -348q97 -113 126.5 -278.5t-24.5 -381.5q-34 -136 -95 -252.5t-142.5 -212t-179 -169.5t-204 -124.5t-218.5 -76.5t-222 -26q-178 0 -310.5 60t-210.5 169t-98 262t27 340q6 23 20 69t41 111h916l-87 -349h-483q-16 -62 2.5 -112t60 -85t99.5 -54
t121 -19q90 0 172 35t149.5 97t116.5 148.5t75 188.5q32 129 20.5 221t-55.5 150.5t-116 86t-161 27.5q-55 0 -116 -12.5t-127.5 -42t-136.5 -77.5t-143 -119l-203 259q88 95 192.5 166.5t214 119.5t219 72.5t207.5 24.5q117 0 219 -24l150 156h520z" />
    <glyph glyph-name="paiyannoithai" unicode="&#xe2f;" horiz-adv-x="1765" 
d="M646 598q-135 0 -231.5 42.5t-150 125.5t-62 206t32.5 284l110 444h448l-110 -441q-34 -137 -1 -205.5t145 -68.5q71 0 137 27.5t119.5 72.5t92 103.5t53.5 120.5l97 391h446l-423 -1700h-446l208 838q-63 -74 -126 -120.5t-123 -73t-115 -36.5t-101 -10z" />
    <glyph glyph-name="saraathai" unicode="&#xe30;" horiz-adv-x="1090" 
d="M833 132h-554q-80 0 -131.5 20.5t-81 53.5t-41 75t-11.5 84t6.5 81t13.5 66q2 14 8.5 38t14.5 48.5t15 45t10 27.5h391q-17 -41 -27.5 -73t-18.5 -66q-8 -29 2.5 -45t30.5 -16h458zM1063 1052h-554q-80 0 -131.5 20.5t-81 53.5t-41 75t-12 84t6.5 81t14 66q2 14 8.5 38
t14 48.5t14.5 45t10 27.5h391q-17 -41 -27 -73t-18 -66q-8 -29 2 -45t30 -16h458z" />
    <glyph glyph-name="maihanakatthai" unicode="&#xe31;" 
d="M311 2256l-74 -298h-887q-112 0 -180.5 29t-104 74.5t-42 100.5t6.5 107l55 218h375l-31 -122q-27 -109 119 -109h763z" />
    <glyph glyph-name="saraaathai" unicode="&#xe32;" horiz-adv-x="1336" 
d="M762 1729q159 0 258.5 -49t149 -135.5t52 -204t-31.5 -254.5l-270 -1086h-448l275 1106q16 62 13.5 106t-17.5 71.5t-39 40.5t-51 13q-26 0 -62 -7t-80.5 -29t-97.5 -62t-114 -107l-213 250q78 94 160.5 160t168 107.5t172.5 60.5t175 19z" />
    <glyph glyph-name="saraamthai" unicode="&#xe33;" horiz-adv-x="1336" 
d="M762 1729q159 0 258.5 -49t149 -135.5t52 -204t-31.5 -254.5l-270 -1086h-448l275 1106q16 62 13.5 106t-17.5 71.5t-39 40.5t-51 13q-26 0 -62 -7t-80.5 -29t-97.5 -62t-114 -107l-213 250q78 94 160.5 160t168 107.5t172.5 60.5t175 19zM-454 2247q16 63 58.5 118.5
t103 96.5t133.5 64.5t150 23.5q76 0 137 -23.5t101 -64.5t55 -96.5t-1 -118.5t-58.5 -117.5t-102.5 -95.5t-132.5 -64.5t-148.5 -23.5q-77 0 -138.5 23.5t-101.5 64.5t-55.5 95.5t0.5 117.5zM-210 2243q-6 -22 -2.5 -41.5t15.5 -34.5t31.5 -23.5t45.5 -8.5q27 0 51 8.5
t43.5 23.5t32.5 34.5t19 41.5q11 45 -14 76t-79 31q-27 0 -50.5 -8.5t-42.5 -23t-32 -34t-18 -41.5z" />
    <glyph glyph-name="saraithai" unicode="&#xe34;" 
d="M-1413 2256h1559l-74 -298h-1559z" />
    <glyph glyph-name="saraiithai" unicode="&#xe35;" 
d="M-1413 2256h1122l62 250h437l-136 -548h-1559z" />
    <glyph glyph-name="sarauethai" unicode="&#xe36;" 
d="M-1487 1958l74 298h1041v1q12 64 44 116t78.5 88.5t105 56t123.5 19.5t112.5 -20.5t74.5 -58t33 -91t-10 -118.5t-51.5 -119t-84.5 -92t-107.5 -59t-119.5 -21h-1313zM-192 2254q-14 -55 6.5 -83t66.5 -28t80.5 28t48.5 83q14 54 -7 82.5t-67 28.5t-80.5 -28.5
t-47.5 -82.5z" />
    <glyph glyph-name="saraueethai" unicode="&#xe37;" 
d="M-1413 2256h704l62 250h345l-62 -250h166l61 250h345l-136 -548h-1559z" />
    <glyph glyph-name="sarauthai" unicode="&#xe38;" 
d="M-1054 -874l70 283q5 21 1.5 36t-13 24.5t-23.5 13.5t-30 4q-27 0 -61 -16.5t-75 -46.5l-70 250q80 57 148.5 90t126.5 49.5t106 21t88 4.5q65 0 111 -16t76 -42t46 -60.5t22 -72t3 -75t-11 -70.5l-94 -377h-421z" />
    <glyph glyph-name="sarauuthai" unicode="&#xe39;" 
d="M-1704 -297q116 68 213 96.5t181 28.5q81 0 126.5 -21.5t66.5 -56.5t21 -79t-11 -88l-36 -141q-6 -24 1.5 -38.5t20 -22.5t27 -11t22.5 -3q7 0 22.5 2.5t32.5 10.5t32 22.5t21 39.5l93 372h409l-87 -351q-23 -93 -80.5 -163t-138.5 -117t-179.5 -71t-203.5 -24
q-106 0 -188 23.5t-133.5 68t-70 109t2.5 146.5l7 29q6 25 -5 32.5t-23 7.5q-11 0 -23.5 -3.5t-24.5 -9t-22.5 -12t-16.5 -11.5z" />
    <glyph glyph-name="phinthuthai" unicode="&#xe3a;" 
d="M-1075 -428q13 52 46.5 98.5t79.5 81t101.5 54.5t111.5 20q58 0 104 -20t75 -54.5t40 -81t-2 -98.5q-13 -51 -46.5 -97t-80 -80.5t-102.5 -54.5t-114 -20q-56 0 -101 20t-74.5 54.5t-40 80.5t2.5 97z" />
    <glyph glyph-name="uni0E3D" unicode="&#xe3d;" 
 />
    <glyph glyph-name="PUCR2005" unicode="&#xe3e;" 
 />
    <glyph glyph-name="bahtthai" unicode="&#xe3f;" horiz-adv-x="2132" 
d="M565 2122h704l57 231h263l-57 -231h32q148 0 272.5 -42t207.5 -122q74 -72 103 -174t-4 -232q-20 -81 -57 -148.5t-86.5 -122t-110 -97.5t-127.5 -76q34 -12 71.5 -34t72 -53.5t63.5 -72.5t46.5 -91.5t20 -111t-14.5 -130.5q-38 -152 -117 -263t-194 -183
q-139 -88 -305.5 -128.5t-355.5 -40.5h-46l-73 -291h-263l73 291h-704zM1551 634q14 58 5 101.5t-44.5 72.5t-99 44t-159.5 15h-34l-112 -446h75q153 0 247 51t122 162zM610 421h234l112 446h-234zM1662 1502q22 90 -34.5 144.5t-189.5 54.5h-11l-107 -429h8q132 0 218.5 57
t115.5 173zM823 1272h234l107 429h-234z" />
    <glyph glyph-name="saraethai" unicode="&#xe40;" horiz-adv-x="920" 
d="M56 0l423 1700h448l-423 -1700h-448z" />
    <glyph glyph-name="saraaethai" unicode="&#xe41;" horiz-adv-x="1630" 
d="M56 0l423 1700h448l-423 -1700h-448zM766 0l423 1700h448l-423 -1700h-448z" />
    <glyph glyph-name="saraothai" unicode="&#xe42;" horiz-adv-x="900" 
d="M442 1557q27 110 27 192t-24 147t-69 118t-107 106q75 95 160 158t171 101t169.5 53.5t156.5 15.5q56 0 116.5 -7t120.5 -25t117 -48.5t106 -77.5l-191 -234q-69 55 -145 85.5t-175 30.5q-30 0 -60 -4.5t-55.5 -11.5t-45.5 -14.5t-32 -14.5q149 -129 197 -275t5 -316
l-382 -1536h-448z" />
    <glyph glyph-name="saraaimaimuanthai" unicode="&#xe43;" horiz-adv-x="895" 
d="M500 0h-448l410 1642q67 47 131 102.5t116 110t87 103.5t43 83q6 23 5 44t-9.5 36.5t-25.5 24.5t-44 9q-20 0 -47.5 -5t-67 -21.5t-94.5 -46.5t-130 -81l-69 246q51 35 116 70.5t138.5 63.5t152 45.5t156.5 17.5q90 0 156.5 -26.5t106.5 -73.5t51.5 -113t-7.5 -144
q-15 -60 -46.5 -120t-74.5 -117t-93.5 -109.5t-103.5 -98.5z" />
    <glyph glyph-name="saraaimaimalaithai" unicode="&#xe44;" horiz-adv-x="903" 
d="M500 0h-448l358 1437q27 108 76.5 199.5t116 172t147 153.5t170.5 146q-17 -6 -45.5 -12.5t-62.5 -12t-71.5 -7.5t-72.5 2q-105 11 -196 42.5t-148 85.5l182 247q46 -31 94.5 -50t93.5 -29t81.5 -13t58.5 -3q63 0 157.5 18.5t213.5 73.5l141 -263q-83 -60 -157 -134.5
t-134.5 -159t-105.5 -178t-69 -190.5z" />
    <glyph glyph-name="lakkhangyaothai" unicode="&#xe45;" horiz-adv-x="1336" 
d="M762 1729q159 0 258.5 -49t149 -135.5t52 -204t-31.5 -254.5l-395 -1585h-448l400 1605q16 62 13.5 106t-17.5 71.5t-39 40.5t-51 13q-26 0 -62 -7t-80.5 -29t-97.5 -62t-114 -107l-213 250q78 94 160.5 160t168 107.5t172.5 60.5t175 19z" />
    <glyph glyph-name="maiyamokthai" unicode="&#xe46;" horiz-adv-x="1788" 
d="M189 1088q21 84 58 163t87 148t110.5 126.5t128.5 98.5t141 64t148 23q67 0 115.5 -21t82.5 -55.5t55.5 -79t35.5 -92.5l349 237h295l-548 -2200h-448l415 1666l-218 -139l-32 148q-5 28 -16 55.5t-27.5 49t-39 35t-50.5 13.5q-35 0 -67 -20.5t-58.5 -54t-46.5 -76
t-31 -87.5q-14 -54 -13 -99t14 -77.5t36 -50t53 -17.5q32 0 58 9t61 35l137 -213q-73 -65 -139 -102t-120.5 -55.5t-96.5 -23t-66 -4.5q-58 0 -114.5 17.5t-104.5 52t-85.5 85t-58.5 117t-22.5 147.5t22.5 177z" />
    <glyph glyph-name="maitaikhuthai" unicode="&#xe47;" 
d="M-734 1951q-74 1 -137.5 22.5t-106 61t-60.5 96t0 127.5q19 75 64 138.5t120 109.5t183.5 72t255.5 26q30 0 66 -3.5t69 -8t59 -9.5t35 -9l129 149h346l-331 -371q-42 17 -91.5 30t-103.5 22t-109.5 13.5t-107.5 4.5q-47 0 -91 -10t-80.5 -30.5t-62 -50t-35.5 -68.5
q-5 -18 -5 -35.5t5 -32.5t15 -26t25 -14l229 96q22 -36 41 -55.5t36 -29t33.5 -11t32.5 -1.5q26 0 40.5 19t22.5 41q5 17 3 33t-4 26h285q2 -21 1.5 -43.5t-7.5 -48.5q-12 -47 -45 -89.5t-80.5 -74t-105 -50t-118.5 -17.5q-71 1 -120 24t-93 66z" />
    <glyph glyph-name="maiekthai" unicode="&#xe48;" 
d="M-190 2643l107 431h433l-108 -431h-432z" />
    <glyph glyph-name="maithothai" unicode="&#xe49;" 
d="M548 3138q-33 -72 -89.5 -141t-130 -129t-160 -106t-180.5 -71q-53 -14 -103 -23.5t-95.5 -16.5t-84 -11.5t-67.5 -7.5l-39 -2l-21 164q33 12 61 29q24 14 46 36t30 53q3 14 -0.5 25.5t-12 20t-20 13t-23.5 4.5q-27 0 -53.5 -6.5t-55.5 -20.5l-29 172q43 25 85 39.5
t77 22.5t61.5 10.5t39.5 2.5q49 0 87.5 -12t62.5 -35t32.5 -57t-2.5 -79q-20 -86 -79 -148q66 11 125.5 34.5t109.5 58t89.5 80t63.5 101.5h275z" />
    <glyph glyph-name="maitrithai" unicode="&#xe4a;" 
d="M-229 3139q56 0 97.5 -21.5t72.5 -53.5q63 39 113.5 57t95.5 18q48 0 79.5 -14.5t48.5 -39t20.5 -56t-4.5 -64.5q-3 -9 -5.5 -16t-6 -14t-8.5 -14.5t-14 -17.5q34 22 63 49.5t52.5 56.5t39 57t22.5 50h199q-23 -64 -65 -124t-95 -113t-113 -97.5t-120.5 -76t-117.5 -49
t-103 -17.5q-11 0 -19.5 -1t-25.5 1l-8 141q16 5 34.5 13.5t35.5 22t30 31.5t19 43q4 17 0.5 29t-9.5 19.5t-13 11t-10 3.5q-33 0 -60 -15.5t-52 -29.5q-9 -6 -22 -13.5t-24 -7.5q-15 0 -25 8.5t-17 14.5q-8 7 -16.5 14.5t-17.5 14t-20.5 10.5t-25.5 4q-10 0 -20.5 -5.5
t-19.5 -14.5t-15.5 -21t-9.5 -25q-5 -23 3 -39t25 -25q13 -7 28.5 -9t32.5 -2l-90 -169q-9 -2 -24.5 -3t-31.5 -1q-54 0 -90.5 22.5t-56 59t-22.5 83.5t10 96q13 54 44 98t70 75.5t81.5 48.5t80.5 17z" />
    <glyph glyph-name="maichattawathai" unicode="&#xe4b;" 
d="M-309 3027h230l45 178h271l-45 -178h231l-51 -204h-231l-44 -177h-271l44 177h-230z" />
    <glyph glyph-name="thanthakhatthai" unicode="&#xe4c;" 
d="M378 2695h-393q-38 0 -64 -20t-33 -47q-5 -21 -4 -44t24 -55l-261 -140q-31 35 -45.5 74t-19 75t-1.5 66.5t8 48.5q19 78 64 127.5t100.5 77.5t115 38.5t108.5 10.5h454z" />
    <glyph glyph-name="nikhahitthai" unicode="&#xe4d;" 
d="M-454 2247q16 63 58.5 118.5t103 96.5t133.5 64.5t150 23.5q76 0 137 -23.5t101 -64.5t55 -96.5t-1 -118.5t-58.5 -117.5t-102.5 -95.5t-132.5 -64.5t-148.5 -23.5q-77 0 -138.5 23.5t-101.5 64.5t-55.5 95.5t0.5 117.5zM-210 2243q-6 -22 -2.5 -41.5t15.5 -34.5
t31.5 -23.5t45.5 -8.5q27 0 51 8.5t43.5 23.5t32.5 34.5t19 41.5q11 45 -14 76t-79 31q-27 0 -50.5 -8.5t-42.5 -23t-32 -34t-18 -41.5z" />
    <glyph glyph-name="yamakkanthai" unicode="&#xe4e;" 
d="M387 2397h-226q-19 0 -43 -15t-34 -52l-32 -132h-175q-41 0 -65 -16t-36 -64l-28 -110h-300l31 125q6 24 17 54.5t29 62t44 61.5t63 54.5t86 40.5t112 19q12 36 37 70t65.5 61t99 43.5t139.5 16.5h271z" />
    <glyph glyph-name="fongmanthai" unicode="&#xe4f;" horiz-adv-x="2208" 
d="M257 849q30 121 89.5 233.5t141 210t181.5 177.5t212 137t232 88.5t241 31.5t225.5 -31.5t188 -88.5t143.5 -137t93 -177.5t36 -210t-27 -233.5t-89.5 -233.5t-141 -210t-181.5 -177.5t-212 -137t-232 -88.5t-241 -31.5t-225.5 31.5t-188 88.5t-143.5 137t-93 177.5
t-36 210t27 233.5zM682 849q24 94 80 176.5t133 144t168 97t185 35.5t167.5 -35.5t120 -97t61.5 -144t-9 -176.5q-23 -94 -79.5 -176.5t-133 -144t-168 -97t-185.5 -35.5t-167.5 35.5t-119.5 97t-61 144t8 176.5zM941 849q-10 -40 -3 -75t26.5 -61.5t51 -42t71.5 -15.5
t79 15.5t72 42t57 61.5t34 75t3.5 75t-26 61.5t-51 42t-71.5 15.5t-79 -15.5t-72 -42t-57.5 -61.5t-34.5 -75zM549 848q-20 -81 -18 -156t24 -140.5t62.5 -119t96 -92t125.5 -59.5t151 -21t161.5 21t155 59.5t142 92t122 119t94.5 140.5t60 156q30 121 10.5 228.5t-79.5 187
t-155.5 126t-216.5 46.5q-81 0 -161.5 -21t-155 -59.5t-142 -92t-122 -119t-94.5 -140.5t-60 -156z" />
    <glyph glyph-name="zerothai" unicode="&#xe50;" horiz-adv-x="2117" 
d="M1986 758q-27 -110 -81 -211t-131 -189t-175 -160t-213 -123.5t-245 -79.5t-272 -28q-213 0 -367.5 62t-247.5 169t-121 251t13 309q41 163 141 306.5t246 250.5t331.5 169t398.5 62t367.5 -62t247.5 -169t121 -250.5t-13 -306.5zM573 756q-23 -93 -9 -171t63.5 -134
t132.5 -87.5t198 -31.5q118 0 218 31.5t177.5 87.5t130 134t75.5 171t10.5 171.5t-61 134.5t-133 87.5t-205.5 31.5q-117 0 -216.5 -31.5t-176 -87.5t-129 -134.5t-75.5 -171.5z" />
    <glyph glyph-name="onethai" unicode="&#xe51;" horiz-adv-x="2112" 
d="M325 988q19 77 66.5 148.5t117 133.5t158 113t189.5 87t211 56t224 20q193 0 342 -56.5t241 -159t122.5 -246t-12.5 -317.5q-28 -113 -87.5 -216.5t-144 -193.5t-190.5 -164t-228 -126.5t-256.5 -81t-275.5 -28.5q-140 0 -261 20.5t-224.5 61t-191.5 100.5t-163 140
l326 257q72 -76 151.5 -122.5t158 -71.5t153.5 -33.5t138 -8.5q116 0 225.5 35.5t199.5 98t154 148t89 184.5q26 105 6 183.5t-72.5 131t-131.5 78.5t-170 26q-88 0 -163.5 -16.5t-134 -45.5t-96 -68.5t-49.5 -84.5q-11 -44 1 -74t36.5 -48.5t56.5 -26.5t62 -8q17 0 42 4.5
t53.5 13t58.5 21t57 28.5l51 -284q-30 -19 -72.5 -37t-92.5 -32t-105 -22.5t-111 -8.5q-55 0 -116.5 10.5t-120.5 34.5t-109 62t-83 93t-42.5 127t13.5 165z" />
    <glyph glyph-name="twothai" unicode="&#xe52;" horiz-adv-x="2112" 
d="M1237 1519q61 0 113.5 -14.5t95.5 -40.5t75 -63.5t52 -82.5l334 201h317l-194 -781q-29 -114 -94.5 -214.5t-156.5 -185t-202 -151.5t-230.5 -113.5t-242 -71t-236.5 -24.5q-113 0 -223 24.5t-206 71t-173 113.5t-125.5 151.5t-64 185t13.5 214.5l253 1017h424
l-255 -1022q-22 -89 6.5 -161t92 -122.5t154 -78t193.5 -27.5t208.5 27.5t195.5 78t155 122.5t87 161l88 353l-338 -203q-4 22 -15 61.5t-28.5 83t-41.5 83.5t-55 64q-11 8 -26 13t-32 5q-24 0 -47 -8.5t-42.5 -23t-33 -34.5t-19.5 -43q-9 -35 8 -66t41 -51l-349 -173
q-40 58 -52.5 132t8.5 158q22 90 78 169t133 138.5t169 93.5t187 34z" />
    <glyph glyph-name="threethai" unicode="&#xe53;" horiz-adv-x="2112" 
d="M2037 743q-24 -98 -59.5 -184.5t-76.5 -162t-84 -138.5t-82.5 -113t-72.5 -86.5t-54 -57.5h-450q63 61 130.5 138.5t129.5 171t113.5 201.5t81.5 230q24 97 33 182t-1.5 148.5t-43.5 100.5t-93 37q-33 0 -64 -13t-57.5 -38.5t-47.5 -62.5t-33 -84l-66 -265h-344l66 265
q12 47 8.5 84t-18.5 62.5t-39.5 38.5t-54.5 13q-57 0 -108.5 -31t-96.5 -91t-82.5 -147.5t-65.5 -199.5q-26 -102 -27 -177.5t19.5 -125t60.5 -73.5t96 -24q40 0 99 18t128 71l123 -264q-125 -95 -232 -138t-212 -43q-140 0 -247.5 55.5t-173 156t-83 239.5t24.5 306
q43 172 126.5 316.5t195.5 249.5t245 163.5t275 58.5q55 0 101.5 -15t83.5 -42t63 -63t40 -78q33 43 76 79.5t91.5 62.5t100.5 41t105 15q149 0 254 -59t163.5 -164t68 -249t-32.5 -315z" />
    <glyph glyph-name="fourthai" unicode="&#xe54;" horiz-adv-x="2114" 
d="M933 -24q-221 0 -393 57t-281 161.5t-147.5 252.5t6.5 331q26 105 81 202t135 181t183.5 153t227 117.5t264.5 75.5t297 27q112 0 227 -17.5t217 -50.5l168 289h453l-441 -766q-80 48 -159.5 87.5t-164 67t-175.5 42.5t-193 15q-73 0 -148.5 -14t-146.5 -40.5t-136 -65
t-117.5 -87.5t-90 -108t-54.5 -127q-23 -91 -7.5 -170.5t66.5 -139t136.5 -94.5t201.5 -37q-32 24 -57 55.5t-39 70.5t-14.5 85t17.5 98q19 57 52.5 103.5t75.5 84t90.5 65.5t98.5 49t98.5 34t91.5 21l169 -296q-86 -9 -143 -22.5t-93.5 -32t-55.5 -41t-28 -47.5
q-10 -31 -3.5 -58.5t25.5 -51.5t47.5 -43.5t61.5 -32.5q38 4 86 15t99.5 29t104.5 42.5t102 54.5l156 -278q-53 -37 -122 -70t-149 -60.5t-167 -49t-175 -36t-174 -22.5t-164 -8z" />
    <glyph glyph-name="fivethai" unicode="&#xe55;" horiz-adv-x="2114" 
d="M1885 1019q-87 58 -161.5 97.5t-148.5 63t-153.5 33.5t-176.5 10q-73 0 -149 -15.5t-148 -44.5t-137.5 -70.5t-119 -93t-91.5 -112t-55 -128.5q-23 -91 -7.5 -170.5t66.5 -139t136.5 -94.5t201.5 -37q-32 24 -57 55.5t-39 70.5t-14.5 85t17.5 98q19 57 52.5 103.5
t75.5 84t90.5 65.5t98.5 49t98.5 34t91.5 21l169 -296q-86 -9 -143 -22.5t-93.5 -32t-55.5 -41t-28 -47.5q-10 -31 -3.5 -58.5t25.5 -51.5t47.5 -43.5t61.5 -32.5q38 4 86 15t99.5 29t104.5 42.5t102 54.5l156 -278q-53 -37 -122 -70t-149 -60.5t-167 -49t-175 -36
t-174 -22.5t-164 -8q-221 0 -393 57t-281 161.5t-147.5 252.5t6.5 331q32 129 107.5 246.5t187 214t256.5 167.5t316 107q-1 20 2 42t8 45q19 76 66.5 140.5t112 111t141.5 73t155 26.5t142 -26.5t106 -73t57 -111t-4 -140.5q-7 -28 -18 -54t-25 -51q144 -38 247 -96
t175 -125zM1280 1596q-9 -37 -3 -61t18.5 -37.5t28 -18.5t25.5 -5q12 0 30.5 5t37 18.5t35.5 37.5t26 61q9 35 5 58t-15 36t-27 18t-32 5q-14 0 -32.5 -5t-37 -18t-34.5 -36t-25 -58z" />
    <glyph glyph-name="sixthai" unicode="&#xe56;" horiz-adv-x="2113" 
d="M1070 1201q-75 0 -166 -13.5t-186.5 -38.5t-190 -61.5t-176.5 -81.5l-59 749h453l23 -289q49 14 106.5 26.5t119.5 21.5t125.5 14.5t125.5 5.5q209 0 360 -58.5t240 -164t113.5 -251.5t-18.5 -320q-28 -112 -83 -211.5t-132 -184.5t-173.5 -153t-207.5 -116t-233.5 -73.5
t-250.5 -25.5q-155 0 -280 37.5t-216.5 106t-148 165.5t-75.5 216l435 165q15 -87 48 -150t81.5 -103.5t110 -59.5t132.5 -19q94 0 185.5 28t168 81t132 128t79.5 170q28 114 13 200t-71.5 143.5t-153 87t-230.5 29.5z" />
    <glyph glyph-name="seventhai" unicode="&#xe57;" horiz-adv-x="2114" 
d="M1137 0l252 428q21 36 48 85.5t51.5 99.5t44 96.5t27.5 76.5q12 48 20 98.5t9 97.5t-5.5 88.5t-23 72.5t-43.5 49t-67 18q-33 0 -64 -13t-57.5 -38.5t-47.5 -62.5t-33 -84l-66 -265h-344l66 265q12 47 8.5 84t-18.5 62.5t-39.5 38.5t-54.5 13q-114 0 -195.5 -121.5
t-136.5 -345.5q-24 -96 -23.5 -172t20 -129t54.5 -82t80 -31q115 -6 234 95l123 -258q-110 -84 -218 -132.5t-226 -48.5q-140 0 -245 61t-167.5 165t-78.5 241t22 290q43 172 123.5 316.5t188.5 249.5t238 163.5t272 58.5q55 0 101.5 -15t83.5 -42t63 -63t40 -78
q33 43 76 79.5t91.5 62.5t100.5 41t105 15q141 0 225.5 -68t117.5 -208l293 501h439l-1033 -1755h-431z" />
    <glyph glyph-name="eightthai" unicode="&#xe58;" horiz-adv-x="2117" 
d="M546 759q-29 -118 -2.5 -210.5t92.5 -155.5l444 210l364 -228q15 9 30.5 24.5t29 33t23.5 35.5t14 34q8 33 3.5 63t-21 55t-45.5 42.5t-69 25.5l181 287q113 -16 188.5 -64t117.5 -114t52.5 -142t-7.5 -149q-22 -87 -65.5 -166.5t-109.5 -148.5t-155.5 -125.5
t-201.5 -96.5l-422 263l-550 -265q-103 55 -178 138t-118 185t-51.5 218t21.5 235q43 175 148 321t260 250t354.5 162t433.5 58q56 0 119 -6t123.5 -16t113 -22t88.5 -24l168 289h453l-426 -732q-80 48 -162 82t-169 55.5t-180.5 31t-195.5 9.5q-73 0 -148.5 -14
t-146.5 -40.5t-136 -65t-117.5 -87.5t-90 -108t-54.5 -127z" />
    <glyph glyph-name="ninethai" unicode="&#xe59;" horiz-adv-x="2117" 
d="M598 -23q-158 0 -269 63t-173 173t-73 258.5t31 318.5q26 106 74 203t112.5 180.5t142.5 151.5t166 116t183 74.5t193 26.5q101 0 181.5 -26t137.5 -92q29 30 61 50t63.5 32.5t61.5 18t56 5.5q18 0 42.5 -4t51.5 -13t54.5 -23t51.5 -34l177 299h446l-444 -783
q-22 36 -59.5 75.5t-83 72.5t-94.5 56t-95 27q-44 4 -69.5 -14.5t-38 -48t-13.5 -63t6 -60.5l276 -1017h-452l-282 1034q-6 22 -16.5 47t-27.5 46t-43.5 35t-63.5 14q-35 0 -82.5 -25.5t-95 -74.5t-89 -121t-65.5 -165q-31 -124 -23.5 -211.5t39 -143t79 -81.5t97.5 -26
q16 0 41.5 4.5t58 16.5t71 32.5t81.5 52.5l86 -277q-47 -41 -102.5 -74t-115.5 -56.5t-124 -36.5t-127 -13z" />
    <glyph glyph-name="angkhankhuthai" unicode="&#xe5a;" horiz-adv-x="2465" 
d="M646 598q-135 0 -231.5 42.5t-150 125.5t-62 206t32.5 284l110 444h448l-110 -441q-34 -137 -1 -205.5t145 -68.5q71 0 137 27.5t119.5 72.5t92 103.5t53.5 120.5l97 391h446l-423 -1700h-446l208 838q-63 -74 -126 -120.5t-123 -73t-115 -36.5t-101 -10zM2026 1700h446
l-423 -1700h-446z" />
    <glyph glyph-name="khomutthai" unicode="&#xe5b;" horiz-adv-x="3094" 
d="M1639 1130q-26 -104 -85 -198.5t-138 -166t-171.5 -114t-186.5 -42.5q-26 0 -57.5 6t-64.5 19t-65 32.5t-59 46.5l181 295q18 -12 43.5 -22t51.5 -10q16 0 40 11.5t48 33.5t44.5 53.5t30.5 72.5q11 44 5 84.5t-26.5 71t-54.5 49t-79 18.5q-63 0 -133.5 -29.5t-136.5 -92
t-121.5 -159.5t-89.5 -232q-30 -120 -12.5 -214t67 -159t123 -99.5t156.5 -34.5q80 0 164 27t167 78t161 124.5t144.5 168t119.5 208t85 243.5l302 153q11 -27 23.5 -62.5t24 -76.5t20.5 -86.5t14 -92.5q59 124 93 209l244 -12q2 -11 6 -35.5t7.5 -56.5t6.5 -68t3 -69
q29 46 60 76t63 48.5t65 26.5t66 10h262l-78 -315h-218q-40 0 -72 -25.5t-57 -63.5t-44 -82t-33 -80l-243 -95q2 20 5 61t3.5 90t-2 99.5t-10.5 88.5q-4 -13 -13.5 -38t-22 -55.5t-26 -63.5t-25.5 -61.5t-21.5 -49t-12.5 -25.5l-258 -65q6 91 11.5 151t-0.5 82
q-86 -165 -206 -299t-260.5 -228.5t-295.5 -145.5t-311 -51q-187 0 -332 65.5t-235 182t-118 276.5t19 349q48 190 145 348t230 271t293.5 175.5t334.5 62.5q144 0 241.5 -51t151.5 -134.5t65.5 -190t-16.5 -216.5z" />
    <glyph glyph-name="ZWSP" unicode="&#x200b;" 
 />
    <glyph glyph-name="endash" unicode="&#x2013;" horiz-adv-x="1719" 
d="M285 1202h1388l-86 -346h-1388z" />
    <glyph glyph-name="emdash" unicode="&#x2014;" horiz-adv-x="2711" 
d="M285 1202h2379l-86 -346h-2379z" />
    <glyph glyph-name="quoteleft" unicode="&#x2018;" horiz-adv-x="953" 
d="M888 1393h-505l88 355q25 100 82.5 195t137.5 174t177 136.5t201 83.5l41 -183q-73 -25 -127 -60.5t-92.5 -75.5t-63 -80.5t-39.5 -74.5h217z" />
    <glyph glyph-name="quoteright" unicode="&#x2019;" horiz-adv-x="953" 
d="M627 2307h505l-89 -355q-25 -100 -82.5 -195t-137 -174t-177 -137t-201.5 -83l-40 183q73 25 127 60.5t92.5 75.5t63 80t39.5 75h-217z" />
    <glyph glyph-name="quotedblleft" unicode="&#x201c;" horiz-adv-x="1713" 
d="M888 1393h-505l88 355q25 100 82.5 195t137.5 174t177 136.5t201 83.5l41 -183q-73 -25 -127 -60.5t-92.5 -75.5t-63 -80.5t-39.5 -74.5h217zM1648 1393h-505l88 355q25 100 82.5 195t137.5 174t177 136.5t201 83.5l41 -183q-73 -25 -127 -60.5t-92.5 -75.5t-63 -80.5
t-39.5 -74.5h217z" />
    <glyph glyph-name="quotedblright" unicode="&#x201d;" horiz-adv-x="1712" 
d="M1386 2307h505l-89 -355q-25 -100 -82.5 -195t-137 -174t-177 -137t-201.5 -83l-40 183q73 25 127 60.5t92.5 75.5t63 80t39.5 75h-217zM626 2307h505l-89 -355q-25 -100 -82.5 -195t-137 -174t-177 -137t-201.5 -83l-40 183q73 25 127 60.5t92.5 75.5t63 80t39.5 75
h-217z" />
    <glyph glyph-name="bullet" unicode="&#x2022;" horiz-adv-x="1386" 
d="M667 607q-95 0 -169 32.5t-120.5 90t-62 135.5t7.5 170q23 93 78 171.5t131 135.5t166 89t182 32q90 0 162.5 -32t119.5 -89.5t63.5 -136t-6.5 -171.5q-23 -91 -77 -169t-129 -135.5t-164.5 -90t-181.5 -32.5z" />
    <glyph glyph-name="Euro" unicode="&#x20ac;" horiz-adv-x="2471" 
d="M1271 -28q-183 0 -332 51t-257.5 144t-173.5 222.5t-80 287.5h-309l79 316h249q4 17 7 33t8 33q4 17 8.5 34t9.5 34h-249l79 316h312q95 156 226 286.5t288 225.5t333.5 148t362.5 53q130 0 238 -20t199.5 -63.5t168 -112.5t144.5 -168l-368 -335q-50 69 -102 120.5
t-110.5 85.5t-126.5 51t-149 17q-84 0 -165.5 -20t-157.5 -57.5t-145 -91t-127 -119.5h804l-79 -316h-906l-10 -34t-9 -34q-5 -17 -8.5 -33.5t-5.5 -32.5h906l-79 -316h-805q25 -67 66.5 -120.5t97.5 -91t125.5 -58t150.5 -20.5q75 0 150 12.5t156 45.5t170.5 90.5
t193.5 146.5l224 -304q-127 -114 -249.5 -192t-245.5 -125.5t-248.5 -68t-258.5 -20.5z" />
    <glyph glyph-name="trademark" unicode="&#x2122;" horiz-adv-x="2105" 
d="M1346 2122h243l150 -350l343 350h240l-217 -867h-256l122 488l-280 -282h-64l-122 275l-120 -481h-256zM682 1913h-251l53 209h770l-53 -209h-250l-164 -658h-269z" />
    <glyph glyph-name="uni25CC" unicode="&#x25cc;" horiz-adv-x="1986" 
d="M718 531l-151 -45l85 140q24 -56 66 -95zM1046 1223l102 132l33 -128q-30 3 -60 3q-35 0 -75 -7zM987 463l-92 -125l-29 125q27 -7 62 -7q30 0 59 7zM1424 907l106 -64l-137 -57q11 27 19 57q8 34 12 64zM631 783l-117 68l150 64q-14 -34 -23 -72q-8 -30 -10 -60z
M770 1074l-4 137l123 -46q-67 -37 -119 -91zM1273 607l8 -121l-113 37q59 35 105 84zM1325 1165l155 46l-84 -141q-24 54 -71 95z" />
    <glyph glyph-name="thothannobasethai" unicode="&#xf700;" horiz-adv-x="1583" 
d="M1755 1718l-89 -356h-233q25 -33 38.5 -70.5t18.5 -75t2.5 -72t-8.5 -61.5q-23 -89 -71.5 -178t-124.5 -197q-63 -88 -131 -178t-135.5 -180t-132 -178t-120.5 -172h-352l-267 940h475l63 -346q7 -38 7.5 -72.5t-4.5 -76.5h5q15 41 30.5 81t32.5 65q39 58 82.5 122
t83 129.5t71 130.5t46.5 126q14 57 3.5 100.5t-38.5 73t-71 44.5t-94 15q-44 0 -93.5 -12t-104.5 -45t-115.5 -90t-124.5 -147l-297 194q60 104 149 192.5t197 153.5t231 102t251 37l-1 1h821z" />
    <glyph glyph-name="yoyingnobasethai" unicode="&#xf70f;" horiz-adv-x="2700" 
d="M1302 1055q19 78 9 130.5t-42 85t-83.5 46.5t-114.5 14q-52 0 -97 -9.5t-85 -25.5t-75.5 -38t-66.5 -46l164 -230q-78 -47 -136.5 -93t-101 -97t-70.5 -109t-45 -128q-7 -29 -9 -64t6 -66t28.5 -52t59.5 -21q32 0 67.5 10t79.5 42l79 -270q-55 -42 -106 -70t-103.5 -45
t-108.5 -24.5t-121 -7.5q-106 0 -180 42t-116 113.5t-51 164.5t17 195q34 137 112 264t206 240l-176 232q40 43 94 95t120.5 105.5t146.5 103.5t173 89t199 62.5t225 23.5q140 0 258.5 -41.5t196.5 -127t105 -216.5t-17 -309l-112 -447q-16 -63 -10.5 -105.5t24 -67.5
t46.5 -35.5t58 -10.5q28 0 59.5 10.5t60.5 35.5t54 67.5t41 105.5l280 1124h448l-276 -1108q-27 -109 -75 -197t-110 -156t-134 -117t-148 -80.5t-151.5 -46.5t-144.5 -15t-138 15t-130 46.5t-109.5 80.5t-77.5 117t-33.5 155.5t22.5 197.5z" />
    <glyph glyph-name="saraulowthai" unicode="&#xf718;" 
d="M-1177 -1364l71 283q5 21 1.5 36t-13.5 24.5t-24 13.5t-30 4q-27 0 -60.5 -16.5t-74.5 -46.5l-70 250q80 57 148.5 90t126.5 49.5t106 21t88 4.5q65 0 111 -16t76 -42t46 -60.5t21.5 -72t2.5 -75t-11 -70.5l-94 -377h-421z" />
    <glyph glyph-name="sarauulowthai" unicode="&#xf719;" 
d="M-1823 -777q115 68 212 96.5t181 28.5q81 0 126.5 -21.5t66.5 -56.5t21 -79t-11 -88l-35 -141q-6 -24 1 -38.5t19.5 -22.5t27 -11t22.5 -3q7 0 22.5 2.5t32.5 10.5t32.5 22.5t21.5 39.5l92 372h409l-87 -351q-23 -93 -80.5 -163t-138.5 -117t-179.5 -71t-203.5 -24
q-106 0 -188 23.5t-133.5 68t-70 109t2.5 146.5l7 29q6 25 -5 32.5t-23 7.5q-11 0 -23.5 -3.5t-24.5 -9t-22 -12t-17 -11.5z" />
    <glyph glyph-name="phinthulowthai" unicode="&#xf71a;" 
d="M-1190 -888q13 52 46.5 98.5t80 81t101.5 54.5t111 20q58 0 104 -20t75.5 -54.5t40 -81t-2.5 -98.5q-13 -51 -46.5 -97t-80 -80.5t-102.5 -54.5t-114 -20q-56 0 -101 20t-74.5 54.5t-40 80.5t2.5 97z" />
    <glyph glyph-name="lochula.short" unicode="&#xf71d;" horiz-adv-x="1987" 
d="M1846 1351q46 -27 68.5 -61t30 -71.5t3.5 -75t-12 -71.5q-1 -4 -4 -13.5t-7 -21.5t-9 -25t-10 -24l-420 -989h-351l-162 620l-466 -619h-363l194 1700h451l-143 -1068l489 624l193 -629l166 451q5 11 8.5 20.5t5.5 20.5q13 54 6 103t-35.5 86.5t-79.5 59.5t-124 22
l77 310h903l-87 -349h-322z" />
    <glyph glyph-name="yamakkanleftthai" 
d="M-412 2397h-186q-19 0 -43 -15t-34 -52l-32 -132h-175q-41 0 -65.5 -16t-36.5 -64l-28 -110h-300l31 125q6 24 17 54.5t29 62t44 61.5t63 54.5t86 40.5t113 19q12 36 37 70t65.5 61t99 43.5t139.5 16.5h231z" />
    <glyph glyph-name="uni0E33.alt1" horiz-adv-x="1336" 
d="M762 1729q159 0 258.5 -49t149 -135.5t52 -204t-31.5 -254.5l-270 -1086h-448l275 1106q16 62 13.5 106t-17.5 71.5t-39 40.5t-51 13q-26 0 -62 -7t-80.5 -29t-97.5 -62t-114 -107l-213 250q78 94 160.5 160t168 107.5t172.5 60.5t175 19zM-1157 2247q16 63 58.5 118.5
t103 96.5t134 64.5t150.5 23.5q76 0 137 -23.5t101 -64.5t55 -96.5t-1 -118.5t-58.5 -117.5t-102.5 -95.5t-132.5 -64.5t-148.5 -23.5q-77 0 -138.5 23.5t-102 64.5t-56 95.5t0.5 117.5zM-913 2243q-11 -45 13 -76.5t78 -31.5q27 0 51 8.5t43.5 23.5t32.5 34.5t19 41.5
q11 45 -14 76t-79 31q-27 0 -50.5 -8.5t-42.5 -23t-32.5 -34t-18.5 -41.5z" />
    <glyph glyph-name="saraamleft" horiz-adv-x="1336" 
d="M762 1729q159 0 258.5 -49t149 -135.5t52 -204t-31.5 -254.5l-270 -1086h-448l275 1106q16 62 13.5 106t-17.5 71.5t-39 40.5t-51 13q-26 0 -62 -7t-80.5 -29t-97.5 -62t-114 -107l-213 250q78 94 160.5 160t168 107.5t172.5 60.5t175 19zM-1157 2247q16 63 58.5 118.5
t103 96.5t134 64.5t150.5 23.5q76 0 137 -23.5t101 -64.5t55 -96.5t-1 -118.5t-58.5 -117.5t-102.5 -95.5t-132.5 -64.5t-148.5 -23.5q-77 0 -138.5 23.5t-102 64.5t-56 95.5t0.5 117.5zM-913 2243q-11 -45 13 -76.5t78 -31.5q27 0 51 8.5t43.5 23.5t32.5 34.5t19 41.5
q11 45 -14 76t-79 31q-27 0 -50.5 -8.5t-42.5 -23t-32.5 -34t-18.5 -41.5z" />
    <glyph glyph-name="guide" 
 />
    <glyph glyph-name="maiekthai.alt1" 
d="M-219 2523l106 431h433l-107 -431h-432z" />
    <glyph glyph-name="maithothai.alt1" 
d="M540 3028q-33 -72 -89.5 -141t-129.5 -129t-159.5 -106t-180.5 -71q-106 -27 -199 -40.5t-152 -18.5l-38 -2l-21 164q32 12 60 29q23 14 45.5 36t30.5 53q3 14 -0.5 25.5t-11.5 20t-19.5 13t-23.5 4.5q-27 0 -53.5 -6.5t-56.5 -20.5l-28 172q43 25 84.5 39.5t77 22.5
t62 10.5t39.5 2.5q49 0 87.5 -12t62.5 -35t32.5 -57t-2.5 -79q-11 -42 -31 -79.5t-49 -68.5q66 11 126 34.5t110 58t89 80t63 101.5h275z" />
    <glyph glyph-name="maitrithai.alt1" 
d="M-284 3039q57 0 98 -21.5t73 -53.5q62 39 112.5 57t95.5 18q48 0 79.5 -14.5t48.5 -39t20.5 -56t-4.5 -64.5q-3 -9 -5.5 -16t-6 -14t-8.5 -14.5t-14 -17.5q34 22 63 49.5t52.5 56.5t39 57t22.5 50h199q-24 -64 -65.5 -124t-94 -113t-112.5 -97.5t-120.5 -76t-117.5 -49
t-103 -17.5q-11 0 -20 -1t-25 1l-9 141q16 5 34.5 13.5t35.5 22t30 31.5t19 43q4 17 0.5 29t-9.5 19.5t-13 11t-10 3.5q-33 0 -60 -15.5t-52 -29.5q-9 -6 -22 -13.5t-24 -7.5q-15 0 -24.5 8.5t-16.5 14.5q-17 14 -34.5 28.5t-46.5 14.5q-10 0 -20.5 -5.5t-19.5 -14.5
t-15.5 -21t-9.5 -25q-5 -23 3 -39t25 -25q13 -7 28.5 -9t32.5 -2l-89 -169q-10 -2 -25 -3t-31 -1q-54 0 -90.5 22.5t-56 59t-23 83.5t9.5 96q14 54 44.5 98t69.5 75.5t81.5 48.5t80.5 17z" />
    <glyph glyph-name="maichattawathai.alt1" 
d="M-336 2917h230l44 178h271l-44 -178h231l-51 -204h-231l-44 -177h-270l43 177h-230z" />
    <glyph glyph-name="maiekupperleftthai.alt2" 
d="M-840 2543l107 431h433l-107 -431h-433z" />
    <glyph glyph-name="maithoupperleftthai.alt2" 
d="M203 3078q-33 -72 -89.5 -141t-130 -129t-160 -106t-179.5 -71q-52 -14 -102.5 -23.5t-96 -16.5t-84.5 -11.5t-68 -7.5l-39 -2l-21 164q33 12 61 29q24 14 46 36t30 53q3 14 -0.5 25.5t-12 20t-20 13t-23.5 4.5q-27 0 -53.5 -6.5t-55.5 -20.5l-29 172q43 25 85 39.5
t77 22.5t61.5 10.5t39.5 2.5q49 0 87.5 -12t63.5 -35t33.5 -57t-2.5 -79q-11 -42 -31 -79.5t-49 -68.5q66 11 125.5 34.5t109.5 58t89 80t63 101.5h275z" />
    <glyph glyph-name="maitriupperleftthai.alt2" 
d="M-744 3039q57 0 98.5 -21.5t73.5 -53.5q62 39 112.5 57t95.5 18q48 0 79.5 -14.5t48.5 -39t20.5 -56t-4.5 -64.5q-3 -9 -5.5 -16t-6 -14t-8.5 -14.5t-14 -17.5q33 22 62.5 49.5t52.5 56.5t38.5 57t22.5 50h199q-23 -64 -65 -124t-94.5 -113t-112.5 -97.5t-120 -76
t-117 -49t-103 -17.5q-11 0 -20 -1t-25 1l-9 141q16 5 34.5 13.5t35.5 22t30 31.5t19 43q4 17 0.5 29t-9.5 19.5t-13 11t-10 3.5q-33 0 -60 -15.5t-52 -29.5q-9 -6 -22 -13.5t-24 -7.5q-15 0 -25 8.5t-17 14.5q-17 14 -34.5 28.5t-46.5 14.5q-10 0 -20.5 -5.5t-19.5 -14.5
t-15.5 -21t-9.5 -25q-5 -23 3 -39t25 -25q13 -7 28.5 -9t32.5 -2l-89 -169q-10 -2 -25 -3t-31 -1q-54 0 -90.5 22.5t-56 59t-23 83.5t9.5 96q14 54 44.5 98t69.5 75.5t81.5 48.5t80.5 17z" />
    <glyph glyph-name="maichattawaupperleftthai.alt2" 
d="M-944 2917h231l44 178h271l-44 -178h231l-51 -204h-231l-44 -177h-271l44 177h-231z" />
    <glyph glyph-name="maitaikhuthai.alt3" 
d="M-634 1951q-74 1 -137.5 22.5t-106 61t-60.5 96t0 127.5q19 75 64 138.5t120 109.5t183.5 72t255.5 26q30 0 66 -3.5t69 -8t59 -9.5t35 -9l129 149h346l-331 -371q-42 17 -91.5 30t-103.5 22t-109.5 13.5t-107.5 4.5q-47 0 -91 -10t-80.5 -30.5t-62 -50t-35.5 -68.5
q-5 -18 -5 -35.5t5 -32.5t15 -26t25 -14l229 96q22 -36 41 -55.5t36 -29t33.5 -11t32.5 -1.5q26 0 40.5 19t22.5 41q5 17 3 33t-4 26h285q2 -21 1.5 -43.5t-7.5 -48.5q-12 -47 -45 -89.5t-80.5 -74t-105 -50t-118.5 -17.5q-71 1 -120 24t-93 66z" />
    <glyph glyph-name="saraithai.alt3" 
d="M-1054 2256h1200l-74 -298h-1200z" />
    <glyph glyph-name="saraiithai.alt3" 
d="M-1053 2256h762l62 250h437l-136 -548h-1199z" />
    <glyph glyph-name="sarauethai.alt3" 
d="M-1127 1958l74 298h681q13 62 45.5 112t78.5 85.5t103.5 54.5t121.5 19q65 0 112.5 -20t74.5 -56.5t33.5 -89t-9.5 -117.5t-51.5 -118t-84 -90.5t-107 -57.5t-119.5 -20h-953zM-194 2244q-14 -55 6.5 -83t65.5 -28q46 0 81 28t49 83q14 54 -7 82.5t-67 28.5t-80.5 -28.5
t-47.5 -82.5z" />
    <glyph glyph-name="saraueethai.alt3" 
d="M-1053 2256h391l62 250h318l-62 -250h172l62 250h318l-136 -548h-1199z" />
    <glyph glyph-name="maitaikhuthai.alt4" 
d="M-528 1951q-74 1 -137.5 22.5t-106 61t-60.5 96t0 127.5q19 75 64 138.5t120 109.5t183.5 72t255.5 26q29 0 65 -3.5t69 -8t59 -9.5t35 -9l130 149h346l-331 -371q-42 17 -92 30t-103.5 22t-109 13.5t-107.5 4.5q-47 0 -91 -10t-80.5 -30.5t-62 -50t-35.5 -68.5
q-5 -18 -5 -35.5t5 -32.5t15 -26t25 -14l229 96q22 -36 40.5 -55.5t36 -29t33.5 -11t32 -1.5q26 0 40.5 19t22.5 41q5 17 3 33t-4 26h286q2 -21 1.5 -43.5t-7.5 -48.5q-12 -47 -45 -89.5t-80.5 -74t-105.5 -50t-119 -17.5q-35 0 -64.5 6.5t-55 17.5t-48 28t-44.5 38z" />
    <glyph glyph-name="saraithai.alt4" 
d="M-1033 2256h1339l-74 -298h-1339z" />
    <glyph glyph-name="saraiithai.alt4" 
d="M-1033 2256h901l62 250h438l-136 -548h-1339z" />
    <glyph glyph-name="sarauethai.alt4" 
d="M-1107 1958l74 298h890q13 62 45.5 112t78.5 85.5t104 54.5t122 19q65 0 112.5 -20t74.5 -56.5t33.5 -89t-9.5 -117.5t-51.5 -118t-84 -90.5t-107 -57.5t-119.5 -20h-1163zM35 2244q-14 -55 6.5 -83t66.5 -28t81 28t49 83q14 54 -7 82.5t-67 28.5t-80.5 -28.5
t-48.5 -82.5z" />
    <glyph glyph-name="saraueethai.alt4" 
d="M-1032 2256h477l62 250h337l-61 -250h172l62 250h338l-136 -548h-1325z" />
    <glyph glyph-name="maiekthai.alt4" 
d="M-42 2643l108 431h444l-108 -431h-444z" />
    <glyph glyph-name="maithothai.alt4" 
d="M877 3173q-36 -77 -96.5 -151.5t-138.5 -138t-170 -112t-192 -75.5q-114 -30 -214 -44t-163 -20l-43 -2l-22 174q36 13 66 31q26 16 49.5 40t31.5 56q7 29 -11.5 45t-45.5 16q-28 0 -56.5 -7t-58.5 -24l-33 193q45 26 89 42t81.5 24.5t66 11t43.5 2.5q52 0 93 -13
t67.5 -37.5t35.5 -61.5t-3 -85q-11 -44 -35.5 -80t-47.5 -67q70 12 133 37.5t115.5 61.5t93.5 82.5t68 101.5h297z" />
    <glyph glyph-name="maitrithai.alt4" 
d="M48 3187q63 0 109 -23t79 -59q69 43 124.5 62.5t103.5 19.5q53 0 87.5 -16t53 -42.5t22 -61t-5.5 -71.5q-3 -10 -5.5 -17.5t-6 -14.5t-8.5 -15.5t-14 -19.5q36 23 68 53.5t57 62t42.5 62.5t25.5 55h218q-26 -70 -72 -136t-104 -124t-124 -106.5t-132.5 -83t-128.5 -54
t-113 -19.5q-11 0 -21 -1t-28 1l-9 155q18 6 38.5 15.5t38.5 23.5t32 34t21 47q5 19 1.5 32t-10.5 21t-14.5 12t-11.5 4q-36 0 -65.5 -17t-56.5 -32q-10 -7 -24.5 -15t-26.5 -8q-16 0 -26.5 9t-18.5 16q-18 15 -38 31t-51 16q-11 0 -22.5 -6t-21.5 -15.5t-17.5 -22.5
t-10.5 -28q-5 -26 4 -43t29 -27q13 -7 29.5 -9.5t36.5 -2.5l-100 -186q-9 -2 -26 -3t-35 -1q-59 0 -98.5 24.5t-60.5 64.5t-24.5 91.5t10.5 105.5q15 59 48.5 107.5t75.5 83t88.5 53t88.5 18.5z" />
    <glyph glyph-name="maichattawathai.alt4" 
d="M-179 3065h253l48 194h308l-48 -194h253l-57 -226h-253l-48 -193h-308l48 193h-252z" />
    <glyph glyph-name="thanthakhatthai.alt4" 
d="M668 2695h-453q-38 0 -64 -20t-33 -47q-5 -21 -4 -44t24 -55l-282 -140q-30 35 -44.5 74t-19 75t-1.5 66.5t8 48.5q22 88 66.5 143.5t99.5 86.5t113 42.5t107 11.5h544z" />
    <glyph glyph-name="sarauthai.alt4" 
d="M-1254 -874l70 283q5 21 1.5 36t-13 24.5t-23.5 13.5t-30 4q-27 0 -61 -16.5t-75 -46.5l-70 250q80 57 148.5 90t126.5 49.5t106 21t88 4.5q65 0 111 -16t76 -42t46 -60.5t22 -72t3 -75t-11 -70.5l-94 -377h-421z" />
    <glyph glyph-name="sarauuthai.alt4" 
d="M-1654 -297q116 68 213 96.5t181 28.5q81 0 126.5 -21.5t66.5 -56.5t21 -79t-11 -88l-36 -141q-6 -24 1.5 -38.5t20 -22.5t27 -11t22.5 -3q7 0 22.5 2.5t32.5 10.5t32 22.5t21 39.5l93 372h409l-87 -351q-23 -93 -80.5 -163t-138.5 -117t-179.5 -71t-203.5 -24
q-106 0 -188 23.5t-133.5 68t-70 109t2.5 146.5l7 29q6 25 -5 32.5t-23 7.5q-11 0 -23.5 -3.5t-24.5 -9t-22.5 -12t-16.5 -11.5z" />
    <glyph glyph-name="phinthuthai.alt4" 
d="M-1238 -438q13 52 46.5 98.5t80 81t102 54.5t111.5 20q58 0 104 -20t75 -54.5t39.5 -81t-2.5 -98.5q-13 -51 -46.5 -97t-80 -80.5t-102.5 -54.5t-114 -20q-56 0 -101 20t-74.5 54.5t-40 80.5t2.5 97z" />
    <glyph glyph-name="saraamthai.alt4" horiz-adv-x="1436" 
d="M862 1729q159 0 258.5 -49t149 -135.5t52 -204t-31.5 -254.5l-270 -1086h-448l275 1106q16 62 13.5 106t-17.5 71.5t-39 40.5t-51 13q-26 0 -62 -7t-80.5 -29t-97.5 -62t-114 -107l-213 250q78 94 160.5 160t168 107.5t172.5 60.5t175 19zM-244 2247q16 63 58.5 118.5
t103 96.5t133.5 64.5t150 23.5q76 0 137 -23.5t101 -64.5t55 -96.5t-1 -118.5t-58.5 -117.5t-102.5 -95.5t-132.5 -64.5t-148.5 -23.5q-77 0 -138.5 23.5t-101.5 64.5t-55.5 95.5t0.5 117.5zM-1 2243q-11 -45 13 -76.5t78 -31.5q27 0 51 8.5t43.5 23.5t32.5 34.5t19 41.5
q11 45 -14 76t-79 31q-27 0 -50.5 -8.5t-42.5 -23t-32.5 -34t-18.5 -41.5z" />
    <glyph glyph-name="nikhahitthai.alt4" 
d="M-244 2247q16 63 58.5 118.5t103 96.5t133.5 64.5t150 23.5q76 0 137 -23.5t101 -64.5t55 -96.5t-1 -118.5t-58.5 -117.5t-102.5 -95.5t-132.5 -64.5t-148.5 -23.5q-77 0 -138.5 23.5t-101.5 64.5t-55.5 95.5t0.5 117.5zM-1 2243q-11 -45 13 -76.5t78 -31.5q27 0 51 8.5
t43.5 23.5t32.5 34.5t19 41.5q11 45 -14 76t-79 31q-27 0 -50.5 -8.5t-42.5 -23t-32.5 -34t-18.5 -41.5z" />
    <glyph glyph-name="maiekthai.alt5" 
d="M9 2643l108 431h433l-108 -431h-433z" />
    <glyph glyph-name="maithothai.alt5" 
d="M778 3138q-33 -72 -89.5 -141t-130 -129t-160 -106t-180.5 -71q-53 -14 -103.5 -23.5t-96 -16.5t-84 -11.5t-67.5 -7.5l-39 -2l-20 164q33 12 60 29q23 14 45.5 36t30.5 53q3 14 -0.5 25.5t-12 20t-20 13t-23.5 4.5q-27 0 -53 -6.5t-55 -20.5l-29 172q43 25 84.5 39.5
t76.5 22.5t61.5 10.5t39.5 2.5q49 0 87.5 -12t63 -35t33 -57t-2.5 -79q-20 -86 -79 -148q66 11 125.5 34.5t109.5 58t89.5 80t63.5 101.5h275z" />
    <glyph glyph-name="maitrithai.alt5" 
d="M70 3139q57 0 98.5 -21.5t72.5 -53.5q63 39 113.5 57t95.5 18q48 0 79.5 -14.5t48.5 -39t20.5 -56t-4.5 -64.5q-3 -9 -5.5 -16t-6 -14t-8.5 -14.5t-14 -17.5q34 22 63 49.5t52.5 56.5t39 57t22.5 50h199q-24 -64 -65.5 -124t-94.5 -113t-113 -97.5t-120.5 -76t-117.5 -49
t-103 -17.5q-11 0 -19.5 -1t-25.5 1l-8 141q16 5 34.5 13.5t35.5 22t30 31.5t19 43q4 17 0.5 29t-9.5 19.5t-13 11t-10 3.5q-33 0 -60 -15.5t-52 -29.5q-9 -6 -22 -13.5t-24 -7.5q-15 0 -25 8.5t-17 14.5q-17 14 -34.5 28.5t-46.5 14.5q-10 0 -20.5 -5.5t-19.5 -14.5
t-15.5 -21t-9.5 -25q-5 -23 3 -39t25 -25q13 -7 28.5 -9t32.5 -2l-90 -169q-9 -2 -24.5 -3t-31.5 -1q-54 0 -90 22.5t-55.5 59t-22.5 83.5t10 96q13 54 43.5 98t69.5 75.5t81.5 48.5t80.5 17z" />
    <glyph glyph-name="maichattawathai.alt5" 
d="M-59 3027h231l45 178h271l-45 -178h231l-51 -204h-231l-44 -177h-271l44 177h-231z" />
    <glyph glyph-name="sarauthai.alt6" 
d="M-1144 -874l70 283q5 21 1.5 36t-13 24.5t-23.5 13.5t-30 4q-27 0 -61 -16.5t-75 -46.5l-70 250q80 57 148.5 90t126.5 49.5t106 21t88 4.5q65 0 111 -16t76 -42t46 -60.5t22 -72t3 -75t-11 -70.5l-94 -377h-421z" />
    <glyph glyph-name="sarauuthai.alt6" 
d="M-1824 -297q116 68 213 96.5t181 28.5q81 0 126.5 -21.5t66.5 -56.5t21 -79t-11 -88l-36 -141q-6 -24 1.5 -38.5t20 -22.5t27 -11t22.5 -3q7 0 22.5 2.5t32.5 10.5t32 22.5t21 39.5l93 372h409l-87 -351q-23 -93 -80.5 -163t-138.5 -117t-179.5 -71t-203.5 -24
q-106 0 -188 23.5t-133.5 68t-70 109t2.5 146.5l7 29q6 25 -5 32.5t-23 7.5q-11 0 -23.5 -3.5t-24.5 -9t-22.5 -12t-16.5 -11.5z" />
    <glyph glyph-name="phinthuthai.alt6" 
d="M-1075 -428q13 52 46.5 98.5t79.5 81t101.5 54.5t111.5 20q58 0 104 -20t75 -54.5t40 -81t-2 -98.5q-13 -51 -46.5 -97t-80 -80.5t-102.5 -54.5t-114 -20q-56 0 -101 20t-74.5 54.5t-40 80.5t2.5 97z" />
    <glyph glyph-name="sarauthai.alt7" 
d="M-1194 -874l70 283q5 21 1.5 36t-13 24.5t-23.5 13.5t-30 4q-27 0 -61 -16.5t-75 -46.5l-70 250q80 57 148.5 90t126.5 49.5t106 21t88 4.5q65 0 111 -16t76 -42t46 -60.5t22 -72t3 -75t-11 -70.5l-94 -377h-421z" />
    <glyph glyph-name="sarauuthai.alt7" 
d="M-1674 -297q116 68 213 96.5t181 28.5q81 0 126.5 -21.5t66.5 -56.5t21 -79t-11 -88l-36 -141q-6 -24 1.5 -38.5t20 -22.5t27 -11t22.5 -3q7 0 22.5 2.5t32.5 10.5t32 22.5t21 39.5l93 372h409l-87 -351q-23 -93 -80.5 -163t-138.5 -117t-179.5 -71t-203.5 -24
q-106 0 -188 23.5t-133.5 68t-70 109t2.5 146.5l7 29q6 25 -5 32.5t-23 7.5q-11 0 -23.5 -3.5t-24.5 -9t-22.5 -12t-16.5 -11.5z" />
    <glyph glyph-name="phinthuthai.alt7" 
d="M-1275 -428q13 52 46.5 98.5t79.5 81t101.5 54.5t111.5 20q58 0 104 -20t75 -54.5t40 -81t-2 -98.5q-13 -51 -46.5 -97t-80 -80.5t-102.5 -54.5t-114 -20q-56 0 -101 20t-74.5 54.5t-40 80.5t2.5 97z" />
    <glyph glyph-name="saraithai.alt8" 
d="M-1233 2256h1379l-74 -298h-1379z" />
    <glyph glyph-name="saraiithai.alt8" 
d="M-1233 2256h942l62 250h437l-136 -548h-1379z" />
    <glyph glyph-name="sarauethai.alt8" 
d="M-1307 1958l74 298h861q13 62 45.5 112t78.5 85.5t103.5 54.5t121.5 19q65 0 112.5 -20t74.5 -56.5t33.5 -89t-9.5 -117.5t-51.5 -118t-84 -90.5t-107 -57.5t-119.5 -20h-1133zM-194 2244q-14 -55 6.5 -83t65.5 -28q46 0 81 28t49 83q14 54 -7 82.5t-67 28.5t-80.5 -28.5
t-47.5 -82.5z" />
    <glyph glyph-name="saraueethai.alt8" 
d="M-1233 2256h524l62 250h345l-62 -250h166l61 250h345l-136 -548h-1379z" />
    </font>
</defs>
</svg>
