<svg width="20" height="20" viewBox="0 0 20 20" fill="none" xmlns="http://www.w3.org/2000/svg">
<path d="M20 13.4375C20 15.3359 18.9459 16.875 16.875 16.875H3.125C1.05406 16.875 0 15.3359 0 13.4375V6.5625C0 4.66406 1.05406 3.125 3.125 3.125H16.875C18.9459 3.125 20 4.66406 20 6.5625V13.4375Z" fill="#EC1C24"/>
<path d="M4.05345 5.20504L4.72189 6.56254L6.22032 6.77973L5.13689 7.83442L5.3922 9.32817L4.05345 8.62348L2.71439 9.32817L2.97001 7.83442L1.88751 6.77973L3.38345 6.56254L4.05345 5.20504ZM6.40845 4.06067L6.59376 4.43723L7.01064 4.49754L6.7097 4.79098L6.78001 5.20504L6.40845 5.00942L6.0372 5.20504L6.10751 4.79098L5.80689 4.49754L6.22282 4.43723L6.40845 4.06067ZM7.61189 5.41504L7.79751 5.79129L8.21251 5.85192L7.91282 6.14598L7.98345 6.55942L7.61189 6.36411L7.24064 6.55942L7.31095 6.14598L7.01064 5.85192L7.42595 5.79129L7.61189 5.41504ZM7.61189 7.58879L7.79751 7.96598L8.21251 8.02629L7.91282 8.31973L7.98345 8.73379L7.61189 8.53879L7.24064 8.73379L7.31095 8.31973L7.01064 8.02629L7.42595 7.96598L7.61189 7.58879ZM6.40845 9.11567L6.59376 9.49223L7.01064 9.55223L6.7097 9.84536L6.78001 10.26L6.40845 10.0657L6.0372 10.26L6.10751 9.84536L5.80689 9.55223L6.22282 9.49223L6.40845 9.11567Z" fill="#F9CB38"/>
</svg>
