<svg width="52" height="40" viewBox="0 0 52 40" fill="none" xmlns="http://www.w3.org/2000/svg">
<path d="M48.7781 5.50031H48.7884L48.6624 2.97736C48.6624 1.59222 49.092 0.977755 49.622 0.542944L50.386 -0.0012207H44.9655L42.6733 5.49771H42.7093L36.0487 21.4764L27.6491 0.00138295H22.442C22.442 0.00138295 22.4626 0.0144012 22.4703 0.0222122H22.442L23.0286 0.438798C23.5997 0.907456 24.104 1.54796 24.176 2.68575C24.176 2.73002 24.176 2.76647 24.176 2.81073L23.7438 12.2099H23.7284L23.1701 24.3013C23.1701 26.1864 22.2748 27.0378 21.4181 27.7095L21.0425 27.9777L27.752 27.9881L27.7365 27.9777H27.7828C26.831 27.2877 25.735 26.8269 25.6373 24.6372L26.5377 7.23955L34.9399 29.4409L44.3146 6.99481L45.3411 25.0356C45.3231 26.754 44.3841 27.4127 43.5943 27.9777H51.5L50.7102 27.4127C50.2471 27.0274 49.8561 26.4936 49.7712 25.4261L48.7859 5.50291L48.7781 5.50031Z" fill="black"/>
<path d="M20.1781 21.9528C18.9201 24.6997 17.2916 25.5407 14.8785 25.5407H6.7438V14.7745H12.5039V14.7563H14.0475C16.3449 14.7563 16.6562 16.0816 17.127 16.9174V10.2051C16.6562 11.0383 16.0387 12.3167 14.0398 12.3167L6.74122 12.3193V2.54255H14.8965C15.1049 2.54255 15.3055 2.55557 15.4959 2.579C15.5577 2.5738 15.6143 2.56859 15.6786 2.56859C17.1681 2.56859 18.4133 3.60745 18.7554 5.00822V0.0899073H0.5C1.17403 0.417968 1.70914 0.980358 2.00499 1.67554C2.09246 1.83696 2.15163 2.02963 2.19537 2.29C2.23396 2.48788 2.25454 2.69357 2.25454 2.90707C2.25454 2.96435 2.24939 3.02163 2.24682 3.0763V27.9517L19.005 27.9881L20.1833 21.9554L20.1781 21.9528Z" fill="black"/>
<path d="M34.2607 39.7202C34.4691 39.5718 34.7187 39.4416 34.7187 38.9313V31.7973C34.7187 31.3729 34.4691 31.1698 34.2607 31.0188H36.3317C36.1208 31.1672 35.8738 31.2974 35.8738 31.7973V38.9313C35.8738 39.4234 36.1233 39.5692 36.3317 39.7202H34.2607Z" fill="black"/>
<path d="M9.94159 39.7202C10.15 39.5718 10.3995 39.4416 10.3995 38.9313V31.7973C10.3995 31.3729 10.15 31.1698 9.94159 31.0188H12.0126C11.8016 31.1672 11.5546 31.2974 11.5546 31.7973V38.9313C11.5546 39.4234 11.8042 39.5692 12.0126 39.7202H9.94159Z" fill="black"/>
<path d="M24.4178 31.5291H22.689V38.9313C22.689 39.465 22.9386 39.5666 23.1572 39.715H21.0785C21.2869 39.5666 21.5468 39.4624 21.5468 38.9313V31.5291H19.8179C19.2442 31.5291 18.8867 31.7634 18.7271 32.1748V31.0214H25.5061V32.1748C25.3465 31.766 24.9915 31.5291 24.4153 31.5291H24.4178Z" fill="black"/>
<path d="M50.3552 31.5291H48.6264V38.9313C48.6264 39.465 48.8759 39.5666 49.0946 39.715H47.0159C47.2243 39.5666 47.4841 39.4624 47.4841 38.9313V31.5291H45.7553C45.1816 31.5291 44.824 31.7634 44.6645 32.1748V31.0214H51.4434V32.1748C51.2839 31.766 50.9289 31.5291 50.3526 31.5291H50.3552Z" fill="black"/>
<path d="M32.8638 39.7202C32.2489 39.7202 31.6058 39.5718 30.8469 38.5355L28.6112 35.2757H29.0769C29.9619 35.2757 30.7722 34.5285 30.7722 33.3464C30.7722 32.2373 29.985 31.5395 28.7579 31.5395H27.6877V38.9339C27.6877 39.2099 27.6851 39.4442 28.1456 39.7228H26.0746C26.4631 39.5301 26.5325 39.2099 26.5325 38.9339V31.8181C26.5325 31.3312 26.3267 31.1463 26.0746 31.0292H29.064C30.9806 31.0292 32.002 31.9144 32.002 33.3334C32.002 34.2916 31.2508 35.2133 30.1214 35.4892C30.1214 35.4892 31.5209 37.5592 31.8913 38.1007C32.7326 39.3296 34.3225 39.7228 34.3225 39.7228H32.8612L32.8638 39.7202Z" fill="black"/>
<path d="M4.79888 39.7176H2.18251V31.7712C2.18251 31.4978 2.023 31.2375 1.81462 31.076H4.80145C7.65194 31.076 9.22896 32.883 9.22896 35.3955C9.22896 37.908 7.49243 39.715 4.80145 39.715L4.79888 39.7176ZM4.55448 31.5473H3.31961V39.2593H4.55448C6.56114 39.2593 8.01725 37.6373 8.01725 35.3981C8.01725 33.159 6.68462 31.5473 4.55448 31.5473Z" fill="black"/>
<path d="M14.6521 40.0014C14.1093 40.0014 13.3709 39.728 12.7972 39.5614V38.3272C13.1548 39.0406 13.8314 39.4442 14.6881 39.4442C15.8458 39.4442 16.8491 38.7646 16.8491 37.7336C16.8491 36.9187 16.3192 36.3719 14.8785 35.635C13.4635 34.9086 12.7072 34.1588 12.7072 33.1147C12.7072 31.3833 14.0655 30.735 15.8226 30.735C16.4375 30.735 17.1939 30.8625 17.6235 31.0656V32.2243C17.3379 31.6645 16.7231 31.2192 15.7943 31.2192C14.5209 31.2192 13.8211 31.8806 13.8211 32.7476C13.8211 33.7005 14.8785 34.2239 15.694 34.63C17.6672 35.609 18.0531 36.5385 18.0531 37.5071C18.0531 39.2255 16.4118 40.0014 14.6547 40.0014H14.6521Z" fill="black"/>
<path d="M41.477 39.8139C39.0098 39.8139 36.9723 37.9315 36.9723 35.3382C36.9723 32.745 38.9867 30.8625 41.477 30.8625C42.3363 30.8625 43.1338 31.011 43.849 31.2921V32.5601C43.5274 31.7244 42.645 31.3416 41.6571 31.3416C39.7019 31.3416 38.1892 33.1381 38.1892 35.3382C38.1892 37.5383 39.7379 39.3088 41.6571 39.3088C42.717 39.3088 43.5505 38.9521 43.849 38.1528V39.3817C43.1338 39.6655 42.3363 39.8113 41.477 39.8113V39.8139Z" fill="black"/>
</svg>
