<svg width="48" height="56" viewBox="0 0 48 56" fill="none" xmlns="http://www.w3.org/2000/svg">
<path d="M33.6056 35.5721V14.63L23.8139 35.5721L14.0221 14.63V35.5721H7.18215V0H14.0169L23.8086 20.9473L33.6056 0H40.4456V35.5721H33.6056Z" fill="black"/>
<path d="M7.97664 43.8901C7.97664 43.8901 8.01873 43.9058 8.03978 43.9163C8.07661 43.9321 8.11344 43.9531 8.15027 43.9636C8.30285 44.0161 8.46596 43.9006 8.53962 43.7693C8.67116 43.5173 8.51332 43.2652 8.29233 43.1392C8.11344 43.0341 7.92402 42.9921 7.71882 43.0131C7.64516 43.0184 7.56624 43.0499 7.48732 43.1077C7.35578 43.1969 7.35578 43.344 7.35052 43.491C7.35052 43.5593 7.35052 43.6328 7.3663 43.6958C7.44522 43.9426 7.78196 43.8376 7.97138 43.8953L7.97664 43.8901Z" fill="black"/>
<path d="M31.7535 45.9223C31.6904 45.7648 31.5694 45.7543 31.4694 45.8908C31.1695 46.3057 30.8959 46.7573 30.6223 47.1984C30.517 47.3664 30.4118 47.5345 30.3066 47.7025C30.1593 47.9283 30.0067 48.1541 29.8436 48.3747C29.6857 48.59 29.5174 48.8053 29.3332 49.0048C29.2227 49.1309 29.1122 49.2516 28.9912 49.3672C28.9333 49.4249 28.7755 49.6297 28.686 49.5667C28.6439 49.5405 28.6282 49.4879 28.6176 49.4407C28.5913 49.3304 28.5808 49.2201 28.5703 49.1046C28.5334 48.611 28.5387 48.1174 28.5966 47.6237C28.6808 46.9411 29.4279 43.0079 29.4858 42.7138C29.5331 42.4722 29.6278 42.2254 29.8383 42.0784C30.175 41.8421 30.5907 41.7686 30.9432 41.569C31.0222 41.527 31.0958 41.4745 31.1379 41.3957C31.18 41.317 31.1747 41.2119 31.1116 41.1542C31.0379 41.0964 30.9327 41.1122 30.8433 41.1384C30.5276 41.2224 30.2224 41.338 29.9278 41.485C30.1172 40.9336 30.3118 40.3822 30.5013 39.8309C30.6328 39.4528 30.9906 38.8751 30.7538 38.476C30.6907 38.371 30.6118 38.2817 30.5118 38.1925C30.4118 38.1085 30.3013 38.0402 30.1803 37.9929C30.0593 37.9457 29.9383 37.9247 29.8225 37.9352C29.5752 37.9614 29.5279 38.4603 29.4647 38.6493C29.3648 38.9697 29.2595 39.2847 29.1596 39.6051C28.9544 40.2405 28.7544 40.8811 28.5492 41.5165C28.465 41.7791 28.4335 41.9314 28.1704 42.0259C27.7284 42.1834 27.2233 42.2254 26.755 42.2832C26.6814 42.2937 26.5972 42.3042 26.5498 42.362C26.492 42.4355 26.5183 42.551 26.5814 42.6193C26.6498 42.6876 26.7445 42.7138 26.8392 42.7348C27.1918 42.8031 27.539 42.7348 27.8915 42.6245C28.1546 42.5458 28.1441 42.6718 28.0967 42.8713C28.0178 43.1917 27.8758 43.8376 27.8021 44.1579C27.781 44.2524 27.76 44.3365 27.739 44.4205C27.6758 44.4782 27.6127 44.536 27.5548 44.5833C27.3706 44.7355 27.1812 44.8878 26.9918 45.0349C26.6077 45.3394 26.2131 45.6388 25.8185 45.9328C25.4186 46.2269 25.0187 46.521 24.6083 46.8045C24.4031 46.9463 24.1979 47.0881 23.9927 47.2247C23.8086 47.3454 23.6455 47.524 23.4087 47.4557C22.851 47.2929 22.4669 46.8886 22.2722 46.395C22.0775 45.9066 22.067 45.3289 22.2512 44.8196C22.3827 44.4467 22.5932 44.1106 22.8036 43.7798C23.0983 43.3177 23.414 42.8451 23.877 42.5353C23.9875 42.4618 24.0717 42.383 24.1979 42.4302C24.3979 42.4985 24.5768 42.8083 24.6347 42.9974C24.7031 43.2127 24.7031 43.449 24.661 43.6748C24.582 44.0686 24.3768 44.4257 24.2348 44.8038C24.1874 44.9298 24.1401 45.0716 24.1664 45.2029C24.2348 45.5653 24.7451 45.518 24.9924 45.3972C25.3607 45.2239 25.6238 44.8721 25.7659 44.4992C26.0553 43.7273 26.0868 42.7138 25.3292 42.2044C24.9135 41.9261 24.4242 41.9419 23.9454 41.9681C23.4876 41.9891 23.0088 42.0837 22.6458 42.3777C22.1302 42.8031 21.7092 43.344 21.4356 43.9531C21.1463 44.5938 21.0252 45.3657 21.2199 46.0536C21.2304 46.0956 21.2515 46.1376 21.262 46.1796C21.241 46.1902 21.2199 46.2006 21.1989 46.2217C21.0305 46.3792 20.8516 46.5367 20.6832 46.7258C20.5149 46.9148 20.3149 47.1301 20.136 47.3087C19.7519 47.6973 19.3942 48.1174 19.0259 48.5217C18.2735 49.3462 17.4316 50.1339 16.2688 50.2494C15.9216 50.2861 15.8689 49.7243 15.8584 49.4827C15.8479 49.0153 15.89 48.5427 15.9952 48.0859C16.0373 47.9126 16.1004 47.4715 16.3267 47.4452C16.4004 47.44 16.4635 47.4347 16.5108 47.4347C16.5635 47.4347 16.6213 47.4347 16.695 47.4242C17.4684 47.3454 18.3208 46.8623 18.8785 46.3372C19.5888 45.6703 20.2571 44.2682 19.2468 43.554C18.5786 43.0814 17.6158 43.2389 17.0317 43.7588C16.7055 44.0476 16.4582 44.4152 16.2109 44.7776C15.5322 45.7595 14.9219 46.7153 14.6956 47.8706C14.2379 48.1909 13.738 48.4429 13.2119 48.6215C12.9488 48.7108 12.4437 48.8998 12.028 48.9156C11.7597 48.9261 11.5282 48.863 11.4072 48.6582C11.2967 48.4692 11.3651 48.3589 11.4493 48.1646C11.6176 47.7708 11.807 47.3822 11.9912 46.9936C12.1227 46.7153 12.249 46.437 12.37 46.1534C13.2487 44.1106 14.0274 41.8999 14.1589 39.6628C14.1642 39.563 14.2168 39.3688 14.08 39.2112C13.9958 39.1167 13.8959 39.0327 13.7801 38.9854C13.5539 38.8909 13.3381 38.8226 13.1329 38.7754C12.912 38.7964 12.7331 38.9066 12.5857 39.1062C12.1385 39.7153 11.9281 40.503 11.6545 41.1962C11.5597 41.4378 11.465 41.6793 11.3756 41.9261C11.0441 42.8451 10.8231 43.7956 10.5969 44.7461C10.4285 45.2449 10.3285 45.7806 10.197 46.2899C10.1707 46.3844 10.1497 46.4842 10.1233 46.5787C10.097 46.6208 10.0707 46.6628 10.0444 46.6995C9.60245 47.3717 9.02895 47.9441 8.52384 48.5742C7.9819 49.2464 7.48206 49.9553 6.96116 50.6432C6.90855 50.7115 6.84541 50.7798 6.77175 50.8218C6.72439 50.848 6.65599 50.8743 6.59812 50.8743C6.56129 50.8743 6.5455 50.8428 6.53498 50.8113C6.52446 50.7903 6.53498 50.764 6.53498 50.743C6.56655 50.575 6.59812 50.4227 6.63495 50.2599C6.72966 49.8083 6.80332 49.3462 6.89276 48.8893C7.03483 48.1594 7.18215 47.4189 7.38735 46.7153C7.46627 46.4527 7.54519 46.1901 7.63464 45.9276C7.70304 45.7333 7.8451 45.518 7.82405 45.3079C7.80301 45.1189 7.70304 44.9719 7.52415 44.8668C7.34526 44.7618 7.15584 44.7198 6.95064 44.7408C6.60338 44.7776 6.6823 45.1136 6.60864 45.3762C6.50867 45.7333 6.38239 46.0746 6.26664 46.4265C6.00883 47.1879 5.81415 47.9651 5.67209 48.7528C5.58264 49.2359 5.47741 49.74 5.43006 50.2441C5.39849 50.5382 5.38796 50.8375 5.40901 51.1263C5.41427 51.2261 5.43006 51.3259 5.47215 51.4152C5.5195 51.5097 5.60369 51.5779 5.68787 51.641C6.05618 51.8878 6.49289 51.9298 6.89276 51.7302C7.42418 51.4624 7.80301 50.932 8.1187 50.4437C8.55015 49.7715 8.89741 49.0626 9.36042 48.4114C9.52879 48.1751 9.6919 47.9231 9.88658 47.7078C9.88131 47.7498 9.87079 47.7918 9.86553 47.8338C9.70768 48.9261 9.57088 50.0236 9.44987 51.1263C9.38673 51.6777 9.32885 52.2344 9.28676 52.7857C9.21836 53.6154 9.22362 54.3821 9.57615 55.1593C9.87079 55.8105 10.6705 56.0573 11.3493 55.989C11.8754 55.9365 12.2595 55.5164 12.3963 55.0228C12.6489 54.1143 12.7594 53.1638 12.7278 52.2239C12.712 51.746 12.6594 51.2681 12.5752 50.8008C12.5331 50.5697 12.47 50.3492 12.4226 50.1181C12.4068 50.0341 12.3385 49.761 12.3911 49.6927C12.4332 49.6402 12.5016 49.614 12.5647 49.593C12.7173 49.5405 12.8751 49.5037 13.0277 49.4512C13.5854 49.2674 14.1168 48.9576 14.6062 48.59C14.5956 48.8788 14.6167 49.1519 14.6325 49.4039C14.6588 49.8345 14.9008 50.1601 15.3586 50.3702C15.9058 50.6222 16.5687 50.701 17.1475 50.5277C17.963 50.2861 18.7417 49.8398 19.3468 49.2359C19.7572 48.821 20.1045 48.3537 20.4991 47.9336C20.7516 47.6658 21.241 47.0356 21.4567 46.6103C21.7566 47.0934 22.2196 47.482 22.6826 47.7813C22.751 47.8285 22.8352 47.8863 22.8352 47.9703C22.8352 48.0176 22.8142 48.0596 22.7879 48.0964C22.5248 48.5165 22.1459 48.8788 21.8408 49.2726C21.5198 49.6927 21.2147 50.1233 20.9831 50.6012C20.7832 51.0108 20.699 51.5674 21.1726 51.8195C21.504 51.9981 21.9407 51.914 22.2722 51.7827C22.8405 51.5569 23.3351 51.1894 23.7875 50.7798C24.0138 50.575 24.2295 50.3544 24.4452 50.1339C24.6241 49.9553 24.8346 49.8135 24.8977 49.551C24.9661 49.2674 24.8241 48.9733 24.6399 48.7423C24.5031 48.5742 24.3453 48.4219 24.2137 48.2539C24.1243 48.1384 23.9559 48.0438 23.9717 47.8811C23.9875 47.7498 24.1295 47.6395 24.2295 47.5712C25.3818 46.7625 26.4972 45.9118 27.5811 45.0139C27.539 45.2344 27.5022 45.455 27.4601 45.7543C27.2917 46.9778 27.0602 48.3747 27.4496 49.5825C27.5548 49.908 27.7442 50.2231 28.0283 50.4227C28.7123 50.9005 29.4279 50.3492 29.8067 49.761C30.2698 49.0311 30.7275 48.2959 31.0748 47.503C31.2274 47.1616 31.3536 46.8046 31.543 46.479C31.6378 46.3162 31.7956 46.1166 31.7167 45.9223H31.7535ZM16.4951 46.7625C16.7371 46.2689 16.9949 45.7753 17.2632 45.2922C17.4421 44.9719 17.621 44.6515 17.8368 44.3522C18.0051 44.1211 18.2051 43.7903 18.5155 43.7588C18.5892 43.7536 18.6523 43.7851 18.7049 43.8638C18.7575 43.9374 18.7996 44.0266 18.8259 44.1264C18.8522 44.2262 18.8733 44.3207 18.8891 44.4152C18.9048 44.5097 18.9154 44.578 18.9154 44.6148C18.9417 44.7355 18.9417 45.1294 18.7786 45.3604C18.7786 45.4025 18.6996 45.4917 18.5523 45.6388C18.3997 45.7806 18.2314 45.9381 18.0472 46.0956C17.8578 46.2584 17.6736 46.4002 17.4948 46.5262C17.3159 46.6523 16.9949 46.8151 16.8476 46.9096C16.7003 46.9988 16.595 47.0461 16.5372 47.0514C16.4845 47.0514 16.4582 47.0356 16.4477 46.9988C16.4214 46.9253 16.4688 46.7993 16.4951 46.752V46.7625ZM11.6071 45.7018C12.0806 43.7746 12.7068 41.8841 13.5539 40.0829C13.5644 40.0619 13.5854 40.0567 13.6065 40.0567C13.7328 40.2615 13.5802 40.566 13.5381 40.7761C13.4802 41.0702 13.4118 41.359 13.3381 41.6478C13.1908 42.2254 13.0224 42.7978 12.8278 43.365C12.6541 43.8691 12.4647 44.3627 12.2543 44.8511C12.149 45.0979 12.0385 45.3394 11.928 45.581C11.8965 45.6493 11.7281 46.1114 11.6545 46.1219C11.565 46.1324 11.5229 46.1009 11.5282 46.0326C11.544 45.9486 11.5703 45.8383 11.6071 45.6965V45.7018ZM11.002 55.07C10.881 55.2276 10.7337 55.2906 10.6442 55.0753C10.5022 54.7287 10.4706 54.3454 10.4548 53.9725C10.4233 53.1008 10.4548 52.2291 10.5758 51.3626C10.6653 50.7167 10.7442 49.9868 11.0546 49.4039C11.2335 49.3882 11.4756 49.9658 11.5229 50.0918C11.6124 50.3492 11.6545 50.617 11.6808 50.89C11.6808 50.9268 11.686 50.9583 11.6913 50.9951C11.7913 52.2869 11.8228 53.9725 11.0073 55.0648L11.002 55.07ZM23.7928 49.3567C23.6402 49.6035 23.4508 49.803 23.2561 50.0183C23.0088 50.2914 22.7352 50.5329 22.4353 50.743C22.2354 50.8848 22.1565 50.6222 22.1617 50.4647C22.1617 50.1601 22.2985 49.8765 22.4616 49.614C22.6195 49.3567 22.8089 49.1151 22.9404 48.842C22.9825 48.7528 23.0246 48.653 23.093 48.5795C23.3719 48.2697 23.6297 48.7475 23.7718 48.9523C23.7718 48.9523 23.7718 48.9576 23.777 48.9628C23.8296 49.0363 23.8717 49.1204 23.8612 49.2044C23.8559 49.2621 23.8244 49.3094 23.7981 49.3619L23.7928 49.3567Z" fill="black"/>
<path d="M35.3366 44.4782C35.2314 44.3837 35.1525 44.2262 35.2156 44.1001C35.2366 44.0529 35.2787 44.0214 35.3156 43.9899C35.5418 43.8113 35.7733 43.6905 35.8575 43.3912C35.8891 43.2862 35.8838 43.1654 35.8101 43.0867C35.7523 43.0289 35.6628 43.0131 35.5839 43.0026C35.1998 42.9606 34.7789 43.1654 34.4106 43.0551C34.2527 43.0079 34.1212 42.8976 33.9844 42.8083C33.4582 42.4617 32.4954 42.2885 31.964 42.7191C31.6378 42.9816 31.7588 43.4595 31.8693 43.7956C32.0061 44.2104 32.2586 44.6253 32.569 44.9298C32.6374 44.9981 32.7164 45.0874 32.6953 45.1136C32.5585 45.2869 32.2323 45.9643 32.1481 46.1849C31.9745 46.6575 31.6483 47.566 31.7272 48.3064C31.7903 48.9051 32.4428 49.2516 33.0005 49.2464C33.3741 49.2464 33.7476 49.1781 34.0896 49.0258C34.5684 48.8158 34.963 48.4429 35.2577 48.0123C35.6365 47.4662 35.9312 46.8151 36.0153 46.1534C36.0574 45.8331 36.0417 45.5022 35.9259 45.1977C35.8049 44.8826 35.5681 44.6935 35.3313 44.473L35.3366 44.4782ZM32.4954 44.1632C32.4112 43.9006 32.3954 43.617 32.4585 43.3492C32.4901 43.2232 32.5427 43.1182 32.6164 43.0446C32.7427 42.9186 32.9321 42.8871 33.1478 42.9869C33.3583 43.0814 33.6319 43.2862 33.674 43.5278C33.6897 43.6275 33.6161 43.7483 33.5529 43.8323C33.3477 44.1001 33.2267 44.3259 33.0584 44.5938C33.0373 44.6305 32.9952 44.6568 32.9531 44.6515C32.7427 44.6358 32.5638 44.347 32.5006 44.1632H32.4954ZM33.0741 48.695C33.011 48.7108 32.9426 48.7265 32.8847 48.7003C32.7953 48.6635 32.7637 48.548 32.7532 48.4482C32.6901 47.9546 32.8111 47.4977 32.9952 47.0409C33.3372 46.2059 33.8318 45.4655 34.2369 44.6673C34.2896 44.5623 34.3317 44.5045 34.3632 44.4992L34.3737 44.515C34.5106 44.8038 34.6316 45.1084 34.7263 45.4182C34.8105 45.6965 34.8736 45.9801 34.8946 46.2689C34.9788 47.2824 34.0212 48.4114 33.0741 48.6792V48.695Z" fill="black"/>
<path d="M41.4821 42.2359C41.461 42.0994 41.3242 41.9996 41.1874 41.9786C41.0506 41.9576 40.9086 41.9996 40.777 42.0521C40.1299 42.3147 39.6195 42.8346 39.2459 43.4175C38.8724 44.0056 38.6987 44.6673 38.3883 45.2817C38.3567 44.9088 38.4778 44.4782 38.5619 44.1159C38.6461 43.7431 38.6935 43.3965 38.7724 43.0236C38.8408 42.6981 38.9513 42.3567 39.0144 42.0259C39.0618 41.7686 39.1302 41.527 38.9829 41.2855C38.8776 41.1174 38.6672 41.0071 38.4777 41.0702C38.1989 41.1647 38.1568 41.506 38.0779 41.7476C37.9674 42.0889 37.8674 42.4302 37.7832 42.7768C37.6149 43.4595 37.4991 44.1527 37.4044 44.8511C37.3623 45.1556 37.3307 45.4602 37.2992 45.7648C37.2729 46.0326 37.2466 46.3004 37.2202 46.5682C37.1782 47.0513 37.2202 47.6552 36.9572 48.0859C36.8835 48.2066 36.7783 48.3379 36.752 48.4797C36.7099 48.6897 36.9098 48.7475 37.0782 48.821C37.2518 48.8998 37.4412 48.9838 37.6306 48.9523C37.8253 48.9208 37.9884 48.779 38.0884 48.611C38.3094 48.2381 38.3936 47.734 38.5198 47.3244C38.6566 46.8781 38.804 46.4317 38.9618 45.9958C39.2828 45.1084 39.6669 44.2419 40.193 43.4542C40.3298 43.2442 40.4824 43.0446 40.6771 42.8871C40.8981 42.7086 41.5347 42.6193 41.4716 42.2307L41.4821 42.2359Z" fill="black"/>
<path d="M47.254 43.8691C46.6542 43.9531 46.107 44.7618 45.7439 45.2082C45.3598 45.686 44.9915 46.1796 44.5285 46.584C44.0024 47.0461 42.3871 47.9388 42.1819 46.7205C42.1029 46.2479 42.145 45.7595 42.3029 45.3079C42.3555 45.1609 42.3608 45.0139 42.5186 44.9351C42.6712 44.8563 42.9448 44.8721 43.1237 44.8353C43.5446 44.7408 44.0024 44.5097 44.3865 44.3102C44.8863 44.0529 45.4914 43.6695 45.8071 43.1917C46.2227 42.5563 46.1859 41.4115 45.5335 40.9494C44.7916 40.4243 43.7919 40.6921 43.1816 41.2855C42.8606 41.6005 42.6133 41.9786 42.366 42.3515C41.9398 42.9921 41.4979 43.638 41.2137 44.3522C40.9191 45.0821 40.856 45.8698 40.9086 46.647C40.9454 47.1564 41.1822 47.545 41.6505 47.7603C42.4712 48.1436 43.4131 48.0491 44.2128 47.6553C44.8021 47.3664 45.302 46.9043 45.7492 46.4054C45.9228 46.2164 46.0859 46.0221 46.2438 45.8278C46.4805 45.539 46.712 45.2397 46.933 44.9403C47.1224 44.6883 47.4171 44.3995 47.496 44.0896C47.5276 43.9741 47.3645 43.8481 47.2592 43.8638L47.254 43.8691ZM42.9395 43.6328C43.1289 43.2862 44.397 40.7078 44.9284 41.2014C44.9968 41.2645 45.0284 41.3537 45.0599 41.443C45.1336 41.6636 45.1915 41.8894 45.1967 42.1152C45.2178 42.7453 44.739 43.1287 44.297 43.4962C43.9024 43.8271 43.4657 44.1054 43.0132 44.3522C42.9132 44.41 42.7712 44.4467 42.708 44.389C42.5554 44.2419 42.8659 43.7693 42.9395 43.6275V43.6328Z" fill="black"/>
<path d="M7.40839 52.6492C6.94012 52.9643 4.33566 53.7625 3.25704 53.92C2.65723 54.004 2.15738 53.7677 1.92061 53.1691C1.80486 52.8698 1.81538 52.6124 1.84695 52.2974C2.03111 50.5487 2.35732 48.7948 2.84138 47.0986C2.92557 46.8045 3.01501 46.5105 3.10972 46.2217C3.5096 45.0139 3.95157 43.8218 4.34618 42.614C4.57243 41.9209 4.78815 41.2277 5.00387 40.5293C5.00387 40.5293 5.0407 40.44 4.7671 40.0777C4.41984 39.6313 4.44615 39.6523 4.21464 39.6366C3.88843 39.6156 3.78846 39.9254 3.78846 39.9254C3.78846 39.9254 2.67827 43.0919 1.69963 46.1534C1.35763 47.2194 1.07351 48.3117 0.857784 49.4092C0.673631 50.3597 0.521046 51.3311 0.5 52.2974C0.5 52.4287 0.5 52.5547 0.510523 52.686C0.542092 53.1376 0.689415 53.7152 1.06298 54.0093C1.44181 54.3086 1.92588 54.4294 2.40467 54.4661C2.63092 54.4819 2.85717 54.4819 3.08341 54.4766C3.7148 54.4556 4.40406 54.3559 5.00913 54.1616C5.88255 53.878 6.91907 53.3896 7.44522 53.1008C7.96611 52.8067 8.48175 52.4759 8.40808 52.3814C8.33442 52.2921 7.89772 52.3236 7.40839 52.6545V52.6492Z" fill="black"/>
</svg>
