<svg width="69" height="28" viewBox="0 0 69 28" fill="none" xmlns="http://www.w3.org/2000/svg">
<path d="M16.2556 0.00547987C16.2392 -0.0136997 15.9119 0.101378 15.6282 0.208235C15.0991 0.41099 13.6507 1.0083 12.0087 1.89055C10.2112 2.85775 8.48463 3.89619 6.77442 5.34835C5.06695 6.79778 3.89953 8.31022 4.31686 9.8528C4.69599 11.2556 6.3871 11.8721 8.36188 11.7817C8.36188 11.7817 7.62816 12.2639 6.56985 13.0722C5.52518 13.8668 4.42596 14.9052 3.34583 16.2231C1.08738 18.985 -0.450984 22.1441 1.17739 25.2129C2.02022 26.7993 3.61041 27.6432 5.55519 27.909C7.70726 28.2021 10.2194 27.7747 12.3114 26.8075C16.2883 24.9663 17.6794 22.3305 17.723 22.2455C17.7694 22.1578 17.7612 22.0976 17.7421 22.0811C17.7121 22.0565 17.6384 22.1332 17.5512 22.2318C17.4639 22.3305 15.9119 24.3087 13.4734 25.3197C11.0349 26.3308 8.0373 26.6212 5.86341 25.2896C3.68951 23.958 3.88863 21.5386 4.27322 19.8316C4.82965 17.3657 6.65441 13.9846 9.88934 11.5899C9.88934 11.5899 11.9814 11.1762 13.6125 10.4063C15.11 9.69936 15.53 9.06918 15.5 8.78423C15.47 8.49927 14.8699 8.23624 13.4134 8.84998C11.8341 9.51305 10.0312 10.6775 9.40383 11.0611C9.40383 11.0611 8.84194 11.1844 8.29369 11.0392C7.78909 10.9049 7.32267 10.5981 7.01172 10.0802C6.56985 9.34865 6.53167 8.46365 6.80988 7.63071C7.09355 6.78134 7.63907 5.97306 8.18459 5.35109C9.43383 3.92906 11.0131 2.93721 12.5078 2.02481C14.1062 1.04939 15.4864 0.41373 15.7755 0.265774C16.0892 0.112337 16.2828 0.0328792 16.2556 0V0.00547987Z" fill="black"/>
<path d="M66.2852 23.1332C66.5116 22.9743 66.7762 22.7907 66.7762 22.3003L66.3916 15.6833L63.1075 23.4922L60.1399 15.7107L59.7908 22.3003C59.7908 22.8674 60.0581 22.9743 60.2817 23.1332H58.7379C58.9616 22.9743 59.2289 22.7907 59.2289 22.3003L59.6162 14.7682C59.6162 14.1736 59.3216 14.0668 59.0871 13.949H60.53L63.4758 21.4262L66.6152 13.949H68.1181C67.8945 14.1079 67.6272 14.2093 67.6272 14.7682L68.0118 22.3003C68.0118 22.8674 68.2763 22.9743 68.5 23.1332H66.2852Z" fill="black"/>
<path d="M27.4851 19.3877H26.2331V22.3003C26.2331 22.8592 26.4977 22.977 26.7186 23.136H24.5229C24.7438 22.977 25.0084 22.7989 25.0084 22.3003V14.7682C25.0084 14.2942 24.7438 14.1079 24.5229 13.949H27.4851C29.3617 13.949 30.6136 15.0669 30.6136 16.7218C30.6136 18.2589 29.4271 19.3905 27.4851 19.3905V19.3877ZM27.1714 14.4367H26.2331V18.8671H27.3542C28.4097 18.8671 29.2826 18.0726 29.2826 16.6588C29.2826 15.3956 28.4097 14.4367 27.1687 14.4367H27.1714Z" fill="black"/>
<path d="M31.2328 18.5411C31.2328 15.9026 32.6866 13.7736 35.2124 13.7736C37.7381 13.7736 39.1919 15.9026 39.1919 18.5411C39.1919 21.1797 37.749 23.3086 35.2124 23.3086C32.6757 23.3086 31.2328 21.1797 31.2328 18.5411ZM32.6048 18.8316C32.6511 21.1304 33.4531 22.851 35.1087 22.8127C37.3017 22.7634 37.8636 20.196 37.8227 18.2507C37.7763 15.9656 36.9771 14.2312 35.3187 14.2696C33.1258 14.3216 32.5639 16.8999 32.6048 18.8316Z" fill="black"/>
<path d="M48.1603 23.1332C48.3812 22.9743 48.6458 22.84 48.6458 22.3003V14.7682C48.6458 14.3216 48.3812 14.1051 48.1603 13.949H50.3669C50.1432 14.1079 49.8787 14.2421 49.8787 14.7682V22.3003C49.8787 22.8209 50.1432 22.977 50.3669 23.1332H48.1603Z" fill="black"/>
<path d="M46.8892 23.1332C46.2346 23.1332 45.5527 22.9743 44.7426 21.8811L42.3641 18.437H42.8633C43.8043 18.437 44.6689 17.6479 44.6689 16.3985C44.6689 15.2285 43.8316 14.4887 42.525 14.4887H41.3876V22.3003C41.3876 22.5907 41.3822 22.84 41.8759 23.1332H39.672C40.0838 22.9305 40.1602 22.5907 40.1602 22.3003V14.7819C40.1602 14.2668 39.9393 14.0723 39.672 13.949H42.8523C44.8926 13.949 45.9782 14.8833 45.9782 16.382C45.9782 17.3958 45.179 18.3685 43.9788 18.6589C43.9788 18.6589 45.4681 20.8454 45.8609 21.418C46.7583 22.7168 48.4494 23.1332 48.4494 23.1332H46.8892Z" fill="black"/>
<path d="M13.8444 21.3029C13.427 22.2071 12.8897 22.4811 12.0851 22.4811H9.12563V18.6808H11.8096C12.5706 18.6808 12.6742 19.1137 12.8324 19.3877V17.3848C12.677 17.6588 12.4724 18.078 11.8069 18.078H9.12563V14.6011H12.0933C12.4533 14.6011 12.6142 14.6202 12.8079 14.7134C13.1106 14.8586 13.3043 15.1326 13.3725 15.4148V13.949H7.31177C7.42088 14.0038 7.61999 14.1243 7.74819 14.3463C7.88184 14.5791 7.89002 14.76 7.89002 14.9326V23.1332H13.4516L13.8416 21.3002L13.8444 21.3029Z" fill="black"/>
<path d="M22.9382 14.9271C22.9382 14.4723 23.08 14.2641 23.2546 14.1271L23.5055 13.949H21.9181L18.8659 21.1029L16.0346 13.949H14.4635C14.4635 13.949 14.5481 14.001 14.6572 14.086C14.7827 14.1846 14.8972 14.3243 14.9599 14.4723C15.0418 14.6641 15.0391 14.8559 15.0391 14.8641L14.7063 21.9249C14.6681 22.5661 14.409 22.8236 14.1253 23.0428L14.0026 23.1305H16.1301C15.8137 22.9031 15.4291 22.7113 15.4182 22.0318L15.7155 16.2121L18.6013 23.61L21.7026 16.2368L22.0408 22.1633C22.0599 22.6811 21.7244 22.9469 21.4625 23.1305H23.871L23.6064 22.9442C23.4537 22.8209 23.3255 22.6428 23.2982 22.2921L22.9327 14.9244L22.9382 14.9271Z" fill="black"/>
<path d="M57.9878 14.7518V20.1303C57.9305 22.092 56.834 23.3086 54.8156 23.3086C52.3471 23.3086 51.5234 21.6783 51.5179 20.207V14.7518C51.5179 14.2778 51.2534 14.1024 51.0324 13.949H53.3318C53.0972 14.1024 52.8354 14.3024 52.8354 14.7518V20.2207C52.8217 21.503 53.3018 22.7113 54.8538 22.7113C56.4058 22.7113 57.3195 21.7386 57.3305 20.0892V14.7518C57.3305 14.2887 57.0659 14.1024 56.8449 13.949H58.6997C58.4788 14.1024 57.9933 14.2531 57.9933 14.7518H57.9878Z" fill="black"/>
</svg>
