<svg width="96" height="28" viewBox="0 0 96 28" fill="none" xmlns="http://www.w3.org/2000/svg">
<path fill-rule="evenodd" clip-rule="evenodd" d="M24.2271 22.5546C25.5534 24.1593 28.1523 24.4315 30.2723 23.8745C32.4649 23.2952 35.4544 21.4405 37.5933 18.6457C39.7323 15.8509 40.8223 12.7079 40.7971 9.55232C40.7687 6.35239 39.5685 3.89309 38.51 2.56058C37.628 1.44646 35.9395 0 33.4792 0C31.3749 0 28.3318 0.797609 25.1659 3.71585C22 6.63408 19.9114 10.6095 19.7759 14.6292C19.6468 18.4146 21.0234 19.9814 22.0756 20.5764C22.4158 20.7695 22.8158 20.9372 23.3545 20.9879C23.5687 21.5798 23.8617 22.1115 24.2271 22.5546ZM23.5372 18.1773C23.8586 15.8066 25.0115 13.6733 26.196 11.9483C27.412 10.179 29.4375 7.76719 31.23 6.82399C32.9405 5.92193 34.1029 5.93776 34.6196 6.58977C35.1016 7.19747 35.3378 8.39389 34.5881 10.6506C33.8415 12.8978 31.8191 15.7021 30.1148 17.2436C28.4263 18.7723 26.4701 19.9782 24.9769 20.4087C24.4634 20.5574 24.0161 20.6176 23.616 20.6081C23.4459 19.9371 23.4049 19.13 23.5341 18.1773H23.5372ZM23.2159 20.5669C22.6457 20.472 22.1764 20.2124 21.7542 19.8263C20.8375 18.9875 20.3682 17.3417 20.4406 15.4141C20.5162 13.4866 21.2219 11.3121 22.0598 9.65677C22.8978 8.00141 24.6052 5.39969 27.1316 3.32337C29.6612 1.24706 31.964 0.462107 33.7344 0.462107C35.341 0.462107 37.5051 1.25339 38.2958 4.36786C39.0991 7.52981 38.4785 11.0684 36.9129 14.2209C35.3788 17.31 32.2758 20.6682 29.9668 21.9627C27.6734 23.2478 25.944 23.1402 25.0619 22.6337C24.4697 22.2951 24.0098 21.7507 23.7357 21.0037C24.4476 20.991 25.3801 20.779 26.6654 20.1998C29.7053 18.8356 32.0868 16.3826 33.4666 14.2209C34.8495 12.0591 35.6497 9.91947 35.6497 7.96976C35.6497 6.02005 34.544 4.8268 33.2272 4.79832C32.09 4.77299 30.14 5.20028 27.7837 7.53614C25.4683 9.82768 24.1106 12.1984 23.3388 14.9995C22.7906 16.9745 22.7497 18.9622 23.2159 20.5701V20.5669Z" fill="black"/>
<path fill-rule="evenodd" clip-rule="evenodd" d="M39.7072 26.052C39.6504 26.0995 39.4394 26.2641 39.1779 26.3653C38.9479 26.4571 38.551 26.6059 37.6375 26.6534C36.7334 26.7008 35.0921 26.5679 34.2951 26.473C33.517 26.378 31.0095 26.1121 29.5856 26.0267C28.1617 25.9412 26.8481 26.0203 25.5534 26.2894C24.2618 26.5553 23.5341 27.0205 23.364 27.144C23.1939 27.2674 23.0647 27.4067 23.0931 27.4478C23.112 27.4763 23.1687 27.4858 23.2884 27.4288C23.3451 27.4035 23.4144 27.3687 23.4932 27.3307C23.7987 27.1851 24.2713 26.9984 25.0179 26.9762C26.048 26.9477 26.9552 27.1218 27.831 27.2769C28.7036 27.4288 30.4834 27.7042 31.8884 27.8561C33.2209 27.9985 34.6291 28.0524 35.7253 27.9384C36.7712 27.8308 37.7005 27.5744 38.4597 27.1914C39.2189 26.8085 39.5811 26.4825 39.7544 26.2767C39.8615 26.1533 39.8961 26.0235 39.8709 25.9919C39.8363 25.9507 39.7891 25.9919 39.7072 26.0583V26.052Z" fill="black"/>
<path d="M66.9593 22.6051C66.2001 22.6051 65.4031 22.4215 64.4612 21.1492L61.6954 17.1453H62.275C63.3681 17.1453 64.373 16.2274 64.373 14.7746C64.373 13.4136 63.3996 12.5559 61.8781 12.5559H60.555V21.6398C60.555 21.9784 60.5487 22.2664 61.122 22.6083H58.5578C59.0366 22.3709 59.1248 21.9784 59.1248 21.6398V12.8977C59.1248 12.2995 58.8696 12.0716 58.5578 11.9292H62.2561C64.6313 11.9292 65.8914 13.0148 65.8914 14.7588C65.8914 15.9362 64.9621 17.0693 63.5634 17.4048C63.5634 17.4048 65.296 19.9464 65.7528 20.6111C66.7955 22.1209 68.7612 22.6051 68.7612 22.6051H66.953H66.9593Z" fill="black"/>
<path d="M57.3482 22.605C56.8819 22.605 56.381 22.2505 56.1133 21.5637L55.3131 19.538H51.1171L50.2603 21.6998C49.9358 22.4784 50.2791 22.4721 50.3957 22.6018H48.7167C48.8931 22.4721 49.227 22.4246 49.4254 21.9846L53.5427 11.7075C53.5427 11.7075 56.7906 19.8735 57.0363 20.3957C58.038 22.5639 58.9768 22.6018 58.9768 22.6018H57.3482V22.605ZM53.2151 14.2301L51.3534 18.9366H55.0737L53.2151 14.2301Z" fill="black"/>
<path d="M49.3089 12.8566V19.1109C49.2427 21.3929 47.9669 22.8077 45.62 22.8077C42.7502 22.8077 41.7926 20.9118 41.7863 19.2027V12.8566C41.7863 12.3059 41.4775 12.1033 41.2224 11.9229H43.8937C43.6228 12.1033 43.3141 12.3344 43.3141 12.8566V19.2153C43.2983 20.7061 43.8559 22.1146 45.661 22.1146C47.466 22.1146 48.5276 20.9846 48.5402 19.0666V12.8566C48.5402 12.3185 48.2315 12.1033 47.9764 11.9229H50.1342C49.8759 12.1033 49.312 12.2774 49.312 12.8566H49.3089Z" fill="black"/>
<path d="M75.1813 22.6052C75.4396 22.4216 75.7484 22.2633 75.7484 21.6366V12.8788C75.7484 12.3597 75.4396 12.1096 75.1813 11.9229H77.7456C77.4873 12.1065 77.1785 12.2647 77.1785 12.8788V21.6366C77.1785 22.2412 77.4873 22.4216 77.7456 22.6052H75.1813Z" fill="black"/>
<path d="M73.1557 12.5465H71.0167V21.6335C71.0167 22.2887 71.3255 22.4153 71.5964 22.5957H69.0258C69.2841 22.4153 69.6055 22.2855 69.6055 21.6335V12.5465H67.4665C66.7546 12.5465 66.3167 12.8377 66.1182 13.3377V11.9198H74.504V13.3377C74.3055 12.8345 73.8677 12.5465 73.1557 12.5465Z" fill="black"/>
<path d="M93.6981 22.6051C92.9389 22.6051 92.1419 22.4216 91.2 21.1492L88.4342 17.1422H89.0106C90.1069 17.1422 91.1086 16.2274 91.1086 14.7715C91.1086 13.4105 90.1352 12.5527 88.6168 12.5527H87.2938V21.6366C87.2938 21.9753 87.2875 22.2633 87.8577 22.6051H85.2934C85.7722 22.3678 85.8604 21.9753 85.8604 21.6366V12.8946C85.8604 12.2964 85.6053 12.0653 85.2934 11.926H88.9917C91.3638 11.926 92.627 13.0148 92.627 14.7588C92.627 15.9362 91.6977 17.0694 90.3022 17.4049C90.3022 17.4049 92.0348 19.9464 92.4916 20.6111C93.5343 22.1209 95.5 22.6051 95.5 22.6051H93.6918H93.6981Z" fill="black"/>
<path d="M8.08878 20.4751C7.60366 21.5259 6.97677 21.8456 6.04432 21.8456H2.60432V17.4239H5.72299C6.6082 17.4239 6.72791 17.9272 6.91062 18.2468V15.9173C6.72791 16.237 6.49165 16.7244 5.71985 16.7244H2.60432V12.6794H6.05377C6.47274 12.6794 6.6586 12.7016 6.88541 12.8092C7.23823 12.9801 7.46189 13.2966 7.5438 13.6226V11.9198H0.5C0.629157 11.9831 0.859116 12.1223 1.00717 12.3819C1.16153 12.6509 1.17413 12.863 1.17413 13.0624V22.602H7.64145L8.09508 20.4719L8.08878 20.4751Z" fill="black"/>
<path d="M18.6639 13.0623C18.6639 12.5338 18.8278 12.2901 19.0325 12.1318L19.3255 11.9229H17.4795L13.9292 20.244L10.6404 11.9261H8.81333C8.81333 11.9261 8.91099 11.9862 9.037 12.0843C9.18506 12.2014 9.31736 12.3597 9.38982 12.5338C9.48432 12.7553 9.48117 12.9801 9.48117 12.9895L9.09685 21.203C9.05275 21.9468 8.75032 22.2507 8.41956 22.5039L8.27465 22.6052H10.7475C10.379 22.3425 9.9348 22.1177 9.91904 21.3265L10.2656 14.5594L13.6205 23.1622L17.2275 14.5879L17.6212 21.4816C17.6433 22.0829 17.2527 22.3931 16.9502 22.6052H19.7508L19.4452 22.3868C19.2656 22.2412 19.1176 22.0354 19.0861 21.6303L18.6608 13.0623H18.6639Z" fill="black"/>
<path d="M78.8418 22.6052V12.8914C78.8324 12.2299 78.5331 12.1223 78.259 11.9229H84.5216V13.363C84.3389 12.8598 83.8821 12.5496 83.1828 12.5496H80.2657V16.7497H83.104C83.6175 16.7497 83.7782 16.4237 83.8979 16.2085V17.9303C83.7782 17.7151 83.6963 17.3764 83.104 17.3764H80.2657V21.9753H83.5765C84.2034 21.9753 84.6193 21.7601 84.9437 21.0511L84.6413 22.6052H78.8387H78.8418Z" fill="black"/>
</svg>
