<svg width="103" height="12" viewBox="0 0 103 12" fill="none" xmlns="http://www.w3.org/2000/svg">
<path fill-rule="evenodd" clip-rule="evenodd" d="M38.0454 0.00663352V2.39602H28.5989V4.85177H38.0324V11.9934H26.3104V9.62389H35.7439V7.19469H26.2974V0.00663352H38.0454ZM65.0781 0.00663352V11.9934H76.7611V9.61726H67.3796V7.18805H76.7611V4.85177H67.3796V2.40265H76.7546V0.0132772H65.0781V0.00663352ZM0.5 0.00663352V12H12.157V9.66371H2.80798V7.18805H12.1635V4.85177H2.80147V2.37611H12.1764V0.0132772H0.5V0.00663352ZM13.4182 0.00663352C13.4182 0.00663352 13.4182 0.0597377 13.4182 0.0862864C13.4182 4.00885 13.4182 7.93142 13.4182 11.8473C13.4182 11.8938 13.4247 11.9469 13.4312 11.9867H15.6807V2.41593H18.1382V11.9867H20.3747V2.41593H22.8322V11.9867H25.1402C25.1402 11.9004 25.1402 1.5 25.1402 0H13.4247L13.4182 0.00663352ZM90.9081 0.00663352C90.9081 0.0929167 90.9211 0.185843 90.9211 0.272126C90.9211 4.09513 90.9211 7.9115 90.9211 11.7345V11.9934H102.493V9.58407H93.216V7.18805H102.487V4.82522H93.216V2.34292H102.5V0.00663352H90.9015H90.9081ZM77.9898 0.00663352C77.9898 0.00663352 77.9898 0.0597377 77.9898 0.0862864C77.9898 4.00885 77.9898 7.93142 77.9898 11.8473C77.9898 11.8938 77.9963 11.9469 78.0028 11.9867H80.3108V7.20796H85.1023V11.9867H87.3973V7.18805H89.6988C89.6988 7.13496 89.7118 7.10177 89.7118 7.06858C89.7118 4.71238 89.7118 2.35619 89.7118 0H77.9963L77.9898 0.00663352ZM87.4038 2.4093V4.83849H80.2913V2.4093H87.4038ZM39.2481 0.00663352C39.2481 0.0730052 39.2352 0.132745 39.2352 0.199117C39.2352 4.06195 39.2352 7.92478 39.2352 11.7942C39.2352 11.8606 39.2351 11.927 39.2416 11.9934H41.5561V7.19469H50.9246V0.0132772H39.2481V0.00663352ZM41.5561 2.41593H48.6231V4.83849H41.5561V2.41593ZM61.5478 0.00663352V4.83849H54.4874V0.00663352H52.1209C52.1209 0.0929167 52.1339 0.185843 52.1339 0.272126V11.9934H54.4874V7.20796H61.5478V11.9934H63.8819V11.7544C63.8819 7.9115 63.8819 4.06195 63.8819 0.219028C63.8819 0.146019 63.8753 0.0796424 63.8688 0.00663352H61.5414H61.5478Z" fill="black"/>
</svg>
