<svg width="10" height="14" viewBox="0 0 10 14" fill="none" xmlns="http://www.w3.org/2000/svg">
<g opacity="0.58" clip-path="url(#clip0_3347_34672)">
<path d="M2.75781 10.3709C3.1724 10.8869 3.54976 11.4304 3.88715 11.9975C4.1752 12.5309 4.29527 12.8926 4.50578 13.5352C4.63488 13.8903 4.75156 13.9963 5.00242 13.9963C5.27578 13.9963 5.3998 13.816 5.49563 13.5372C5.69461 12.9303 5.85074 12.4671 6.09707 12.0294C6.58043 11.1845 7.18105 10.4336 7.77121 9.71198C7.93098 9.50774 8.96395 8.3179 9.42898 7.37906C9.42898 7.37906 10.0005 6.34775 10.0005 4.90743C10.0005 3.56015 9.43688 2.62573 9.43688 2.62573L7.81402 3.05016L6.82848 5.58507L6.58465 5.93462L6.5359 5.99794L6.47105 6.07721L6.35723 6.20382L6.19457 6.36263L5.31695 7.06087L3.12281 8.29806L2.75781 10.3709Z" fill="#34A853"/>
<path d="M0.492188 7.20568C1.0277 8.40018 2.06035 9.45022 2.75902 10.3717L6.47 6.07885C6.47 6.07885 5.94719 6.74658 4.99883 6.74658C3.94246 6.74658 3.08906 5.92279 3.08906 4.88405C3.08906 4.17172 3.52789 3.68237 3.52789 3.68237L1.00879 4.34156L0.492188 7.20568Z" fill="#FBBC04"/>
<path d="M6.51145 0.220703C7.74395 0.608774 8.79887 1.42348 9.43695 2.62485L6.47113 6.07633C6.47113 6.07633 6.90996 5.57813 6.90996 4.87023C6.90996 3.8073 5.99344 3.01323 5.00332 3.01323C4.06703 3.01323 3.5293 3.67985 3.5293 3.67985V1.50546L6.51145 0.220703Z" fill="#4285F4"/>
<path d="M1.17188 1.7458C1.90801 0.8857 3.20332 0 4.9891 0C5.85551 0 6.50824 0.222131 6.50824 0.222131L3.52637 3.68181H1.41367L1.17188 1.7458Z" fill="#1A73E8"/>
<path d="M0.492656 7.20573C0.492656 7.20573 0 6.26358 0 4.89867C0 3.60865 0.513516 2.48102 1.17246 1.74585L3.52863 3.68216L0.492656 7.20573Z" fill="#EA4335"/>
</g>
<defs>
<clipPath id="clip0_3347_34672">
<rect width="10" height="14" fill="white"/>
</clipPath>
</defs>
</svg>
