<svg width="64" height="28" viewBox="0 0 64 28" fill="none" xmlns="http://www.w3.org/2000/svg">
<path d="M48.3119 0.108743C47.8658 0.0437438 44.6093 -0.219675 42.2552 0.509002C41.5277 0.73479 40.8963 0.946892 40.2718 1.21373C38.4084 0.485055 36.1951 0.0882169 33.9028 0.0163755C30.6943 -0.082834 27.5853 0.249005 24.1057 1.55583C20.1079 3.05766 17.97 5.23343 17.469 7.26551C16.92 9.48575 18.3921 11.8428 20.9624 12.527C23.5326 13.2112 25.5298 12.2055 26.5112 11.5589C27.5064 10.9055 28.378 9.79364 28.8515 8.24734C29.4109 6.4171 30.3614 5.44211 31.0134 5.00422C31.0306 4.99396 31.0443 4.98369 31.058 4.97343C31.058 4.97343 31.0889 4.93922 30.9757 4.94264C27.7466 4.88791 25.2999 6.3521 24.8366 7.72051C24.2841 9.38997 25.4783 9.61917 25.4612 10.6078C25.4406 11.5965 24.7028 12.0857 23.3027 12.0549C21.3879 12.0105 20.228 10.365 20.3756 8.31577C20.4923 6.66683 21.6212 4.99054 23.5532 3.57766C25.3822 2.24004 27.5715 1.48741 29.7128 1.14189C30.3545 1.03926 33.8719 0.457687 37.1696 1.50452C37.705 1.67557 38.1854 1.86715 38.6177 2.07925C38.0172 2.44872 37.3652 2.90714 36.5931 3.50581C34.3558 5.24711 31.71 8.33971 30.6085 9.96128C29.4692 11.4357 27.0465 15.5444 24.4935 18.7499C22.0536 21.6919 20.5986 22.814 18.6323 24.1824C16.3572 25.763 14.0546 26.4985 11.2339 27.0869C8.40973 27.6753 5.69536 27.6479 5.15661 27.6C4.89581 27.5795 4.80659 27.6206 4.78943 27.665C4.77227 27.7061 4.80316 27.7335 4.83404 27.7506C4.86836 27.7677 4.97131 27.8087 5.39339 27.8498C6.90327 28.014 10.352 28.1816 13.684 27.5453C15.9386 27.1143 18.7936 26.194 20.9933 24.8324C23.1929 23.464 24.6959 22.2838 27.0328 19.5709C29.4109 16.8136 30.7389 14.7746 32.1252 12.657C33.4464 10.6386 34.2288 9.62602 35.8622 7.49472C37.101 5.88 38.5628 4.37817 40.1619 3.08503C41.2772 4.04634 41.7748 5.17185 41.8846 6.19815C42.0459 7.7513 41.0782 9.38997 38.8854 10.5907C36.6892 11.7881 34.4759 12.226 34.1018 12.2807C33.9543 12.3047 33.8993 12.3081 33.8993 12.332C33.8993 12.3526 33.992 12.3868 34.1567 12.3936C36.1196 12.5099 39.5614 12.1268 41.9532 10.6626C44.3485 9.20181 44.8769 7.71367 44.9696 6.51973C45.0588 5.37027 44.4239 3.62897 42.6327 2.45214C42.3547 2.25714 42.0596 2.07241 41.7508 1.90136C43.8989 0.515844 47.1555 0.272952 47.8315 0.272952C48.5315 0.26611 48.6036 0.259268 48.6036 0.19769C48.6002 0.166901 48.5624 0.13269 48.3153 0.101901L48.3119 0.108743Z" fill="black"/>
<path d="M4.31933 25.7116C3.68792 25.7116 2.99133 25.6843 2.65846 25.674C2.56238 25.6706 2.49718 25.6672 2.48345 25.6672C2.47316 25.6672 2.4114 25.6672 2.31874 25.674C2.01677 25.6877 1.39222 25.7116 1.04906 25.7116C0.959841 25.7116 0.726495 25.7116 0.726495 25.5098C0.726495 25.4243 0.788251 25.3387 0.928945 25.3387C1.03532 25.3387 1.19661 25.3182 1.35789 25.2806C1.59124 25.2327 1.6633 24.9898 1.7285 24.528C1.80057 23.9088 1.80057 22.7046 1.80057 21.3088V18.6883C1.80057 16.3688 1.80057 15.948 1.76968 15.4759C1.7388 14.9628 1.6084 14.7883 1.19318 14.7028C1.07994 14.6754 0.83287 14.6617 0.702471 14.6617C0.585798 14.6617 0.5 14.5899 0.5 14.4907C0.5 14.2888 0.733347 14.2888 0.822567 14.2888C1.29612 14.2888 1.8795 14.3094 2.22952 14.3231C2.37364 14.3299 2.47659 14.3333 2.51091 14.3333C2.64474 14.3333 2.86779 14.3265 3.13202 14.3162C3.51292 14.3025 4.04824 14.2581 4.50121 14.2581C6.61848 14.2581 7.39745 14.9662 7.65481 15.2057C8.08376 15.6128 8.49211 16.403 8.5127 17.2446C8.58477 19.8959 7.01654 21.278 4.28845 21.278C4.15119 21.278 4.00363 21.278 3.92128 21.2575C3.77372 21.2575 3.66391 21.1754 3.66391 21.0522C3.66391 20.8127 3.90412 20.8127 4.20267 20.8127C5.48607 20.8127 6.92045 19.6222 6.92045 18.158C6.92045 17.7714 7.04056 16.4817 6.18953 15.712C5.43802 15.0346 4.62474 14.9525 4.08942 14.9525H3.91097C3.61929 14.9525 3.36193 14.9902 3.23496 15.0449C3.18006 15.0654 3.18005 15.103 3.18005 15.2262V21.3054C3.18005 22.7011 3.18006 23.9053 3.25555 24.528C3.30359 24.9864 3.39624 25.2258 3.76685 25.2772C3.97961 25.3079 4.29874 25.3353 4.42914 25.3353C4.56983 25.3353 4.63161 25.4208 4.63161 25.5064C4.63161 25.5816 4.59043 25.7082 4.31248 25.7082L4.31933 25.7116Z" fill="black"/>
<path d="M16.9235 25.7118C16.0759 25.7118 15.6778 25.7015 15.0121 25.681H14.7891C14.5145 25.6639 14.2881 25.6331 14.2881 25.4723C14.2881 25.4176 14.3533 25.3252 14.4974 25.2876C14.5111 25.2842 14.5317 25.2842 14.5454 25.2568C14.5626 25.2226 14.5832 25.1473 14.5317 25.0139L13.2963 21.35C13.2792 21.3158 13.2723 21.3124 13.238 21.3124H10.2217C10.2011 21.3124 10.1771 21.3124 10.1496 21.3808L9.25396 24.0115C9.12013 24.3776 9.05151 24.7231 9.05151 24.9831C9.05151 25.2431 9.35004 25.3321 9.53535 25.3321H9.62114C9.8236 25.3321 9.85105 25.4415 9.85105 25.5031C9.85105 25.5955 9.86479 25.7049 9.61085 25.7049C9.39467 25.7049 9.07895 25.6878 8.82501 25.6776C8.65343 25.6673 8.51275 25.6605 8.44755 25.6605C8.39608 25.6605 8.27254 25.6639 8.10783 25.6707C7.76124 25.6844 7.47641 25.7049 6.99942 25.7049C6.87932 25.7049 6.63226 25.7049 6.63226 25.5031C6.63226 25.4005 6.71803 25.3321 6.84843 25.3321C6.94452 25.3321 7.10924 25.3184 7.22592 25.3047C7.8436 25.2226 7.93282 24.7505 8.21764 23.9568L11.608 14.7098C11.7899 14.2103 11.9031 14.0735 12.0576 14.0735C12.212 14.0735 12.3938 14.2001 12.5517 14.6619C12.6066 14.8261 12.8125 15.4624 13.111 16.2869C13.8934 18.449 14.9641 21.805 15.6161 23.4231C16.124 24.6752 16.299 24.9763 16.6009 25.1268C16.7485 25.1986 16.9304 25.3081 17.0745 25.3081C17.2289 25.3081 17.325 25.3902 17.3044 25.4997C17.2838 25.6399 17.2392 25.7015 16.9235 25.7015V25.7118ZM10.4173 20.6179H13.0218L11.8002 16.6016C11.7865 16.5606 11.7762 16.5332 11.7659 16.5161C11.759 16.5332 11.7453 16.5606 11.7316 16.6016L10.4173 20.6179Z" fill="black"/>
<path d="M36.171 25.7118C35.3234 25.7118 34.9254 25.7015 34.2596 25.681H34.0366C33.7621 25.6639 33.5356 25.6331 33.5356 25.4723C33.5356 25.4176 33.6008 25.3252 33.7449 25.2876C33.7621 25.2842 33.7792 25.2842 33.7929 25.2568C33.8101 25.2226 33.8307 25.1473 33.7792 25.0139L32.5439 21.35C32.5267 21.3158 32.5198 21.3124 32.4855 21.3124H29.4692C29.452 21.3124 29.4211 21.3124 29.3971 21.3808L28.5015 24.0115C28.3677 24.3776 28.2956 24.7231 28.2956 24.9831C28.2956 25.2431 28.5941 25.3321 28.7829 25.3321H28.8687C29.0711 25.3321 29.0986 25.4415 29.0986 25.5031C29.0986 25.5955 29.1123 25.7049 28.8584 25.7049C28.6422 25.7049 28.3265 25.6878 28.0725 25.6776C27.9044 25.6673 27.7603 25.6605 27.6951 25.6605C27.6402 25.6605 27.5201 25.6639 27.3553 25.6707C27.0053 25.6844 26.7205 25.7049 26.247 25.7049C26.1268 25.7049 25.8832 25.7049 25.8832 25.5031C25.8832 25.4005 25.969 25.3321 26.0994 25.3321C26.1989 25.3321 26.3602 25.3184 26.4803 25.3047C27.0945 25.2226 27.1838 24.7505 27.472 23.9568L30.8624 14.7098C31.0443 14.2103 31.1609 14.0735 31.3119 14.0735C31.4629 14.0735 31.6276 14.2069 31.8061 14.6619C31.8713 14.8227 32.0394 15.4385 32.3689 16.2869C33.1924 18.4319 34.2219 21.805 34.8739 23.4231C35.3818 24.6752 35.5602 24.9763 35.8588 25.1268C36.0063 25.1986 36.1847 25.3081 36.3289 25.3081C36.4833 25.3081 36.5794 25.3902 36.5588 25.4997C36.5382 25.6399 36.4936 25.7015 36.1779 25.7015L36.171 25.7118ZM29.6682 20.6179H32.2728L31.0511 16.6016C31.0374 16.5606 31.0237 16.5332 31.0168 16.5161C31.01 16.5332 30.9962 16.5606 30.9825 16.6016L29.6682 20.6179Z" fill="black"/>
<path d="M25.3513 25.7118C24.5277 25.7118 24.1056 25.6639 23.6938 25.4416C23.083 25.1166 21.6143 22.3661 21.3604 21.8119C21.1957 21.4493 21.0207 21.1687 20.8937 21.0045C20.8491 20.9635 20.8251 20.9464 20.7633 20.9464L19.5588 20.9156C19.5588 20.9156 19.5348 20.9258 19.5348 20.9532V21.3124C19.5348 22.7082 19.5348 23.9124 19.6103 24.535C19.6583 24.9934 19.751 25.2329 20.1216 25.2842C20.3343 25.315 20.2623 25.3321 20.3892 25.3424C20.5334 25.3561 20.5917 25.4279 20.5917 25.5134C20.5917 25.5887 20.5471 25.7153 20.2691 25.7153C19.6377 25.7153 19.3323 25.6879 18.9995 25.6776C18.9034 25.6742 18.8416 25.6708 18.8244 25.6708H18.7592C18.5225 25.6845 18.0592 25.7153 17.6817 25.7153C17.5959 25.7153 17.3626 25.7153 17.3626 25.5134C17.3626 25.4279 17.4278 25.3561 17.5651 25.3218C17.6474 25.3013 17.6508 25.3013 17.8327 25.2637C18.0661 25.2158 18.0386 24.9968 18.1038 24.535C18.1793 23.9158 18.1793 22.7116 18.1793 21.3158V18.6953C18.1793 16.3759 18.1793 15.9551 18.1484 15.483C18.1176 14.9698 17.9974 14.7543 17.5719 14.7304C17.4587 14.7235 17.4381 14.7201 17.3866 14.7098C17.2562 14.6859 17.2082 14.6141 17.2082 14.5183C17.2082 14.3164 17.4415 14.2959 17.5273 14.2959C18.0352 14.2959 18.3715 14.3198 18.6906 14.3335C18.797 14.337 18.8691 14.3404 18.8896 14.3404C18.9514 14.3404 19.147 14.3335 19.3907 14.3267C19.799 14.313 20.3618 14.2959 20.65 14.2959C21.5628 14.2959 22.6026 14.2891 23.433 14.8775C23.8277 15.1614 24.6135 15.9483 24.6512 17.2517C24.689 18.4695 23.9272 20.2177 22.0501 20.6043L22.3521 21.1277C23.1585 22.3729 23.584 23.3855 24.212 24.299C24.6341 24.9113 24.9017 25.2979 25.6052 25.2979C25.8317 25.2979 25.8283 25.4758 25.8214 25.5066C25.7871 25.7597 25.3513 25.7118 25.3513 25.7118ZM20.5745 14.9938C20.125 14.9938 19.7372 15.0348 19.5965 15.0793C19.5554 15.0964 19.5348 15.1272 19.5348 15.1785V19.9816C19.5348 20.033 19.5554 20.0637 19.6 20.0911C19.8093 20.2177 19.8608 20.2724 20.4956 20.2724C20.7907 20.2724 21.1957 20.2006 21.5697 20.0056C22.2526 19.643 23.2168 18.8322 23.2374 17.8161C23.2958 15.2812 22.1428 14.9938 20.5745 14.9938Z" fill="black"/>
<path d="M40.6733 25.9615C39.0501 25.9615 37.9966 25.356 37.0324 24.251C36.3804 23.5087 35.6254 21.9076 35.6254 19.8311C35.6254 17.7545 36.3667 15.7532 37.602 14.7303C38.6727 13.858 39.6335 13.7896 40.5429 13.7896C41.387 13.7896 42.3135 14.0427 42.3513 14.053C42.5778 14.1248 42.9724 14.1864 43.2778 14.2035C43.4219 14.2206 43.4974 14.2993 43.4974 14.4259C43.4974 14.484 43.4906 14.5627 43.4837 14.6722C43.4597 14.9561 43.4151 15.6608 43.4151 16.7727C43.4151 16.954 43.4151 17.1627 43.2263 17.1798C43.0033 17.2003 43.0033 16.9677 42.9896 16.824C42.9827 16.7316 42.9381 16.3998 42.7562 15.979C42.468 15.3187 41.6478 14.5901 40.2203 14.5901C39.4482 14.5901 38.9129 14.6824 38.1545 15.4659C37.4442 16.1979 37.0221 17.6348 37.0221 19.2974C37.0221 21.3808 37.8182 22.9476 38.2403 23.4847C39.0742 24.5487 39.5923 25.1234 40.7522 25.1336C41.1743 25.1336 41.6032 25.0379 41.8812 24.8292C42.0184 24.7334 42.0802 24.5829 42.0802 24.3605V21.7571C42.0802 20.5119 42.0219 20.4092 41.6101 20.2587C41.5312 20.2313 41.3424 20.2176 41.2429 20.2176C41.1434 20.2176 41.0645 20.1424 41.0645 20.0398C41.0645 19.9029 41.1571 19.8345 41.3355 19.8345C41.7302 19.8345 42.4028 19.8584 42.6533 19.8721C42.7356 19.8755 42.7905 19.879 42.8077 19.879C42.8248 19.879 42.8969 19.879 42.9964 19.8687C43.2607 19.855 43.6999 19.8311 43.9504 19.8311C44.1288 19.8311 44.2215 19.8995 44.2215 20.0363C44.2215 20.139 44.146 20.2142 44.043 20.2142C43.971 20.2142 43.9058 20.2279 43.7685 20.2587C43.518 20.3203 43.4288 20.5187 43.4048 21.0524C43.3808 21.5416 43.3808 22.0034 43.3808 22.6431V24.3571C43.3808 25.0344 43.3739 25.1131 43.1955 25.25C42.4474 25.77 41.4007 25.9547 40.6698 25.9547L40.6733 25.9615Z" fill="black"/>
<path d="M49.235 25.9202C46.1123 25.9202 44.6882 22.8447 44.6882 19.9848C44.6882 18.6369 45.0932 17.1932 45.776 16.1258C46.3697 15.1919 47.4644 14.0801 49.3037 14.0801C52.0558 14.0801 53.9054 16.3585 53.9054 19.7487C53.9054 23.3271 51.9391 25.9236 49.235 25.9236V25.9202ZM49.2179 14.8259C47.2482 14.778 46.1158 16.5432 46.0471 19.499C45.9716 22.79 47.6222 25.1265 49.6846 25.1744C50.189 25.1881 52.4401 25.0068 52.5499 20.2482C52.6357 16.5466 50.817 14.8669 49.2179 14.8259Z" fill="black"/>
<path d="M63.2083 14.2647C62.9029 14.2647 62.6353 14.2852 62.4568 14.2955C62.3676 14.3023 62.299 14.3092 62.2578 14.3092C62.2166 14.3092 62.1308 14.3058 62.021 14.2989C61.7842 14.2852 61.4342 14.2647 61.0945 14.2647C61.0018 14.2647 60.7891 14.2647 60.7891 14.4529C60.7891 14.6137 60.8954 14.6376 60.9606 14.6376C61.0361 14.6376 61.2901 14.6513 61.4822 14.7094C61.7739 14.8087 61.8529 15.1063 61.8631 16.071L61.894 22.9575C61.7019 22.6838 61.4136 22.2631 61.0705 21.7602C60.5694 21.0315 59.9483 20.1215 59.3615 19.2868C57.9409 17.2615 56.6472 15.4073 56.081 14.5897C55.7515 14.145 55.4359 14.0868 55.3809 14.1279C55.3226 14.1655 55.2162 14.1723 55.2162 14.706C55.2162 14.771 55.2162 14.8394 55.2162 14.9044L55.2059 23.4399C55.2059 24.7809 55.1442 25.1743 54.9177 25.2564C54.7804 25.3146 54.602 25.3385 54.4922 25.3385C54.3892 25.3385 54.3206 25.407 54.3206 25.5096C54.3206 25.7114 54.5025 25.7114 54.5814 25.7114C54.9314 25.7114 55.2711 25.6909 55.4736 25.6772C55.5628 25.6704 55.628 25.667 55.6589 25.667C55.6864 25.667 55.7413 25.6704 55.8202 25.6772C56.0329 25.6909 56.3864 25.7149 56.8462 25.7149C57.0349 25.7149 57.131 25.6464 57.131 25.513C57.131 25.4104 57.0624 25.342 56.9595 25.342C56.9286 25.342 56.6609 25.342 56.431 25.2564C56.1977 25.1641 56.0673 24.8767 56.0467 23.6041L56.0398 16.9878C56.5442 17.737 57.5394 19.1636 58.6787 20.792C59.8729 22.4991 61.4857 24.6886 61.6058 24.8288C62.2715 25.7149 62.3607 25.8141 62.4877 25.8141C62.6593 25.8141 62.6696 25.6875 62.6696 24.6749L62.6936 15.9479C62.6936 15.0584 62.7382 14.7676 63.0505 14.6787C63.1706 14.6376 63.2392 14.6376 63.2941 14.6376C63.4108 14.6376 63.5 14.5589 63.5 14.4529C63.5 14.2647 63.301 14.2647 63.2152 14.2647H63.2083Z" fill="black"/>
</svg>
