<svg width="190" height="227" viewBox="0 0 190 227" fill="none" xmlns="http://www.w3.org/2000/svg">
<g clip-path="url(#clip0_2298_1718)">
<path d="M133.836 144.182V59.2988L94.2449 144.182L54.6536 59.2988V144.182H26.9971V0H54.6323L94.2236 84.9042L133.836 0H161.493V144.182H133.836Z" fill="black"/>
<path d="M30.2094 177.896C30.2094 177.896 30.3796 177.96 30.4647 178.003C30.6136 178.067 30.7625 178.152 30.9114 178.194C31.5284 178.407 32.1879 177.939 32.4857 177.407C33.0176 176.385 32.3793 175.363 31.4858 174.853C30.7625 174.427 29.9966 174.257 29.1669 174.342C28.8691 174.363 28.55 174.491 28.2309 174.725C27.699 175.087 27.699 175.683 27.6777 176.279C27.6777 176.555 27.6777 176.853 27.7416 177.109C28.0607 178.109 29.4222 177.684 30.1881 177.918L30.2094 177.896Z" fill="black"/>
<path d="M126.347 186.134C126.092 185.495 125.603 185.453 125.199 186.006C123.986 187.687 122.88 189.518 121.773 191.306C121.348 191.987 120.923 192.668 120.497 193.349C119.901 194.264 119.284 195.18 118.625 196.074C117.987 196.946 117.306 197.819 116.561 198.628C116.115 199.138 115.668 199.628 115.178 200.096C114.944 200.33 114.306 201.161 113.945 200.905C113.774 200.799 113.711 200.586 113.668 200.394C113.562 199.947 113.519 199.5 113.477 199.032C113.328 197.031 113.349 195.031 113.583 193.03C113.923 190.263 116.944 174.321 117.178 173.129C117.37 172.15 117.753 171.149 118.604 170.553C119.965 169.595 121.646 169.298 123.071 168.489C123.39 168.318 123.688 168.106 123.858 167.786C124.029 167.467 124.007 167.041 123.752 166.807C123.454 166.573 123.029 166.637 122.667 166.743C121.391 167.084 120.157 167.552 118.965 168.148C119.731 165.913 120.518 163.678 121.284 161.443C121.816 159.911 123.263 157.57 122.305 155.952C122.05 155.526 121.731 155.165 121.327 154.803C120.923 154.462 120.476 154.185 119.986 153.994C119.497 153.802 119.008 153.717 118.54 153.76C117.54 153.866 117.348 155.888 117.093 156.654C116.689 157.953 116.263 159.23 115.859 160.528C115.03 163.104 114.221 165.7 113.391 168.276C113.051 169.34 112.923 169.957 111.86 170.34C110.073 170.979 108.03 171.149 106.137 171.383C105.839 171.426 105.499 171.469 105.307 171.703C105.073 172.001 105.18 172.469 105.435 172.746C105.711 173.022 106.094 173.129 106.477 173.214C107.903 173.491 109.307 173.214 110.732 172.767C111.796 172.448 111.753 172.958 111.562 173.767C111.243 175.066 110.668 177.684 110.371 178.982C110.285 179.365 110.2 179.706 110.115 180.046C109.86 180.28 109.605 180.514 109.371 180.706C108.626 181.323 107.86 181.941 107.094 182.537C105.541 183.771 103.946 184.984 102.35 186.176C100.733 187.368 99.1165 188.56 97.4571 189.709C96.6274 190.284 95.7977 190.859 94.968 191.412C94.2234 191.902 93.5639 192.625 92.6065 192.349C90.3515 191.689 88.7985 190.05 88.0113 188.049C87.2242 186.07 87.1816 183.728 87.9262 181.664C88.4581 180.153 89.3091 178.79 90.16 177.45C91.3514 175.576 92.6278 173.661 94.5 172.405C94.9467 172.107 95.2871 171.788 95.7977 171.979C96.6061 172.256 97.3294 173.512 97.5634 174.278C97.84 175.151 97.84 176.109 97.6698 177.024C97.3507 178.62 96.521 180.068 95.9466 181.6C95.7551 182.111 95.5637 182.686 95.67 183.218C95.9466 184.686 98.0102 184.495 99.0101 184.005C100.499 183.303 101.563 181.877 102.137 180.365C103.307 177.237 103.435 173.129 100.372 171.064C98.691 169.936 96.7125 170 94.7765 170.106C92.9257 170.191 90.9897 170.575 89.5218 171.767C87.4369 173.491 85.735 175.683 84.6287 178.152C83.4586 180.749 82.9693 183.877 83.7565 186.666C83.799 186.836 83.8841 187.006 83.9267 187.177C83.8416 187.219 83.7565 187.262 83.6714 187.347C82.9906 187.985 82.2673 188.624 81.5865 189.39C80.9057 190.156 80.0973 191.029 79.374 191.753C77.821 193.328 76.3743 195.031 74.8851 196.669C71.8429 200.011 68.439 203.204 63.7374 203.672C62.3334 203.821 62.1206 201.544 62.0781 200.565C62.0355 198.67 62.2057 196.755 62.6312 194.903C62.8014 194.2 63.0567 192.413 63.9715 192.306C64.2693 192.285 64.5246 192.264 64.7161 192.264C64.9288 192.264 65.1628 192.264 65.4607 192.221C68.588 191.902 72.0344 189.944 74.2895 187.815C77.1615 185.112 79.8633 179.429 75.7787 176.534C73.0768 174.619 69.1836 175.257 66.8222 177.364C65.5032 178.535 64.5033 180.025 63.5034 181.494C60.7591 185.474 58.2913 189.348 57.3765 194.03C55.5256 195.329 53.5046 196.35 51.3771 197.074C50.3134 197.436 48.2711 198.202 46.5904 198.266C45.5054 198.308 44.5694 198.053 44.0801 197.223C43.6333 196.457 43.9099 196.01 44.2503 195.222C44.931 193.626 45.6969 192.051 46.4415 190.476C46.9734 189.348 47.4839 188.219 47.9733 187.07C51.526 178.79 54.6746 169.83 55.2065 160.762C55.2278 160.358 55.4405 159.57 54.8874 158.932C54.547 158.549 54.1428 158.208 53.6747 158.017C52.76 157.634 51.8877 157.357 51.058 157.165C50.1645 157.25 49.4412 157.697 48.8455 158.506C47.0372 160.975 46.1862 164.168 45.08 166.977C44.697 167.957 44.3141 168.936 43.9524 169.936C42.6122 173.661 41.7186 177.513 40.8038 181.366C40.1231 183.388 39.7189 185.559 39.187 187.624C39.0806 188.007 38.9955 188.411 38.8892 188.794C38.7828 188.964 38.6764 189.135 38.5701 189.284C36.783 192.008 34.4641 194.328 32.4218 196.882C30.2306 199.607 28.2095 202.48 26.1034 205.268C25.8906 205.545 25.6353 205.822 25.3375 205.992C25.146 206.099 24.8695 206.205 24.6354 206.205C24.4865 206.205 24.4227 206.077 24.3802 205.95C24.3376 205.864 24.3802 205.758 24.3802 205.673C24.5078 204.992 24.6354 204.374 24.7844 203.715C25.1673 201.884 25.4651 200.011 25.8268 198.159C26.4012 195.201 26.9969 192.2 27.8266 189.348C28.1457 188.283 28.4648 187.219 28.8265 186.155C29.103 185.367 29.6774 184.495 29.5923 183.643C29.5072 182.877 29.103 182.281 28.3797 181.855C27.6564 181.43 26.8905 181.259 26.0608 181.345C24.6567 181.494 24.9758 182.856 24.678 183.92C24.2738 185.367 23.7632 186.751 23.2952 188.177C22.2527 191.263 21.4656 194.413 20.8912 197.606C20.5295 199.564 20.104 201.607 19.9126 203.651C19.7849 204.843 19.7424 206.056 19.8275 207.227C19.8487 207.631 19.9126 208.035 20.0828 208.397C20.2742 208.78 20.6146 209.057 20.955 209.313C22.4442 210.313 24.21 210.483 25.8268 209.674C27.9755 208.589 29.5072 206.439 30.7837 204.46C32.5282 201.735 33.9323 198.862 35.8044 196.223C36.4852 195.265 37.1447 194.243 37.9318 193.37C37.9106 193.541 37.868 193.711 37.8467 193.881C37.2085 198.308 36.6554 202.757 36.1661 207.227C35.9108 209.462 35.6768 211.718 35.5066 213.953C35.23 217.316 35.2513 220.423 36.6767 223.573C37.868 226.212 41.1017 227.213 43.8461 226.936C45.9735 226.723 47.5265 225.021 48.0796 223.02C49.1008 219.338 49.5475 215.485 49.4199 211.675C49.3561 209.738 49.1433 207.801 48.803 205.907C48.6328 204.97 48.3775 204.077 48.186 203.14C48.1222 202.799 47.8456 201.693 48.0584 201.416C48.2285 201.203 48.5051 201.097 48.7604 201.012C49.3774 200.799 50.0156 200.65 50.6325 200.437C52.8876 199.692 55.0363 198.436 57.0148 196.946C56.9722 198.117 57.0574 199.224 57.1212 200.245C57.2275 201.991 58.2062 203.31 60.057 204.162C62.2695 205.183 64.9501 205.503 67.2902 204.8C70.5877 203.821 73.7363 202.012 76.1829 199.564C77.8423 197.883 79.2463 195.988 80.8419 194.286C81.8631 193.2 83.8416 190.646 84.7138 188.922C85.9265 190.88 87.7986 192.455 89.6707 193.668C89.9473 193.86 90.2877 194.094 90.2877 194.435C90.2877 194.626 90.2026 194.796 90.0962 194.945C89.0325 196.648 87.5007 198.117 86.2668 199.713C84.9691 201.416 83.7352 203.161 82.7991 205.098C81.9907 206.758 81.6503 209.015 83.565 210.036C84.9053 210.76 86.671 210.419 88.0113 209.887C90.3089 208.972 92.3087 207.482 94.1383 205.822C95.0531 204.992 95.9253 204.098 96.7976 203.204C97.5209 202.48 98.3719 201.905 98.6272 200.841C98.9037 199.692 98.3293 198.5 97.5847 197.563C97.0316 196.882 96.3934 196.265 95.8615 195.584C95.4998 195.116 94.8191 194.733 94.8829 194.073C94.9467 193.541 95.5211 193.094 95.9253 192.817C100.584 189.539 105.095 186.091 109.477 182.451C109.307 183.345 109.158 184.239 108.988 185.452C108.307 190.412 107.371 196.074 108.945 200.969C109.371 202.289 110.137 203.566 111.285 204.374C114.051 206.311 116.944 204.077 118.476 201.693C120.348 198.734 122.199 195.754 123.603 192.54C124.22 191.157 124.731 189.709 125.496 188.39C125.879 187.73 126.518 186.921 126.199 186.134H126.347ZM64.6522 189.539C65.6309 187.538 66.6733 185.538 67.7583 183.579C68.4816 182.281 69.2049 180.983 70.0772 179.77C70.7579 178.833 71.5664 177.492 72.8215 177.364C73.1194 177.343 73.3747 177.471 73.5874 177.79C73.8002 178.088 73.9703 178.45 74.0767 178.854C74.1831 179.259 74.2682 179.642 74.332 180.025C74.3958 180.408 74.4384 180.685 74.4384 180.834C74.5448 181.323 74.5448 182.92 73.8852 183.856C73.8852 184.026 73.5661 184.388 72.9705 184.984C72.3535 185.559 71.6727 186.197 70.9281 186.836C70.1623 187.496 69.4177 188.071 68.6943 188.581C67.971 189.092 66.6733 189.752 66.0776 190.135C65.4819 190.497 65.0564 190.689 64.8224 190.71C64.6097 190.71 64.5033 190.646 64.4608 190.497C64.3544 190.199 64.5459 189.688 64.6522 189.497V189.539ZM44.8885 185.24C46.8032 177.428 49.3348 169.766 52.76 162.465C52.8025 162.38 52.8876 162.359 52.9727 162.359C53.4833 163.189 52.8663 164.423 52.6961 165.275C52.4621 166.467 52.1856 167.637 51.8877 168.808C51.292 171.149 50.6113 173.469 49.8241 175.768C49.1221 177.811 48.3562 179.812 47.5052 181.792C47.0797 182.792 46.633 183.771 46.1862 184.75C46.0586 185.027 45.3778 186.9 45.08 186.942C44.7183 186.985 44.5481 186.857 44.5694 186.581C44.6332 186.24 44.7396 185.793 44.8885 185.218V185.24ZM42.442 223.211C41.9527 223.85 41.357 224.105 40.9953 223.233C40.4209 221.828 40.2933 220.274 40.2294 218.763C40.1018 215.23 40.2294 211.696 40.7188 208.184C41.0804 205.566 41.3995 202.608 42.6547 200.245C43.378 200.181 44.3566 202.523 44.5481 203.034C44.9098 204.077 45.08 205.162 45.1863 206.269C45.1863 206.418 45.2076 206.546 45.2289 206.695C45.6331 211.931 45.7607 218.763 42.4632 223.19L42.442 223.211ZM94.1596 200.054C93.5426 201.054 92.7767 201.863 91.9896 202.736C90.9897 203.842 89.8835 204.821 88.6708 205.673C87.8624 206.248 87.5433 205.183 87.5646 204.545C87.5646 203.31 88.1177 202.161 88.7772 201.097C89.4154 200.054 90.1813 199.075 90.7131 197.968C90.8833 197.606 91.0535 197.202 91.3301 196.904C92.4576 195.648 93.5001 197.585 94.0745 198.415C94.0745 198.415 94.0745 198.436 94.0957 198.457C94.3085 198.755 94.4787 199.096 94.4361 199.436C94.4149 199.671 94.2872 199.862 94.1808 200.075L94.1596 200.054Z" fill="black"/>
<path d="M140.835 180.28C140.41 179.897 140.091 179.259 140.346 178.748C140.431 178.556 140.601 178.429 140.75 178.301C141.665 177.577 142.601 177.088 142.941 175.874C143.069 175.449 143.048 174.959 142.75 174.64C142.516 174.406 142.154 174.342 141.835 174.299C140.282 174.129 138.58 174.959 137.091 174.512C136.453 174.321 135.921 173.874 135.368 173.512C133.24 172.107 129.347 171.405 127.198 173.15C125.879 174.214 126.369 176.151 126.815 177.513C127.369 179.195 128.39 180.876 129.645 182.111C129.922 182.388 130.241 182.749 130.156 182.856C129.602 183.558 128.283 186.304 127.943 187.198C127.241 189.113 125.922 192.796 126.241 195.797C126.496 198.223 129.134 199.628 131.389 199.607C132.9 199.607 134.41 199.33 135.793 198.713C137.729 197.861 139.325 196.35 140.516 194.605C142.048 192.391 143.239 189.752 143.58 187.07C143.75 185.772 143.686 184.431 143.218 183.196C142.729 181.919 141.771 181.153 140.814 180.259L140.835 180.28ZM129.347 179.003C129.007 177.939 128.943 176.79 129.198 175.704C129.326 175.193 129.539 174.768 129.836 174.47C130.347 173.959 131.113 173.831 131.985 174.236C132.836 174.619 133.942 175.449 134.113 176.428C134.176 176.832 133.879 177.322 133.623 177.662C132.794 178.748 132.304 179.663 131.623 180.749C131.538 180.898 131.368 181.004 131.198 180.983C130.347 180.919 129.624 179.748 129.368 179.003H129.347ZM131.687 197.372C131.432 197.436 131.155 197.5 130.921 197.393C130.56 197.244 130.432 196.776 130.39 196.372C130.134 194.371 130.624 192.519 131.368 190.667C132.751 187.283 134.751 184.282 136.389 181.047C136.602 180.621 136.772 180.387 136.899 180.366L136.942 180.429C137.495 181.6 137.984 182.835 138.367 184.09C138.708 185.218 138.963 186.368 139.048 187.538C139.389 191.646 135.517 196.223 131.687 197.308V197.372Z" fill="black"/>
<path d="M165.684 171.192C165.599 170.638 165.045 170.234 164.492 170.149C163.939 170.064 163.365 170.234 162.833 170.447C160.216 171.511 158.153 173.618 156.642 175.981C155.132 178.365 154.43 181.047 153.174 183.537C153.047 182.026 153.536 180.28 153.876 178.812C154.217 177.3 154.408 175.896 154.727 174.384C155.004 173.065 155.451 171.681 155.706 170.34C155.898 169.297 156.174 168.318 155.578 167.339C155.153 166.658 154.302 166.211 153.536 166.467C152.409 166.85 152.238 168.233 151.919 169.212C151.472 170.596 151.068 171.979 150.728 173.384C150.047 176.151 149.579 178.961 149.196 181.791C149.026 183.026 148.898 184.26 148.771 185.495C148.664 186.58 148.558 187.666 148.452 188.752C148.281 190.71 148.452 193.157 147.388 194.903C147.09 195.392 146.665 195.924 146.558 196.499C146.388 197.35 147.196 197.585 147.877 197.883C148.579 198.202 149.345 198.542 150.111 198.415C150.898 198.287 151.558 197.712 151.962 197.031C152.855 195.52 153.196 193.477 153.706 191.816C154.259 190.007 154.855 188.198 155.493 186.431C156.791 182.834 158.344 179.322 160.471 176.13C161.025 175.278 161.642 174.47 162.429 173.831C163.322 173.107 165.896 172.746 165.641 171.17L165.684 171.192Z" fill="black"/>
<path d="M189.021 177.811C186.596 178.152 184.384 181.43 182.916 183.239C181.363 185.176 179.873 187.177 178.001 188.816C175.874 190.689 169.343 194.307 168.513 189.369C168.194 187.453 168.364 185.474 169.002 183.643C169.215 183.047 169.236 182.451 169.875 182.132C170.492 181.813 171.598 181.877 172.321 181.728C174.023 181.345 175.874 180.408 177.427 179.599C179.448 178.556 181.895 177.003 183.171 175.066C184.852 172.49 184.703 167.85 182.065 165.977C179.065 163.849 175.023 164.934 172.555 167.339C171.257 168.616 170.258 170.149 169.258 171.66C167.534 174.257 165.747 176.875 164.599 179.77C163.407 182.728 163.152 185.921 163.365 189.071C163.514 191.136 164.471 192.711 166.364 193.583C169.683 195.137 173.491 194.754 176.725 193.158C179.108 191.987 181.129 190.114 182.937 188.092C183.639 187.326 184.298 186.538 184.937 185.751C185.894 184.58 186.83 183.367 187.724 182.153C188.49 181.132 189.681 179.961 190 178.705C190.128 178.237 189.468 177.726 189.043 177.79L189.021 177.811ZM171.577 176.854C172.342 175.449 177.469 164.998 179.618 166.999C179.895 167.254 180.022 167.616 180.15 167.978C180.448 168.872 180.682 169.787 180.703 170.702C180.788 173.257 178.852 174.81 177.065 176.3C175.47 177.641 173.704 178.769 171.874 179.77C171.47 180.004 170.896 180.153 170.64 179.919C170.023 179.323 171.279 177.407 171.577 176.832V176.854Z" fill="black"/>
<path d="M27.9118 213.399C26.0184 214.676 15.4877 217.911 11.1264 218.55C8.70119 218.891 6.68014 217.933 5.7228 215.506C5.25476 214.293 5.29731 213.25 5.42496 211.973C6.16956 204.885 7.48856 197.776 9.44578 190.901C9.78617 189.709 10.1478 188.517 10.5308 187.347C12.1476 182.451 13.9346 177.62 15.5302 172.724C16.445 169.915 17.3172 167.105 18.1895 164.274C18.1895 164.274 18.3384 163.913 17.2321 162.444C15.828 160.635 15.9344 160.72 14.9984 160.656C13.6794 160.571 13.2751 161.827 13.2751 161.827C13.2751 161.827 8.78628 174.661 4.82928 187.07C3.44646 191.391 2.29765 195.818 1.42541 200.267C0.680809 204.119 0.0638566 208.057 -0.0212402 211.973C-0.0212402 212.505 -0.0212402 213.016 0.0213082 213.548C0.148953 215.379 0.744631 217.72 2.2551 218.912C3.78684 220.125 5.74407 220.615 7.68002 220.764C8.59482 220.827 9.50961 220.827 10.4244 220.806C12.9773 220.721 15.7642 220.317 18.2108 219.529C21.7423 218.38 25.9333 216.4 28.0607 215.23C30.1669 214.038 32.2517 212.697 31.9539 212.314C31.6561 211.952 29.8903 212.08 27.9118 213.42V213.399Z" fill="black"/>
</g>
<defs>
<clipPath id="clip0_2298_1718">
<rect width="190" height="227" fill="black"/>
</clipPath>
</defs>
</svg>
