<svg width="20" height="20" viewBox="0 0 20 20" fill="none" xmlns="http://www.w3.org/2000/svg">
<g id="twemoji:flag-thailand" clip-path="url(#clip0_4415_1772)">
<path id="Vector" d="M0 14.7322V15C0 15.5893 0.234126 16.1546 0.650874 16.5713C1.06762 16.9881 1.63285 17.2222 2.22222 17.2222H17.7778C18.3671 17.2222 18.9324 16.9881 19.3491 16.5713C19.7659 16.1546 20 15.5893 20 15V14.7322H0Z" fill="#A7122D"/>
<path id="Vector_2" d="M0 12.3228H20V14.8144H0V12.3228Z" fill="#EEEEEE"/>
<path id="Vector_3" d="M0 7.50708H20V12.4076H0V7.50708Z" fill="#292648"/>
<path id="Vector_4" d="M0 5.10059H20V7.59225H0V5.10059Z" fill="#EEEEEE"/>
<path id="Vector_5" d="M0 5.18505V5.00005C0 4.41068 0.234126 3.84545 0.650874 3.42871C1.06762 3.01196 1.63285 2.77783 2.22222 2.77783H17.7778C18.3671 2.77783 18.9324 3.01196 19.3491 3.42871C19.7659 3.84545 20 4.41068 20 5.00005V5.18505H0Z" fill="#A7122D"/>
</g>
<defs>
<clipPath id="clip0_4415_1772">
<rect width="20" height="20" fill="white"/>
</clipPath>
</defs>
</svg>
