<svg width="46" height="40" viewBox="0 0 46 40" fill="none" xmlns="http://www.w3.org/2000/svg">
<path d="M0.5 36.2799L0.509351 34.7017H5.54V36.2799H5.30156C5.22675 35.7116 4.99299 35.3405 4.62831 35.1386C4.4226 35.0258 4.10468 34.9695 3.68857 34.9507V39.0794C3.68857 39.3612 3.74935 39.5538 3.85221 39.6477C3.95507 39.7558 4.18416 39.7933 4.52545 39.7933V39.9953H1.54727V39.7933C1.87922 39.7933 2.09429 39.7558 2.20182 39.643C2.30935 39.5538 2.36545 39.3612 2.36545 39.0794V34.9507C1.96338 34.9695 1.6361 35.0258 1.43039 35.1386C1.02831 35.3405 0.803896 35.7257 0.747792 36.2799H0.5Z" fill="black"/>
<path d="M5.8813 39.9953V39.7933C6.10104 39.7839 6.26 39.7558 6.35351 39.7088C6.50312 39.6242 6.58727 39.4739 6.58727 39.2532V35.458C6.58727 35.2231 6.50779 35.0775 6.38156 34.9976C6.29273 34.9507 6.12442 34.9131 5.8813 34.9037V34.7017H8.7052V34.9037C8.4574 34.9131 8.28909 34.946 8.19091 34.9836C8.0413 35.0681 7.95714 35.2231 7.95714 35.458V37.0737H9.94416V35.458C9.94416 35.2231 9.87403 35.0775 9.71974 34.9883C9.62623 34.946 9.45325 34.9178 9.20078 34.9037V34.7017H12.0434V34.9037C11.8003 34.9178 11.6319 34.9507 11.5478 34.9883C11.3982 35.0775 11.3187 35.2231 11.3187 35.458V39.2532C11.3187 39.4739 11.4075 39.6289 11.5665 39.7135C11.6647 39.7558 11.8283 39.7886 12.0434 39.7933V39.9953H9.20078V39.7933C9.43922 39.7839 9.60753 39.7558 9.71507 39.7041C9.86935 39.6242 9.93948 39.4692 9.93948 39.2532V37.4354H7.95247V39.2532C7.95247 39.4739 8.03662 39.6289 8.20494 39.7135C8.30312 39.7558 8.46208 39.7886 8.70052 39.7933V39.9953H5.87662H5.8813Z" fill="black"/>
<path d="M17.1862 39.9953H12.3052V39.7933C12.5483 39.7839 12.7213 39.7558 12.8148 39.7041C12.9691 39.6242 13.0486 39.4692 13.0486 39.2532V35.458C13.0486 35.2231 12.9691 35.0681 12.8055 34.9836C12.7213 34.9507 12.5483 34.9131 12.3052 34.9037V34.7017H17.1161V36.2799H16.9151C16.8029 35.768 16.6345 35.4251 16.3681 35.2372C16.1249 35.0493 15.6574 34.9695 14.9888 34.9695C14.7317 34.9695 14.5681 34.9836 14.4932 35.0352C14.4278 35.0916 14.3951 35.1949 14.3951 35.3405V37.1489C14.8719 37.1677 15.1945 37.0737 15.3582 36.9046C15.5218 36.7402 15.6527 36.4349 15.7462 35.9934H15.9613V38.6426H15.7462C15.6901 38.201 15.5686 37.8863 15.3862 37.7031C15.1992 37.52 14.8719 37.426 14.3951 37.426V39.3189C14.3951 39.488 14.4371 39.6055 14.5307 39.6618C14.6195 39.7229 14.8112 39.7464 15.087 39.7464C15.62 39.7464 16.0595 39.6524 16.3961 39.4504C16.7374 39.272 17.0366 38.915 17.2984 38.3748H17.5229L17.1862 40V39.9953Z" fill="black"/>
<path d="M21.0621 39.9953V39.7933C21.3753 39.7933 21.5904 39.737 21.6792 39.6383C21.7727 39.5397 21.8195 39.3753 21.8195 39.1686V35.458C21.8195 35.2372 21.7634 35.0963 21.6558 35.0305C21.5436 34.9648 21.3566 34.9178 21.0761 34.9037V34.7017H23.1753L24.821 38.3232H24.8912L26.5182 34.7017H28.6174V34.9037C28.3322 34.9178 28.1405 34.9695 28.047 35.0399C27.9488 35.1245 27.8881 35.3124 27.8881 35.6177V39.0794C27.8881 39.3612 27.9488 39.5538 28.047 39.643C28.1405 39.7323 28.3369 39.7839 28.6174 39.7933V39.9953H25.8449V39.7933C26.0974 39.7839 26.2797 39.7558 26.4107 39.6806C26.5322 39.6101 26.593 39.4457 26.593 39.2109V35.3969H26.5322L24.4891 39.9906H24.2647L22.1935 35.472H22.1608V39.0277C22.1608 39.2814 22.2122 39.4692 22.3151 39.5961C22.4273 39.7135 22.647 39.7745 23.0023 39.7886V39.9906H21.0574L21.0621 39.9953Z" fill="black"/>
<path d="M31.1514 36.3315H31.2216L32.021 38.1493H30.3987L31.1561 36.3315H31.1514ZM30.5951 39.9952V39.7932C30.4034 39.7932 30.2584 39.7744 30.1649 39.7556C30.006 39.704 29.9265 39.61 29.9265 39.5067C29.9265 39.4034 29.9592 39.2624 30.0387 39.0605C30.0668 38.9712 30.1509 38.7693 30.2725 38.4546H32.1426L32.367 38.9337C32.4044 39.0323 32.4465 39.1262 32.4699 39.192C32.5166 39.3188 32.54 39.4081 32.54 39.4738C32.54 39.6053 32.4933 39.6946 32.3997 39.7275C32.3203 39.7603 32.1379 39.7791 31.8714 39.7885V39.9905H34.5691V39.7885C34.3821 39.7885 34.2371 39.7322 34.1296 39.5959C34.0268 39.4597 33.8678 39.1638 33.6574 38.6941L31.8013 34.5795H31.5675L29.7161 38.8726C29.5665 39.2108 29.4543 39.4315 29.3748 39.5255C29.2533 39.6852 29.099 39.765 28.8933 39.7838V39.9858H30.5951V39.9952Z" fill="black"/>
<path d="M34.8309 39.9953V39.7933C35.0647 39.7839 35.2283 39.7558 35.3218 39.7135C35.4901 39.6289 35.579 39.4739 35.579 39.2532V35.458C35.579 35.2231 35.4901 35.0681 35.3312 34.9836C35.2423 34.9507 35.0787 34.9131 34.8309 34.9037V34.7017H37.7483V34.9037C37.407 34.9037 37.1826 34.9507 37.0751 35.0305C36.9582 35.1151 36.9068 35.3077 36.9068 35.6224V39.3142C36.9068 39.488 36.9535 39.6054 37.047 39.6712C37.1452 39.7182 37.3322 39.7417 37.6127 39.7417C38.113 39.7417 38.5338 39.643 38.8797 39.427C39.2164 39.225 39.5109 38.8257 39.7634 38.2198H40.0018L39.6605 39.9953H34.8309Z" fill="black"/>
<path d="M40.3197 39.9953V39.7933C40.5442 39.7839 40.7078 39.7558 40.806 39.7135C40.9696 39.6289 41.0584 39.4739 41.0584 39.2532V35.458C41.0584 35.2231 40.979 35.0681 40.8247 34.9836C40.7312 34.9507 40.5582 34.9131 40.3197 34.9037V34.7017H43.2371V34.9037C42.8912 34.9037 42.6668 34.9507 42.5592 35.0305C42.4423 35.1151 42.3862 35.3077 42.3862 35.6224V39.3142C42.3862 39.488 42.4377 39.6054 42.5265 39.6712C42.6294 39.7182 42.8117 39.7417 43.0969 39.7417C43.6065 39.7417 44.0179 39.643 44.3546 39.427C44.7005 39.225 44.9951 38.8257 45.2429 38.2198H45.486L45.1494 39.9953H40.3151H40.3197Z" fill="black"/>
<path d="M38.5338 21.9634C38.8423 19.7182 39.2725 17.8206 39.6512 16.1391C39.726 15.7962 39.8008 15.4674 39.8756 15.148C40.3618 12.9357 40.8995 11.0334 41.3717 9.35182C41.9561 7.28042 42.461 5.48615 42.7322 3.67779C42.966 2.12307 42.8117 0.901833 42.3114 0.319399C42.0823 0.0516677 41.8439 0 41.6896 0H32.4091C32.007 0 31.5909 0.347581 31.0299 1.16956C30.7681 1.55003 30.3707 2.18413 29.8564 3.16111C29.5244 0.868954 29.113 0 28.3977 0H19.1218C18.7151 0 18.3036 0.347581 17.7426 1.16956C17.4808 1.55003 17.0834 2.18413 16.5691 3.15642C16.2371 0.864257 15.8257 0 15.1104 0H5.82519C5.42311 0 5.01636 0.338187 4.44597 1.16956C4.1748 1.56412 3.67922 2.34852 2.98259 3.72476C2.25324 5.16206 1.44909 6.97981 0.504673 9.44107H7.05948C7.05013 11.6299 6.89117 13.7811 6.58727 15.8384C5.9187 20.357 4.72182 23.8798 3.63714 26.7309C3.4361 27.2617 3.23506 27.7502 3.0387 28.2199C2.60857 29.2485 2.27195 30.0658 2.20182 30.7328C2.15039 31.2213 2.32337 31.5266 2.47766 31.6957C2.68337 31.9258 2.98727 32.0527 3.32857 32.0527H12.6091C13.1561 32.0527 13.8153 31.4796 14.6849 30.2537C14.914 29.9343 15.1478 29.582 15.3816 29.2015C15.3769 29.3472 15.3722 29.4881 15.3816 29.6196C15.4236 31.4139 16.0782 32.0574 16.6252 32.0574H25.9057C26.4527 32.0574 27.1119 31.4843 27.9816 30.2584C28.2106 29.939 28.4444 29.582 28.6829 29.1968C28.6782 29.3472 28.6735 29.4881 28.6829 29.6196C28.7249 31.4139 29.3795 32.0574 29.9265 32.0574H39.2023C39.7494 32.0574 40.4086 31.4843 41.2782 30.2584C41.9281 29.3472 42.6621 28.1071 43.3914 26.6651C44.1021 25.256 44.8221 23.6496 45.5 21.9634H38.5338ZM13.7779 0.319399H15.1057C14.8439 0.319399 14.4932 0.615314 13.9883 1.35275C13.1982 2.50353 11.8704 4.9366 10.2481 9.12167H8.92026C10.5426 4.9366 11.8657 2.50353 12.6605 1.35275C13.1655 0.615314 13.5161 0.319399 13.7779 0.319399ZM0.981556 9.12167C2.60389 4.9366 3.92701 2.50353 4.71714 1.35275C5.22208 0.615314 5.5774 0.319399 5.83454 0.319399H7.15766C6.89584 0.319399 6.54519 0.615314 6.04026 1.35275C5.25013 2.50353 3.92234 4.9366 2.30467 9.12167H0.981556ZM3.62779 9.12167C5.25013 4.9366 6.57325 2.50353 7.36337 1.35275C7.86831 0.615314 8.21896 0.319399 8.48078 0.319399H9.80857C9.54675 0.319399 9.1961 0.615314 8.69117 1.35275C7.90104 2.50353 6.57325 4.9366 4.95091 9.12167H3.62779ZM6.27402 9.12167C7.89636 4.9366 9.21948 2.50353 10.0096 1.35275C10.5145 0.615314 10.8652 0.319399 11.127 0.319399H12.4501C12.1883 0.319399 11.8377 0.615314 11.3327 1.35275C10.5379 2.50353 9.2148 4.9366 7.59247 9.12167H6.26935H6.27402ZM4.65636 31.7379H3.32857C3.88493 31.7379 4.65636 30.7657 5.1426 30.0705C6.49376 28.1635 7.87298 25.3875 9.14935 22.2828C11.1738 17.3556 12.4081 13.9127 14.2688 9.11697C15.8912 4.9319 17.2143 2.49883 18.0091 1.34805C18.514 0.610617 18.8647 0.314702 19.1265 0.314702H20.4496C20.1878 0.314702 19.8371 0.610617 19.3322 1.34805C18.5374 2.49883 17.2143 4.9319 15.5919 9.11697C13.7358 13.9127 12.5016 17.3556 10.4725 22.2828C9.1961 25.3875 7.81688 28.1635 6.46571 30.0705C5.9748 30.761 5.20337 31.7379 4.64701 31.7379H4.65636ZM5.97948 31.7379C6.53117 31.7379 7.30727 30.7657 7.79818 30.0705C9.14935 28.1635 10.5286 25.3875 11.8049 22.2828C13.8293 17.3556 15.0636 13.9127 16.9244 9.11697C18.5468 4.9319 19.8699 2.49883 20.66 1.34805C21.1649 0.610617 21.5203 0.314702 21.7774 0.314702H23.1005C22.8387 0.314702 22.4881 0.610617 21.9831 1.34805C21.1883 2.49883 19.8652 4.9319 18.2475 9.11697C16.3868 13.9127 15.1571 17.3556 13.1281 22.2828C11.8517 25.3875 10.4771 28.1635 9.1213 30.0705C8.63039 30.761 7.85896 31.7379 7.30727 31.7379H5.97948ZM8.62104 31.7379C9.1774 31.7379 9.94883 30.7657 10.4397 30.0705C11.7909 28.1635 13.1701 25.3875 14.4465 22.2828C16.4709 17.3556 17.7099 13.9127 19.566 9.11697C21.1883 4.9319 22.5114 2.49883 23.3062 1.34805C23.8112 0.610617 24.1618 0.314702 24.4236 0.314702H25.7514C25.4896 0.314702 25.139 0.610617 24.634 1.34805C23.8392 2.49883 22.5161 4.9319 20.8938 9.11697C19.0377 13.9127 17.8034 17.3556 15.7743 22.2828C14.4979 25.3875 13.1234 28.1635 11.7675 30.0705C11.2766 30.761 10.5052 31.7379 9.9535 31.7379H8.62104ZM14.4138 30.0705C13.9229 30.761 13.1514 31.7379 12.5997 31.7379H11.2766C11.833 31.7379 12.6044 30.7657 13.0906 30.0705C14.4418 28.1635 15.821 25.3875 17.0974 22.2828C19.1265 17.3556 20.3561 13.9127 22.2169 9.11697C23.8392 4.9319 25.1623 2.49883 25.9571 1.34805C26.4621 0.610617 26.8127 0.314702 27.0745 0.314702H28.3977C28.1358 0.314702 27.7852 0.610617 27.2803 1.34805C26.4901 2.49883 25.1623 4.9319 23.5447 9.11697C21.6886 13.9127 20.4496 17.3556 18.4252 22.2828C17.1488 25.3875 15.7696 28.1635 14.4184 30.0705H14.4138ZM16.6205 31.7379C17.1769 31.7379 17.9483 30.7657 18.4392 30.0705C19.7904 28.1635 21.1696 25.3875 22.446 22.2828C24.4704 17.3556 25.7047 13.9127 27.5655 9.11697C29.1878 4.9319 30.5109 2.49883 31.3057 1.34805C31.8106 0.610617 32.1613 0.314702 32.4231 0.314702H33.7509C33.4891 0.314702 33.1384 0.610617 32.6335 1.34805C31.8434 2.49883 30.5156 4.9319 28.8979 9.11697C27.0371 13.9127 25.8029 17.3556 23.7784 22.2828C22.5021 25.3875 21.1229 28.1635 19.7717 30.0705C19.2808 30.761 18.5094 31.7379 17.953 31.7379H16.6205ZM20.5945 31.7379H19.2668C19.8231 31.7379 20.5945 30.7657 21.0808 30.0705C22.4366 28.1635 23.8112 25.3875 25.0875 22.2828C27.1119 17.3556 28.3462 13.9127 30.207 9.11697C31.8294 4.9319 33.1525 2.49883 33.9426 1.34805C34.4475 0.610617 34.7982 0.314702 35.06 0.314702H36.3831C36.126 0.314702 35.7706 0.610617 35.2657 1.34805C34.4756 2.49883 33.1478 4.9319 31.5301 9.11697C29.674 13.9127 28.4397 17.3556 26.4107 22.2828C25.1343 25.3875 23.7551 28.1635 22.4039 30.0705C21.913 30.761 21.1416 31.7379 20.5899 31.7379H20.5945ZM23.2455 31.7379H21.9177C22.474 31.7379 23.2455 30.7657 23.7364 30.0705C25.0875 28.1635 26.4668 25.3875 27.7431 22.2828C29.7675 17.3556 31.0065 13.9127 32.8626 9.11697C34.4849 4.9319 35.8081 2.49883 36.6029 1.34805C37.1078 0.610617 37.4584 0.314702 37.7203 0.314702H39.0434C38.7816 0.314702 38.4309 0.610617 37.926 1.34805C37.1312 2.49883 35.8081 4.9319 34.1857 9.11697C32.3296 13.9127 31.0953 17.3556 29.0662 22.2828C27.7899 25.3875 26.4107 28.1635 25.0595 30.0705C24.5686 30.761 23.7971 31.7379 23.2455 31.7379ZM27.7104 30.0705C27.2195 30.761 26.4481 31.7379 25.8964 31.7379H24.5686C25.1249 31.7379 25.8964 30.7657 26.3873 30.0705C27.7384 28.1635 29.1177 25.3875 30.394 22.2828C32.4184 17.3556 33.6527 13.9127 35.5135 9.11697C37.1358 4.9319 38.459 2.49883 39.2491 1.34805C39.754 0.610617 40.1047 0.314702 40.3665 0.314702H41.6943C41.4325 0.314702 41.0818 0.610617 40.5769 1.34805C39.7868 2.49883 38.459 4.9319 36.8413 9.11697C34.9852 13.9127 33.7509 17.3556 31.7218 22.2828C30.4455 25.3875 29.0709 28.1635 27.7151 30.0705H27.7104ZM29.9125 31.7379C30.4688 31.7379 31.2403 30.7657 31.7265 30.0705C33.0823 28.1635 34.4569 25.3875 35.7332 22.2828H37.061C35.7847 25.3875 34.4101 28.1635 33.0543 30.0705C32.5634 30.761 31.7919 31.7379 31.2403 31.7379H29.9125ZM33.8818 31.7379H32.554C33.1104 31.7379 33.8818 30.7657 34.3727 30.0705C35.7286 28.1635 37.1031 25.3875 38.3795 22.2828H39.7026C38.4262 25.3875 37.0517 28.1635 35.6958 30.0705C35.2049 30.761 34.4335 31.7379 33.8818 31.7379ZM36.528 31.7379H35.2049C35.7613 31.7379 36.5327 30.7657 37.019 30.0705C38.3748 28.1635 39.7494 25.3875 41.0257 22.2828H42.3535C41.0771 25.3875 39.6979 28.1635 38.3468 30.0705C37.8558 30.761 37.0844 31.7379 36.528 31.7379ZM40.993 30.0705C40.5021 30.761 39.7307 31.7379 39.179 31.7379H37.8558C38.4122 31.7379 39.179 30.7657 39.6745 30.0705C41.0257 28.1635 42.4049 25.3875 43.6766 22.2828H45.0044C43.7281 25.3875 42.3535 28.1635 40.9977 30.0705H40.993Z" fill="black"/>
</svg>
